<svg width="101" height="91" viewBox="0 0 101 91" fill="none" xmlns="http://www.w3.org/2000/svg">
<g clip-path="url(#clip0_1238_4518)">
<path d="M68.0063 29.9839C67.5025 28.2798 66.9533 26.3629 66.3683 24.4541C64.5614 18.5539 62.2539 12.8648 58.8431 7.69565C57.6423 5.87457 56.2335 4.16559 54.7531 2.55895C52.7333 0.365859 50.1236 -0.292067 47.1971 0.112436C46.0353 0.271638 44.8474 0.429215 43.6872 0.356112C41.0255 0.187163 39.1519 1.53551 37.54 3.3777C36.9729 4.02426 36.5325 4.83651 36.2222 5.64389C34.7743 9.41601 32.6716 12.8421 30.5901 16.2649C28.3736 19.912 26.8234 23.7572 26.2319 27.9858C26.1718 28.4114 26.0548 28.8273 25.9817 29.1717C23.1657 29.5177 20.4162 29.7305 17.7156 30.2195C14.3519 30.8287 11.2466 32.216 8.37858 34.0663C5.57066 35.8777 3.78483 38.4151 3.05198 41.734C2.42312 44.5834 2.27525 47.4442 2.42475 50.3325C2.60512 53.8382 2.81474 57.3423 3.03736 60.8448C3.1771 63.033 3.36397 65.2196 3.53297 67.4061C3.59796 68.2476 3.38185 68.9153 2.79361 69.6122C1.19466 71.5032 0.634046 73.8376 0.492675 76.2484C0.456926 76.8592 0.79654 77.5788 1.16215 78.11C3.2031 81.0715 5.98339 83.1834 9.14555 84.8258C12.467 86.551 16.0532 87.4542 19.698 88.1349C28.476 89.7757 37.3223 90.7292 46.266 90.3865C52.2182 90.159 58.1639 89.7399 64.1161 89.5027C68.003 89.3484 71.8964 89.3744 75.7865 89.3062C79.4443 89.2428 83.0647 88.7522 86.534 87.6443C88.4108 87.0449 90.169 85.9629 91.8492 84.894C93.5879 83.7893 95.2015 82.4735 96.8037 81.1706C97.3675 80.7125 97.9314 80.0838 98.1589 79.4178C99.051 76.8137 99.9008 74.1885 100.59 71.5243C101.349 68.5937 100.967 65.6695 100.084 62.8055C99.7156 61.6083 99.3126 60.4191 98.8982 59.2365C98.2385 57.3553 97.5528 55.5358 97.4764 53.4549C97.3854 50.9694 96.0985 48.7714 94.6945 46.7586C93.9308 45.6637 93.6025 44.5623 93.5976 43.2692C93.5944 42.3318 93.4514 41.3945 93.3588 40.4588C93.1183 37.9895 91.7923 36.1863 89.6165 35.1872C87.3513 34.1475 85.0146 33.1144 82.5967 32.5864C77.834 31.5435 72.9965 30.8514 68.003 29.9807L68.0063 29.9839ZM82.2782 80.386C75.767 80.3324 69.5646 79.9409 63.1996 79.2277C63.1996 77.9703 63.1509 76.9128 63.2078 75.8617C63.562 69.2142 63.4661 62.5716 62.86 55.9436C62.2263 49.0183 61.5032 42.1028 60.8451 35.1791C60.7573 34.2629 60.8337 33.332 60.8337 32.2274C69.6345 33.2459 77.9737 35.3935 86.0904 39.0584C84.1859 41.1086 83.5278 43.5015 83.2532 46.0341C83.0371 48.0257 82.7527 50.0174 82.6747 52.0172C82.3465 60.5995 81.8379 69.1785 82.2717 77.7738C82.3123 78.5665 82.2766 79.3609 82.2766 80.386H82.2782ZM25.8224 30.278C25.7753 31.2575 25.7851 31.9431 25.7055 32.6189C25.0197 38.4021 24.3486 44.1854 23.6109 49.9622C22.8488 55.9274 22.0412 61.8877 21.9697 67.9146C21.9323 70.9849 21.9031 74.0569 21.9047 77.1272C21.9047 78.0808 21.6154 78.6071 20.5722 78.7728C17.6457 79.2342 14.7159 79.4324 11.7699 79.1026C10.4049 78.9499 9.03018 78.7566 7.70259 78.4122C6.51475 78.1035 6.20764 77.5788 6.22064 76.341C6.23039 75.3403 6.28727 74.3331 6.41076 73.3405C6.55376 72.1968 6.31164 71.292 5.37891 70.5073C4.9613 70.1564 4.65256 69.4806 4.60056 68.9234C4.39419 66.6816 4.3097 64.4284 4.17645 62.1785C3.97658 58.8027 3.75559 55.427 3.57684 52.0497C3.41597 49.0459 3.31522 46.0568 3.82708 43.0515C4.52094 38.9675 6.6545 35.9962 10.3025 34.1443C12.1403 33.2118 14.0432 32.3655 15.9931 31.7043C19.0919 30.6549 22.3385 30.4567 25.8224 30.2763V30.278ZM23.0129 78.0987C23.0129 76.3832 23.0535 74.5784 23.0064 72.7752C22.8179 65.7264 23.5069 58.7475 24.4331 51.7702C25.3317 44.996 26.0678 38.2007 26.8543 31.4119C27.2963 27.5991 27.7724 23.7767 29.5777 20.3295C32.2524 15.2236 35.3918 10.3745 37.7236 5.07207C39.4461 1.157 44.8978 0.162796 48.0632 3.18601C48.939 4.02263 49.6898 5.14842 50.1041 6.28557C51.487 10.0821 53.393 13.6202 55.4259 17.0707C58.2825 21.9215 59.3907 27.1557 59.6897 32.6904C59.953 37.5736 60.343 42.4553 60.8857 47.3158C61.7226 54.8032 62.4863 62.2873 62.3173 69.8364C62.2507 72.8271 62.171 75.8162 62.0979 78.8216C61.2074 78.9109 60.4648 78.9889 59.7222 79.0604C58.9309 79.1384 58.3784 78.8216 58.1298 78.0516C57.9754 77.5756 57.7918 77.0963 57.7235 76.6057C57.3401 73.8116 56.8396 71.0239 56.6576 68.2152C56.305 62.7698 56.1441 57.3131 55.8906 51.8612C55.5575 44.7069 54.7661 37.6143 53.0892 30.6321C52.0021 26.1062 51.4041 21.5186 51.539 16.84C51.6397 13.323 50.7444 10.0057 49.1357 6.88177C48.2842 5.22802 47.0655 3.90079 45.4925 2.90172C44.3193 2.15769 43.1315 2.1252 41.9371 2.83187C40.2797 3.81307 38.9797 5.15004 38.0697 6.8509C36.3863 10.0008 35.5169 13.3327 35.4064 16.9342C35.3187 19.8047 35.0099 22.6948 34.4965 25.5198C33.8578 29.0303 32.8423 32.4694 32.0996 35.9621C30.2456 44.7036 29.763 53.6059 29.1455 62.4871C28.8497 66.7466 28.4695 70.9866 27.605 75.1729C26.8998 78.5844 26.6853 78.7533 23.2729 78.2969C23.2193 78.2904 23.1738 78.2221 23.0145 78.097L23.0129 78.0987ZM27.9008 78.2238C29.9888 71.1393 29.9563 63.7802 30.6681 56.3773C31.4659 56.4261 32.1224 56.4651 32.8325 56.5089C32.8325 57.1961 32.8049 57.7517 32.8374 58.304C32.9186 59.6296 33.4646 60.7586 34.5631 61.4962C34.9709 61.7707 35.7672 61.9527 36.0954 61.735C36.5179 61.4556 36.799 60.7505 36.8608 60.1966C36.9176 59.6767 36.6544 59.0984 36.4513 58.5769C36.2092 57.9531 35.8842 57.3602 35.5072 56.5707C42.1419 56.431 48.5296 57.214 55.057 57.43C55.5396 64.6217 55.3657 71.6949 57.0557 78.5454C47.2117 79.2488 37.6407 78.7826 27.8975 78.2254L27.9008 78.2238ZM51.8607 30.7539C53.4402 35.1093 55.1366 48.4627 54.3696 50.8118C46.7324 50.4528 39.0642 50.0921 31.2222 49.7234C31.7665 43.1197 32.6944 36.7256 34.6021 30.3543C40.4308 30.2812 46.1685 29.8605 51.8607 30.7539ZM3.55735 70.392C5.35779 71.9304 5.37404 71.932 5.29766 73.9513C5.24729 75.2639 5.05555 76.5765 5.10105 77.8826C5.12218 78.5081 5.38217 79.2992 5.8209 79.7037C7.34674 81.1121 9.03668 82.3711 11.1247 82.7919C13.6434 83.2987 16.1784 83.8121 18.7312 84.0444C25.0392 84.6162 31.3538 85.2075 37.6781 85.4658C47.02 85.8476 56.3748 86.1709 65.7264 85.664C69.9854 85.4333 74.2396 85.1296 78.4921 84.7998C79.8635 84.6942 81.2236 84.4148 82.5837 84.1873C83.4774 84.0379 84.0364 85.4333 84.9805 84.7494C85.7069 84.2215 86.482 83.9713 87.327 83.7097C88.557 83.3296 89.883 82.8455 90.8206 82.0154C92.6113 80.4298 94.1046 78.4934 94.6214 76.081C95.1316 73.6979 95.52 71.279 95.7897 68.8568C96.1553 65.5704 96.3503 62.2646 96.6412 58.9701C96.6818 58.5087 96.8573 58.0603 96.9711 57.6055C97.9623 59.563 98.6285 61.566 99.2444 63.5837C99.9902 66.0253 100.239 68.5271 99.5905 71.0126C98.8804 73.7369 98.0468 76.4303 97.1758 79.1091C96.9971 79.6582 96.5031 80.1878 96.0172 80.5371C93.6253 82.2558 91.2122 83.9469 88.7537 85.5682C87.9818 86.0766 87.0783 86.499 86.1797 86.6777C83.2938 87.2512 80.3981 87.8896 77.4749 88.1316C74.1047 88.4111 70.6972 88.2242 67.3124 88.364C61.3569 88.6109 55.408 88.9813 49.4525 89.2477C40.0765 89.6684 30.7607 89.1291 21.5244 87.4022C17.9447 86.7329 14.3779 86.0247 11.0175 84.5512C7.6311 83.0664 4.63468 81.0488 2.35325 78.1003C1.95676 77.5886 1.56352 76.8819 1.5814 76.2776C1.64477 74.1934 2.13225 72.1985 3.55896 70.3887L3.55735 70.392ZM82.9883 83.1103C82.6406 83.1964 82.405 83.2711 82.1628 83.3117C75.4583 84.4131 68.679 84.6146 61.9127 84.7527C51.7486 84.9606 41.5894 84.6991 31.435 84.1142C24.8524 83.7341 18.3054 83.1655 11.83 81.8692C10.2846 81.5605 8.97982 80.9269 7.82285 79.832C10.7754 79.9831 13.5866 80.2593 16.3945 80.2284C18.5719 80.204 20.7428 79.7475 22.9235 79.5786C24.165 79.4828 25.4227 79.5819 26.6723 79.5916C30.3089 79.6225 33.9472 79.6322 37.5822 79.6891C40.7152 79.7394 43.8659 80.1001 46.9728 79.8645C51.6852 79.5055 56.3651 79.6712 61.0498 80.0075C65.0456 80.2934 69.0235 80.8392 73.0225 81.0423C76.3715 81.2112 79.7189 81.8334 83.2451 81.234C83.1492 81.926 83.0679 82.5173 82.9867 83.1103H82.9883ZM92.0588 48.6772C89.3451 52.1845 88.7017 56.314 88.2906 60.5166C88.0289 63.1938 87.9006 65.8954 87.4569 68.5433C86.8378 72.2358 86.651 76.1444 83.3556 79.0474C83.2564 75.6814 83.0273 72.4454 83.0939 69.2175C83.2093 63.5236 83.4206 57.8297 83.7586 52.1439C83.9324 49.2198 84.3354 46.2924 84.87 43.4105C85.3185 40.9932 86.9678 39.3281 89.0965 38.1682C90.7589 37.2617 91.5746 37.5395 92.0052 39.32C92.3562 40.7707 92.4618 42.2798 92.6601 43.7663C92.751 44.4567 92.4472 44.8921 91.8443 45.2933C89.8716 46.6108 89.8911 46.6839 91.651 48.1752C91.7452 48.2548 91.8102 48.3669 92.0621 48.6772H92.0588ZM47.3937 5.97042C47.8617 6.74369 48.1509 7.14656 48.3638 7.58681C49.7743 10.5028 50.6176 13.565 50.4974 16.8221C50.3511 20.7892 50.8516 24.688 51.5552 28.5755C51.6153 28.9118 51.5633 29.2675 51.5633 29.5843C47.6375 29.3942 43.8546 29.2107 39.9189 29.019C40.5624 20.7356 42.1467 12.9428 47.3937 5.97042ZM86.6737 77.7543C86.5908 77.6779 86.508 77.6016 86.4251 77.5252C86.7745 76.3442 87.1677 75.1746 87.4667 73.9805C88.5635 69.5911 89.0104 65.1107 89.3451 60.6108C89.6003 57.1669 90.0293 53.744 91.8931 50.7062C92.1287 50.3228 92.4667 50.0011 92.8729 49.5089C93.6171 50.7435 94.194 51.7816 94.8472 52.7677C95.8027 54.2086 96.4039 55.5862 95.8661 57.4625C95.3737 59.1796 95.5313 61.0706 95.2389 62.8575C94.4459 67.6937 91.8866 71.7111 89.0575 75.5628C88.4303 76.4173 87.4781 77.0314 86.6753 77.7543H86.6737ZM31.0792 50.8069C39.0934 51.1383 46.8819 51.4616 54.8587 51.7914V56.3822C46.8542 55.9875 38.8497 55.5927 30.7347 55.1915C30.8501 53.7359 30.9508 52.4477 31.0792 50.8069ZM62.7219 31.3242C62.5984 30.2601 62.5708 29.3211 62.3725 28.4179C61.4479 24.2055 60.5266 19.9916 59.5045 15.802C58.6514 12.3044 57.1694 9.07323 55.0375 6.14749C53.614 4.19483 51.8315 2.85461 49.4038 2.39812C48.8009 2.28441 48.2549 1.86366 47.3125 1.4023C50.1334 0.700509 52.176 1.39093 53.7229 3.06092C55.4567 4.93236 57.1093 6.93375 58.4661 9.08785C62.5432 15.5583 64.9936 22.724 66.9728 30.0603C67.1402 30.6825 67.0752 31.3664 67.1304 32.1949C65.4778 31.8684 64.0885 31.5954 62.7219 31.3258V31.3242ZM46.76 5.22314C41.1539 12.2946 39.5371 20.5764 38.8058 29.2334H35.0262C35.0831 28.6567 35.0993 28.1645 35.1822 27.6852C35.4796 25.96 35.9053 24.2494 36.071 22.5128C36.1848 21.3269 36.5845 20.3181 37.2816 19.4409C39.1129 17.1406 40.0392 14.426 41.0645 11.7342C41.8867 9.57683 42.8861 7.48609 43.8611 5.39047C44.1324 4.80889 44.6004 4.31829 45.0522 3.68148C45.733 4.29555 46.2237 4.73904 46.7584 5.22152L46.76 5.22314ZM50.3089 3.84718C51.9273 4.24519 52.4733 4.57172 53.5799 5.92818C55.4226 8.18625 56.8201 10.7107 57.6927 13.4838C59.2916 18.5636 60.577 23.7279 61.4431 28.9865C61.5682 29.7403 61.7291 30.5379 61.2026 31.4379C60.3836 30.6825 60.4843 29.8393 60.4145 29.0839C60.0456 25.1007 58.9618 21.3594 57.0053 17.8407C54.511 13.3571 52.0167 8.8653 50.3089 3.84556V3.84718ZM67.912 32.2485C68.2841 31.8375 68.4499 31.485 68.6595 31.4557C69.2087 31.3794 69.7872 31.3778 70.3348 31.4639C73.3686 31.9382 76.4186 32.3411 79.4199 32.9779C82.106 33.5481 84.7482 34.3441 87.379 35.1369C88.2126 35.3887 88.9519 35.954 89.9431 36.4885C89.3809 36.7955 89.0722 36.8962 88.8528 37.0944C87.5479 38.2706 86.2496 38.0188 84.727 37.4112C81.4121 36.0888 78.042 34.8867 74.6409 33.8064C72.5691 33.1485 70.3966 32.8106 67.912 32.2469V32.2485ZM86.4592 82.7594C86.4592 81.9569 86.5226 81.2047 86.4446 80.4688C86.3292 79.395 86.8817 78.8151 87.6357 78.1393C88.9324 76.9778 90.1739 75.7074 91.1992 74.3071C92.2668 72.8483 93.0468 71.1799 93.9649 69.609C94.168 69.2613 94.4166 68.9381 94.6425 68.6034C94.6262 70.8062 94.2964 72.8905 93.8999 74.9634C93.4335 77.4001 92.0377 79.3414 90.3477 81.0569C89.3256 82.095 88.0452 82.7561 86.4592 82.7594ZM36.6414 18.2225C36.2303 13.7177 37.3369 9.97971 39.4574 6.54387C40.0652 5.56104 41.0385 4.78128 41.9306 4.00639C42.3564 3.63762 42.9852 3.50116 43.5214 3.26074C43.1103 4.72604 42.4035 5.88432 41.877 7.11895C40.8435 9.53784 39.9189 12.0022 38.9326 14.4406C38.424 15.6996 37.9121 16.9619 36.6414 18.2209V18.2225ZM92.881 45.9545C94.8326 48.3474 95.9587 50.7046 95.9506 52.165C94.6149 50.3959 93.232 48.5667 91.8541 46.7359C91.8281 46.7018 91.8589 46.6254 91.8687 46.5019C92.1579 46.346 92.4781 46.1722 92.881 45.9545ZM85.1609 78.7566C85.7637 81.0537 85.5103 82.5108 84.3029 83.6529C84.0267 81.9 84.3127 80.3827 85.1609 78.7566ZM34.1568 56.9394C35.2082 58.1286 35.941 59.2219 35.7932 60.7375C34.0805 60.1803 33.5345 58.9847 34.1568 56.9394Z" fill="#84521D"/>
<path d="M82.279 80.3852C82.279 79.3617 82.3131 78.5657 82.2741 77.7729C81.8403 69.1777 82.3489 60.5986 82.6771 52.0163C82.7535 50.0182 83.0395 48.0249 83.2556 46.0333C83.5286 43.5007 84.1883 41.1061 86.0928 39.0576C77.9745 35.3927 69.6352 33.2451 60.8361 32.2266C60.8361 33.3312 60.7614 34.2621 60.8475 35.1783C61.504 42.102 62.2271 49.0175 62.8624 55.9428C63.4702 62.5708 63.5644 69.2118 63.2102 75.8609C63.1549 76.912 63.2021 77.9695 63.2021 79.2269C69.567 79.94 75.7694 80.3315 82.2806 80.3852H82.279Z" fill="white"/>
<path d="M25.8232 30.2773C22.3393 30.4577 19.0927 30.6559 15.9939 31.7053C14.044 32.3665 12.1411 33.2128 10.3033 34.1453C6.65529 35.9972 4.52335 38.9685 3.82787 43.0525C3.31764 46.0562 3.41839 49.0469 3.57763 52.0507C3.758 55.428 3.97737 58.8037 4.17724 62.1795C4.31049 64.4278 4.39498 66.6826 4.60135 68.9244C4.65335 69.4816 4.96209 70.1574 5.3797 70.5083C6.31242 71.293 6.55455 72.1978 6.41155 73.3415C6.28805 74.3341 6.23117 75.3413 6.22142 76.342C6.20842 77.5782 6.51554 78.1045 7.70338 78.4132C9.02934 78.7576 10.4041 78.9509 11.7706 79.1036C14.7167 79.4334 17.6465 79.2352 20.573 78.7738C21.6162 78.6098 21.9071 78.0834 21.9055 77.1282C21.9039 74.0579 21.9331 70.9859 21.9705 67.9156C22.042 61.8887 22.8496 55.9284 23.6117 49.9632C24.3494 44.1864 25.0189 38.4031 25.7063 32.6199C25.7859 31.9441 25.7777 31.2585 25.8232 30.279V30.2773Z" fill="white"/>
<path d="M23.0134 78.0987C23.1727 78.2254 23.2182 78.292 23.2718 78.2985C26.6858 78.7534 26.9003 78.5861 27.6039 75.1746C28.4684 70.9866 28.8486 66.7466 29.1444 62.4888C29.7619 53.6076 30.2445 44.7053 32.0986 35.9638C32.8395 32.4695 33.8551 29.0304 34.4954 25.5215C35.0105 22.6964 35.3192 19.8064 35.4053 16.9359C35.5142 13.3344 36.3852 10.0025 38.0686 6.85259C38.9786 5.15173 40.2769 3.81475 41.936 2.83355C43.1304 2.12689 44.3182 2.15775 45.4914 2.9034C47.0644 3.90248 48.2831 5.2297 49.1346 6.88345C50.7433 10.0058 51.6386 13.3246 51.5379 16.8417C51.403 21.5203 52.0026 26.1079 53.0881 30.6338C54.765 37.6159 55.5564 44.7085 55.8895 51.8629C56.143 57.3147 56.3039 62.7715 56.6565 68.2168C56.8385 71.0256 57.339 73.8133 57.7225 76.6074C57.7891 77.0996 57.9743 77.5773 58.1287 78.0532C58.3773 78.8233 58.9282 79.14 59.7211 79.0621C60.4637 78.989 61.2064 78.9126 62.0968 78.8233C62.1699 75.8179 62.2496 72.8288 62.3162 69.8381C62.4852 62.2906 61.7215 54.8065 60.8846 47.3175C60.3419 42.4586 59.9519 37.5753 59.6886 32.692C59.3897 27.1573 58.2814 21.9232 55.4248 17.0724C53.3919 13.6219 51.4859 10.0854 50.103 6.28726C49.6887 5.1501 48.9396 4.02594 48.0621 3.18769C44.8967 0.164481 39.445 1.15868 37.7225 5.07375C35.3907 10.3762 32.2513 15.2253 29.5766 20.3311C27.7697 23.7784 27.2952 27.6025 26.8532 31.4136C26.0651 38.2024 25.3306 44.9977 24.432 51.7719C23.5074 58.7476 22.8168 65.7281 23.0053 72.7768C23.0541 74.58 23.0118 76.3865 23.0118 78.1003L23.0134 78.0987Z" fill="white"/>
<path d="M27.9014 78.223C37.6446 78.7802 47.2156 79.2465 57.0596 78.5431C55.3696 71.6941 55.5435 64.6194 55.0609 57.4277C48.5334 57.2132 42.1457 56.4302 35.5111 56.5683C35.8881 57.3578 36.213 57.9508 36.4552 58.5746C36.6567 59.0961 36.9215 59.6744 36.8646 60.1942C36.8029 60.7466 36.5218 61.4532 36.0993 61.7326C35.7711 61.9487 34.9748 61.7684 34.567 61.4938C33.4685 60.7563 32.9225 59.6273 32.8413 58.3017C32.8071 57.7493 32.8364 57.1938 32.8364 56.5066C32.1279 56.4643 31.4714 56.4237 30.672 56.375C29.9602 63.7763 29.9927 71.1369 27.9047 78.2214L27.9014 78.223Z" fill="white"/>
<path d="M51.8614 30.7534C46.1691 29.8583 40.4298 30.2806 34.6027 30.3537C32.695 36.7267 31.7672 43.1191 31.2228 49.7228C39.0648 50.0915 46.7346 50.4522 54.3703 50.8112C55.1373 48.4622 53.4408 35.1087 51.8614 30.7534Z" fill="white"/>
<path d="M3.55779 70.3917C2.13108 72.203 1.64358 74.1963 1.58021 76.2805C1.56234 76.8848 1.95558 77.5915 2.35206 78.1032C4.6335 81.0533 7.62992 83.0693 11.0163 84.5541C14.3783 86.0276 17.9451 86.7359 21.5233 87.4052C30.7595 89.132 40.0754 89.6714 49.4514 89.2506C55.4052 88.9826 61.3558 88.6138 67.3112 88.3669C70.6976 88.2272 74.1035 88.4124 77.4737 88.1346C80.397 87.8925 83.2926 87.2541 86.1786 86.6806C87.0788 86.5019 87.9823 86.0796 88.7525 85.5711C91.211 83.9498 93.6241 82.2587 96.016 80.54C96.5019 80.1907 96.9959 79.6611 97.1746 79.112C98.044 76.4332 98.8776 73.7398 99.5893 71.0155C100.238 68.53 99.989 66.0282 99.2432 63.5866C98.6273 61.569 97.9595 59.5659 96.9699 57.6084C96.8561 58.0633 96.6806 58.5116 96.64 58.973C96.3492 62.2675 96.1542 65.5734 95.7885 68.8598C95.5188 71.2819 95.1304 73.7008 94.6202 76.084C94.1035 78.498 92.6101 80.4328 90.8194 82.0183C89.8818 82.8484 88.5559 83.3325 87.3258 83.7127C86.4808 83.9742 85.7057 84.2244 84.9794 84.7523C84.0353 85.4379 83.4779 84.0408 82.5825 84.1903C81.2225 84.4177 79.8624 84.6971 78.4909 84.8027C74.2384 85.1325 69.9843 85.4363 65.7253 85.6669C56.3737 86.1738 47.0188 85.8505 37.6769 85.4687C31.351 85.2105 25.0364 84.6191 18.73 84.0473C16.1772 83.815 13.6423 83.3017 11.1236 82.7948C9.03551 82.3741 7.34718 81.1151 5.81972 79.7066C5.38098 79.3021 5.12099 78.511 5.09987 77.8855C5.05437 76.5794 5.24773 75.2652 5.29648 73.9542C5.37285 71.9333 5.35661 71.9333 3.55616 70.3949L3.55779 70.3917Z" fill="white"/>
<path d="M92.0595 48.6768C91.8076 48.3665 91.7426 48.2544 91.6484 48.1748C89.8885 46.6852 89.869 46.6104 91.8417 45.293C92.4446 44.8901 92.7485 44.4563 92.6575 43.7659C92.4608 42.2795 92.3536 40.7703 92.0026 39.3196C91.572 37.5392 90.7563 37.2614 89.0939 38.1678C86.9669 39.3277 85.3159 40.9912 84.8674 43.4101C84.3328 46.292 83.9298 49.2194 83.756 52.1435C83.4196 57.8277 83.2067 63.5232 83.0914 69.2171C83.0264 72.445 83.2539 75.6794 83.353 79.047C86.6484 76.144 86.8353 72.2338 87.4544 68.5429C87.898 65.895 88.0263 63.195 88.288 60.5162C88.6991 56.3136 89.3426 52.1841 92.0562 48.6768H92.0595Z" fill="white"/>
<path d="M86.6743 77.7541C87.4771 77.0296 88.4309 76.4155 89.0565 75.5627C91.8839 71.711 94.4432 67.6936 95.2378 62.8574C95.5303 61.0704 95.3727 59.1779 95.8651 57.4624C96.4029 55.5861 95.8017 54.2085 94.8462 52.7676C94.1914 51.7815 93.6161 50.7434 92.8719 49.5088C92.464 50.001 92.126 50.321 91.8921 50.7061C90.0299 53.7439 89.6009 57.1651 89.3441 60.6107C89.0094 65.1106 88.5641 69.591 87.4657 73.9804C87.1667 75.1744 86.7734 76.3441 86.4241 77.5251C86.507 77.6014 86.5898 77.6778 86.6727 77.7541H86.6743Z" fill="white"/>
<path d="M31.0798 50.8066C30.9498 52.4474 30.8491 53.7356 30.7353 55.1912C38.8503 55.5924 46.8565 55.9872 54.8594 56.382V51.7911C46.8825 51.4613 39.0941 51.138 31.0798 50.8066Z" fill="white"/>
<path d="M62.7224 31.3237C64.0889 31.5934 65.4799 31.8679 67.1309 32.1928C67.0772 31.3643 67.1422 30.6804 66.9732 30.0582C64.994 22.722 62.5436 15.5562 58.4666 9.08581C57.1098 6.93171 55.4556 4.93032 53.7234 3.05888C52.1764 1.38889 50.1338 0.698469 47.3129 1.40026C48.2554 1.86162 48.8014 2.28237 49.4042 2.39608C51.8303 2.85419 53.6145 4.19279 55.038 6.14545C57.1699 9.07119 58.6518 12.3023 59.505 15.7999C60.527 19.9895 61.4484 24.2035 62.373 28.4159C62.5712 29.3175 62.6005 30.2581 62.7224 31.3221V31.3237Z" fill="white"/>
<path d="M46.7606 5.22265C46.226 4.74017 45.7336 4.29668 45.0544 3.68262C44.6026 4.31943 44.1347 4.81003 43.8633 5.3916C42.8883 7.48722 41.889 9.57796 41.0667 11.7353C40.0398 14.4271 39.1152 17.1417 37.2839 19.442C36.5851 20.3192 36.187 21.328 36.0733 22.5139C35.9059 24.2505 35.4802 25.9611 35.1844 27.6864C35.1015 28.1656 35.0837 28.6578 35.0284 29.2345H38.8081C39.5393 20.5775 41.1561 12.2941 46.7622 5.22428L46.7606 5.22265Z" fill="white"/>
<path d="M67.9127 32.2484C70.3989 32.8121 72.5715 33.15 74.6417 33.8079C78.0443 34.8882 81.4145 36.0904 84.7277 37.4127C86.2487 38.0203 87.5487 38.2721 88.8535 37.0959C89.0729 36.8978 89.3816 36.797 89.9438 36.49C88.9526 35.9555 88.2133 35.3902 87.3797 35.1384C84.7472 34.344 82.1067 33.5496 79.4206 32.9794C76.4194 32.3426 73.3693 31.9398 70.3355 31.4654C69.7863 31.3793 69.2078 31.3809 68.6602 31.4573C68.4506 31.4865 68.2865 31.8374 67.9127 32.25V32.2484Z" fill="white"/>
<path d="M92.8816 45.9541C92.4786 46.1718 92.1568 46.3456 91.8692 46.5016C91.8595 46.625 91.8302 46.7014 91.8546 46.7355C93.2326 48.5679 94.6138 50.3955 95.9511 52.1646C95.9609 50.7042 94.8348 48.347 92.8816 45.9541Z" fill="white"/>
<path d="M85.1614 78.7559C84.3132 80.3804 84.0272 81.8993 84.3034 83.6521C85.5108 82.5101 85.7643 81.0545 85.1614 78.7559Z" fill="white"/>
<path d="M34.1577 56.9395C33.5353 58.9847 34.0813 60.1804 35.794 60.7376C35.9419 59.2219 35.209 58.127 34.1577 56.9395Z" fill="white"/>
</g>
<defs>
<clipPath id="clip0_1238_4518">
<rect width="100.507" height="90.456" fill="white" transform="matrix(-1 0 0 1 101 0)"/>
</clipPath>
</defs>
</svg>
