<svg width="104" height="91" viewBox="0 0 104 91" fill="none" xmlns="http://www.w3.org/2000/svg">
<g clip-path="url(#clip0_1235_4389)">
<path d="M71.0063 29.9839C70.5025 28.2798 69.9533 26.3629 69.3683 24.4541C67.5614 18.5539 65.2539 12.8648 61.8431 7.69565C60.6423 5.87457 59.2335 4.16559 57.7531 2.55895C55.7333 0.365859 53.1236 -0.292067 50.1971 0.112436C49.0353 0.271638 47.8474 0.429215 46.6872 0.356112C44.0255 0.187163 42.1519 1.53551 40.54 3.3777C39.9729 4.02426 39.5325 4.83651 39.2222 5.64389C37.7743 9.41601 35.6716 12.8421 33.5901 16.2649C31.3736 19.912 29.8234 23.7572 29.2319 27.9858C29.1718 28.4114 29.0548 28.8273 28.9817 29.1717C26.1657 29.5177 23.4162 29.7305 20.7156 30.2195C17.3519 30.8287 14.2466 32.216 11.3786 34.0663C8.57066 35.8777 6.78483 38.4151 6.05198 41.734C5.42312 44.5834 5.27525 47.4442 5.42475 50.3325C5.60512 53.8382 5.81474 57.3423 6.03736 60.8448C6.1771 63.033 6.36397 65.2196 6.53297 67.4061C6.59796 68.2476 6.38185 68.9153 5.79361 69.6122C4.19466 71.5032 3.63405 73.8376 3.49267 76.2484C3.45693 76.8592 3.79654 77.5788 4.16215 78.11C6.2031 81.0715 8.98339 83.1834 12.1456 84.8258C15.467 86.551 19.0532 87.4542 22.698 88.1349C31.476 89.7757 40.3223 90.7292 49.266 90.3865C55.2182 90.159 61.1639 89.7399 67.1161 89.5027C71.003 89.3484 74.8964 89.3744 78.7865 89.3062C82.4443 89.2428 86.0647 88.7522 89.534 87.6443C91.4108 87.0449 93.169 85.9629 94.8492 84.894C96.5879 83.7893 98.2015 82.4735 99.8037 81.1706C100.368 80.7125 100.931 80.0838 101.159 79.4178C102.051 76.8137 102.901 74.1885 103.59 71.5243C104.349 68.5937 103.967 65.6695 103.084 62.8055C102.716 61.6083 102.313 60.4191 101.898 59.2365C101.239 57.3553 100.553 55.5358 100.476 53.4549C100.385 50.9694 99.0985 48.7714 97.6945 46.7586C96.9308 45.6637 96.6025 44.5623 96.5976 43.2692C96.5944 42.3318 96.4514 41.3945 96.3588 40.4588C96.1183 37.9895 94.7923 36.1863 92.6165 35.1872C90.3513 34.1475 88.0146 33.1144 85.5967 32.5864C80.834 31.5435 75.9965 30.8514 71.003 29.9807L71.0063 29.9839ZM85.2782 80.386C78.767 80.3324 72.5646 79.9409 66.1996 79.2277C66.1996 77.9703 66.1509 76.9128 66.2078 75.8617C66.562 69.2142 66.4661 62.5716 65.86 55.9436C65.2263 49.0183 64.5032 42.1028 63.8451 35.1791C63.7573 34.2629 63.8337 33.332 63.8337 32.2274C72.6345 33.2459 80.9737 35.3935 89.0904 39.0584C87.1859 41.1086 86.5278 43.5015 86.2532 46.0341C86.0371 48.0257 85.7527 50.0174 85.6747 52.0172C85.3465 60.5995 84.8379 69.1785 85.2717 77.7738C85.3123 78.5665 85.2766 79.3609 85.2766 80.386H85.2782ZM28.8224 30.278C28.7753 31.2575 28.7851 31.9431 28.7055 32.6189C28.0197 38.4021 27.3486 44.1854 26.6109 49.9622C25.8488 55.9274 25.0412 61.8877 24.9697 67.9146C24.9323 70.9849 24.9031 74.0569 24.9047 77.1272C24.9047 78.0808 24.6154 78.6071 23.5722 78.7728C20.6457 79.2342 17.7159 79.4324 14.7699 79.1026C13.4049 78.9499 12.0302 78.7566 10.7026 78.4122C9.51475 78.1035 9.20764 77.5788 9.22064 76.341C9.23039 75.3403 9.28727 74.3331 9.41076 73.3405C9.55376 72.1968 9.31164 71.292 8.37891 70.5073C7.9613 70.1564 7.65256 69.4806 7.60056 68.9234C7.39419 66.6816 7.3097 64.4284 7.17645 62.1785C6.97658 58.8027 6.75559 55.427 6.57684 52.0497C6.41597 49.0459 6.31522 46.0568 6.82708 43.0515C7.52094 38.9675 9.6545 35.9962 13.3025 34.1443C15.1403 33.2118 17.0432 32.3655 18.9931 31.7043C22.0919 30.6549 25.3385 30.4567 28.8224 30.2763V30.278ZM26.0129 78.0987C26.0129 76.3832 26.0535 74.5784 26.0064 72.7752C25.8179 65.7264 26.5069 58.7475 27.4331 51.7702C28.3317 44.996 29.0678 38.2007 29.8543 31.4119C30.2963 27.5991 30.7724 23.7767 32.5777 20.3295C35.2524 15.2236 38.3918 10.3745 40.7236 5.07207C42.4461 1.157 47.8978 0.162796 51.0632 3.18601C51.939 4.02263 52.6898 5.14842 53.1041 6.28557C54.487 10.0821 56.393 13.6202 58.4259 17.0707C61.2825 21.9215 62.3907 27.1557 62.6897 32.6904C62.953 37.5736 63.343 42.4553 63.8857 47.3158C64.7226 54.8032 65.4863 62.2873 65.3173 69.8364C65.2507 72.8271 65.171 75.8162 65.0979 78.8216C64.2074 78.9109 63.4648 78.9889 62.7222 79.0604C61.9309 79.1384 61.3784 78.8216 61.1298 78.0516C60.9754 77.5756 60.7918 77.0963 60.7235 76.6057C60.3401 73.8116 59.8396 71.0239 59.6576 68.2152C59.305 62.7698 59.1441 57.3131 58.8906 51.8612C58.5575 44.7069 57.7661 37.6143 56.0892 30.6321C55.0021 26.1062 54.4041 21.5186 54.539 16.84C54.6397 13.323 53.7444 10.0057 52.1357 6.88177C51.2842 5.22802 50.0655 3.90079 48.4925 2.90172C47.3193 2.15769 46.1315 2.1252 44.9371 2.83187C43.2797 3.81307 41.9797 5.15004 41.0697 6.8509C39.3863 10.0008 38.5169 13.3327 38.4064 16.9342C38.3187 19.8047 38.0099 22.6948 37.4965 25.5198C36.8578 29.0303 35.8423 32.4694 35.0996 35.9621C33.2456 44.7036 32.763 53.6059 32.1455 62.4871C31.8497 66.7466 31.4695 70.9866 30.605 75.1729C29.8998 78.5844 29.6853 78.7533 26.2729 78.2969C26.2193 78.2904 26.1738 78.2221 26.0145 78.097L26.0129 78.0987ZM30.9008 78.2238C32.9888 71.1393 32.9563 63.7802 33.6681 56.3773C34.4659 56.4261 35.1224 56.4651 35.8325 56.5089C35.8325 57.1961 35.8049 57.7517 35.8374 58.304C35.9186 59.6296 36.4646 60.7586 37.5631 61.4962C37.9709 61.7707 38.7672 61.9527 39.0954 61.735C39.5179 61.4556 39.799 60.7505 39.8608 60.1966C39.9176 59.6767 39.6544 59.0984 39.4513 58.5769C39.2092 57.9531 38.8842 57.3602 38.5072 56.5707C45.1419 56.431 51.5296 57.214 58.057 57.43C58.5396 64.6217 58.3657 71.6949 60.0557 78.5454C50.2117 79.2488 40.6407 78.7826 30.8975 78.2254L30.9008 78.2238ZM54.8607 30.7539C56.4402 35.1093 58.1366 48.4627 57.3696 50.8118C49.7324 50.4528 42.0642 50.0921 34.2222 49.7234C34.7665 43.1197 35.6944 36.7256 37.6021 30.3543C43.4308 30.2812 49.1685 29.8605 54.8607 30.7539ZM6.55735 70.392C8.35779 71.9304 8.37404 71.932 8.29766 73.9513C8.24729 75.2639 8.05555 76.5765 8.10105 77.8826C8.12218 78.5081 8.38217 79.2992 8.8209 79.7037C10.3467 81.1121 12.0367 82.3711 14.1247 82.7919C16.6434 83.2987 19.1784 83.8121 21.7312 84.0444C28.0392 84.6162 34.3538 85.2075 40.6781 85.4658C50.02 85.8476 59.3748 86.1709 68.7264 85.664C72.9854 85.4333 77.2396 85.1296 81.4921 84.7998C82.8635 84.6942 84.2236 84.4148 85.5837 84.1873C86.4774 84.0379 87.0364 85.4333 87.9805 84.7494C88.7069 84.2215 89.482 83.9713 90.327 83.7097C91.557 83.3296 92.883 82.8455 93.8206 82.0154C95.6113 80.4298 97.1046 78.4934 97.6214 76.081C98.1316 73.6979 98.52 71.279 98.7897 68.8568C99.1553 65.5704 99.3503 62.2646 99.6412 58.9701C99.6818 58.5087 99.8573 58.0603 99.9711 57.6055C100.962 59.563 101.629 61.566 102.244 63.5837C102.99 66.0253 103.239 68.5271 102.59 71.0126C101.88 73.7369 101.047 76.4303 100.176 79.1091C99.9971 79.6582 99.5031 80.1878 99.0172 80.5371C96.6253 82.2558 94.2122 83.9469 91.7537 85.5682C90.9818 86.0766 90.0783 86.499 89.1797 86.6777C86.2938 87.2512 83.3981 87.8896 80.4749 88.1316C77.1047 88.4111 73.6972 88.2242 70.3124 88.364C64.3569 88.6109 58.408 88.9813 52.4525 89.2477C43.0765 89.6684 33.7607 89.1291 24.5244 87.4022C20.9447 86.7329 17.3779 86.0247 14.0175 84.5512C10.6311 83.0664 7.63468 81.0488 5.35325 78.1003C4.95676 77.5886 4.56352 76.8819 4.5814 76.2776C4.64477 74.1934 5.13225 72.1985 6.55896 70.3887L6.55735 70.392ZM85.9883 83.1103C85.6406 83.1964 85.405 83.2711 85.1628 83.3117C78.4583 84.4131 71.679 84.6146 64.9127 84.7527C54.7486 84.9606 44.5894 84.6991 34.435 84.1142C27.8524 83.7341 21.3054 83.1655 14.83 81.8692C13.2846 81.5605 11.9798 80.9269 10.8228 79.832C13.7754 79.9831 16.5866 80.2593 19.3945 80.2284C21.5719 80.204 23.7428 79.7475 25.9235 79.5786C27.165 79.4828 28.4227 79.5819 29.6723 79.5916C33.3089 79.6225 36.9472 79.6322 40.5822 79.6891C43.7152 79.7394 46.8659 80.1001 49.9728 79.8645C54.6852 79.5055 59.3651 79.6712 64.0498 80.0075C68.0456 80.2934 72.0235 80.8392 76.0225 81.0423C79.3715 81.2112 82.7189 81.8334 86.2451 81.234C86.1492 81.926 86.0679 82.5173 85.9867 83.1103H85.9883ZM95.0588 48.6772C92.3451 52.1845 91.7017 56.314 91.2906 60.5166C91.0289 63.1938 90.9006 65.8954 90.4569 68.5433C89.8378 72.2358 89.651 76.1444 86.3556 79.0474C86.2564 75.6814 86.0273 72.4454 86.0939 69.2175C86.2093 63.5236 86.4206 57.8297 86.7586 52.1439C86.9324 49.2198 87.3354 46.2924 87.87 43.4105C88.3185 40.9932 89.9678 39.3281 92.0965 38.1682C93.7589 37.2617 94.5746 37.5395 95.0052 39.32C95.3562 40.7707 95.4618 42.2798 95.6601 43.7663C95.751 44.4567 95.4472 44.8921 94.8443 45.2933C92.8716 46.6108 92.8911 46.6839 94.651 48.1752C94.7452 48.2548 94.8102 48.3669 95.0621 48.6772H95.0588ZM50.3937 5.97042C50.8617 6.74369 51.1509 7.14656 51.3638 7.58681C52.7743 10.5028 53.6176 13.565 53.4974 16.8221C53.3511 20.7892 53.8516 24.688 54.5552 28.5755C54.6153 28.9118 54.5633 29.2675 54.5633 29.5843C50.6375 29.3942 46.8546 29.2107 42.9189 29.019C43.5624 20.7356 45.1467 12.9428 50.3937 5.97042ZM89.6737 77.7543C89.5908 77.6779 89.508 77.6016 89.4251 77.5252C89.7745 76.3442 90.1677 75.1746 90.4667 73.9805C91.5635 69.5911 92.0104 65.1107 92.3451 60.6108C92.6003 57.1669 93.0293 53.744 94.8931 50.7062C95.1287 50.3228 95.4667 50.0011 95.8729 49.5089C96.6171 50.7435 97.194 51.7816 97.8472 52.7677C98.8027 54.2086 99.4039 55.5862 98.8661 57.4625C98.3737 59.1796 98.5313 61.0706 98.2389 62.8575C97.4459 67.6937 94.8866 71.7111 92.0575 75.5628C91.4303 76.4173 90.4781 77.0314 89.6753 77.7543H89.6737ZM34.0792 50.8069C42.0934 51.1383 49.8819 51.4616 57.8587 51.7914V56.3822C49.8542 55.9875 41.8497 55.5927 33.7347 55.1915C33.8501 53.7359 33.9508 52.4477 34.0792 50.8069ZM65.7219 31.3242C65.5984 30.2601 65.5708 29.3211 65.3725 28.4179C64.4479 24.2055 63.5266 19.9916 62.5045 15.802C61.6514 12.3044 60.1694 9.07323 58.0375 6.14749C56.614 4.19483 54.8315 2.85461 52.4038 2.39812C51.8009 2.28441 51.2549 1.86366 50.3125 1.4023C53.1334 0.700509 55.176 1.39093 56.7229 3.06092C58.4567 4.93236 60.1093 6.93375 61.4661 9.08785C65.5432 15.5583 67.9936 22.724 69.9728 30.0603C70.1402 30.6825 70.0752 31.3664 70.1304 32.1949C68.4778 31.8684 67.0885 31.5954 65.7219 31.3258V31.3242ZM49.76 5.22314C44.1539 12.2946 42.5371 20.5764 41.8058 29.2334H38.0262C38.0831 28.6567 38.0993 28.1645 38.1822 27.6852C38.4796 25.96 38.9053 24.2494 39.071 22.5128C39.1848 21.3269 39.5845 20.3181 40.2816 19.4409C42.1129 17.1406 43.0392 14.426 44.0645 11.7342C44.8867 9.57683 45.8861 7.48609 46.8611 5.39047C47.1324 4.80889 47.6004 4.31829 48.0522 3.68148C48.733 4.29555 49.2237 4.73904 49.7584 5.22152L49.76 5.22314ZM53.3089 3.84718C54.9273 4.24519 55.4733 4.57172 56.5799 5.92818C58.4226 8.18625 59.8201 10.7107 60.6927 13.4838C62.2916 18.5636 63.577 23.7279 64.4431 28.9865C64.5682 29.7403 64.7291 30.5379 64.2026 31.4379C63.3836 30.6825 63.4843 29.8393 63.4145 29.0839C63.0456 25.1007 61.9618 21.3594 60.0053 17.8407C57.511 13.3571 55.0167 8.8653 53.3089 3.84556V3.84718ZM70.912 32.2485C71.2841 31.8375 71.4499 31.485 71.6595 31.4557C72.2087 31.3794 72.7872 31.3778 73.3348 31.4639C76.3686 31.9382 79.4186 32.3411 82.4199 32.9779C85.106 33.5481 87.7482 34.3441 90.379 35.1369C91.2126 35.3887 91.9519 35.954 92.9431 36.4885C92.3809 36.7955 92.0722 36.8962 91.8528 37.0944C90.5479 38.2706 89.2496 38.0188 87.727 37.4112C84.4121 36.0888 81.042 34.8867 77.6409 33.8064C75.5691 33.1485 73.3966 32.8106 70.912 32.2469V32.2485ZM89.4592 82.7594C89.4592 81.9569 89.5226 81.2047 89.4446 80.4688C89.3292 79.395 89.8817 78.8151 90.6357 78.1393C91.9324 76.9778 93.1739 75.7074 94.1992 74.3071C95.2668 72.8483 96.0468 71.1799 96.9649 69.609C97.168 69.2613 97.4166 68.9381 97.6425 68.6034C97.6262 70.8062 97.2964 72.8905 96.8999 74.9634C96.4335 77.4001 95.0377 79.3414 93.3477 81.0569C92.3256 82.095 91.0452 82.7561 89.4592 82.7594ZM39.6414 18.2225C39.2303 13.7177 40.3369 9.97971 42.4574 6.54387C43.0652 5.56104 44.0385 4.78128 44.9306 4.00639C45.3564 3.63762 45.9852 3.50116 46.5214 3.26074C46.1103 4.72604 45.4035 5.88432 44.877 7.11895C43.8435 9.53784 42.9189 12.0022 41.9326 14.4406C41.424 15.6996 40.9121 16.9619 39.6414 18.2209V18.2225ZM95.881 45.9545C97.8326 48.3474 98.9587 50.7046 98.9506 52.165C97.6149 50.3959 96.232 48.5667 94.8541 46.7359C94.8281 46.7018 94.8589 46.6254 94.8687 46.5019C95.1579 46.346 95.4781 46.1722 95.881 45.9545ZM88.1609 78.7566C88.7637 81.0537 88.5103 82.5108 87.3029 83.6529C87.0267 81.9 87.3127 80.3827 88.1609 78.7566ZM37.1568 56.9394C38.2082 58.1286 38.941 59.2219 38.7932 60.7375C37.0805 60.1803 36.5345 58.9847 37.1568 56.9394Z" fill="#84521D"/>
<path d="M85.279 80.3852C85.279 79.3617 85.3131 78.5657 85.2741 77.7729C84.8403 69.1777 85.3489 60.5986 85.6771 52.0163C85.7535 50.0182 86.0395 48.0249 86.2556 46.0333C86.5286 43.5007 87.1883 41.1061 89.0928 39.0576C80.9745 35.3927 72.6352 33.2451 63.8361 32.2266C63.8361 33.3312 63.7614 34.2621 63.8475 35.1783C64.504 42.102 65.2271 49.0175 65.8624 55.9428C66.4702 62.5708 66.5644 69.2118 66.2102 75.8609C66.1549 76.912 66.2021 77.9695 66.2021 79.2269C72.567 79.94 78.7694 80.3315 85.2806 80.3852H85.279Z" fill="white"/>
<path d="M28.8232 30.2773C25.3393 30.4577 22.0927 30.6559 18.9939 31.7053C17.044 32.3665 15.1411 33.2128 13.3033 34.1453C9.65529 35.9972 7.52335 38.9685 6.82787 43.0525C6.31764 46.0562 6.41839 49.0469 6.57763 52.0507C6.758 55.428 6.97737 58.8037 7.17724 62.1795C7.31049 64.4278 7.39498 66.6826 7.60135 68.9244C7.65335 69.4816 7.96209 70.1574 8.3797 70.5083C9.31242 71.293 9.55455 72.1978 9.41155 73.3415C9.28805 74.3341 9.23117 75.3413 9.22142 76.342C9.20842 77.5782 9.51554 78.1045 10.7034 78.4132C12.0293 78.7576 13.4041 78.9509 14.7706 79.1036C17.7167 79.4334 20.6465 79.2352 23.573 78.7738C24.6162 78.6098 24.9071 78.0834 24.9055 77.1282C24.9039 74.0579 24.9331 70.9859 24.9705 67.9156C25.042 61.8887 25.8496 55.9284 26.6117 49.9632C27.3494 44.1864 28.0189 38.4031 28.7063 32.6199C28.7859 31.9441 28.7777 31.2585 28.8232 30.279V30.2773Z" fill="white"/>
<path d="M26.0134 78.0987C26.1727 78.2254 26.2182 78.292 26.2718 78.2985C29.6858 78.7534 29.9003 78.5861 30.6039 75.1746C31.4684 70.9866 31.8486 66.7466 32.1444 62.4888C32.7619 53.6076 33.2445 44.7053 35.0986 35.9638C35.8395 32.4695 36.8551 29.0304 37.4954 25.5215C38.0105 22.6964 38.3192 19.8064 38.4053 16.9359C38.5142 13.3344 39.3852 10.0025 41.0686 6.85259C41.9786 5.15173 43.2769 3.81475 44.936 2.83355C46.1304 2.12689 47.3182 2.15775 48.4914 2.9034C50.0644 3.90248 51.2831 5.2297 52.1346 6.88345C53.7433 10.0058 54.6386 13.3246 54.5379 16.8417C54.403 21.5203 55.0026 26.1079 56.0881 30.6338C57.765 37.6159 58.5564 44.7085 58.8895 51.8629C59.143 57.3147 59.3039 62.7715 59.6565 68.2168C59.8385 71.0256 60.339 73.8133 60.7225 76.6074C60.7891 77.0996 60.9743 77.5773 61.1287 78.0532C61.3773 78.8233 61.9282 79.14 62.7211 79.0621C63.4637 78.989 64.2064 78.9126 65.0968 78.8233C65.1699 75.8179 65.2496 72.8288 65.3162 69.8381C65.4852 62.2906 64.7215 54.8065 63.8846 47.3175C63.3419 42.4586 62.9519 37.5753 62.6886 32.692C62.3897 27.1573 61.2814 21.9232 58.4248 17.0724C56.3919 13.6219 54.4859 10.0854 53.103 6.28726C52.6887 5.1501 51.9396 4.02594 51.0621 3.18769C47.8967 0.164481 42.445 1.15868 40.7225 5.07375C38.3907 10.3762 35.2513 15.2253 32.5766 20.3311C30.7697 23.7784 30.2952 27.6025 29.8532 31.4136C29.0651 38.2024 28.3306 44.9977 27.432 51.7719C26.5074 58.7476 25.8168 65.7281 26.0053 72.7768C26.0541 74.58 26.0118 76.3865 26.0118 78.1003L26.0134 78.0987Z" fill="white"/>
<path d="M30.9014 78.223C40.6446 78.7802 50.2156 79.2465 60.0596 78.5431C58.3696 71.6941 58.5435 64.6194 58.0609 57.4277C51.5334 57.2132 45.1457 56.4302 38.5111 56.5683C38.8881 57.3578 39.213 57.9508 39.4552 58.5746C39.6567 59.0961 39.9215 59.6744 39.8646 60.1942C39.8029 60.7466 39.5218 61.4532 39.0993 61.7326C38.7711 61.9487 37.9748 61.7684 37.567 61.4938C36.4685 60.7563 35.9225 59.6273 35.8413 58.3017C35.8071 57.7493 35.8364 57.1938 35.8364 56.5066C35.1279 56.4643 34.4714 56.4237 33.672 56.375C32.9602 63.7763 32.9927 71.1369 30.9047 78.2214L30.9014 78.223Z" fill="white"/>
<path d="M54.8614 30.7534C49.1691 29.8583 43.4298 30.2806 37.6027 30.3537C35.695 36.7267 34.7672 43.1191 34.2228 49.7228C42.0648 50.0915 49.7346 50.4522 57.3703 50.8112C58.1373 48.4622 56.4408 35.1087 54.8614 30.7534Z" fill="white"/>
<path d="M6.55779 70.3917C5.13108 72.203 4.64358 74.1963 4.58021 76.2805C4.56234 76.8848 4.95558 77.5915 5.35206 78.1032C7.6335 81.0533 10.6299 83.0693 14.0163 84.5541C17.3783 86.0276 20.9451 86.7359 24.5233 87.4052C33.7595 89.132 43.0754 89.6714 52.4514 89.2506C58.4052 88.9826 64.3558 88.6138 70.3112 88.3669C73.6976 88.2272 77.1035 88.4124 80.4737 88.1346C83.397 87.8925 86.2926 87.2541 89.1786 86.6806C90.0788 86.5019 90.9823 86.0796 91.7525 85.5711C94.211 83.9498 96.6241 82.2587 99.016 80.54C99.5019 80.1907 99.9959 79.6611 100.175 79.112C101.044 76.4332 101.878 73.7398 102.589 71.0155C103.238 68.53 102.989 66.0282 102.243 63.5866C101.627 61.569 100.959 59.5659 99.9699 57.6084C99.8561 58.0633 99.6806 58.5116 99.64 58.973C99.3492 62.2675 99.1542 65.5734 98.7885 68.8598C98.5188 71.2819 98.1304 73.7008 97.6202 76.084C97.1035 78.498 95.6101 80.4328 93.8194 82.0183C92.8818 82.8484 91.5559 83.3325 90.3258 83.7127C89.4808 83.9742 88.7057 84.2244 87.9794 84.7523C87.0353 85.4379 86.4779 84.0408 85.5825 84.1903C84.2225 84.4177 82.8624 84.6971 81.4909 84.8027C77.2384 85.1325 72.9843 85.4363 68.7253 85.6669C59.3737 86.1738 50.0188 85.8505 40.6769 85.4687C34.351 85.2105 28.0364 84.6191 21.73 84.0473C19.1772 83.815 16.6423 83.3017 14.1236 82.7948C12.0355 82.3741 10.3472 81.1151 8.81972 79.7066C8.38098 79.3021 8.12099 78.511 8.09987 77.8855C8.05437 76.5794 8.24773 75.2652 8.29648 73.9542C8.37285 71.9333 8.35661 71.9333 6.55616 70.3949L6.55779 70.3917Z" fill="white"/>
<path d="M95.0595 48.6768C94.8076 48.3665 94.7426 48.2544 94.6484 48.1748C92.8885 46.6852 92.869 46.6104 94.8417 45.293C95.4446 44.8901 95.7485 44.4563 95.6575 43.7659C95.4608 42.2795 95.3536 40.7703 95.0026 39.3196C94.572 37.5392 93.7563 37.2614 92.0939 38.1678C89.9669 39.3277 88.3159 40.9912 87.8674 43.4101C87.3328 46.292 86.9298 49.2194 86.756 52.1435C86.4196 57.8277 86.2067 63.5232 86.0914 69.2171C86.0264 72.445 86.2539 75.6794 86.353 79.047C89.6484 76.144 89.8353 72.2338 90.4544 68.5429C90.898 65.895 91.0263 63.195 91.288 60.5162C91.6991 56.3136 92.3426 52.1841 95.0562 48.6768H95.0595Z" fill="white"/>
<path d="M89.6743 77.7541C90.4771 77.0296 91.4309 76.4155 92.0565 75.5627C94.8839 71.711 97.4432 67.6936 98.2378 62.8574C98.5303 61.0704 98.3727 59.1779 98.8651 57.4624C99.4029 55.5861 98.8017 54.2085 97.8462 52.7676C97.1914 51.7815 96.6161 50.7434 95.8719 49.5088C95.464 50.001 95.126 50.321 94.8921 50.7061C93.0299 53.7439 92.6009 57.1651 92.3441 60.6107C92.0094 65.1106 91.5641 69.591 90.4657 73.9804C90.1667 75.1744 89.7734 76.3441 89.4241 77.5251C89.507 77.6014 89.5898 77.6778 89.6727 77.7541H89.6743Z" fill="white"/>
<path d="M34.0798 50.8066C33.9498 52.4474 33.8491 53.7356 33.7353 55.1912C41.8503 55.5924 49.8565 55.9872 57.8594 56.382V51.7911C49.8825 51.4613 42.0941 51.138 34.0798 50.8066Z" fill="white"/>
<path d="M65.7224 31.3237C67.0889 31.5934 68.4799 31.8679 70.1309 32.1928C70.0772 31.3643 70.1422 30.6804 69.9732 30.0582C67.994 22.722 65.5436 15.5562 61.4666 9.08581C60.1098 6.93171 58.4556 4.93032 56.7234 3.05888C55.1764 1.38889 53.1338 0.698469 50.3129 1.40026C51.2554 1.86162 51.8014 2.28237 52.4042 2.39608C54.8303 2.85419 56.6145 4.19279 58.038 6.14545C60.1699 9.07119 61.6518 12.3023 62.505 15.7999C63.527 19.9895 64.4484 24.2035 65.373 28.4159C65.5712 29.3175 65.6005 30.2581 65.7224 31.3221V31.3237Z" fill="white"/>
<path d="M49.7606 5.22265C49.226 4.74017 48.7336 4.29668 48.0544 3.68262C47.6026 4.31943 47.1347 4.81003 46.8633 5.3916C45.8883 7.48722 44.889 9.57796 44.0667 11.7353C43.0398 14.4271 42.1152 17.1417 40.2839 19.442C39.5851 20.3192 39.187 21.328 39.0733 22.5139C38.9059 24.2505 38.4802 25.9611 38.1844 27.6864C38.1015 28.1656 38.0837 28.6578 38.0284 29.2345H41.8081C42.5393 20.5775 44.1561 12.2941 49.7622 5.22428L49.7606 5.22265Z" fill="white"/>
<path d="M70.9127 32.2484C73.3989 32.8121 75.5715 33.15 77.6417 33.8079C81.0443 34.8882 84.4145 36.0904 87.7277 37.4127C89.2487 38.0203 90.5487 38.2721 91.8535 37.0959C92.0729 36.8978 92.3816 36.797 92.9438 36.49C91.9526 35.9555 91.2133 35.3902 90.3797 35.1384C87.7472 34.344 85.1067 33.5496 82.4206 32.9794C79.4194 32.3426 76.3693 31.9398 73.3355 31.4654C72.7863 31.3793 72.2078 31.3809 71.6602 31.4573C71.4506 31.4865 71.2865 31.8374 70.9127 32.25V32.2484Z" fill="white"/>
<path d="M95.8816 45.9541C95.4786 46.1718 95.1568 46.3456 94.8692 46.5016C94.8595 46.625 94.8302 46.7014 94.8546 46.7355C96.2326 48.5679 97.6138 50.3955 98.9511 52.1646C98.9609 50.7042 97.8348 48.347 95.8816 45.9541Z" fill="white"/>
<path d="M88.1614 78.7559C87.3132 80.3804 87.0272 81.8993 87.3034 83.6521C88.5108 82.5101 88.7643 81.0545 88.1614 78.7559Z" fill="white"/>
<path d="M37.1577 56.9395C36.5353 58.9847 37.0813 60.1804 38.794 60.7376C38.9419 59.2219 38.209 58.127 37.1577 56.9395Z" fill="white"/>
</g>
<mask id="mask0_1235_4389" style="mask-type:alpha" maskUnits="userSpaceOnUse" x="0" y="39" width="104" height="51">
<rect y="39" width="104" height="51" fill="#D9D9D9"/>
</mask>
<g mask="url(#mask0_1235_4389)">
<g clip-path="url(#clip1_1235_4389)">
<path d="M71.0063 29.9839C70.5025 28.2798 69.9533 26.3629 69.3683 24.4541C67.5614 18.5539 65.2539 12.8648 61.8431 7.69565C60.6423 5.87457 59.2335 4.16559 57.7531 2.55895C55.7333 0.365859 53.1236 -0.292067 50.1971 0.112436C49.0353 0.271638 47.8474 0.429215 46.6872 0.356112C44.0255 0.187163 42.1519 1.53551 40.54 3.3777C39.9729 4.02426 39.5325 4.83651 39.2222 5.64389C37.7743 9.41601 35.6716 12.8421 33.5901 16.2649C31.3736 19.912 29.8234 23.7572 29.2319 27.9858C29.1718 28.4114 29.0548 28.8273 28.9817 29.1717C26.1657 29.5177 23.4162 29.7305 20.7156 30.2195C17.3519 30.8287 14.2466 32.216 11.3786 34.0663C8.57066 35.8777 6.78483 38.4151 6.05198 41.734C5.42312 44.5834 5.27525 47.4442 5.42475 50.3325C5.60512 53.8382 5.81474 57.3423 6.03736 60.8448C6.1771 63.033 6.36397 65.2196 6.53297 67.4061C6.59796 68.2476 6.38185 68.9153 5.79361 69.6122C4.19466 71.5032 3.63405 73.8376 3.49267 76.2484C3.45693 76.8592 3.79654 77.5788 4.16215 78.11C6.2031 81.0715 8.98339 83.1834 12.1456 84.8258C15.467 86.551 19.0532 87.4542 22.698 88.1349C31.476 89.7757 40.3223 90.7292 49.266 90.3865C55.2182 90.159 61.1639 89.7399 67.1161 89.5027C71.003 89.3484 74.8964 89.3744 78.7865 89.3062C82.4443 89.2428 86.0647 88.7522 89.534 87.6443C91.4108 87.0449 93.169 85.9629 94.8492 84.894C96.5879 83.7893 98.2015 82.4735 99.8037 81.1706C100.368 80.7125 100.931 80.0838 101.159 79.4178C102.051 76.8137 102.901 74.1885 103.59 71.5243C104.349 68.5937 103.967 65.6695 103.084 62.8055C102.716 61.6083 102.313 60.4191 101.898 59.2365C101.239 57.3553 100.553 55.5358 100.476 53.4549C100.385 50.9694 99.0985 48.7714 97.6945 46.7586C96.9308 45.6637 96.6025 44.5623 96.5976 43.2692C96.5944 42.3318 96.4514 41.3945 96.3588 40.4588C96.1183 37.9895 94.7923 36.1863 92.6165 35.1872C90.3513 34.1475 88.0146 33.1144 85.5967 32.5864C80.834 31.5435 75.9965 30.8514 71.003 29.9807L71.0063 29.9839ZM85.2782 80.386C78.767 80.3324 72.5646 79.9409 66.1996 79.2277C66.1996 77.9703 66.1509 76.9128 66.2078 75.8617C66.562 69.2142 66.4661 62.5716 65.86 55.9436C65.2263 49.0183 64.5032 42.1028 63.8451 35.1791C63.7573 34.2629 63.8337 33.332 63.8337 32.2274C72.6345 33.2459 80.9737 35.3935 89.0904 39.0584C87.1859 41.1086 86.5278 43.5015 86.2532 46.0341C86.0371 48.0257 85.7527 50.0174 85.6747 52.0172C85.3465 60.5995 84.8379 69.1785 85.2717 77.7738C85.3123 78.5665 85.2766 79.3609 85.2766 80.386H85.2782ZM28.8224 30.278C28.7753 31.2575 28.7851 31.9431 28.7055 32.6189C28.0197 38.4021 27.3486 44.1854 26.6109 49.9622C25.8488 55.9274 25.0412 61.8877 24.9697 67.9146C24.9323 70.9849 24.9031 74.0569 24.9047 77.1272C24.9047 78.0808 24.6154 78.6071 23.5722 78.7728C20.6457 79.2342 17.7159 79.4324 14.7699 79.1026C13.4049 78.9499 12.0302 78.7566 10.7026 78.4122C9.51475 78.1035 9.20764 77.5788 9.22064 76.341C9.23039 75.3403 9.28727 74.3331 9.41076 73.3405C9.55376 72.1968 9.31164 71.292 8.37891 70.5073C7.9613 70.1564 7.65256 69.4806 7.60056 68.9234C7.39419 66.6816 7.3097 64.4284 7.17645 62.1785C6.97658 58.8027 6.75559 55.427 6.57684 52.0497C6.41597 49.0459 6.31522 46.0568 6.82708 43.0515C7.52094 38.9675 9.6545 35.9962 13.3025 34.1443C15.1403 33.2118 17.0432 32.3655 18.9931 31.7043C22.0919 30.6549 25.3385 30.4567 28.8224 30.2763V30.278ZM26.0129 78.0987C26.0129 76.3832 26.0535 74.5784 26.0064 72.7752C25.8179 65.7264 26.5069 58.7475 27.4331 51.7702C28.3317 44.996 29.0678 38.2007 29.8543 31.4119C30.2963 27.5991 30.7724 23.7767 32.5777 20.3295C35.2524 15.2236 38.3918 10.3745 40.7236 5.07207C42.4461 1.157 47.8978 0.162796 51.0632 3.18601C51.939 4.02263 52.6898 5.14842 53.1041 6.28557C54.487 10.0821 56.393 13.6202 58.4259 17.0707C61.2825 21.9215 62.3907 27.1557 62.6897 32.6904C62.953 37.5736 63.343 42.4553 63.8857 47.3158C64.7226 54.8032 65.4863 62.2873 65.3173 69.8364C65.2507 72.8271 65.171 75.8162 65.0979 78.8216C64.2074 78.9109 63.4648 78.9889 62.7222 79.0604C61.9309 79.1384 61.3784 78.8216 61.1298 78.0516C60.9754 77.5756 60.7918 77.0963 60.7235 76.6057C60.3401 73.8116 59.8396 71.0239 59.6576 68.2152C59.305 62.7698 59.1441 57.3131 58.8906 51.8612C58.5575 44.7069 57.7661 37.6143 56.0892 30.6321C55.0021 26.1062 54.4041 21.5186 54.539 16.84C54.6397 13.323 53.7444 10.0057 52.1357 6.88177C51.2842 5.22802 50.0655 3.90079 48.4925 2.90172C47.3193 2.15769 46.1315 2.1252 44.9371 2.83187C43.2797 3.81307 41.9797 5.15004 41.0697 6.8509C39.3863 10.0008 38.5169 13.3327 38.4064 16.9342C38.3187 19.8047 38.0099 22.6948 37.4965 25.5198C36.8578 29.0303 35.8423 32.4694 35.0996 35.9621C33.2456 44.7036 32.763 53.6059 32.1455 62.4871C31.8497 66.7466 31.4695 70.9866 30.605 75.1729C29.8998 78.5844 29.6853 78.7533 26.2729 78.2969C26.2193 78.2904 26.1738 78.2221 26.0145 78.097L26.0129 78.0987ZM30.9008 78.2238C32.9888 71.1393 32.9563 63.7802 33.6681 56.3773C34.4659 56.4261 35.1224 56.4651 35.8325 56.5089C35.8325 57.1961 35.8049 57.7517 35.8374 58.304C35.9186 59.6296 36.4646 60.7586 37.5631 61.4962C37.9709 61.7707 38.7672 61.9527 39.0954 61.735C39.5179 61.4556 39.799 60.7505 39.8608 60.1966C39.9176 59.6767 39.6544 59.0984 39.4513 58.5769C39.2092 57.9531 38.8842 57.3602 38.5072 56.5707C45.1419 56.431 51.5296 57.214 58.057 57.43C58.5396 64.6217 58.3657 71.6949 60.0557 78.5454C50.2117 79.2488 40.6407 78.7826 30.8975 78.2254L30.9008 78.2238ZM54.8607 30.7539C56.4402 35.1093 58.1366 48.4627 57.3696 50.8118C49.7324 50.4528 42.0642 50.0921 34.2222 49.7234C34.7665 43.1197 35.6944 36.7256 37.6021 30.3543C43.4308 30.2812 49.1685 29.8605 54.8607 30.7539ZM6.55735 70.392C8.35779 71.9304 8.37404 71.932 8.29766 73.9513C8.24729 75.2639 8.05555 76.5765 8.10105 77.8826C8.12218 78.5081 8.38217 79.2992 8.8209 79.7037C10.3467 81.1121 12.0367 82.3711 14.1247 82.7919C16.6434 83.2987 19.1784 83.8121 21.7312 84.0444C28.0392 84.6162 34.3538 85.2075 40.6781 85.4658C50.02 85.8476 59.3748 86.1709 68.7264 85.664C72.9854 85.4333 77.2396 85.1296 81.4921 84.7998C82.8635 84.6942 84.2236 84.4148 85.5837 84.1873C86.4774 84.0379 87.0364 85.4333 87.9805 84.7494C88.7069 84.2215 89.482 83.9713 90.327 83.7097C91.557 83.3296 92.883 82.8455 93.8206 82.0154C95.6113 80.4298 97.1046 78.4934 97.6214 76.081C98.1316 73.6979 98.52 71.279 98.7897 68.8568C99.1553 65.5704 99.3503 62.2646 99.6412 58.9701C99.6818 58.5087 99.8573 58.0603 99.9711 57.6055C100.962 59.563 101.629 61.566 102.244 63.5837C102.99 66.0253 103.239 68.5271 102.59 71.0126C101.88 73.7369 101.047 76.4303 100.176 79.1091C99.9971 79.6582 99.5031 80.1878 99.0172 80.5371C96.6253 82.2558 94.2122 83.9469 91.7537 85.5682C90.9818 86.0766 90.0783 86.499 89.1797 86.6777C86.2938 87.2512 83.3981 87.8896 80.4749 88.1316C77.1047 88.4111 73.6972 88.2242 70.3124 88.364C64.3569 88.6109 58.408 88.9813 52.4525 89.2477C43.0765 89.6684 33.7607 89.1291 24.5244 87.4022C20.9447 86.7329 17.3779 86.0247 14.0175 84.5512C10.6311 83.0664 7.63468 81.0488 5.35325 78.1003C4.95676 77.5886 4.56352 76.8819 4.5814 76.2776C4.64477 74.1934 5.13225 72.1985 6.55896 70.3887L6.55735 70.392ZM85.9883 83.1103C85.6406 83.1964 85.405 83.2711 85.1628 83.3117C78.4583 84.4131 71.679 84.6146 64.9127 84.7527C54.7486 84.9606 44.5894 84.6991 34.435 84.1142C27.8524 83.7341 21.3054 83.1655 14.83 81.8692C13.2846 81.5605 11.9798 80.9269 10.8228 79.832C13.7754 79.9831 16.5866 80.2593 19.3945 80.2284C21.5719 80.204 23.7428 79.7475 25.9235 79.5786C27.165 79.4828 28.4227 79.5819 29.6723 79.5916C33.3089 79.6225 36.9472 79.6322 40.5822 79.6891C43.7152 79.7394 46.8659 80.1001 49.9728 79.8645C54.6852 79.5055 59.3651 79.6712 64.0498 80.0075C68.0456 80.2934 72.0235 80.8392 76.0225 81.0423C79.3715 81.2112 82.7189 81.8334 86.2451 81.234C86.1492 81.926 86.0679 82.5173 85.9867 83.1103H85.9883ZM95.0588 48.6772C92.3451 52.1845 91.7017 56.314 91.2906 60.5166C91.0289 63.1938 90.9006 65.8954 90.4569 68.5433C89.8378 72.2358 89.651 76.1444 86.3556 79.0474C86.2564 75.6814 86.0273 72.4454 86.0939 69.2175C86.2093 63.5236 86.4206 57.8297 86.7586 52.1439C86.9324 49.2198 87.3354 46.2924 87.87 43.4105C88.3185 40.9932 89.9678 39.3281 92.0965 38.1682C93.7589 37.2617 94.5746 37.5395 95.0052 39.32C95.3562 40.7707 95.4618 42.2798 95.6601 43.7663C95.751 44.4567 95.4472 44.8921 94.8443 45.2933C92.8716 46.6108 92.8911 46.6839 94.651 48.1752C94.7452 48.2548 94.8102 48.3669 95.0621 48.6772H95.0588ZM50.3937 5.97042C50.8617 6.74369 51.1509 7.14656 51.3638 7.58681C52.7743 10.5028 53.6176 13.565 53.4974 16.8221C53.3511 20.7892 53.8516 24.688 54.5552 28.5755C54.6153 28.9118 54.5633 29.2675 54.5633 29.5843C50.6375 29.3942 46.8546 29.2107 42.9189 29.019C43.5624 20.7356 45.1467 12.9428 50.3937 5.97042ZM89.6737 77.7543C89.5908 77.6779 89.508 77.6016 89.4251 77.5252C89.7745 76.3442 90.1677 75.1746 90.4667 73.9805C91.5635 69.5911 92.0104 65.1107 92.3451 60.6108C92.6003 57.1669 93.0293 53.744 94.8931 50.7062C95.1287 50.3228 95.4667 50.0011 95.8729 49.5089C96.6171 50.7435 97.194 51.7816 97.8472 52.7677C98.8027 54.2086 99.4039 55.5862 98.8661 57.4625C98.3737 59.1796 98.5313 61.0706 98.2389 62.8575C97.4459 67.6937 94.8866 71.7111 92.0575 75.5628C91.4303 76.4173 90.4781 77.0314 89.6753 77.7543H89.6737ZM34.0792 50.8069C42.0934 51.1383 49.8819 51.4616 57.8587 51.7914V56.3822C49.8542 55.9875 41.8497 55.5927 33.7347 55.1915C33.8501 53.7359 33.9508 52.4477 34.0792 50.8069ZM65.7219 31.3242C65.5984 30.2601 65.5708 29.3211 65.3725 28.4179C64.4479 24.2055 63.5266 19.9916 62.5045 15.802C61.6514 12.3044 60.1694 9.07323 58.0375 6.14749C56.614 4.19483 54.8315 2.85461 52.4038 2.39812C51.8009 2.28441 51.2549 1.86366 50.3125 1.4023C53.1334 0.700509 55.176 1.39093 56.7229 3.06092C58.4567 4.93236 60.1093 6.93375 61.4661 9.08785C65.5432 15.5583 67.9936 22.724 69.9728 30.0603C70.1402 30.6825 70.0752 31.3664 70.1304 32.1949C68.4778 31.8684 67.0885 31.5954 65.7219 31.3258V31.3242ZM49.76 5.22314C44.1539 12.2946 42.5371 20.5764 41.8058 29.2334H38.0262C38.0831 28.6567 38.0993 28.1645 38.1822 27.6852C38.4796 25.96 38.9053 24.2494 39.071 22.5128C39.1848 21.3269 39.5845 20.3181 40.2816 19.4409C42.1129 17.1406 43.0392 14.426 44.0645 11.7342C44.8867 9.57683 45.8861 7.48609 46.8611 5.39047C47.1324 4.80889 47.6004 4.31829 48.0522 3.68148C48.733 4.29555 49.2237 4.73904 49.7584 5.22152L49.76 5.22314ZM53.3089 3.84718C54.9273 4.24519 55.4733 4.57172 56.5799 5.92818C58.4226 8.18625 59.8201 10.7107 60.6927 13.4838C62.2916 18.5636 63.577 23.7279 64.4431 28.9865C64.5682 29.7403 64.7291 30.5379 64.2026 31.4379C63.3836 30.6825 63.4843 29.8393 63.4145 29.0839C63.0456 25.1007 61.9618 21.3594 60.0053 17.8407C57.511 13.3571 55.0167 8.8653 53.3089 3.84556V3.84718ZM70.912 32.2485C71.2841 31.8375 71.4499 31.485 71.6595 31.4557C72.2087 31.3794 72.7872 31.3778 73.3348 31.4639C76.3686 31.9382 79.4186 32.3411 82.4199 32.9779C85.106 33.5481 87.7482 34.3441 90.379 35.1369C91.2126 35.3887 91.9519 35.954 92.9431 36.4885C92.3809 36.7955 92.0722 36.8962 91.8528 37.0944C90.5479 38.2706 89.2496 38.0188 87.727 37.4112C84.4121 36.0888 81.042 34.8867 77.6409 33.8064C75.5691 33.1485 73.3966 32.8106 70.912 32.2469V32.2485ZM89.4592 82.7594C89.4592 81.9569 89.5226 81.2047 89.4446 80.4688C89.3292 79.395 89.8817 78.8151 90.6357 78.1393C91.9324 76.9778 93.1739 75.7074 94.1992 74.3071C95.2668 72.8483 96.0468 71.1799 96.9649 69.609C97.168 69.2613 97.4166 68.9381 97.6425 68.6034C97.6262 70.8062 97.2964 72.8905 96.8999 74.9634C96.4335 77.4001 95.0377 79.3414 93.3477 81.0569C92.3256 82.095 91.0452 82.7561 89.4592 82.7594ZM39.6414 18.2225C39.2303 13.7177 40.3369 9.97971 42.4574 6.54387C43.0652 5.56104 44.0385 4.78128 44.9306 4.00639C45.3564 3.63762 45.9852 3.50116 46.5214 3.26074C46.1103 4.72604 45.4035 5.88432 44.877 7.11895C43.8435 9.53784 42.9189 12.0022 41.9326 14.4406C41.424 15.6996 40.9121 16.9619 39.6414 18.2209V18.2225ZM95.881 45.9545C97.8326 48.3474 98.9587 50.7046 98.9506 52.165C97.6149 50.3959 96.232 48.5667 94.8541 46.7359C94.8281 46.7018 94.8589 46.6254 94.8687 46.5019C95.1579 46.346 95.4781 46.1722 95.881 45.9545ZM88.1609 78.7566C88.7637 81.0537 88.5103 82.5108 87.3029 83.6529C87.0267 81.9 87.3127 80.3827 88.1609 78.7566ZM37.1568 56.9394C38.2082 58.1286 38.941 59.2219 38.7932 60.7375C37.0805 60.1803 36.5345 58.9847 37.1568 56.9394Z" fill="#84521D"/>
<path d="M85.279 80.3852C85.279 79.3617 85.3131 78.5657 85.2741 77.7729C84.8403 69.1777 85.3489 60.5986 85.6771 52.0163C85.7535 50.0182 86.0395 48.0249 86.2556 46.0333C86.5286 43.5007 87.1883 41.1061 89.0928 39.0576C80.9745 35.3927 72.6352 33.2451 63.8361 32.2266C63.8361 33.3312 63.7614 34.2621 63.8475 35.1783C64.504 42.102 65.2271 49.0175 65.8624 55.9428C66.4702 62.5708 66.5644 69.2118 66.2102 75.8609C66.1549 76.912 66.2021 77.9695 66.2021 79.2269C72.567 79.94 78.7694 80.3315 85.2806 80.3852H85.279Z" fill="#FFA048"/>
<path d="M28.8232 30.2773C25.3393 30.4577 22.0927 30.6559 18.9939 31.7053C17.044 32.3665 15.1411 33.2128 13.3033 34.1453C9.65529 35.9972 7.52335 38.9685 6.82787 43.0525C6.31764 46.0562 6.41839 49.0469 6.57763 52.0507C6.758 55.428 6.97737 58.8037 7.17724 62.1795C7.31049 64.4278 7.39498 66.6826 7.60135 68.9244C7.65335 69.4816 7.96209 70.1574 8.3797 70.5083C9.31242 71.293 9.55455 72.1978 9.41155 73.3415C9.28805 74.3341 9.23117 75.3413 9.22142 76.342C9.20842 77.5782 9.51554 78.1045 10.7034 78.4132C12.0293 78.7576 13.4041 78.9509 14.7706 79.1036C17.7167 79.4334 20.6465 79.2352 23.573 78.7738C24.6162 78.6098 24.9071 78.0834 24.9055 77.1282C24.9039 74.0579 24.9331 70.9859 24.9705 67.9156C25.042 61.8887 25.8496 55.9284 26.6117 49.9632C27.3494 44.1864 28.0189 38.4031 28.7063 32.6199C28.7859 31.9441 28.7777 31.2585 28.8232 30.279V30.2773Z" fill="#FFA048"/>
<path d="M26.0134 78.0987C26.1727 78.2254 26.2182 78.292 26.2718 78.2985C29.6858 78.7534 29.9003 78.5861 30.6039 75.1746C31.4684 70.9866 31.8486 66.7466 32.1444 62.4888C32.7619 53.6076 33.2445 44.7053 35.0986 35.9638C35.8395 32.4695 36.8551 29.0304 37.4954 25.5215C38.0105 22.6964 38.3192 19.8064 38.4053 16.9359C38.5142 13.3344 39.3852 10.0025 41.0686 6.85259C41.9786 5.15173 43.2769 3.81475 44.936 2.83355C46.1304 2.12689 47.3182 2.15775 48.4914 2.9034C50.0644 3.90248 51.2831 5.2297 52.1346 6.88345C53.7433 10.0058 54.6386 13.3246 54.5379 16.8417C54.403 21.5203 55.0026 26.1079 56.0881 30.6338C57.765 37.6159 58.5564 44.7085 58.8895 51.8629C59.143 57.3147 59.3039 62.7715 59.6565 68.2168C59.8385 71.0256 60.339 73.8133 60.7225 76.6074C60.7891 77.0996 60.9743 77.5773 61.1287 78.0532C61.3773 78.8233 61.9282 79.14 62.7211 79.0621C63.4637 78.989 64.2064 78.9126 65.0968 78.8233C65.1699 75.8179 65.2496 72.8288 65.3162 69.8381C65.4852 62.2906 64.7215 54.8065 63.8846 47.3175C63.3419 42.4586 62.9519 37.5753 62.6886 32.692C62.3897 27.1573 61.2814 21.9232 58.4248 17.0724C56.3919 13.6219 54.4859 10.0854 53.103 6.28726C52.6887 5.1501 51.9396 4.02594 51.0621 3.18769C47.8967 0.164481 42.445 1.15868 40.7225 5.07375C38.3907 10.3762 35.2513 15.2253 32.5766 20.3311C30.7697 23.7784 30.2952 27.6025 29.8532 31.4136C29.0651 38.2024 28.3306 44.9977 27.432 51.7719C26.5074 58.7476 25.8168 65.7281 26.0053 72.7768C26.0541 74.58 26.0118 76.3865 26.0118 78.1003L26.0134 78.0987Z" fill="#FFA048"/>
<path d="M30.9014 78.223C40.6446 78.7802 50.2156 79.2465 60.0596 78.5431C58.3696 71.6941 58.5435 64.6194 58.0609 57.4277C51.5334 57.2132 45.1457 56.4302 38.5111 56.5683C38.8881 57.3578 39.213 57.9508 39.4552 58.5746C39.6567 59.0961 39.9215 59.6744 39.8646 60.1942C39.8029 60.7466 39.5218 61.4532 39.0993 61.7326C38.7711 61.9487 37.9748 61.7684 37.567 61.4938C36.4685 60.7563 35.9225 59.6273 35.8413 58.3017C35.8071 57.7493 35.8364 57.1938 35.8364 56.5066C35.1279 56.4643 34.4714 56.4237 33.672 56.375C32.9602 63.7763 32.9927 71.1369 30.9047 78.2214L30.9014 78.223Z" fill="#FFA048"/>
<path d="M54.8614 30.7534C49.1691 29.8583 43.4298 30.2806 37.6027 30.3537C35.695 36.7267 34.7672 43.1191 34.2228 49.7228C42.0648 50.0915 49.7346 50.4522 57.3703 50.8112C58.1373 48.4622 56.4408 35.1087 54.8614 30.7534Z" fill="#FFA048"/>
<path d="M6.55779 70.3917C5.13108 72.203 4.64358 74.1963 4.58021 76.2805C4.56234 76.8848 4.95558 77.5915 5.35206 78.1032C7.6335 81.0533 10.6299 83.0693 14.0163 84.5541C17.3783 86.0276 20.9451 86.7359 24.5233 87.4052C33.7595 89.132 43.0754 89.6714 52.4514 89.2506C58.4052 88.9826 64.3558 88.6138 70.3112 88.3669C73.6976 88.2272 77.1035 88.4124 80.4737 88.1346C83.397 87.8925 86.2926 87.2541 89.1786 86.6806C90.0788 86.5019 90.9823 86.0796 91.7525 85.5711C94.211 83.9498 96.6241 82.2587 99.016 80.54C99.5019 80.1907 99.9959 79.6611 100.175 79.112C101.044 76.4332 101.878 73.7398 102.589 71.0155C103.238 68.53 102.989 66.0282 102.243 63.5866C101.627 61.569 100.959 59.5659 99.9699 57.6084C99.8561 58.0633 99.6806 58.5116 99.64 58.973C99.3492 62.2675 99.1542 65.5734 98.7885 68.8598C98.5188 71.2819 98.1304 73.7008 97.6202 76.084C97.1035 78.498 95.6101 80.4328 93.8194 82.0183C92.8818 82.8484 91.5559 83.3325 90.3258 83.7127C89.4808 83.9742 88.7057 84.2244 87.9794 84.7523C87.0353 85.4379 86.4779 84.0408 85.5825 84.1903C84.2225 84.4177 82.8624 84.6971 81.4909 84.8027C77.2384 85.1325 72.9843 85.4363 68.7253 85.6669C59.3737 86.1738 50.0188 85.8505 40.6769 85.4687C34.351 85.2105 28.0364 84.6191 21.73 84.0473C19.1772 83.815 16.6423 83.3017 14.1236 82.7948C12.0355 82.3741 10.3472 81.1151 8.81972 79.7066C8.38098 79.3021 8.12099 78.511 8.09987 77.8855C8.05437 76.5794 8.24773 75.2652 8.29648 73.9542C8.37285 71.9333 8.35661 71.9333 6.55616 70.3949L6.55779 70.3917Z" fill="#FFA048"/>
<path d="M95.0595 48.6768C94.8076 48.3665 94.7426 48.2544 94.6484 48.1748C92.8885 46.6852 92.869 46.6104 94.8417 45.293C95.4446 44.8901 95.7485 44.4563 95.6575 43.7659C95.4608 42.2795 95.3536 40.7703 95.0026 39.3196C94.572 37.5392 93.7563 37.2614 92.0939 38.1678C89.9669 39.3277 88.3159 40.9912 87.8674 43.4101C87.3328 46.292 86.9298 49.2194 86.756 52.1435C86.4196 57.8277 86.2067 63.5232 86.0914 69.2171C86.0264 72.445 86.2539 75.6794 86.353 79.047C89.6484 76.144 89.8353 72.2338 90.4544 68.5429C90.898 65.895 91.0263 63.195 91.288 60.5162C91.6991 56.3136 92.3426 52.1841 95.0562 48.6768H95.0595Z" fill="#FFA048"/>
<path d="M89.6743 77.7541C90.4771 77.0296 91.4309 76.4155 92.0565 75.5627C94.8839 71.711 97.4432 67.6936 98.2378 62.8574C98.5303 61.0704 98.3727 59.1779 98.8651 57.4624C99.4029 55.5861 98.8017 54.2085 97.8462 52.7676C97.1914 51.7815 96.6161 50.7434 95.8719 49.5088C95.464 50.001 95.126 50.321 94.8921 50.7061C93.0299 53.7439 92.6009 57.1651 92.3441 60.6107C92.0094 65.1106 91.5641 69.591 90.4657 73.9804C90.1667 75.1744 89.7734 76.3441 89.4241 77.5251C89.507 77.6014 89.5898 77.6778 89.6727 77.7541H89.6743Z" fill="#FFA048"/>
<path d="M34.0798 50.8066C33.9498 52.4474 33.8491 53.7356 33.7353 55.1912C41.8503 55.5924 49.8565 55.9872 57.8594 56.382V51.7911C49.8825 51.4613 42.0941 51.138 34.0798 50.8066Z" fill="#FFA048"/>
<path d="M95.8816 45.9541C95.4786 46.1718 95.1568 46.3456 94.8692 46.5016C94.8595 46.625 94.8302 46.7014 94.8546 46.7355C96.2326 48.5679 97.6138 50.3955 98.9511 52.1646C98.9609 50.7042 97.8348 48.347 95.8816 45.9541Z" fill="#FFA048"/>
<path d="M88.1614 78.7559C87.3132 80.3804 87.0272 81.8993 87.3034 83.6521C88.5108 82.5101 88.7643 81.0545 88.1614 78.7559Z" fill="#FFA048"/>
<path d="M37.1577 56.9395C36.5353 58.9847 37.0813 60.1804 38.794 60.7376C38.9419 59.2219 38.209 58.127 37.1577 56.9395Z" fill="#FFA048"/>
</g>
</g>
<defs>
<clipPath id="clip0_1235_4389">
<rect width="100.507" height="90.456" fill="white" transform="matrix(-1 0 0 1 104 0)"/>
</clipPath>
<clipPath id="clip1_1235_4389">
<rect width="100.507" height="90.456" fill="white" transform="matrix(-1 0 0 1 104 0)"/>
</clipPath>
</defs>
</svg>
