<svg width="104" height="94" viewBox="0 0 104 94" fill="none" xmlns="http://www.w3.org/2000/svg">
<g clip-path="url(#clip0_312_3190)">
<path d="M69.8601 31.0261C69.3389 29.2628 68.7705 27.2792 68.1652 25.3041C66.2955 19.1988 63.9078 13.312 60.3785 7.96313C59.1359 6.07876 57.6781 4.31037 56.1463 2.64789C54.0563 0.378576 51.3559 -0.302219 48.3277 0.116344C47.1254 0.281079 45.8963 0.444134 44.6958 0.36849C41.9416 0.193669 40.0029 1.58888 38.3349 3.4951C37.7481 4.16413 37.2924 5.00462 36.9713 5.84006C35.4731 9.74328 33.2973 13.2885 31.1434 16.8303C28.8499 20.6041 27.2459 24.5829 26.6338 28.9585C26.5716 29.3989 26.4505 29.8292 26.3749 30.1856C23.461 30.5437 20.616 30.7639 17.8214 31.2698C14.3409 31.9002 11.1276 33.3358 8.15992 35.2504C5.2544 37.1247 3.4065 39.7504 2.64818 43.1846C1.99746 46.133 1.84445 49.0932 1.99915 52.082C2.18578 55.7095 2.40269 59.3354 2.63305 62.9596C2.77765 65.2238 2.97102 67.4864 3.14588 69.749C3.21314 70.6198 2.98951 71.3106 2.38084 72.0318C0.726303 73.9884 0.146202 76.404 -8.39233e-05 78.8986C-0.0370712 79.5306 0.314346 80.2753 0.692665 80.825C2.80455 83.8894 5.68148 86.0746 8.95355 87.7741C12.3904 89.5593 16.1013 90.4939 19.8728 91.1982C28.9559 92.896 38.1096 93.8828 47.3642 93.5281C53.5233 93.2927 59.6757 92.859 65.8347 92.6136C69.8567 92.4539 73.8854 92.4808 77.9108 92.4102C81.6957 92.3447 85.4419 91.837 89.0318 90.6906C90.9739 90.0703 92.7932 88.9508 94.5318 87.8447C96.3309 86.7016 98.0006 85.34 99.6585 83.9919C100.242 83.5179 100.825 82.8673 101.061 82.1781C101.984 79.4835 102.863 76.7671 103.576 74.0103C104.361 70.9778 103.966 67.952 103.053 64.9885C102.672 63.7496 102.255 62.5191 101.826 61.2954C101.143 59.3488 100.434 57.4661 100.355 55.3128C100.26 52.7409 98.9287 50.4666 97.476 48.3838C96.6857 47.2509 96.346 46.1112 96.341 44.7731C96.3376 43.8032 96.1897 42.8333 96.0938 41.865C95.845 39.3099 94.4729 37.4441 92.2215 36.4103C89.8776 35.3344 87.4597 34.2653 84.9577 33.719C80.0294 32.6398 75.0238 31.9237 69.8567 31.0227L69.8601 31.0261ZM84.6281 83.18C77.8906 83.1245 71.4726 82.7194 64.8864 81.9815C64.8864 80.6804 64.836 79.5861 64.8948 78.4985C65.2614 71.6199 65.1622 64.7464 64.535 57.8881C63.8792 50.7221 63.131 43.5662 62.45 36.4019C62.3592 35.4538 62.4383 34.4906 62.4383 33.3475C71.5449 34.4015 80.174 36.6237 88.5728 40.416C86.6021 42.5374 85.9211 45.0135 85.637 47.6341C85.4134 49.695 85.1191 51.7559 85.0384 53.8251C84.6987 62.7057 84.1725 71.583 84.6214 80.477C84.6634 81.2973 84.6264 82.1193 84.6264 83.18H84.6281ZM26.2101 31.3304C26.1613 32.344 26.1714 33.0533 26.089 33.7526C25.3795 39.7369 24.685 45.7212 23.9217 51.6987C23.1331 57.8713 22.2974 64.0387 22.2234 70.2752C22.1847 73.4522 22.1545 76.6309 22.1562 79.808C22.1562 80.7947 21.8569 81.3393 20.7774 81.5108C17.7491 81.9882 14.7175 82.1933 11.6691 81.852C10.2567 81.694 8.83417 81.494 7.46043 81.1376C6.23131 80.8182 5.91352 80.2753 5.92697 78.9944C5.93706 77.9589 5.99592 76.9167 6.1237 75.8896C6.27168 74.7062 6.02113 73.7699 5.05599 72.958C4.62386 72.5949 4.30439 71.8956 4.25059 71.319C4.03704 68.9993 3.94962 66.6678 3.81174 64.3396C3.60492 60.8466 3.37624 57.3535 3.19128 53.8588C3.02483 50.7506 2.92057 47.6577 3.45023 44.5479C4.1682 40.3219 6.37592 37.2474 10.1507 35.3311C12.0524 34.3662 14.0214 33.4904 16.0391 32.8062C19.2456 31.7203 22.6051 31.5153 26.2101 31.3287V31.3304ZM23.3029 80.8132C23.3029 79.0381 23.3449 77.1705 23.2962 75.3046C23.1011 68.0109 23.814 60.7894 24.7725 53.5696C25.7023 46.56 26.464 39.5285 27.2778 32.5037C27.7352 28.5584 28.2278 24.6031 30.0959 21.0361C32.8635 15.7528 36.1121 10.7351 38.5249 5.24836C40.3072 1.19721 45.9484 0.168454 49.2239 3.29675C50.1302 4.16245 50.907 5.32736 51.3358 6.50405C52.7667 10.4325 54.739 14.0936 56.8424 17.664C59.7984 22.6834 60.9451 28.0995 61.2545 33.8266C61.5269 38.8796 61.9305 43.9309 62.4921 48.9604C63.358 56.708 64.1483 64.4523 63.9734 72.2638C63.9045 75.3584 63.8221 78.4514 63.7464 81.5612C62.825 81.6537 62.0566 81.7344 61.2882 81.8083C60.4693 81.889 59.8976 81.5612 59.6403 80.7644C59.4806 80.2719 59.2906 79.776 59.22 79.2684C58.8232 76.3771 58.3053 73.4925 58.117 70.5861C57.7521 64.9515 57.5856 59.3051 57.3233 53.6638C56.9786 46.2608 56.1598 38.9216 54.4245 31.6968C53.2997 27.0136 52.6809 22.2665 52.8205 17.4253C52.9247 13.786 51.9982 10.3535 50.3336 7.12096C49.4525 5.40973 48.1915 4.03638 46.5638 3.00258C45.3498 2.23269 44.1207 2.19907 42.8849 2.93029C41.1698 3.9456 39.8247 5.32904 38.8831 7.08902C37.1411 10.3484 36.2415 13.7961 36.1272 17.5228C36.0364 20.4931 35.7169 23.4836 35.1856 26.4068C34.5248 30.0394 33.4739 33.598 32.7055 37.2121C30.787 46.2574 30.2876 55.4691 29.6486 64.659C29.3426 69.0665 28.9492 73.4539 28.0546 77.7858C27.3249 81.3158 27.1029 81.4906 23.5719 81.0183C23.5164 81.0115 23.4694 80.9409 23.3046 80.8115L23.3029 80.8132ZM28.3606 80.9426C30.5213 73.6119 30.4877 65.9971 31.2241 58.3369C32.0497 58.3873 32.729 58.4277 33.4638 58.473C33.4638 59.1841 33.4352 59.759 33.4688 60.3305C33.5529 61.7022 34.1179 62.8705 35.2545 63.6336C35.6766 63.9177 36.5005 64.106 36.8401 63.8807C37.2773 63.5916 37.5682 62.8621 37.6321 62.2889C37.6909 61.7509 37.4185 61.1525 37.2083 60.6129C36.9578 59.9674 36.6215 59.3539 36.2314 58.5369C43.0967 58.3924 49.7064 59.2026 56.4608 59.4262C56.9601 66.8678 56.7802 74.1868 58.5289 81.2755C48.3428 82.0033 38.4392 81.5209 28.3573 80.9443L28.3606 80.9426ZM53.1534 31.8229C54.7877 36.3296 56.5431 50.1472 55.7495 52.5779C47.8468 52.2064 39.9121 51.8332 31.7975 51.4516C32.3608 44.6185 33.3209 38.0021 35.2949 31.4094C41.3262 31.3337 47.2633 30.8983 53.1534 31.8229ZM3.17111 72.8386C5.03413 74.4305 5.05094 74.4322 4.97192 76.5217C4.91979 77.8799 4.72139 79.2381 4.76847 80.5896C4.79033 81.2368 5.05936 82.0554 5.51334 82.474C7.09221 83.9314 8.84089 85.2342 11.0015 85.6695C13.6078 86.194 16.2308 86.7252 18.8723 86.9655C25.3996 87.5573 31.9337 88.1691 38.4778 88.4364C48.1444 88.8314 57.8244 89.1659 67.501 88.6415C71.9081 88.4028 76.3101 88.0884 80.7104 87.7472C82.1295 87.6379 83.5369 87.3488 84.9442 87.1135C85.869 86.9588 86.4474 88.4028 87.4243 87.6951C88.1759 87.1488 88.978 86.8899 89.8523 86.6193C91.1252 86.2259 92.4972 85.725 93.4674 84.866C95.3204 83.2254 96.8656 81.2217 97.4003 78.7254C97.9283 76.2594 98.3301 73.7565 98.6092 71.2501C98.9876 67.8495 99.1893 64.4287 99.4903 61.0197C99.5323 60.5423 99.7139 60.0784 99.8316 59.6077C100.857 61.6333 101.547 63.7059 102.184 65.7937C102.956 68.3202 103.213 70.9089 102.542 73.4808C101.807 76.2998 100.945 79.0868 100.044 81.8588C99.8585 82.4269 99.3474 82.9749 98.8446 83.3363C96.3696 85.1148 93.8726 86.8647 91.3286 88.5423C90.53 89.0685 89.5951 89.5055 88.6652 89.6904C85.679 90.2838 82.6827 90.9444 79.6578 91.1949C76.1705 91.484 72.6446 91.2907 69.1421 91.4353C62.9797 91.6908 56.8239 92.074 50.6615 92.3497C40.9596 92.7851 31.32 92.227 21.7627 90.4401C18.0585 89.7476 14.3678 89.0147 10.8906 87.49C7.38646 85.9536 4.2859 83.8658 1.92516 80.8149C1.51489 80.2854 1.10799 79.5541 1.12648 78.9288C1.19205 76.7721 1.69649 74.7079 3.17278 72.8353L3.17111 72.8386ZM85.3629 85.999C85.0031 86.0881 84.7593 86.1654 84.5087 86.2074C77.5711 87.3471 70.5562 87.5556 63.5547 87.6985C53.0374 87.9136 42.525 87.643 32.0178 87.0378C25.2063 86.6445 18.4318 86.0561 11.7313 84.7147C10.1322 84.3953 8.78205 83.7398 7.58487 82.6068C10.64 82.7631 13.5489 83.0489 16.4544 83.0169C18.7076 82.9917 20.9539 82.5194 23.2104 82.3446C24.495 82.2454 25.7965 82.3479 27.0895 82.358C30.8525 82.3899 34.6173 82.4 38.3786 82.4589C41.6204 82.511 44.8807 82.8841 48.0956 82.6404C52.9718 82.2689 57.8143 82.4404 62.6619 82.7883C66.7965 83.0842 70.9127 83.649 75.0507 83.8591C78.5161 84.0339 81.9799 84.6777 85.6286 84.0575C85.5294 84.7736 85.4453 85.3854 85.3612 85.999H85.3629ZM94.7487 50.3691C91.9407 53.9983 91.2748 58.2713 90.8494 62.62C90.5787 65.3903 90.4459 68.1857 89.9869 70.9257C89.3462 74.7466 89.1529 78.791 85.7429 81.7949C85.6403 78.3119 85.4033 74.9634 85.4722 71.6233C85.5916 65.7315 85.8102 59.8397 86.1599 53.9563C86.3398 50.9305 86.7568 47.9014 87.31 44.9193C87.7741 42.4181 89.4807 40.6951 91.6834 39.4948C93.4035 38.5569 94.2476 38.8443 94.6932 40.6867C95.0564 42.1878 95.1657 43.7494 95.3708 45.2875C95.465 46.0019 95.1505 46.4524 94.5267 46.8676C92.4855 48.2309 92.5056 48.3065 94.3266 49.8496C94.4242 49.932 94.4914 50.048 94.752 50.3691H94.7487ZM48.5311 6.17794C49.0154 6.97808 49.3147 7.39496 49.5349 7.85051C50.9944 10.8679 51.8671 14.0365 51.7427 17.4068C51.5913 21.5118 52.1092 25.5461 52.8373 29.5687C52.8995 29.9167 52.8457 30.2848 52.8457 30.6126C48.7833 30.4159 44.869 30.226 40.7965 30.0276C41.4624 21.4563 43.1018 13.3927 48.5311 6.17794ZM89.1764 80.4568C89.0906 80.3778 89.0049 80.2988 88.9191 80.2198C89.2806 78.9977 89.6876 77.7874 89.9969 76.5519C91.1319 72.0099 91.5943 67.3738 91.9407 62.7175C92.2047 59.1538 92.6486 55.612 94.5772 52.4686C94.821 52.0719 95.1707 51.7391 95.5911 51.2297C96.3612 52.5073 96.9581 53.5814 97.634 54.6018C98.6227 56.0928 99.2448 57.5182 98.6883 59.4598C98.1788 61.2366 98.3419 63.1932 98.0392 65.0423C97.2187 70.0465 94.5704 74.2036 91.6431 78.1892C90.994 79.0734 90.0087 79.7088 89.1781 80.4568H89.1764ZM31.6495 52.5728C39.9424 52.9157 48.0015 53.2503 56.2556 53.5915V58.3419C47.9729 57.9334 39.6901 57.525 31.2931 57.1098C31.4124 55.6036 31.5167 54.2706 31.6495 52.5728ZM64.3921 32.4129C64.2643 31.3119 64.2357 30.3403 64.0306 29.4056C63.0738 25.0469 62.1205 20.6864 61.0628 16.3512C60.1801 12.7321 58.6466 9.3886 56.4406 6.36116C54.9676 4.34063 53.1231 2.95383 50.6111 2.48147C49.9872 2.36381 49.4223 1.92843 48.447 1.45104C51.366 0.724856 53.4796 1.43927 55.0803 3.16731C56.8744 5.10379 58.5844 7.17475 59.9884 9.40373C64.2071 16.099 66.7427 23.5138 68.7907 31.1051C68.9639 31.7489 68.8966 32.4566 68.9538 33.3139C67.2438 32.976 65.8062 32.6936 64.3921 32.4146V32.4129ZM47.8754 5.40469C42.0744 12.722 40.4014 21.2916 39.6447 30.2495H35.7337C35.7926 29.6527 35.8094 29.1434 35.8951 28.6475C36.2029 26.8623 36.6434 25.0923 36.8149 23.2953C36.9326 22.0682 37.3462 21.0243 38.0676 20.1166C39.9625 17.7363 40.921 14.9274 41.9819 12.142C42.8327 9.9097 43.8668 7.74628 44.8757 5.57783C45.1565 4.97604 45.6407 4.46839 46.1082 3.80944C46.8127 4.44485 47.3205 4.90376 47.8737 5.40301L47.8754 5.40469ZM51.5476 3.9809C53.2223 4.39274 53.7873 4.73062 54.9323 6.13423C56.8391 8.47079 58.2851 11.083 59.188 13.9524C60.8426 19.2088 62.1726 24.5527 63.0688 29.994C63.1983 30.7739 63.3647 31.5993 62.8199 32.5306C61.9725 31.7489 62.0767 30.8765 62.0044 30.0948C61.6228 25.9731 60.5012 22.1018 58.4768 18.4608C55.8958 13.8213 53.3148 9.17343 51.5476 3.97922V3.9809ZM69.7626 33.3694C70.1476 32.9441 70.3191 32.5793 70.536 32.5491C71.1044 32.4701 71.7029 32.4684 72.2696 32.5575C75.4088 33.0483 78.5649 33.4652 81.6705 34.1241C84.4499 34.7142 87.1839 35.5378 89.9061 36.3581C90.7687 36.6187 91.5338 37.2037 92.5594 37.7567C91.9777 38.0744 91.6582 38.1786 91.4312 38.3837C90.081 39.6007 88.7375 39.3402 87.162 38.7115C83.7319 37.3432 80.2446 36.0993 76.7254 34.9814C74.5816 34.3006 72.3335 33.951 69.7626 33.3677V33.3694ZM88.9545 85.6359C88.9545 84.8055 89.02 84.0272 88.9393 83.2657C88.8199 82.1546 89.3916 81.5545 90.1718 80.8552C91.5136 79.6533 92.7982 78.3388 93.8592 76.8898C94.9639 75.3803 95.771 73.6539 96.721 72.0284C96.9312 71.6687 97.1884 71.3342 97.4221 70.9879C97.4053 73.2673 97.064 75.424 96.6537 77.5689C96.1712 80.0904 94.7268 82.0991 92.9781 83.8742C91.9205 84.9484 90.5955 85.6325 88.9545 85.6359ZM37.4051 18.8558C36.9797 14.1945 38.1247 10.3266 40.319 6.77132C40.9479 5.75433 41.955 4.94746 42.8781 4.14564C43.3187 3.76406 43.9694 3.62286 44.5243 3.37407C44.0989 4.89031 43.3674 6.08884 42.8227 7.36638C41.7533 9.86936 40.7965 12.4194 39.7759 14.9425C39.2496 16.2453 38.72 17.5514 37.4051 18.8542V18.8558ZM95.5995 47.5518C97.6189 50.0278 98.7841 52.4669 98.7757 53.9781C97.3936 52.1475 95.9627 50.2548 94.5368 48.3603C94.5099 48.325 94.5419 48.246 94.5519 48.1182C94.8512 47.9569 95.1825 47.777 95.5995 47.5518ZM87.611 81.494C88.2348 83.8709 87.9725 85.3787 86.7232 86.5604C86.4373 84.7467 86.7333 83.1766 87.611 81.494ZM34.8342 58.9185C35.9221 60.149 36.6804 61.2803 36.5274 62.8486C34.7551 62.272 34.1902 61.0348 34.8342 58.9185Z" fill="#84521D"/>
<path d="M84.6284 83.1791C84.6284 82.1201 84.6637 81.2965 84.6233 80.4761C84.1744 71.5821 84.7007 62.7049 85.0403 53.8243C85.1194 51.7567 85.4153 49.6941 85.6389 47.6333C85.9214 45.0126 86.6041 42.5349 88.5747 40.4152C80.1743 36.6229 71.5452 34.4007 62.4402 33.3467C62.4402 34.4897 62.3628 35.4529 62.452 36.401C63.1313 43.5653 63.8795 50.7212 64.5369 57.8872C65.1658 64.7456 65.2633 71.6174 64.8968 78.4976C64.8396 79.5852 64.8884 80.6795 64.8884 81.9806C71.4745 82.7186 77.8926 83.1237 84.6301 83.1791H84.6284Z" fill="white"/>
<path d="M26.21 31.3301C22.605 31.5167 19.2455 31.7217 16.039 32.8077C14.0213 33.4918 12.0523 34.3676 10.1506 35.3325C6.37577 37.2488 4.16974 40.3233 3.45009 44.5493C2.92212 47.6574 3.02637 50.7521 3.19115 53.8602C3.37779 57.3549 3.60478 60.848 3.8116 64.341C3.94948 66.6675 4.03691 69.0007 4.25045 71.3204C4.30426 71.897 4.62372 72.5963 5.05585 72.9594C6.02099 73.7713 6.27153 74.7076 6.12357 75.891C5.99578 76.9181 5.93692 77.9603 5.92683 78.9958C5.91338 80.275 6.23117 80.8196 7.4603 81.139C8.83235 81.4954 10.2548 81.6954 11.6689 81.8534C14.7174 82.1947 17.749 81.9896 20.7773 81.5122C21.8567 81.3424 22.1577 80.7978 22.156 79.8094C22.1543 76.6323 22.1846 73.4536 22.2233 70.2766C22.2973 64.0402 23.1329 57.8727 23.9215 51.7001C24.6849 45.7226 25.3777 39.7383 26.0889 33.754C26.1713 33.0548 26.1629 32.3454 26.21 31.3318V31.3301Z" fill="white"/>
<path d="M23.3028 80.8128C23.4676 80.9439 23.5147 81.0128 23.5702 81.0195C27.1028 81.4902 27.3248 81.3171 28.0529 77.787C28.9474 73.4535 29.3408 69.0661 29.6469 64.6603C30.2858 55.4704 30.7852 46.2587 32.7037 37.2134C33.4704 33.5976 34.5213 30.039 35.1838 26.4081C35.7168 23.4848 36.0363 20.4944 36.1254 17.5241C36.2381 13.7974 37.1393 10.3497 38.8813 7.09031C39.8229 5.33033 41.1663 3.94689 42.8831 2.93158C44.1189 2.20036 45.3481 2.2323 46.5621 3.00386C48.1897 4.03766 49.4508 5.41102 50.3318 7.12225C51.9965 10.3531 52.9229 13.7873 52.8187 17.4266C52.6791 22.2678 53.2996 27.0149 54.4228 31.6981C56.158 38.9229 56.9769 46.262 57.3216 53.6651C57.5839 59.3064 57.7503 64.9528 58.1152 70.5874C58.3035 73.4938 58.8214 76.3784 59.2182 79.2697C59.2872 79.779 59.4788 80.2732 59.6386 80.7657C59.8958 81.5625 60.4658 81.8903 61.2864 81.8096C62.0548 81.734 62.8232 81.6549 63.7446 81.5625C63.8203 78.4527 63.9027 75.3597 63.9716 72.265C64.1465 64.4552 63.3562 56.711 62.4903 48.9617C61.9287 43.9339 61.5251 38.8809 61.2527 33.8279C60.9434 28.1008 59.7966 22.6847 56.8407 17.6653C54.7372 14.0949 52.7649 10.4354 51.334 6.50533C50.9052 5.32865 50.1301 4.16542 49.2221 3.29803C45.9467 0.169741 40.3055 1.1985 38.5231 5.24964C36.1103 10.7363 32.8617 15.7541 30.0941 21.0374C28.2244 24.6044 27.7334 28.5614 27.276 32.505C26.4605 39.5297 25.7005 46.5613 24.7707 53.5709C23.814 60.789 23.0993 68.0122 23.2944 75.3059C23.3448 77.1718 23.3011 79.041 23.3011 80.8145L23.3028 80.8128Z" fill="white"/>
<path d="M28.3606 80.9424C38.4425 81.519 48.3461 82.0014 58.5322 81.2735C56.7835 74.1865 56.9635 66.8659 56.4641 59.4242C49.7098 59.2023 43.1 58.3921 36.2347 58.535C36.6248 59.352 36.9611 59.9655 37.2117 60.611C37.4202 61.1506 37.6942 61.749 37.6354 62.2869C37.5715 62.8585 37.2806 63.5897 36.8434 63.8788C36.5038 64.1024 35.6799 63.9158 35.2578 63.6317C34.1212 62.8685 33.5562 61.7003 33.4721 60.3286C33.4368 59.7571 33.4671 59.1822 33.4671 58.4711C32.734 58.4274 32.0547 58.3854 31.2274 58.335C30.491 65.9935 30.5246 73.61 28.364 80.9407L28.3606 80.9424Z" fill="white"/>
<path d="M53.1533 31.8227C47.2632 30.8965 41.3244 31.3336 35.2948 31.4092C33.3208 38.0037 32.3607 44.6183 31.7974 51.4515C39.912 51.8331 47.8484 52.2062 55.7494 52.5777C56.543 50.147 54.7876 36.3294 53.1533 31.8227Z" fill="white"/>
<path d="M3.17137 72.8379C1.69508 74.7122 1.19064 76.7748 1.12506 78.9315C1.10657 79.5568 1.51347 80.288 1.92374 80.8175C4.28447 83.8702 7.38504 85.9563 10.8891 87.4927C14.368 89.0173 18.0588 89.7502 21.7613 90.4428C31.3186 92.2296 40.9582 92.7877 50.6601 92.3524C56.8209 92.075 62.9783 91.6934 69.1407 91.4379C72.6448 91.2934 76.1691 91.485 79.6564 91.1975C82.6813 90.9471 85.6776 90.2865 88.6638 89.6931C89.5953 89.5082 90.5302 89.0711 91.3272 88.545C93.8712 86.8673 96.3682 85.1175 98.8432 83.339C99.346 82.9776 99.8571 82.4296 100.042 81.8614C100.942 79.0895 101.804 76.3024 102.541 73.4834C103.212 70.9115 102.954 68.3228 102.183 65.7963C101.545 63.7086 100.854 61.6359 99.8302 59.6104C99.7125 60.081 99.5309 60.545 99.4889 61.0224C99.1879 64.4314 98.9861 67.8522 98.6078 71.2528C98.3287 73.7591 97.9268 76.2621 97.3989 78.7281C96.8642 81.226 95.3189 83.228 93.466 84.8687C92.4958 85.7276 91.1238 86.2286 89.8509 86.6219C88.9766 86.8926 88.1745 87.1514 87.4229 87.6978C86.446 88.4071 85.8693 86.9615 84.9428 87.1161C83.5355 87.3515 82.1281 87.6406 80.709 87.7499C76.3087 88.0911 71.9067 88.4054 67.4996 88.6441C57.823 89.1686 48.143 88.8341 38.4764 88.4391C31.9306 88.1718 25.3965 87.5599 18.8709 86.9682C16.2294 86.7278 13.6063 86.1966 11.0001 85.6722C8.83949 85.2368 7.09247 83.934 5.51192 82.4766C5.05794 82.0581 4.78891 81.2394 4.76705 80.5923C4.71997 79.2408 4.92005 77.8809 4.9705 76.5243C5.04952 74.4332 5.03271 74.4332 3.16969 72.8413L3.17137 72.8379Z" fill="white"/>
<path d="M94.7486 50.3692C94.488 50.0481 94.4207 49.9321 94.3232 49.8497C92.5022 48.3083 92.482 48.231 94.5233 46.8677C95.1471 46.4508 95.4615 46.002 95.3674 45.2876C95.1639 43.7495 95.0529 42.1878 94.6897 40.6867C94.2442 38.8444 93.4001 38.5569 91.68 39.4949C89.479 40.6951 87.7706 42.4165 87.3066 44.9194C86.7534 47.9015 86.3364 50.9306 86.1565 53.9564C85.8084 59.8381 85.5881 65.7316 85.4688 71.6234C85.4015 74.9635 85.6369 78.3103 85.7395 81.795C89.1494 78.7911 89.3428 74.745 89.9834 70.9258C90.4424 68.1858 90.5753 65.392 90.846 62.6201C91.2714 58.2714 91.9372 53.9984 94.7452 50.3692H94.7486Z" fill="white"/>
<path d="M89.1765 80.4566C90.0071 79.7069 90.9941 79.0715 91.6414 78.189C94.5671 74.2034 97.2154 70.0463 98.0376 65.0421C98.3403 63.193 98.1772 61.2346 98.6866 59.4595C99.2432 57.518 98.6211 56.0925 97.6324 54.6015C96.9548 53.5812 96.3595 52.507 95.5894 51.2295C95.1674 51.7388 94.8177 52.07 94.5755 52.4684C92.6486 55.6118 92.2047 59.1519 91.9391 62.7173C91.5927 67.3736 91.132 72.0097 89.9953 76.5517C89.6859 77.7872 89.279 78.9975 88.9175 80.2196C89.0033 80.2986 89.089 80.3776 89.1748 80.4566H89.1765Z" fill="white"/>
<path d="M31.6498 52.5723C31.5153 54.27 31.411 55.6031 31.2933 57.1092C39.6904 57.5244 47.9748 57.9329 56.2559 58.3414V53.5909C48.0017 53.2497 39.9426 52.9152 31.6498 52.5723Z" fill="white"/>
<path d="M64.3924 32.4123C65.8065 32.6914 67.2458 32.9755 68.9541 33.3116C68.8986 32.4544 68.9659 31.7467 68.791 31.1028C66.743 23.5116 64.2074 16.0968 59.9887 9.40147C58.5847 7.1725 56.873 5.10154 55.0806 3.16506C53.4799 1.43702 51.3663 0.722604 48.4473 1.44878C49.4226 1.92618 49.9875 2.36155 50.6113 2.47922C53.1217 2.95326 54.9679 4.33838 56.4409 6.35891C58.6469 9.38634 60.1804 12.7298 61.0631 16.3489C62.1208 20.6842 63.0741 25.0446 64.0309 29.4034C64.236 30.3363 64.2663 31.3096 64.3924 32.4106V32.4123Z" fill="white"/>
<path d="M47.8753 5.40411C47.3221 4.90486 46.8126 4.44596 46.1098 3.81055C45.6423 4.46949 45.1581 4.97714 44.8773 5.57893C43.8684 7.74739 42.8343 9.9108 41.9835 12.1431C40.9209 14.9285 39.9641 17.7374 38.0692 20.1177C37.3461 21.0254 36.9342 22.0693 36.8165 23.2964C36.6433 25.0934 36.2028 26.8634 35.8967 28.6486C35.811 29.1445 35.7925 29.6538 35.7353 30.2506H39.6463C40.403 21.2927 42.076 12.7214 47.877 5.40579L47.8753 5.40411Z" fill="white"/>
<path d="M69.7627 33.3687C72.3353 33.952 74.5834 34.3016 76.7255 34.9824C80.2464 36.1003 83.7337 37.3442 87.1622 38.7125C88.736 39.3412 90.0811 39.6018 91.4313 38.3847C91.6583 38.1797 91.9778 38.0754 92.5596 37.7577C91.5339 37.2047 90.7688 36.6197 89.9063 36.3592C87.1823 35.5372 84.45 34.7152 81.6706 34.1251C78.565 33.4662 75.409 33.0493 72.2697 32.5585C71.7014 32.4694 71.1028 32.4711 70.5362 32.5501C70.3193 32.5803 70.1494 32.9434 69.7627 33.3704V33.3687Z" fill="white"/>
<path d="M95.5996 47.5518C95.1826 47.777 94.8497 47.9569 94.5521 48.1182C94.542 48.246 94.5117 48.325 94.5369 48.3603C95.9628 50.2564 97.392 52.1475 98.7758 53.9781C98.7859 52.4669 97.6207 50.0278 95.5996 47.5518Z" fill="white"/>
<path d="M87.6109 81.4932C86.7332 83.1741 86.4373 84.7459 86.7231 86.5596C87.9725 85.3779 88.2348 83.8717 87.6109 81.4932Z" fill="white"/>
<path d="M34.834 58.918C34.1901 61.0343 34.755 62.2715 36.5272 62.8481C36.6803 61.2797 35.9219 60.1468 34.834 58.918Z" fill="white"/>
</g>
<defs>
<clipPath id="clip0_312_3190">
<rect width="104" height="93.6" fill="white" transform="matrix(-1 0 0 1 104 0)"/>
</clipPath>
</defs>
</svg>
