<svg width="106" height="164" viewBox="0 0 106 164" fill="none" xmlns="http://www.w3.org/2000/svg">
<g clip-path="url(#clip0_1239_5120)">
<path d="M34.1765 38.1553C33.6021 38.2243 33.1817 38.2756 32.811 38.3206C32.2911 37.8889 30.8277 14.1145 31.1518 12.0538C31.9878 11.8115 32.4018 12.1244 32.4644 13.0039C32.5511 14.238 32.6746 15.4706 32.7645 16.7047C33.2683 23.5559 33.7674 30.4086 34.2616 37.2614C34.2792 37.4989 34.2183 37.7412 34.1765 38.1569V38.1553Z" fill="white"/>
<path d="M31.2807 39.2803C31.2807 37.7444 31.3465 36.3931 31.2695 35.0499C30.9357 29.2371 30.5378 23.4291 30.2152 17.6163C30.0997 15.5283 30.204 13.4276 30.0612 11.3429C30.0147 10.6624 29.5927 9.94824 29.1819 9.36407C27.5853 7.09479 28.102 4.52701 30.5971 3.26559C33.0442 2.02825 35.6565 1.26273 38.4196 1.11026C38.8513 1.08619 39.3519 1.17927 39.7001 0.99311C41.8583 -0.167205 44.185 0.307834 46.4524 0.209937C47.8115 0.150558 49.1722 0.136114 50.5313 0.0671047C52.3301 -0.0243723 54.1208 -0.151156 55.8153 0.689791C56.1218 0.842253 56.5277 0.848672 56.8856 0.840648C59.7338 0.770034 62.4087 1.52913 64.9825 2.62846C67.0203 3.4983 67.728 4.75169 67.4905 6.89418C67.4199 7.52971 67.1054 8.19252 66.7395 8.73175C66.1538 9.59356 65.9645 10.3992 66.0608 11.4905C66.2341 13.4533 66.072 15.4465 66.0158 17.4269C65.8201 24.2411 65.6083 31.0538 65.4109 37.8664C65.4045 38.0991 65.4703 38.335 65.4895 38.4811C68.3377 38.7828 71.0928 39.0219 73.8319 39.3798C76.425 39.7184 78.9266 40.4085 81.2436 41.6796C83.2061 42.7564 84.692 44.2858 85.7061 46.2759C87.0203 48.8533 87.7696 51.5864 87.8306 54.4783C87.9269 59.0024 87.959 63.5265 88.0408 68.0522C88.121 72.4512 88.251 76.8501 88.3104 81.249C88.3216 82.1156 88.5848 82.764 89.1576 83.4043C90.2311 84.6032 91.3142 85.8148 92.2192 87.1405C92.8691 88.0921 93.3168 89.2091 93.6955 90.3069C93.8832 90.8525 93.7965 91.5378 93.6842 92.1316C93.5478 92.8618 93.2927 93.6129 92.4005 93.7717C91.5388 93.9258 90.9419 93.4123 90.5681 92.7591C89.8989 91.5907 89.3405 90.3582 88.5462 88.7726C88.5462 89.5012 88.5414 89.8751 88.5462 90.2491C88.6233 94.8358 88.6891 99.4225 88.7837 104.008C88.9715 112.992 89.2009 121.976 89.3566 130.96C89.4063 133.855 89.7561 136.79 88.6682 139.603C88.5832 139.823 88.5864 140.088 88.596 140.329C88.7404 143.975 88.4082 144.773 85.7735 147.084C85.7221 147.944 85.6708 148.798 85.6114 149.788C87.4118 151.101 88.5607 152.93 88.8896 155.267C89.2683 157.963 87.8803 160.723 85.5681 161.765C83.3393 162.77 80.6692 162.089 78.8367 160.051C76.7331 157.709 76.3255 154.386 77.8049 151.59C77.9478 151.319 78.1066 151.057 78.1259 151.024C77.7793 149.958 77.4263 149.111 77.2417 148.228C77.0845 147.477 76.7218 147.048 76.0367 146.734C75.0274 146.272 74.0903 145.652 73.0777 145.2C72.6589 145.012 72.1198 145.007 71.6448 145.044C60.6981 145.898 49.7242 145.662 38.7614 145.861C35.5426 145.919 32.3205 145.784 29.1 145.74C28.118 145.728 27.1215 145.577 26.3385 146.459C26.0705 146.761 25.6004 146.92 25.1944 147.055C23.7438 147.536 23.0025 148.509 22.8709 150.038C22.826 150.552 22.5051 151.041 22.2371 151.731C22.3671 151.962 22.6174 152.376 22.8404 152.807C24.3728 155.748 23.6106 159.642 21.0449 161.77C19.2974 163.219 17.3077 163.747 15.1527 162.84C13.0089 161.938 11.9708 160.152 11.7108 157.913C11.3963 155.215 12.3174 153.161 14.7596 150.881C14.6906 150.041 14.6216 149.191 14.5414 148.193C14.2188 147.931 13.7711 147.61 13.3732 147.234C12.051 145.983 11.2005 144.442 11.3979 142.619C11.5247 141.454 11.2198 140.452 10.9807 139.382C10.7545 138.364 10.5459 137.316 10.533 136.281C10.3629 121.778 10.233 107.273 10.0821 92.7687C9.9666 81.6743 9.8286 70.5783 9.71949 59.4839C9.69863 57.3221 9.54619 55.1299 9.84465 53.0051C10.1158 51.0744 10.7561 49.1502 11.5199 47.3431C12.7458 44.4383 15.1607 42.6986 18.0282 41.5897C21.9402 40.0747 26.0448 39.521 30.204 39.2867C30.5057 39.2691 30.8073 39.2851 31.2871 39.2851L31.2807 39.2803ZM68.9651 41.9877C67.8692 43.6792 67.8708 43.623 66.3015 42.9297C65.0097 42.3584 63.6747 41.7742 62.2995 41.5303C60.236 41.1644 58.1211 40.9269 56.0287 40.9269C50.764 40.9253 45.496 41.0264 40.2345 41.2125C38.2656 41.2831 36.2679 41.5351 34.36 42.0166C32.6494 42.4467 31.0448 43.3037 29.3568 43.9873C28.3127 43.2876 28.2961 42.0754 29.307 40.3507C24.6873 40.8017 20.2361 41.3329 16.2118 43.6375C14.4338 44.655 13.1277 46.1138 12.2756 47.9706C11.2054 50.3041 10.5234 52.7178 10.5924 55.3257C10.7047 59.6636 10.7769 64.0016 10.8203 68.3411C11.0048 86.5033 11.1749 104.667 11.3434 122.829C11.3642 124.99 11.3466 127.15 11.3466 129.496H17.2676C17.2997 128.283 17.4345 127.057 17.3462 125.848C16.8761 119.414 16.5728 112.977 16.9435 106.532C17.0494 104.685 17.1729 102.786 17.6768 101.023C19.3937 95.0075 22.9175 90.7321 29.376 89.3889C36.4941 87.9076 43.6876 87.1629 50.9469 87.0554C52.9847 87.0249 55.0258 87.3122 57.0669 87.386C61.4106 87.5433 65.7013 88.1162 69.9648 88.9411C72.4006 89.4129 74.5203 90.4722 76.3303 92.1861C78.8271 94.5485 80.69 97.3185 81.3094 100.713C81.8197 103.505 82.1952 106.352 82.2706 109.185C82.4038 114.2 82.2497 119.222 82.2465 124.242C82.2465 125.646 82.346 127.052 82.4086 128.677C84.4545 128.547 86.2725 128.434 88.2462 128.308C88.2462 127.597 88.259 127.052 88.2446 126.508C88.1788 124.279 88.0841 122.049 88.0376 119.819C87.7808 107.549 87.5257 95.2803 87.2882 83.0112C87.1326 74.9548 87.009 66.8983 86.871 58.8419C86.8405 57.0445 86.9288 55.2342 86.7507 53.4512C86.0334 46.263 82.9269 42.5959 77.0781 41.1548C74.9824 40.638 72.8258 40.3539 70.6885 40.0185C69.7145 39.8661 68.7196 39.8452 67.5498 39.7489C68.1548 40.7054 68.5768 41.373 68.9683 41.9909L68.9651 41.9877ZM74.4994 97.6347C73.8383 97.7518 73.3008 97.8545 72.7616 97.9396C68.5447 98.6104 64.3502 99.5509 60.1076 99.8863C52.0813 100.52 44.0214 100.759 35.9822 99.9986C30.7544 99.5043 25.4977 99.071 20.4816 97.0633C20.2345 97.4613 19.9858 97.808 19.7917 98.1819C18.6572 100.368 18.171 102.732 18.049 105.158C17.8051 109.984 17.6463 114.815 17.9961 119.645C18.1389 121.621 18.3074 123.596 18.4005 125.574C18.463 126.925 18.4117 128.279 18.4117 129.61C26.2839 131.595 74.9439 130.712 81.2597 128.618C81.2597 126.289 81.1345 123.934 81.2838 121.595C81.6592 115.704 81.4378 109.833 80.873 103.971C80.605 101.189 79.9551 98.5061 78.1708 96.1084C77.4279 96.4615 76.7764 96.7696 76.2934 96.9991C77.0492 99.1304 77.8804 101.071 78.4115 103.091C78.8704 104.834 78.8383 106.675 78.1371 108.392C77.6268 109.642 76.4747 109.75 75.7061 108.652C75.3932 108.204 75.106 107.671 75.0209 107.143C74.7867 105.681 74.5941 104.205 74.5187 102.727C74.4353 101.071 74.4994 99.408 74.4994 97.6314V97.6347ZM11.5664 130.419C11.5664 132.303 11.5648 133.896 11.5664 135.49C11.5744 140.65 12.7811 142.189 18.1598 143.478C18.3395 143.521 18.5272 143.537 18.7101 143.571C23.8401 144.525 29.0342 144.853 34.2316 144.904C39.6135 144.957 44.9986 144.578 50.3805 144.647C59.9279 144.771 69.4497 144.556 78.9009 143.092C80.9019 142.783 82.89 142.197 84.793 141.494C86.6111 140.823 87.9204 139.52 88.1756 137.435C88.4981 134.79 88.3681 132.155 88.2478 129.406C87.4487 129.406 86.8373 129.353 86.2372 129.416C82.9156 129.759 79.6053 130.244 76.2774 130.47C69.6695 130.918 63.0569 131.359 56.4379 131.558C49.8798 131.756 43.3089 131.765 36.7476 131.646C30.8699 131.541 24.9986 131.16 19.1257 130.878C16.6595 130.759 14.1948 130.582 11.568 130.422L11.5664 130.419ZM35.3388 37.8295C39.8574 37.5181 44.1674 37.0367 48.4822 36.9741C52.7842 36.9115 57.0942 37.2694 61.4427 37.4443C61.4972 36.8297 61.5438 36.467 61.5614 36.1043C61.762 31.9605 62.0476 27.8184 62.1343 23.673C62.2354 18.8039 62.8435 13.9395 62.3011 9.05754C62.1391 7.59551 61.8503 7.11405 60.313 6.88777C59.5284 6.77222 58.7004 6.70963 57.9205 6.82678C55.0499 7.25688 52.184 7.64847 49.2669 7.47194C48.4084 7.42058 47.5387 7.57786 46.6738 7.57946C44.3984 7.58267 42.1424 7.84747 39.8461 7.31466C38.3908 6.97603 36.7813 7.24244 35.2457 7.3275C34.3231 7.37725 33.7743 8.00956 33.7005 8.90829C33.5914 10.2532 33.4582 11.6141 33.5432 12.9557C33.9363 19.258 34.3953 25.5571 34.8446 31.8578C34.981 33.7628 35.1575 35.6661 35.3372 37.8311L35.3388 37.8295ZM77.614 95.2193C75.4847 92.3835 73.02 90.615 69.7434 89.9458C64.6262 88.901 59.4401 88.5511 54.2524 88.1451C48.5849 87.7006 42.9848 88.365 37.3943 89.0679C34.3295 89.4531 31.2903 90.095 28.2656 90.745C25.1398 91.4174 22.9656 93.4267 20.955 96.1839C22.5147 96.6589 23.7246 97.1949 24.9858 97.3827C29.7002 98.0808 34.4161 99.0116 39.1594 99.2138C47.2001 99.5589 55.2777 99.7242 63.28 98.49C67.131 97.8962 70.9516 97.097 74.769 96.3139C75.7013 96.1229 76.571 95.6286 77.614 95.2177V95.2193ZM47.6462 6.65988C47.6462 6.61333 47.6462 6.5684 47.6462 6.52186C49.1898 6.52186 50.7335 6.52186 52.2787 6.52186C54.1903 6.51972 55.2424 5.59853 55.435 3.75829C55.6661 1.56123 55.3179 1.14076 53.1292 1.01076C52.6365 0.981876 52.1407 0.988295 51.6481 0.994715C49.376 1.022 47.1038 1.04286 44.8317 1.09101C43.9074 1.11026 42.9752 1.11989 42.0653 1.26112C40.3484 1.52432 40.212 1.73456 40.3275 3.41485C40.3612 3.90754 40.3997 4.40183 40.4768 4.88811C40.7383 6.52667 40.849 6.6358 42.4649 6.65506C44.1931 6.67592 45.9212 6.65988 47.6494 6.65988H47.6462ZM29.4306 42.896C29.7451 42.7805 30.0901 42.7147 30.3709 42.543C32.4826 41.2494 34.8237 40.6781 37.2435 40.4759C44.6488 39.858 52.0685 39.7971 59.4883 40.1052C61.977 40.2095 64.3968 40.7231 66.6079 41.97C66.8984 42.1337 67.2466 42.1979 67.5675 42.3087C67.6493 42.2059 67.7328 42.1048 67.8146 42.0021C67.2995 41.4581 66.8278 40.8643 66.2613 40.378C64.4738 38.8422 62.245 38.449 60.029 38.3735C54.5332 38.1858 49.039 37.5101 43.5303 38.1938C40.2232 38.603 36.8888 38.8406 33.6042 39.383C31.6947 39.6992 30.257 40.9574 29.4306 42.8944V42.896ZM84.2009 154.813C83.9875 154.166 83.718 153.15 83.3136 152.192C82.9846 151.414 82.6461 150.677 81.4779 150.674C80.2311 150.669 79.3454 150.974 78.7003 152.073C77.3011 154.458 77.9237 157.985 80.1252 159.865C81.0527 160.656 81.6865 160.633 82.4744 159.656C83.5126 158.367 84.0533 156.865 84.2009 154.814V154.813ZM22.5564 155.944C22.6366 154.729 22.2162 153.4 21.2069 152.295C20.4865 151.507 18.2801 151.471 17.6591 152.198C15.7496 154.439 16.2439 159.268 18.5577 161.025C19.1899 161.505 19.7804 161.521 20.387 160.967C21.783 159.69 22.5388 158.128 22.558 155.946L22.5564 155.944ZM39.1802 2.25293C36.7829 2.0138 32.2611 3.19658 30.5458 4.44035C29.3263 5.32463 28.9669 7.2617 29.7884 8.57287C30.1142 9.09284 30.5763 9.55504 30.7849 10.1151C31.17 11.1567 31.8536 11.1069 32.7297 10.8967C32.7489 10.5886 32.7858 10.3495 32.7778 10.1119C32.6735 7.19269 33.4662 6.31002 36.3433 6.20891C37.3734 6.172 38.4068 6.20249 39.5878 6.20249C39.4386 4.76453 39.315 3.55286 39.1802 2.25132V2.25293ZM56.255 5.85584C57.6654 5.85584 58.8881 5.79967 60.106 5.86868C62.3942 5.99707 63.2832 6.99048 63.296 9.31271C63.2976 9.67059 63.296 10.0269 63.296 10.4136C64.2812 10.6512 64.8974 10.4538 65.2296 9.48122C65.4045 8.97088 65.812 8.54238 66.0961 8.06573C66.916 6.69679 66.6111 4.69552 65.2761 3.95729C62.6477 2.50328 59.8076 1.75221 56.5887 1.79715C56.4748 3.17251 56.3721 4.43233 56.255 5.85584ZM65.159 11.5852C64.2508 11.3734 63.7501 11.4327 63.6859 12.2223C63.6105 13.1483 63.5174 14.0727 63.4757 15.0003C63.2222 20.6318 62.9622 26.2633 62.7488 31.8963C62.6766 33.7965 62.7376 35.7031 62.7376 37.7075C63.1388 37.7637 63.4934 37.8407 63.8496 37.8487C64.0053 37.852 64.1657 37.7123 64.4016 37.6016C64.6535 28.945 64.9054 20.2948 65.159 11.5852ZM34.177 38.1553C34.2188 37.7396 34.2797 37.4973 34.2621 37.2598C33.7679 30.407 33.2688 23.5559 32.765 16.7031C32.6735 15.469 32.55 14.2364 32.4649 13.0023C32.4039 12.1212 31.9883 11.8099 31.1523 12.0522C30.8282 14.1145 32.2916 37.8873 32.8115 38.319C33.1822 38.274 33.6026 38.2243 34.177 38.1537V38.1553ZM25.6629 145.569C20.9935 144.871 16.4525 144.948 12.5869 142.295C12.2821 144.662 13.5625 146.745 15.8395 147.541C19.3568 148.769 22.4569 147.743 25.6629 145.57V145.569ZM74.5235 144.814C77.3204 146.544 79.8829 147.39 82.7921 146.923C85.5296 146.483 87.3652 144.752 87.7086 142.131C87.7488 141.825 87.5979 141.492 87.5145 141.069C83.6682 143.948 79.1592 143.941 74.5219 144.814H74.5235ZM82.8242 160.982C84.8637 161.381 86.1666 160.531 87.054 159.082C88.3778 156.917 88.1563 154.683 86.8341 152.598C86.181 151.569 85.4365 150.467 83.5029 150.537C85.9339 154.326 85.3322 157.709 82.8242 160.982ZM16.5664 151.762C15.2426 151.251 14.6954 152.34 14.1049 153.047C12.473 155.005 12.2435 157.958 13.4454 159.987C14.4387 161.664 15.7962 162.299 17.7185 161.99C14.3023 156.424 15.265 155.793 16.5664 151.76V151.762ZM75.6788 99.1208C75.1766 101.623 75.406 104.099 75.9179 106.564C76.0527 107.209 76.1955 107.883 77.0765 108.265C78.1804 104.903 77.4102 101.95 75.6788 99.1208ZM88.6666 84.7861C89.5588 87.8691 89.9246 90.6984 92.1037 92.8666C93.3922 90.5476 92.2802 87.9044 88.6666 84.7861ZM78.2863 147.862C78.2815 148.68 78.1692 149.558 79.0806 149.615C80.6066 149.711 82.1615 149.693 83.6778 149.51C84.6005 149.399 84.9856 148.676 84.6021 147.86H78.2847L78.2863 147.862ZM15.5667 148.902C15.5763 150.033 16.0609 150.624 17.0879 150.662C18.256 150.706 19.4306 150.711 20.5972 150.637C22.0028 150.547 22.0911 150.364 21.8552 148.9H15.5667V148.902Z" fill="#84521D"/>
<path d="M68.9648 41.9881C68.5733 41.3702 68.1513 40.7026 67.5464 39.7461C68.7145 39.8424 69.7094 39.8616 70.685 40.0157C72.8223 40.3511 74.9773 40.6368 77.0746 41.152C82.9234 42.5931 86.0299 46.2618 86.7472 53.4484C86.9253 55.2314 86.8371 57.0417 86.8675 58.8391C87.0055 66.8955 87.1291 74.9519 87.2847 83.0083C87.5222 95.2775 87.7774 107.547 88.0341 119.816C88.0806 122.047 88.1753 124.276 88.2411 126.505C88.2571 127.049 88.2427 127.595 88.2427 128.306C86.269 128.431 84.451 128.545 82.4051 128.675C82.3425 127.049 82.2414 125.643 82.243 124.239C82.2478 119.22 82.4003 114.197 82.2671 109.182C82.1917 106.349 81.8162 103.501 81.3059 100.71C80.685 97.3157 78.822 94.5457 76.3268 92.1833C74.5168 90.4709 72.3971 89.4101 69.9613 88.9383C65.6994 88.1134 61.4087 87.5405 57.0634 87.3832C55.0223 87.3094 52.9813 87.0221 50.9434 87.0526C43.6857 87.1601 36.4922 87.9032 29.3726 89.3861C22.9156 90.7309 19.3918 95.0047 17.6733 101.02C17.1695 102.783 17.0475 104.682 16.94 106.529C16.5693 112.976 16.8726 119.413 17.3427 125.845C17.431 127.054 17.2962 128.28 17.2641 129.493H11.3447C11.3447 127.147 11.3623 124.987 11.3415 122.827C11.173 104.664 11.0029 86.5005 10.8184 68.3383C10.7751 64.0004 10.7028 59.6608 10.5905 55.3229C10.5231 52.715 11.2035 50.2997 12.2738 47.9678C13.1258 46.111 14.432 44.6522 16.2099 43.6347C20.2343 41.3301 24.6855 40.7973 29.3052 40.3479C28.2932 42.0726 28.3098 43.2848 29.3549 43.9845C31.043 43.3009 32.6476 42.4439 34.3581 42.0138C36.2644 41.5339 38.2637 41.2803 40.2326 41.2097C45.4941 41.0236 50.7621 40.9225 56.0268 40.9241C58.1192 40.9241 60.2341 41.1616 62.2977 41.5275C63.6728 41.7714 65.0079 42.3556 66.2996 42.9269C67.8705 43.6202 67.8673 43.6748 68.9632 41.9849L68.9648 41.9881ZM78.7771 60.7313C79.244 60.9656 79.4558 61.0763 79.6708 61.1806C79.9484 61.3154 80.2164 61.4936 80.5101 61.5706C81.3108 61.7776 81.8852 61.3074 81.8146 60.5018C81.7889 60.2 81.7039 59.8775 81.5563 59.6143C79.8955 56.6421 77.8464 54.0342 74.6099 52.6428C73.4642 52.1501 72.2832 51.8837 71.0139 52.4421C70.5983 52.6251 69.979 52.4486 69.4815 52.3234C67.686 51.8708 65.9289 51.2048 64.1109 50.9159C56.5612 49.7139 48.9681 49.1907 41.3526 50.2002C37.6764 50.6864 33.9313 51.0652 30.3963 52.1035C23.6441 54.0871 19.2378 58.6706 17.7038 65.6132C16.6191 70.5241 16.2757 75.5313 16.81 80.577C17.0764 83.0982 18.0472 84.3388 20.5889 84.8379C21.3735 84.9919 22.1855 85.077 22.9846 85.0706C33.3263 85.0016 43.6681 84.9534 54.0082 84.8106C60.7556 84.7175 67.5014 84.4912 74.2472 84.2954C75.4202 84.2617 76.6028 84.1622 77.7549 83.952C79.6997 83.5973 81.1744 82.2027 81.2706 80.6348C81.6814 73.9649 81.176 67.4011 78.7755 60.7329L78.7771 60.7313Z" fill="white"/>
<path d="M29.4297 42.8967C30.2561 40.9596 31.6938 39.6998 33.6033 39.3852C36.8879 38.8428 40.2223 38.6069 43.5294 38.196C49.0381 37.514 54.5323 38.188 60.0281 38.3758C62.2441 38.4512 64.4729 38.846 66.2604 40.3802C66.8253 40.8665 67.2986 41.4587 67.8137 42.0044C67.7319 42.1071 67.6484 42.2082 67.5666 42.3109C67.2457 42.2002 66.8975 42.136 66.607 41.9723C64.3959 40.7253 61.9761 40.2101 59.4873 40.1074C52.0676 39.7993 44.6479 39.8603 37.2426 40.4781C34.8228 40.6804 32.4817 41.2517 30.37 42.5452C30.0892 42.7169 29.7442 42.7827 29.4297 42.8983V42.8967Z" fill="white"/>
<path d="M74.499 97.6353C74.499 99.4119 74.4348 101.075 74.5182 102.731C74.5921 104.209 74.7862 105.685 75.0205 107.147C75.1055 107.675 75.3928 108.208 75.7057 108.656C76.4743 109.754 77.6264 109.644 78.1367 108.396C78.8379 106.679 78.8684 104.838 78.411 103.095C77.8799 101.075 77.0487 99.1343 76.293 97.003C76.7775 96.7735 77.4274 96.4654 78.1704 96.1123C79.9547 98.51 80.6046 101.193 80.8725 103.975C81.4374 109.837 81.6588 115.708 81.2833 121.599C81.1341 123.937 81.2592 126.293 81.2592 128.622C74.9435 130.716 26.2851 131.599 18.4112 129.614C18.4112 128.283 18.4626 126.927 18.4 125.578C18.3085 123.599 18.1401 121.625 17.9956 119.649C17.6442 114.819 17.8047 109.988 18.0486 105.162C18.1706 102.736 18.6568 100.372 19.7912 98.1858C19.9854 97.8118 20.2341 97.4668 20.4812 97.0672C25.4988 99.0749 30.7556 99.5082 35.9818 100.002C44.0209 100.763 52.0809 100.524 60.1072 99.8901C64.3498 99.5547 68.5459 98.6143 72.7612 97.9434C73.3019 97.8584 73.8379 97.7541 74.499 97.6385V97.6353Z" fill="white"/>
<path d="M11.5658 130.419C14.1926 130.579 16.6572 130.756 19.1235 130.874C24.9964 131.157 30.8693 131.537 36.7454 131.643C43.3067 131.762 49.876 131.752 56.4357 131.555C63.0547 131.356 69.6673 130.915 76.2751 130.467C79.6031 130.242 82.9134 129.757 86.235 129.412C86.8351 129.35 87.4465 129.403 88.2456 129.403C88.3659 132.15 88.4959 134.787 88.1734 137.432C87.9182 139.517 86.6089 140.821 84.7908 141.491C82.8861 142.194 80.8996 142.779 78.8987 143.089C69.4491 144.553 59.9257 144.766 50.3782 144.644C44.998 144.575 39.6113 144.954 34.2294 144.901C29.0336 144.851 23.8379 144.522 18.7079 143.567C18.525 143.534 18.3389 143.518 18.1576 143.474C12.7789 142.185 11.5722 140.646 11.5642 135.487C11.5626 133.893 11.5642 132.298 11.5642 130.415L11.5658 130.419Z" fill="white"/>
<path d="M77.6131 95.2194C76.5701 95.6302 75.7004 96.1245 74.7681 96.3155C70.9491 97.0987 67.1301 97.8979 63.279 98.4917C55.2768 99.7242 47.1992 99.5605 39.1585 99.2155C34.4152 99.0117 29.6993 98.0825 24.9849 97.3844C23.7237 97.1982 22.5138 96.6622 20.9541 96.1855C22.9647 93.4268 25.1389 91.4175 28.2647 90.7466C31.2894 90.0967 34.3286 89.4547 37.3934 89.0696C42.9839 88.3666 48.5856 87.7022 54.2515 88.1468C59.4392 88.5528 64.6253 88.9027 69.7424 89.9474C73.0207 90.6166 75.4838 92.3852 77.6131 95.221V95.2194Z" fill="white"/>
<path d="M47.6456 6.65989C45.9174 6.65989 44.1893 6.67594 42.4611 6.65508C40.8452 6.63582 40.7345 6.52669 40.473 4.88813C40.3959 4.40185 40.3574 3.90756 40.3237 3.41486C40.2082 1.73457 40.343 1.52434 42.0615 1.26114C42.9714 1.12152 43.9036 1.11189 44.8279 1.09102C47.1 1.04288 49.3722 1.02201 51.6443 0.994732C52.1385 0.988313 52.6327 0.981893 53.1254 1.01078C55.3141 1.14077 55.6623 1.56125 55.4312 3.7583C55.2386 5.59747 54.1866 6.51866 52.2749 6.52187C50.7313 6.52348 49.1876 6.52187 47.6424 6.52187C47.6424 6.56841 47.6424 6.61335 47.6424 6.65989H47.6456Z" fill="white"/>
<path d="M84.2005 154.812C84.0544 156.863 83.5137 158.366 82.4739 159.654C81.6844 160.633 81.0522 160.656 80.1247 159.863C77.9232 157.984 77.3006 154.458 78.6998 152.071C79.3449 150.972 80.2306 150.669 81.4774 150.672C82.6456 150.675 82.9842 151.412 83.3131 152.19C83.7175 153.148 83.9871 154.164 84.2005 154.811V154.812Z" fill="white"/>
<path d="M22.5556 155.944C22.5363 158.127 21.7806 159.688 20.3845 160.966C19.778 161.521 19.1875 161.505 18.5553 161.024C16.2414 159.266 15.7472 154.437 17.6567 152.197C18.2761 151.47 20.484 151.505 21.2045 152.293C22.2154 153.399 22.6358 154.729 22.554 155.943L22.5556 155.944Z" fill="white"/>
<path d="M39.1799 2.25305C39.3147 3.55459 39.4398 4.76626 39.5875 6.20422C38.4065 6.20422 37.3731 6.17373 36.3429 6.21064C33.4659 6.31174 32.6732 7.19442 32.7775 10.1137C32.7855 10.3512 32.7502 10.5903 32.7293 10.8984C31.8516 11.1087 31.1696 11.1568 30.7845 10.1169C30.5775 9.55677 30.1154 9.09457 29.7881 8.5746C28.9649 7.26343 29.3243 5.32636 30.5455 4.44208C32.2608 3.19831 36.7826 2.01553 39.1799 2.25466V2.25305Z" fill="white"/>
<path d="M56.2539 5.85637C56.371 4.43286 56.4753 3.17304 56.5877 1.79768C59.8065 1.75435 62.6467 2.50382 65.2751 3.95782C66.6101 4.69606 66.915 6.69571 66.095 8.06627C65.8094 8.54291 65.4018 8.9698 65.2285 9.48175C64.8964 10.4543 64.2802 10.6517 63.295 10.4142C63.295 10.0274 63.2966 9.67113 63.295 9.31324C63.2821 6.99261 62.3932 5.9976 60.105 5.86921C58.8887 5.80181 57.6644 5.85637 56.2539 5.85637Z" fill="white"/>
<path d="M65.1583 11.5856C64.9048 20.2952 64.6529 28.947 64.4009 37.602C64.1651 37.7128 64.0062 37.8524 63.8489 37.8492C63.4927 37.8411 63.1381 37.7641 62.7369 37.7079C62.7369 35.7035 62.676 33.7969 62.7482 31.8967C62.9616 26.2637 63.2215 20.6322 63.4751 15.0008C63.5168 14.0731 63.6083 13.1471 63.6853 12.2227C63.7495 11.4332 64.2501 11.3738 65.1583 11.5856Z" fill="white"/>
<path d="M25.6619 145.568C22.4559 147.741 19.3558 148.769 15.8385 147.539C13.5615 146.743 12.2794 144.662 12.5859 142.293C16.4514 144.946 20.9925 144.869 25.6619 145.567V145.568Z" fill="white"/>
<path d="M74.5225 144.815C79.1598 143.942 83.6688 143.948 87.515 141.069C87.5969 141.493 87.7493 141.824 87.7092 142.132C87.3658 144.754 85.5301 146.484 82.7927 146.924C79.8835 147.391 77.3209 146.545 74.5241 144.815H74.5225Z" fill="white"/>
<path d="M82.8232 160.982C85.3313 157.708 85.933 154.326 83.502 150.537C85.4356 150.468 86.1801 151.569 86.8332 152.598C88.1554 154.683 88.3784 156.917 87.053 159.082C86.1673 160.529 84.8627 161.381 82.8232 160.982Z" fill="white"/>
<path d="M16.5661 151.762C15.2631 155.795 14.3019 156.426 17.7182 161.991C15.7958 162.301 14.4383 161.664 13.4451 159.989C12.2432 157.958 12.4711 155.007 14.1046 153.049C14.6951 152.341 15.2423 151.253 16.5661 151.764V151.762Z" fill="white"/>
<path d="M75.6779 99.1211C77.4092 101.95 78.1811 104.903 77.0755 108.266C76.1945 107.882 76.0501 107.21 75.9169 106.564C75.4051 104.101 75.1756 101.625 75.6779 99.1211Z" fill="white"/>
<path d="M88.666 84.7861C92.2796 87.9044 93.3916 90.546 92.1031 92.8666C89.9256 90.7 89.5582 87.8691 88.666 84.7861Z" fill="white"/>
<path d="M78.2855 147.862H84.6028C84.9863 148.676 84.5996 149.401 83.6786 149.512C82.1622 149.695 80.6073 149.711 79.0813 149.616C78.1699 149.559 78.2822 148.682 78.2871 147.864L78.2855 147.862Z" fill="white"/>
<path d="M15.5664 148.902H21.8549C22.0924 150.364 22.0025 150.549 20.5969 150.639C19.4303 150.713 18.2557 150.708 17.0876 150.664C16.0606 150.626 15.576 150.035 15.5664 148.904V148.902Z" fill="white"/>
<path d="M78.7769 60.731C81.1774 67.3975 81.6829 73.9614 81.2721 80.6328C81.1758 82.2008 79.7012 83.5954 77.7564 83.9501C76.6042 84.1603 75.4216 84.2598 74.2487 84.2935C67.5029 84.4893 60.7571 84.7156 54.0096 84.8087C43.6695 84.9515 33.3277 84.9997 22.986 85.0687C22.1869 85.0735 21.375 84.9884 20.5903 84.836C18.047 84.3385 17.0778 83.0963 16.8114 80.5751C16.2771 75.5294 16.6205 70.5222 17.7052 65.6113C19.2392 58.6687 23.6455 54.0852 30.3977 52.1016C33.9327 51.0633 37.6779 50.6845 41.354 50.1982C48.9695 49.1904 56.5626 49.7136 64.1123 50.914C65.9303 51.2029 67.6874 51.8689 69.483 52.3215C69.9804 52.4467 70.5998 52.6232 71.0154 52.4402C72.2846 51.8834 73.464 52.1482 74.6113 52.6408C77.8462 54.0323 79.8953 56.6402 81.5577 59.6124C81.7053 59.8756 81.7904 60.1981 81.816 60.4999C81.885 61.3055 81.3122 61.7741 80.5115 61.5687C80.2178 61.4933 79.9499 61.3151 79.6723 61.1787C79.4573 61.0744 79.247 60.9653 78.7785 60.7293L78.7769 60.731ZM58.801 83.5954C58.8042 83.6724 58.8058 83.7511 58.8091 83.8281C64.4413 83.6339 70.0751 83.4413 75.7073 83.2375C76.2609 83.2183 76.8225 83.1669 77.3632 83.0498C79.5969 82.5667 80.3542 81.5909 80.4553 79.3329C80.6703 74.5311 80.189 69.7952 79.0401 65.1427C78.6582 63.5988 78.1142 62.0325 77.3151 60.6684C74.4508 55.78 70.1328 52.9201 64.5391 51.9973C58.0998 50.9349 51.6107 50.3908 45.1072 50.914C40.6127 51.2751 36.0748 51.7742 31.7039 52.8238C24.5024 54.5538 19.995 59.2368 18.5476 66.6192C17.6747 71.0775 17.4308 75.5775 17.6635 80.1225C17.8159 83.1011 19.5072 83.9485 21.6558 84.0207C25.8053 84.1587 29.9597 84.2999 34.1076 84.2309C42.3393 84.0945 50.5693 83.8153 58.801 83.5938V83.5954ZM80.1119 60.3955C80.2146 60.2848 80.3189 60.1741 80.4216 60.0633C79.2422 56.6129 75.4537 53.3582 72.0696 53.2266C74.9098 55.7591 77.5109 58.0781 80.1119 60.3971V60.3955Z" fill="#84521D"/>
<path d="M58.8007 83.596C50.569 83.8159 42.3406 84.0951 34.1073 84.2331C29.9577 84.3021 25.8034 84.1593 21.6555 84.0229C19.5069 83.9523 17.8156 83.1033 17.6632 80.1247C17.4305 75.5797 17.6744 71.0797 18.5473 66.6214C19.9947 59.2374 24.5004 54.5544 31.7036 52.826C36.0745 51.7764 40.6124 51.2773 45.1069 50.9162C51.6104 50.3946 58.0995 50.9387 64.5388 51.9995C70.1325 52.9223 74.4521 55.7821 77.3148 60.6706C78.1139 62.0347 78.6578 63.601 79.0397 65.1449C80.1902 69.7974 80.6716 74.5333 80.455 79.3351C80.3539 81.5947 79.5949 82.5705 77.3629 83.0519C76.8221 83.1691 76.2605 83.2188 75.7069 83.2397C70.0747 83.4435 64.4409 83.6345 58.8087 83.8303C58.8055 83.7533 58.8039 83.6746 58.8007 83.5976V83.596ZM50.0235 68.0256C50.0235 68.0497 50.0267 68.0754 50.0267 68.0995C51.328 68.0995 52.631 68.1348 53.9307 68.0898C55.3508 68.0417 55.6926 67.6998 55.8498 66.363C56.0119 64.9812 55.6492 64.32 54.4345 63.9156C53.9692 63.7599 53.467 63.6203 52.9856 63.6267C50.2064 63.6636 47.4288 63.7455 44.6512 63.8193C44.4041 63.8257 44.1554 63.8546 43.9115 63.9011C42.2956 64.2077 41.7148 64.9411 41.8881 66.4416C42.063 67.9582 42.5524 68.3723 44.2757 68.3129C46.1932 68.2471 48.1075 68.1235 50.0251 68.0256H50.0235Z" fill="white"/>
<path d="M80.1117 60.3961C77.5106 58.0771 74.9095 55.7581 72.0693 53.2256C75.4535 53.3572 79.242 56.6118 80.4214 60.0623C80.3187 60.173 80.2144 60.2838 80.1117 60.3945V60.3961Z" fill="white"/>
<path d="M50.0238 68.0251C48.1079 68.123 46.192 68.2466 44.2745 68.3124C42.5511 68.3702 42.0617 67.9577 41.8868 66.4411C41.7135 64.9406 42.296 64.2072 43.9102 63.9006C44.1525 63.8541 44.4029 63.8252 44.65 63.8188C47.4276 63.7466 50.2051 63.6647 52.9843 63.6262C53.4673 63.6198 53.968 63.761 54.4333 63.9151C55.6464 64.3195 56.0106 64.9807 55.8486 66.3625C55.6913 67.6993 55.3512 68.0412 53.9295 68.0893C52.6297 68.1342 51.3268 68.0989 50.0254 68.0989C50.0254 68.0749 50.0222 68.0492 50.0222 68.0251H50.0238ZM43.1801 67.1665C46.7472 67.1665 50.1987 67.1633 53.6503 67.1681C54.3804 67.1681 54.8008 66.8953 54.8553 66.1009C54.9083 65.3482 54.5906 64.8844 53.891 64.7608C53.2266 64.6437 52.5399 64.6084 51.8643 64.6084C49.8874 64.6084 47.9122 64.6373 45.9369 64.6661C45.4427 64.6726 44.942 64.6758 44.4574 64.756C42.9202 65.0144 42.7597 65.3145 43.1817 67.1665H43.1801Z" fill="#84521D"/>
<path d="M43.1799 67.1665C42.7595 65.3145 42.9183 65.0144 44.4556 64.756C44.9401 64.6742 45.4408 64.6726 45.935 64.6662C47.9103 64.6373 49.8872 64.6084 51.8625 64.6084C52.5396 64.6084 53.2248 64.6437 53.8891 64.7609C54.5887 64.8844 54.9064 65.3482 54.8535 66.1009C54.7989 66.8953 54.3769 67.1682 53.6484 67.1682C50.1969 67.1633 46.7469 67.1665 43.1783 67.1665H43.1799Z" fill="white"/>
</g>
<mask id="mask0_1239_5120" style="mask-type:alpha" maskUnits="userSpaceOnUse" x="0" y="0" width="106" height="163">
<rect width="106" height="163" fill="#D9D9D9"/>
</mask>
<g mask="url(#mask0_1239_5120)">
<g clip-path="url(#clip1_1239_5120)">
<path d="M34.1765 38.1553C33.6021 38.2243 33.1817 38.2756 32.811 38.3206C32.2911 37.8889 30.8277 14.1145 31.1518 12.0538C31.9878 11.8115 32.4018 12.1244 32.4644 13.0039C32.5511 14.238 32.6746 15.4706 32.7645 16.7047C33.2683 23.5559 33.7674 30.4086 34.2616 37.2614C34.2792 37.4989 34.2183 37.7412 34.1765 38.1569V38.1553Z" fill="#F9A195"/>
<path d="M31.2807 39.2803C31.2807 37.7444 31.3465 36.3931 31.2695 35.0499C30.9357 29.2371 30.5378 23.4291 30.2152 17.6163C30.0997 15.5283 30.204 13.4276 30.0612 11.3429C30.0147 10.6624 29.5927 9.94824 29.1819 9.36407C27.5853 7.09479 28.102 4.52701 30.5971 3.26559C33.0442 2.02825 35.6565 1.26273 38.4196 1.11026C38.8513 1.08619 39.3519 1.17927 39.7001 0.99311C41.8583 -0.167205 44.185 0.307834 46.4524 0.209937C47.8115 0.150558 49.1722 0.136114 50.5313 0.0671047C52.3301 -0.0243723 54.1208 -0.151156 55.8153 0.689791C56.1218 0.842253 56.5277 0.848672 56.8856 0.840648C59.7338 0.770034 62.4087 1.52913 64.9825 2.62846C67.0203 3.4983 67.728 4.75169 67.4905 6.89418C67.4199 7.52971 67.1054 8.19252 66.7395 8.73175C66.1538 9.59356 65.9645 10.3992 66.0608 11.4905C66.2341 13.4533 66.072 15.4465 66.0158 17.4269C65.8201 24.2411 65.6083 31.0538 65.4109 37.8664C65.4045 38.0991 65.4703 38.335 65.4895 38.4811C68.3377 38.7828 71.0928 39.0219 73.8319 39.3798C76.425 39.7184 78.9266 40.4085 81.2436 41.6796C83.2061 42.7564 84.692 44.2858 85.7061 46.2759C87.0203 48.8533 87.7696 51.5864 87.8306 54.4783C87.9269 59.0024 87.959 63.5265 88.0408 68.0522C88.121 72.4512 88.251 76.8501 88.3104 81.249C88.3216 82.1156 88.5848 82.764 89.1576 83.4043C90.2311 84.6032 91.3142 85.8148 92.2192 87.1405C92.8691 88.0921 93.3168 89.2091 93.6955 90.3069C93.8832 90.8525 93.7965 91.5378 93.6842 92.1316C93.5478 92.8618 93.2927 93.6129 92.4005 93.7717C91.5388 93.9258 90.9419 93.4123 90.5681 92.7591C89.8989 91.5907 89.3405 90.3582 88.5462 88.7726C88.5462 89.5012 88.5414 89.8751 88.5462 90.2491C88.6233 94.8358 88.6891 99.4225 88.7837 104.008C88.9715 112.992 89.2009 121.976 89.3566 130.96C89.4063 133.855 89.7561 136.79 88.6682 139.603C88.5832 139.823 88.5864 140.088 88.596 140.329C88.7404 143.975 88.4082 144.773 85.7735 147.084C85.7221 147.944 85.6708 148.798 85.6114 149.788C87.4118 151.101 88.5607 152.93 88.8896 155.267C89.2683 157.963 87.8803 160.723 85.5681 161.765C83.3393 162.77 80.6692 162.089 78.8367 160.051C76.7331 157.709 76.3255 154.386 77.8049 151.59C77.9478 151.319 78.1066 151.057 78.1259 151.024C77.7793 149.958 77.4263 149.111 77.2417 148.228C77.0845 147.477 76.7218 147.048 76.0367 146.734C75.0274 146.272 74.0903 145.652 73.0777 145.2C72.6589 145.012 72.1198 145.007 71.6448 145.044C60.6981 145.898 49.7242 145.662 38.7614 145.861C35.5426 145.919 32.3205 145.784 29.1 145.74C28.118 145.728 27.1215 145.577 26.3385 146.459C26.0705 146.761 25.6004 146.92 25.1944 147.055C23.7438 147.536 23.0025 148.509 22.8709 150.038C22.826 150.552 22.5051 151.041 22.2371 151.731C22.3671 151.962 22.6174 152.376 22.8404 152.807C24.3728 155.748 23.6106 159.642 21.0449 161.77C19.2974 163.219 17.3077 163.747 15.1527 162.84C13.0089 161.938 11.9708 160.152 11.7108 157.913C11.3963 155.215 12.3174 153.161 14.7596 150.881C14.6906 150.041 14.6216 149.191 14.5414 148.193C14.2188 147.931 13.7711 147.61 13.3732 147.234C12.051 145.983 11.2005 144.442 11.3979 142.619C11.5247 141.454 11.2198 140.452 10.9807 139.382C10.7545 138.364 10.5459 137.316 10.533 136.281C10.3629 121.778 10.233 107.273 10.0821 92.7687C9.9666 81.6743 9.8286 70.5783 9.71949 59.4839C9.69863 57.3221 9.54619 55.1299 9.84465 53.0051C10.1158 51.0744 10.7561 49.1502 11.5199 47.3431C12.7458 44.4383 15.1607 42.6986 18.0282 41.5897C21.9402 40.0747 26.0448 39.521 30.204 39.2867C30.5057 39.2691 30.8073 39.2851 31.2871 39.2851L31.2807 39.2803ZM68.9651 41.9877C67.8692 43.6792 67.8708 43.623 66.3015 42.9297C65.0097 42.3584 63.6747 41.7742 62.2995 41.5303C60.236 41.1644 58.1211 40.9269 56.0287 40.9269C50.764 40.9253 45.496 41.0264 40.2345 41.2125C38.2656 41.2831 36.2679 41.5351 34.36 42.0166C32.6494 42.4467 31.0448 43.3037 29.3568 43.9873C28.3127 43.2876 28.2961 42.0754 29.307 40.3507C24.6873 40.8017 20.2361 41.3329 16.2118 43.6375C14.4338 44.655 13.1277 46.1138 12.2756 47.9706C11.2054 50.3041 10.5234 52.7178 10.5924 55.3257C10.7047 59.6636 10.7769 64.0016 10.8203 68.3411C11.0048 86.5033 11.1749 104.667 11.3434 122.829C11.3642 124.99 11.3466 127.15 11.3466 129.496H17.2676C17.2997 128.283 17.4345 127.057 17.3462 125.848C16.8761 119.414 16.5728 112.977 16.9435 106.532C17.0494 104.685 17.1729 102.786 17.6768 101.023C19.3937 95.0075 22.9175 90.7321 29.376 89.3889C36.4941 87.9076 43.6876 87.1629 50.9469 87.0554C52.9847 87.0249 55.0258 87.3122 57.0669 87.386C61.4106 87.5433 65.7013 88.1162 69.9648 88.9411C72.4006 89.4129 74.5203 90.4722 76.3303 92.1861C78.8271 94.5485 80.69 97.3185 81.3094 100.713C81.8197 103.505 82.1952 106.352 82.2706 109.185C82.4038 114.2 82.2497 119.222 82.2465 124.242C82.2465 125.646 82.346 127.052 82.4086 128.677C84.4545 128.547 86.2725 128.434 88.2462 128.308C88.2462 127.597 88.259 127.052 88.2446 126.508C88.1788 124.279 88.0841 122.049 88.0376 119.819C87.7808 107.549 87.5257 95.2803 87.2882 83.0112C87.1326 74.9548 87.009 66.8983 86.871 58.8419C86.8405 57.0445 86.9288 55.2342 86.7507 53.4512C86.0334 46.263 82.9269 42.5959 77.0781 41.1548C74.9824 40.638 72.8258 40.3539 70.6885 40.0185C69.7145 39.8661 68.7196 39.8452 67.5498 39.7489C68.1548 40.7054 68.5768 41.373 68.9683 41.9909L68.9651 41.9877ZM74.4994 97.6347C73.8383 97.7518 73.3008 97.8545 72.7616 97.9396C68.5447 98.6104 64.3502 99.5509 60.1076 99.8863C52.0813 100.52 44.0214 100.759 35.9822 99.9986C30.7544 99.5043 25.4977 99.071 20.4816 97.0633C20.2345 97.4613 19.9858 97.808 19.7917 98.1819C18.6572 100.368 18.171 102.732 18.049 105.158C17.8051 109.984 17.6463 114.815 17.9961 119.645C18.1389 121.621 18.3074 123.596 18.4005 125.574C18.463 126.925 18.4117 128.279 18.4117 129.61C26.2839 131.595 74.9439 130.712 81.2597 128.618C81.2597 126.289 81.1345 123.934 81.2838 121.595C81.6592 115.704 81.4378 109.833 80.873 103.971C80.605 101.189 79.9551 98.5061 78.1708 96.1084C77.4279 96.4615 76.7764 96.7696 76.2934 96.9991C77.0492 99.1304 77.8804 101.071 78.4115 103.091C78.8704 104.834 78.8383 106.675 78.1371 108.392C77.6268 109.642 76.4747 109.75 75.7061 108.652C75.3932 108.204 75.106 107.671 75.0209 107.143C74.7867 105.681 74.5941 104.205 74.5187 102.727C74.4353 101.071 74.4994 99.408 74.4994 97.6314V97.6347ZM11.5664 130.419C11.5664 132.303 11.5648 133.896 11.5664 135.49C11.5744 140.65 12.7811 142.189 18.1598 143.478C18.3395 143.521 18.5272 143.537 18.7101 143.571C23.8401 144.525 29.0342 144.853 34.2316 144.904C39.6135 144.957 44.9986 144.578 50.3805 144.647C59.9279 144.771 69.4497 144.556 78.9009 143.092C80.9019 142.783 82.89 142.197 84.793 141.494C86.6111 140.823 87.9204 139.52 88.1756 137.435C88.4981 134.79 88.3681 132.155 88.2478 129.406C87.4487 129.406 86.8373 129.353 86.2372 129.416C82.9156 129.759 79.6053 130.244 76.2774 130.47C69.6695 130.918 63.0569 131.359 56.4379 131.558C49.8798 131.756 43.3089 131.765 36.7476 131.646C30.8699 131.541 24.9986 131.16 19.1257 130.878C16.6595 130.759 14.1948 130.582 11.568 130.422L11.5664 130.419ZM35.3388 37.8295C39.8574 37.5181 44.1674 37.0367 48.4822 36.9741C52.7842 36.9115 57.0942 37.2694 61.4427 37.4443C61.4972 36.8297 61.5438 36.467 61.5614 36.1043C61.762 31.9605 62.0476 27.8184 62.1343 23.673C62.2354 18.8039 62.8435 13.9395 62.3011 9.05754C62.1391 7.59551 61.8503 7.11405 60.313 6.88777C59.5284 6.77222 58.7004 6.70963 57.9205 6.82678C55.0499 7.25688 52.184 7.64847 49.2669 7.47194C48.4084 7.42058 47.5387 7.57786 46.6738 7.57946C44.3984 7.58267 42.1424 7.84747 39.8461 7.31466C38.3908 6.97603 36.7813 7.24244 35.2457 7.3275C34.3231 7.37725 33.7743 8.00956 33.7005 8.90829C33.5914 10.2532 33.4582 11.6141 33.5432 12.9557C33.9363 19.258 34.3953 25.5571 34.8446 31.8578C34.981 33.7628 35.1575 35.6661 35.3372 37.8311L35.3388 37.8295ZM77.614 95.2193C75.4847 92.3835 73.02 90.615 69.7434 89.9458C64.6262 88.901 59.4401 88.5511 54.2524 88.1451C48.5849 87.7006 42.9848 88.365 37.3943 89.0679C34.3295 89.4531 31.2903 90.095 28.2656 90.745C25.1398 91.4174 22.9656 93.4267 20.955 96.1839C22.5147 96.6589 23.7246 97.1949 24.9858 97.3827C29.7002 98.0808 34.4161 99.0116 39.1594 99.2138C47.2001 99.5589 55.2777 99.7242 63.28 98.49C67.131 97.8962 70.9516 97.097 74.769 96.3139C75.7013 96.1229 76.571 95.6286 77.614 95.2177V95.2193ZM47.6462 6.65988C47.6462 6.61333 47.6462 6.5684 47.6462 6.52186C49.1898 6.52186 50.7335 6.52186 52.2787 6.52186C54.1903 6.51972 55.2424 5.59853 55.435 3.75829C55.6661 1.56123 55.3179 1.14076 53.1292 1.01076C52.6365 0.981876 52.1407 0.988295 51.6481 0.994715C49.376 1.022 47.1038 1.04286 44.8317 1.09101C43.9074 1.11026 42.9752 1.11989 42.0653 1.26112C40.3484 1.52432 40.212 1.73456 40.3275 3.41485C40.3612 3.90754 40.3997 4.40183 40.4768 4.88811C40.7383 6.52667 40.849 6.6358 42.4649 6.65506C44.1931 6.67592 45.9212 6.65988 47.6494 6.65988H47.6462ZM29.4306 42.896C29.7451 42.7805 30.0901 42.7147 30.3709 42.543C32.4826 41.2494 34.8237 40.6781 37.2435 40.4759C44.6488 39.858 52.0685 39.7971 59.4883 40.1052C61.977 40.2095 64.3968 40.7231 66.6079 41.97C66.8984 42.1337 67.2466 42.1979 67.5675 42.3087C67.6493 42.2059 67.7328 42.1048 67.8146 42.0021C67.2995 41.4581 66.8278 40.8643 66.2613 40.378C64.4738 38.8422 62.245 38.449 60.029 38.3735C54.5332 38.1858 49.039 37.5101 43.5303 38.1938C40.2232 38.603 36.8888 38.8406 33.6042 39.383C31.6947 39.6992 30.257 40.9574 29.4306 42.8944V42.896ZM84.2009 154.813C83.9875 154.166 83.718 153.15 83.3136 152.192C82.9846 151.414 82.6461 150.677 81.4779 150.674C80.2311 150.669 79.3454 150.974 78.7003 152.073C77.3011 154.458 77.9237 157.985 80.1252 159.865C81.0527 160.656 81.6865 160.633 82.4744 159.656C83.5126 158.367 84.0533 156.865 84.2009 154.814V154.813ZM22.5564 155.944C22.6366 154.729 22.2162 153.4 21.2069 152.295C20.4865 151.507 18.2801 151.471 17.6591 152.198C15.7496 154.439 16.2439 159.268 18.5577 161.025C19.1899 161.505 19.7804 161.521 20.387 160.967C21.783 159.69 22.5388 158.128 22.558 155.946L22.5564 155.944ZM39.1802 2.25293C36.7829 2.0138 32.2611 3.19658 30.5458 4.44035C29.3263 5.32463 28.9669 7.2617 29.7884 8.57287C30.1142 9.09284 30.5763 9.55504 30.7849 10.1151C31.17 11.1567 31.8536 11.1069 32.7297 10.8967C32.7489 10.5886 32.7858 10.3495 32.7778 10.1119C32.6735 7.19269 33.4662 6.31002 36.3433 6.20891C37.3734 6.172 38.4068 6.20249 39.5878 6.20249C39.4386 4.76453 39.315 3.55286 39.1802 2.25132V2.25293ZM56.255 5.85584C57.6654 5.85584 58.8881 5.79967 60.106 5.86868C62.3942 5.99707 63.2832 6.99048 63.296 9.31271C63.2976 9.67059 63.296 10.0269 63.296 10.4136C64.2812 10.6512 64.8974 10.4538 65.2296 9.48122C65.4045 8.97088 65.812 8.54238 66.0961 8.06573C66.916 6.69679 66.6111 4.69552 65.2761 3.95729C62.6477 2.50328 59.8076 1.75221 56.5887 1.79715C56.4748 3.17251 56.3721 4.43233 56.255 5.85584ZM65.159 11.5852C64.2508 11.3734 63.7501 11.4327 63.6859 12.2223C63.6105 13.1483 63.5174 14.0727 63.4757 15.0003C63.2222 20.6318 62.9622 26.2633 62.7488 31.8963C62.6766 33.7965 62.7376 35.7031 62.7376 37.7075C63.1388 37.7637 63.4934 37.8407 63.8496 37.8487C64.0053 37.852 64.1657 37.7123 64.4016 37.6016C64.6535 28.945 64.9054 20.2948 65.159 11.5852ZM34.177 38.1553C34.2188 37.7396 34.2797 37.4973 34.2621 37.2598C33.7679 30.407 33.2688 23.5559 32.765 16.7031C32.6735 15.469 32.55 14.2364 32.4649 13.0023C32.4039 12.1212 31.9883 11.8099 31.1523 12.0522C30.8282 14.1145 32.2916 37.8873 32.8115 38.319C33.1822 38.274 33.6026 38.2243 34.177 38.1537V38.1553ZM25.6629 145.569C20.9935 144.871 16.4525 144.948 12.5869 142.295C12.2821 144.662 13.5625 146.745 15.8395 147.541C19.3568 148.769 22.4569 147.743 25.6629 145.57V145.569ZM74.5235 144.814C77.3204 146.544 79.8829 147.39 82.7921 146.923C85.5296 146.483 87.3652 144.752 87.7086 142.131C87.7488 141.825 87.5979 141.492 87.5145 141.069C83.6682 143.948 79.1592 143.941 74.5219 144.814H74.5235ZM82.8242 160.982C84.8637 161.381 86.1666 160.531 87.054 159.082C88.3778 156.917 88.1563 154.683 86.8341 152.598C86.181 151.569 85.4365 150.467 83.5029 150.537C85.9339 154.326 85.3322 157.709 82.8242 160.982ZM16.5664 151.762C15.2426 151.251 14.6954 152.34 14.1049 153.047C12.473 155.005 12.2435 157.958 13.4454 159.987C14.4387 161.664 15.7962 162.299 17.7185 161.99C14.3023 156.424 15.265 155.793 16.5664 151.76V151.762ZM75.6788 99.1208C75.1766 101.623 75.406 104.099 75.9179 106.564C76.0527 107.209 76.1955 107.883 77.0765 108.265C78.1804 104.903 77.4102 101.95 75.6788 99.1208ZM88.6666 84.7861C89.5588 87.8691 89.9246 90.6984 92.1037 92.8666C93.3922 90.5476 92.2802 87.9044 88.6666 84.7861ZM78.2863 147.862C78.2815 148.68 78.1692 149.558 79.0806 149.615C80.6066 149.711 82.1615 149.693 83.6778 149.51C84.6005 149.399 84.9856 148.676 84.6021 147.86H78.2847L78.2863 147.862ZM15.5667 148.902C15.5763 150.033 16.0609 150.624 17.0879 150.662C18.256 150.706 19.4306 150.711 20.5972 150.637C22.0028 150.547 22.0911 150.364 21.8552 148.9H15.5667V148.902Z" fill="#84521D"/>
<path d="M68.9648 41.9881C68.5733 41.3702 68.1513 40.7026 67.5464 39.7461C68.7145 39.8424 69.7094 39.8616 70.685 40.0157C72.8223 40.3511 74.9773 40.6368 77.0746 41.152C82.9234 42.5931 86.0299 46.2618 86.7472 53.4484C86.9253 55.2314 86.8371 57.0417 86.8675 58.8391C87.0055 66.8955 87.1291 74.9519 87.2847 83.0083C87.5222 95.2775 87.7774 107.547 88.0341 119.816C88.0806 122.047 88.1753 124.276 88.2411 126.505C88.2571 127.049 88.2427 127.595 88.2427 128.306C86.269 128.431 84.451 128.545 82.4051 128.675C82.3425 127.049 82.2414 125.643 82.243 124.239C82.2478 119.22 82.4003 114.197 82.2671 109.182C82.1917 106.349 81.8162 103.501 81.3059 100.71C80.685 97.3157 78.822 94.5457 76.3268 92.1833C74.5168 90.4709 72.3971 89.4101 69.9613 88.9383C65.6994 88.1134 61.4087 87.5405 57.0634 87.3832C55.0223 87.3094 52.9813 87.0221 50.9434 87.0526C43.6857 87.1601 36.4922 87.9032 29.3726 89.3861C22.9156 90.7309 19.3918 95.0047 17.6733 101.02C17.1695 102.783 17.0475 104.682 16.94 106.529C16.5693 112.976 16.8726 119.413 17.3427 125.845C17.431 127.054 17.2962 128.28 17.2641 129.493H11.3447C11.3447 127.147 11.3623 124.987 11.3415 122.827C11.173 104.664 11.0029 86.5005 10.8184 68.3383C10.7751 64.0004 10.7028 59.6608 10.5905 55.3229C10.5231 52.715 11.2035 50.2997 12.2738 47.9678C13.1258 46.111 14.432 44.6522 16.2099 43.6347C20.2343 41.3301 24.6855 40.7973 29.3052 40.3479C28.2932 42.0726 28.3098 43.2848 29.3549 43.9845C31.043 43.3009 32.6476 42.4439 34.3581 42.0138C36.2644 41.5339 38.2637 41.2803 40.2326 41.2097C45.4941 41.0236 50.7621 40.9225 56.0268 40.9241C58.1192 40.9241 60.2341 41.1616 62.2977 41.5275C63.6728 41.7714 65.0079 42.3556 66.2996 42.9269C67.8705 43.6202 67.8673 43.6748 68.9632 41.9849L68.9648 41.9881ZM78.7771 60.7313C79.244 60.9656 79.4558 61.0763 79.6708 61.1806C79.9484 61.3154 80.2164 61.4936 80.5101 61.5706C81.3108 61.7776 81.8852 61.3074 81.8146 60.5018C81.7889 60.2 81.7039 59.8775 81.5563 59.6143C79.8955 56.6421 77.8464 54.0342 74.6099 52.6428C73.4642 52.1501 72.2832 51.8837 71.0139 52.4421C70.5983 52.6251 69.979 52.4486 69.4815 52.3234C67.686 51.8708 65.9289 51.2048 64.1109 50.9159C56.5612 49.7139 48.9681 49.1907 41.3526 50.2002C37.6764 50.6864 33.9313 51.0652 30.3963 52.1035C23.6441 54.0871 19.2378 58.6706 17.7038 65.6132C16.6191 70.5241 16.2757 75.5313 16.81 80.577C17.0764 83.0982 18.0472 84.3388 20.5889 84.8379C21.3735 84.9919 22.1855 85.077 22.9846 85.0706C33.3263 85.0016 43.6681 84.9534 54.0082 84.8106C60.7556 84.7175 67.5014 84.4912 74.2472 84.2954C75.4202 84.2617 76.6028 84.1622 77.7549 83.952C79.6997 83.5973 81.1744 82.2027 81.2706 80.6348C81.6814 73.9649 81.176 67.4011 78.7755 60.7329L78.7771 60.7313Z" fill="#F9A195"/>
<path d="M29.4297 42.8967C30.2561 40.9596 31.6938 39.6998 33.6033 39.3852C36.8879 38.8428 40.2223 38.6069 43.5294 38.196C49.0381 37.514 54.5323 38.188 60.0281 38.3758C62.2441 38.4512 64.4729 38.846 66.2604 40.3802C66.8253 40.8665 67.2986 41.4587 67.8137 42.0044C67.7319 42.1071 67.6484 42.2082 67.5666 42.3109C67.2457 42.2002 66.8975 42.136 66.607 41.9723C64.3959 40.7253 61.9761 40.2101 59.4873 40.1074C52.0676 39.7993 44.6479 39.8603 37.2426 40.4781C34.8228 40.6804 32.4817 41.2517 30.37 42.5452C30.0892 42.7169 29.7442 42.7827 29.4297 42.8983V42.8967Z" fill="#F9A195"/>
<path d="M74.499 97.6353C74.499 99.4119 74.4348 101.075 74.5182 102.731C74.5921 104.209 74.7862 105.685 75.0205 107.147C75.1055 107.675 75.3928 108.208 75.7057 108.656C76.4743 109.754 77.6264 109.644 78.1367 108.396C78.8379 106.679 78.8684 104.838 78.411 103.095C77.8799 101.075 77.0487 99.1343 76.293 97.003C76.7775 96.7735 77.4274 96.4654 78.1704 96.1123C79.9547 98.51 80.6046 101.193 80.8725 103.975C81.4374 109.837 81.6588 115.708 81.2833 121.599C81.1341 123.937 81.2592 126.293 81.2592 128.622C74.9435 130.716 26.2851 131.599 18.4112 129.614C18.4112 128.283 18.4626 126.927 18.4 125.578C18.3085 123.599 18.1401 121.625 17.9956 119.649C17.6442 114.819 17.8047 109.988 18.0486 105.162C18.1706 102.736 18.6568 100.372 19.7912 98.1858C19.9854 97.8118 20.2341 97.4668 20.4812 97.0672C25.4988 99.0749 30.7556 99.5082 35.9818 100.002C44.0209 100.763 52.0809 100.524 60.1072 99.8901C64.3498 99.5547 68.5459 98.6143 72.7612 97.9434C73.3019 97.8584 73.8379 97.7541 74.499 97.6385V97.6353Z" fill="#F9A195"/>
<path d="M11.5658 130.419C14.1926 130.579 16.6572 130.756 19.1235 130.874C24.9964 131.157 30.8693 131.537 36.7454 131.643C43.3067 131.762 49.876 131.752 56.4357 131.555C63.0547 131.356 69.6673 130.915 76.2751 130.467C79.6031 130.242 82.9134 129.757 86.235 129.412C86.8351 129.35 87.4465 129.403 88.2456 129.403C88.3659 132.15 88.4959 134.787 88.1734 137.432C87.9182 139.517 86.6089 140.821 84.7908 141.491C82.8861 142.194 80.8996 142.779 78.8987 143.089C69.4491 144.553 59.9257 144.766 50.3782 144.644C44.998 144.575 39.6113 144.954 34.2294 144.901C29.0336 144.851 23.8379 144.522 18.7079 143.567C18.525 143.534 18.3389 143.518 18.1576 143.474C12.7789 142.185 11.5722 140.646 11.5642 135.487C11.5626 133.893 11.5642 132.298 11.5642 130.415L11.5658 130.419Z" fill="#F9A195"/>
<path d="M77.6131 95.2194C76.5701 95.6302 75.7004 96.1245 74.7681 96.3155C70.9491 97.0987 67.1301 97.8979 63.279 98.4917C55.2768 99.7242 47.1992 99.5605 39.1585 99.2155C34.4152 99.0117 29.6993 98.0825 24.9849 97.3844C23.7237 97.1982 22.5138 96.6622 20.9541 96.1855C22.9647 93.4268 25.1389 91.4175 28.2647 90.7466C31.2894 90.0967 34.3286 89.4547 37.3934 89.0696C42.9839 88.3666 48.5856 87.7022 54.2515 88.1468C59.4392 88.5528 64.6253 88.9027 69.7424 89.9474C73.0207 90.6166 75.4838 92.3852 77.6131 95.221V95.2194Z" fill="#F9A195"/>
<path d="M47.6456 6.65989C45.9174 6.65989 44.1893 6.67594 42.4611 6.65508C40.8452 6.63582 40.7345 6.52669 40.473 4.88813C40.3959 4.40185 40.3574 3.90756 40.3237 3.41486C40.2082 1.73457 40.343 1.52434 42.0615 1.26114C42.9714 1.12152 43.9036 1.11189 44.8279 1.09102C47.1 1.04288 49.3722 1.02201 51.6443 0.994732C52.1385 0.988313 52.6327 0.981893 53.1254 1.01078C55.3141 1.14077 55.6623 1.56125 55.4312 3.7583C55.2386 5.59747 54.1866 6.51866 52.2749 6.52187C50.7313 6.52348 49.1876 6.52187 47.6424 6.52187C47.6424 6.56841 47.6424 6.61335 47.6424 6.65989H47.6456Z" fill="#F9A195"/>
<path d="M84.2005 154.812C84.0544 156.863 83.5137 158.366 82.4739 159.654C81.6844 160.633 81.0522 160.656 80.1247 159.863C77.9232 157.984 77.3006 154.458 78.6998 152.071C79.3449 150.972 80.2306 150.669 81.4774 150.672C82.6456 150.675 82.9842 151.412 83.3131 152.19C83.7175 153.148 83.9871 154.164 84.2005 154.811V154.812Z" fill="#F9A195"/>
<path d="M22.5556 155.944C22.5363 158.127 21.7806 159.688 20.3845 160.966C19.778 161.521 19.1875 161.505 18.5553 161.024C16.2414 159.266 15.7472 154.437 17.6567 152.197C18.2761 151.47 20.484 151.505 21.2045 152.293C22.2154 153.399 22.6358 154.729 22.554 155.943L22.5556 155.944Z" fill="#F9A195"/>
<path d="M39.1799 2.25305C39.3147 3.55459 39.4398 4.76626 39.5875 6.20422C38.4065 6.20422 37.3731 6.17373 36.3429 6.21064C33.4659 6.31174 32.6732 7.19442 32.7775 10.1137C32.7855 10.3512 32.7502 10.5903 32.7293 10.8984C31.8516 11.1087 31.1696 11.1568 30.7845 10.1169C30.5775 9.55677 30.1154 9.09457 29.7881 8.5746C28.9649 7.26343 29.3243 5.32636 30.5455 4.44208C32.2608 3.19831 36.7826 2.01553 39.1799 2.25466V2.25305Z" fill="#F9A195"/>
<path d="M56.2539 5.85637C56.371 4.43286 56.4753 3.17304 56.5877 1.79768C59.8065 1.75435 62.6467 2.50382 65.2751 3.95782C66.6101 4.69606 66.915 6.69571 66.095 8.06627C65.8094 8.54291 65.4018 8.9698 65.2285 9.48175C64.8964 10.4543 64.2802 10.6517 63.295 10.4142C63.295 10.0274 63.2966 9.67113 63.295 9.31324C63.2821 6.99261 62.3932 5.9976 60.105 5.86921C58.8887 5.80181 57.6644 5.85637 56.2539 5.85637Z" fill="#F9A195"/>
<path d="M65.1583 11.5856C64.9048 20.2952 64.6529 28.947 64.4009 37.602C64.1651 37.7128 64.0062 37.8524 63.8489 37.8492C63.4927 37.8411 63.1381 37.7641 62.7369 37.7079C62.7369 35.7035 62.676 33.7969 62.7482 31.8967C62.9616 26.2637 63.2215 20.6322 63.4751 15.0008C63.5168 14.0731 63.6083 13.1471 63.6853 12.2227C63.7495 11.4332 64.2501 11.3738 65.1583 11.5856Z" fill="#F9A195"/>
<path d="M25.6619 145.568C22.4559 147.741 19.3558 148.769 15.8385 147.539C13.5615 146.743 12.2794 144.662 12.5859 142.293C16.4514 144.946 20.9925 144.869 25.6619 145.567V145.568Z" fill="#F9A195"/>
<path d="M74.5225 144.815C79.1598 143.942 83.6688 143.948 87.515 141.069C87.5969 141.493 87.7493 141.824 87.7092 142.132C87.3658 144.754 85.5301 146.484 82.7927 146.924C79.8835 147.391 77.3209 146.545 74.5241 144.815H74.5225Z" fill="#F9A195"/>
<path d="M82.8232 160.982C85.3313 157.708 85.933 154.326 83.502 150.537C85.4356 150.468 86.1801 151.569 86.8332 152.598C88.1554 154.683 88.3784 156.917 87.053 159.082C86.1673 160.529 84.8627 161.381 82.8232 160.982Z" fill="#F9A195"/>
<path d="M16.5661 151.762C15.2631 155.795 14.3019 156.426 17.7182 161.991C15.7958 162.301 14.4383 161.664 13.4451 159.989C12.2432 157.958 12.4711 155.007 14.1046 153.049C14.6951 152.341 15.2423 151.253 16.5661 151.764V151.762Z" fill="#F9A195"/>
<path d="M75.6779 99.1211C77.4092 101.95 78.1811 104.903 77.0755 108.266C76.1945 107.882 76.0501 107.21 75.9169 106.564C75.4051 104.101 75.1756 101.625 75.6779 99.1211Z" fill="#F9A195"/>
<path d="M88.666 84.7861C92.2796 87.9044 93.3916 90.546 92.1031 92.8666C89.9256 90.7 89.5582 87.8691 88.666 84.7861Z" fill="#F9A195"/>
<path d="M78.2855 147.862H84.6028C84.9863 148.676 84.5996 149.401 83.6786 149.512C82.1622 149.695 80.6073 149.711 79.0813 149.616C78.1699 149.559 78.2822 148.682 78.2871 147.864L78.2855 147.862Z" fill="#F9A195"/>
<path d="M15.5664 148.902H21.8549C22.0924 150.364 22.0025 150.549 20.5969 150.639C19.4303 150.713 18.2557 150.708 17.0876 150.664C16.0606 150.626 15.576 150.035 15.5664 148.904V148.902Z" fill="#F9A195"/>
<path d="M78.7769 60.731C81.1774 67.3975 81.6829 73.9614 81.2721 80.6328C81.1758 82.2008 79.7012 83.5954 77.7564 83.9501C76.6042 84.1603 75.4216 84.2598 74.2487 84.2935C67.5029 84.4893 60.7571 84.7156 54.0096 84.8087C43.6695 84.9515 33.3277 84.9997 22.986 85.0687C22.1869 85.0735 21.375 84.9884 20.5903 84.836C18.047 84.3385 17.0778 83.0963 16.8114 80.5751C16.2771 75.5294 16.6205 70.5222 17.7052 65.6113C19.2392 58.6687 23.6455 54.0852 30.3977 52.1016C33.9327 51.0633 37.6779 50.6845 41.354 50.1982C48.9695 49.1904 56.5626 49.7136 64.1123 50.914C65.9303 51.2029 67.6874 51.8689 69.483 52.3215C69.9804 52.4467 70.5998 52.6232 71.0154 52.4402C72.2846 51.8834 73.464 52.1482 74.6113 52.6408C77.8462 54.0323 79.8953 56.6402 81.5577 59.6124C81.7053 59.8756 81.7904 60.1981 81.816 60.4999C81.885 61.3055 81.3122 61.7741 80.5115 61.5687C80.2178 61.4933 79.9499 61.3151 79.6723 61.1787C79.4573 61.0744 79.247 60.9653 78.7785 60.7293L78.7769 60.731ZM58.801 83.5954C58.8042 83.6724 58.8058 83.7511 58.8091 83.8281C64.4413 83.6339 70.0751 83.4413 75.7073 83.2375C76.2609 83.2183 76.8225 83.1669 77.3632 83.0498C79.5969 82.5667 80.3542 81.5909 80.4553 79.3329C80.6703 74.5311 80.189 69.7952 79.0401 65.1427C78.6582 63.5988 78.1142 62.0325 77.3151 60.6684C74.4508 55.78 70.1328 52.9201 64.5391 51.9973C58.0998 50.9349 51.6107 50.3908 45.1072 50.914C40.6127 51.2751 36.0748 51.7742 31.7039 52.8238C24.5024 54.5538 19.995 59.2368 18.5476 66.6192C17.6747 71.0775 17.4308 75.5775 17.6635 80.1225C17.8159 83.1011 19.5072 83.9485 21.6558 84.0207C25.8053 84.1587 29.9597 84.2999 34.1076 84.2309C42.3393 84.0945 50.5693 83.8153 58.801 83.5938V83.5954ZM80.1119 60.3955C80.2146 60.2848 80.3189 60.1741 80.4216 60.0633C79.2422 56.6129 75.4537 53.3582 72.0696 53.2266C74.9098 55.7591 77.5109 58.0781 80.1119 60.3971V60.3955Z" fill="#84521D"/>
<path d="M58.8007 83.596C50.569 83.8159 42.3406 84.0951 34.1073 84.2331C29.9577 84.3021 25.8034 84.1593 21.6555 84.0229C19.5069 83.9523 17.8156 83.1033 17.6632 80.1247C17.4305 75.5797 17.6744 71.0797 18.5473 66.6214C19.9947 59.2374 24.5004 54.5544 31.7036 52.826C36.0745 51.7764 40.6124 51.2773 45.1069 50.9162C51.6104 50.3946 58.0995 50.9387 64.5388 51.9995C70.1325 52.9223 74.4521 55.7821 77.3148 60.6706C78.1139 62.0347 78.6578 63.601 79.0397 65.1449C80.1902 69.7974 80.6716 74.5333 80.455 79.3351C80.3539 81.5947 79.5949 82.5705 77.3629 83.0519C76.8221 83.1691 76.2605 83.2188 75.7069 83.2397C70.0747 83.4435 64.4409 83.6345 58.8087 83.8303C58.8055 83.7533 58.8039 83.6746 58.8007 83.5976V83.596ZM50.0235 68.0256C50.0235 68.0497 50.0267 68.0754 50.0267 68.0995C51.328 68.0995 52.631 68.1348 53.9307 68.0898C55.3508 68.0417 55.6926 67.6998 55.8498 66.363C56.0119 64.9812 55.6492 64.32 54.4345 63.9156C53.9692 63.7599 53.467 63.6203 52.9856 63.6267C50.2064 63.6636 47.4288 63.7455 44.6512 63.8193C44.4041 63.8257 44.1554 63.8546 43.9115 63.9011C42.2956 64.2077 41.7148 64.9411 41.8881 66.4416C42.063 67.9582 42.5524 68.3723 44.2757 68.3129C46.1932 68.2471 48.1075 68.1235 50.0251 68.0256H50.0235Z" fill="#F9A195"/>
<path d="M80.1117 60.3961C77.5106 58.0771 74.9095 55.7581 72.0693 53.2256C75.4535 53.3572 79.242 56.6118 80.4214 60.0623C80.3187 60.173 80.2144 60.2838 80.1117 60.3945V60.3961Z" fill="#F9A195"/>
<path d="M50.0238 68.0251C48.1079 68.123 46.192 68.2466 44.2745 68.3124C42.5511 68.3702 42.0617 67.9577 41.8868 66.4411C41.7135 64.9406 42.296 64.2072 43.9102 63.9006C44.1525 63.8541 44.4029 63.8252 44.65 63.8188C47.4276 63.7466 50.2051 63.6647 52.9843 63.6262C53.4673 63.6198 53.968 63.761 54.4333 63.9151C55.6464 64.3195 56.0106 64.9807 55.8486 66.3625C55.6913 67.6993 55.3512 68.0412 53.9295 68.0893C52.6297 68.1342 51.3268 68.0989 50.0254 68.0989C50.0254 68.0749 50.0222 68.0492 50.0222 68.0251H50.0238ZM43.1801 67.1665C46.7472 67.1665 50.1987 67.1633 53.6503 67.1681C54.3804 67.1681 54.8008 66.8953 54.8553 66.1009C54.9083 65.3482 54.5906 64.8844 53.891 64.7608C53.2266 64.6437 52.5399 64.6084 51.8643 64.6084C49.8874 64.6084 47.9122 64.6373 45.9369 64.6661C45.4427 64.6726 44.942 64.6758 44.4574 64.756C42.9202 65.0144 42.7597 65.3145 43.1817 67.1665H43.1801Z" fill="#84521D"/>
<path d="M43.1799 67.1665C42.7595 65.3145 42.9183 65.0144 44.4556 64.756C44.9401 64.6742 45.4408 64.6726 45.935 64.6662C47.9103 64.6373 49.8872 64.6084 51.8625 64.6084C52.5396 64.6084 53.2248 64.6437 53.8891 64.7609C54.5887 64.8844 54.9064 65.3482 54.8535 66.1009C54.7989 66.8953 54.3769 67.1682 53.6484 67.1682C50.1969 67.1633 46.7469 67.1665 43.1783 67.1665H43.1799Z" fill="#F9A195"/>
</g>
</g>
<defs>
<clipPath id="clip0_1239_5120">
<rect width="84.1461" height="163.283" fill="white" transform="translate(9.65625)"/>
</clipPath>
<clipPath id="clip1_1239_5120">
<rect width="84.1461" height="163.283" fill="white" transform="translate(9.65625)"/>
</clipPath>
</defs>
</svg>
