<svg width="85" height="164" viewBox="0 0 85 164" fill="none" xmlns="http://www.w3.org/2000/svg">
<g clip-path="url(#clip0_1239_5180)">
<path d="M25.1765 38.1553C24.6021 38.2243 24.1817 38.2756 23.811 38.3206C23.2911 37.8889 21.8277 14.1145 22.1518 12.0538C22.9878 11.8115 23.4018 12.1244 23.4644 13.0039C23.5511 14.238 23.6746 15.4706 23.7645 16.7047C24.2683 23.5559 24.7674 30.4086 25.2616 37.2614C25.2792 37.4989 25.2183 37.7412 25.1765 38.1569V38.1553Z" fill="white"/>
<path d="M22.2807 39.2803C22.2807 37.7444 22.3465 36.3931 22.2695 35.0499C21.9357 29.2371 21.5378 23.4291 21.2152 17.6163C21.0997 15.5283 21.204 13.4276 21.0612 11.3429C21.0147 10.6624 20.5927 9.94824 20.1819 9.36407C18.5853 7.09479 19.102 4.52701 21.5971 3.26559C24.0442 2.02825 26.6565 1.26273 29.4196 1.11026C29.8513 1.08619 30.3519 1.17927 30.7001 0.99311C32.8583 -0.167205 35.185 0.307834 37.4524 0.209937C38.8115 0.150558 40.1722 0.136114 41.5313 0.0671047C43.3301 -0.0243723 45.1208 -0.151156 46.8153 0.689791C47.1218 0.842253 47.5277 0.848672 47.8856 0.840648C50.7338 0.770034 53.4087 1.52913 55.9825 2.62846C58.0203 3.4983 58.728 4.75169 58.4905 6.89418C58.4199 7.52971 58.1054 8.19252 57.7395 8.73175C57.1538 9.59356 56.9645 10.3992 57.0608 11.4905C57.2341 13.4533 57.072 15.4465 57.0158 17.4269C56.8201 24.2411 56.6083 31.0538 56.4109 37.8664C56.4045 38.0991 56.4703 38.335 56.4895 38.4811C59.3377 38.7828 62.0928 39.0219 64.8319 39.3798C67.425 39.7184 69.9266 40.4085 72.2436 41.6796C74.2061 42.7564 75.692 44.2858 76.7061 46.2759C78.0203 48.8533 78.7696 51.5864 78.8306 54.4783C78.9269 59.0024 78.959 63.5265 79.0408 68.0522C79.121 72.4512 79.251 76.8501 79.3104 81.249C79.3216 82.1156 79.5848 82.764 80.1576 83.4043C81.2311 84.6032 82.3142 85.8148 83.2192 87.1405C83.8691 88.0921 84.3168 89.2091 84.6955 90.3069C84.8832 90.8525 84.7965 91.5378 84.6842 92.1316C84.5478 92.8618 84.2927 93.6129 83.4005 93.7717C82.5388 93.9258 81.9419 93.4123 81.5681 92.7591C80.8989 91.5907 80.3405 90.3582 79.5462 88.7726C79.5462 89.5012 79.5414 89.8751 79.5462 90.2491C79.6233 94.8358 79.6891 99.4225 79.7837 104.008C79.9715 112.992 80.2009 121.976 80.3566 130.96C80.4063 133.855 80.7561 136.79 79.6682 139.603C79.5832 139.823 79.5864 140.088 79.596 140.329C79.7404 143.975 79.4082 144.773 76.7735 147.084C76.7221 147.944 76.6708 148.798 76.6114 149.788C78.4118 151.101 79.5607 152.93 79.8896 155.267C80.2683 157.963 78.8803 160.723 76.5681 161.765C74.3393 162.77 71.6692 162.089 69.8367 160.051C67.7331 157.709 67.3255 154.386 68.8049 151.59C68.9478 151.319 69.1066 151.057 69.1259 151.024C68.7793 149.958 68.4263 149.111 68.2417 148.228C68.0845 147.477 67.7218 147.048 67.0367 146.734C66.0274 146.272 65.0903 145.652 64.0777 145.2C63.6589 145.012 63.1198 145.007 62.6448 145.044C51.6981 145.898 40.7242 145.662 29.7614 145.861C26.5426 145.919 23.3205 145.784 20.1 145.74C19.118 145.728 18.1215 145.577 17.3385 146.459C17.0705 146.761 16.6004 146.92 16.1944 147.055C14.7438 147.536 14.0025 148.509 13.8709 150.038C13.826 150.552 13.5051 151.041 13.2371 151.731C13.3671 151.962 13.6174 152.376 13.8404 152.807C15.3728 155.748 14.6106 159.642 12.0449 161.77C10.2974 163.219 8.30772 163.747 6.15272 162.84C4.00895 161.938 2.97076 160.152 2.71082 157.913C2.39631 155.215 3.31736 153.161 5.75959 150.881C5.69059 150.041 5.62159 149.191 5.54136 148.193C5.21883 147.931 4.77114 147.61 4.3732 147.234C3.05099 145.983 2.20055 144.442 2.39792 142.619C2.52468 141.454 2.2198 140.452 1.98071 139.382C1.75446 138.364 1.54586 137.316 1.53303 136.281C1.36294 121.778 1.23296 107.273 1.08213 92.7687C0.966598 81.6743 0.828601 70.5783 0.719487 59.4839C0.698627 57.3221 0.546188 55.1299 0.844647 53.0051C1.11583 51.0744 1.75607 49.1502 2.51987 47.3431C3.74579 44.4383 6.16074 42.6986 9.02819 41.5897C12.9402 40.0747 17.0448 39.521 21.204 39.2867C21.5057 39.2691 21.8073 39.2851 22.2871 39.2851L22.2807 39.2803ZM59.9651 41.9877C58.8692 43.6792 58.8708 43.623 57.3015 42.9297C56.0097 42.3584 54.6747 41.7742 53.2995 41.5303C51.236 41.1644 49.1211 40.9269 47.0287 40.9269C41.764 40.9253 36.496 41.0264 31.2345 41.2125C29.2656 41.2831 27.2679 41.5351 25.36 42.0166C23.6494 42.4467 22.0448 43.3037 20.3568 43.9873C19.3127 43.2876 19.2961 42.0754 20.307 40.3507C15.6873 40.8017 11.2361 41.3329 7.21176 43.6375C5.43385 44.655 4.12769 46.1138 3.27564 47.9706C2.20536 50.3041 1.5234 52.7178 1.5924 55.3257C1.70472 59.6636 1.77693 64.0016 1.82025 68.3411C2.00478 86.5033 2.17487 104.667 2.34336 122.829C2.36422 124.99 2.34657 127.15 2.34657 129.496H8.2676C8.29969 128.283 8.43448 127.057 8.34623 125.848C7.87607 119.414 7.5728 112.977 7.94347 106.532C8.04937 104.685 8.17293 102.786 8.67678 101.023C10.3937 95.0075 13.9175 90.7321 20.376 89.3889C27.4941 87.9076 34.6876 87.1629 41.9469 87.0554C43.9847 87.0249 46.0258 87.3122 48.0669 87.386C52.4106 87.5433 56.7013 88.1162 60.9648 88.9411C63.4006 89.4129 65.5203 90.4722 67.3303 92.1861C69.8271 94.5485 71.69 97.3185 72.3094 100.713C72.8197 103.505 73.1952 106.352 73.2706 109.185C73.4038 114.2 73.2497 119.222 73.2465 124.242C73.2465 125.646 73.346 127.052 73.4086 128.677C75.4545 128.547 77.2725 128.434 79.2462 128.308C79.2462 127.597 79.259 127.052 79.2446 126.508C79.1788 124.279 79.0841 122.049 79.0376 119.819C78.7808 107.549 78.5257 95.2803 78.2882 83.0112C78.1326 74.9548 78.009 66.8983 77.871 58.8419C77.8405 57.0445 77.9288 55.2342 77.7507 53.4512C77.0334 46.263 73.9269 42.5959 68.0781 41.1548C65.9824 40.638 63.8258 40.3539 61.6885 40.0185C60.7145 39.8661 59.7196 39.8452 58.5498 39.7489C59.1548 40.7054 59.5768 41.373 59.9683 41.9909L59.9651 41.9877ZM65.4994 97.6347C64.8383 97.7518 64.3008 97.8545 63.7616 97.9396C59.5447 98.6104 55.3502 99.5509 51.1076 99.8863C43.0813 100.52 35.0214 100.759 26.9822 99.9986C21.7544 99.5043 16.4977 99.071 11.4816 97.0633C11.2345 97.4613 10.9858 97.808 10.7917 98.1819C9.6572 100.368 9.171 102.732 9.04905 105.158C8.80515 109.984 8.64629 114.815 8.9961 119.645C9.13891 121.621 9.30739 123.596 9.40046 125.574C9.46304 126.925 9.41169 128.279 9.41169 129.61C17.2839 131.595 65.9439 130.712 72.2597 128.618C72.2597 126.289 72.1345 123.934 72.2838 121.595C72.6592 115.704 72.4378 109.833 71.873 103.971C71.605 101.189 70.9551 98.5061 69.1708 96.1084C68.4279 96.4615 67.7764 96.7696 67.2934 96.9991C68.0492 99.1304 68.8804 101.071 69.4115 103.091C69.8704 104.834 69.8383 106.675 69.1371 108.392C68.6268 109.642 67.4747 109.75 66.7061 108.652C66.3932 108.204 66.106 107.671 66.0209 107.143C65.7867 105.681 65.5941 104.205 65.5187 102.727C65.4353 101.071 65.4994 99.408 65.4994 97.6314V97.6347ZM2.5664 130.419C2.5664 132.303 2.5648 133.896 2.5664 135.49C2.57442 140.65 3.78109 142.189 9.15977 143.478C9.33948 143.521 9.52722 143.537 9.71015 143.571C14.8401 144.525 20.0342 144.853 25.2316 144.904C30.6135 144.957 35.9986 144.578 41.3805 144.647C50.9279 144.771 60.4497 144.556 69.9009 143.092C71.9019 142.783 73.89 142.197 75.793 141.494C77.6111 140.823 78.9204 139.52 79.1756 137.435C79.4981 134.79 79.3681 132.155 79.2478 129.406C78.4487 129.406 77.8373 129.353 77.2372 129.416C73.9156 129.759 70.6053 130.244 67.2774 130.47C60.6695 130.918 54.0569 131.359 47.4379 131.558C40.8798 131.756 34.3089 131.765 27.7476 131.646C21.8699 131.541 15.9986 131.16 10.1257 130.878C7.65945 130.759 5.19476 130.582 2.568 130.422L2.5664 130.419ZM26.3388 37.8295C30.8574 37.5181 35.1674 37.0367 39.4822 36.9741C43.7842 36.9115 48.0942 37.2694 52.4427 37.4443C52.4972 36.8297 52.5438 36.467 52.5614 36.1043C52.762 31.9605 53.0476 27.8184 53.1343 23.673C53.2354 18.8039 53.8435 13.9395 53.3011 9.05754C53.1391 7.59551 52.8503 7.11405 51.313 6.88777C50.5284 6.77222 49.7004 6.70963 48.9205 6.82678C46.0499 7.25688 43.184 7.64847 40.2669 7.47194C39.4084 7.42058 38.5387 7.57786 37.6738 7.57946C35.3984 7.58267 33.1424 7.84747 30.8461 7.31466C29.3908 6.97603 27.7813 7.24244 26.2457 7.3275C25.3231 7.37725 24.7743 8.00956 24.7005 8.90829C24.5914 10.2532 24.4582 11.6141 24.5432 12.9557C24.9363 19.258 25.3953 25.5571 25.8446 31.8578C25.981 33.7628 26.1575 35.6661 26.3372 37.8311L26.3388 37.8295ZM68.614 95.2193C66.4847 92.3835 64.02 90.615 60.7434 89.9458C55.6262 88.901 50.4401 88.5511 45.2524 88.1451C39.5849 87.7006 33.9848 88.365 28.3943 89.0679C25.3295 89.4531 22.2903 90.095 19.2656 90.745C16.1398 91.4174 13.9656 93.4267 11.955 96.1839C13.5147 96.6589 14.7246 97.1949 15.9858 97.3827C20.7002 98.0808 25.4161 99.0116 30.1594 99.2138C38.2001 99.5589 46.2777 99.7242 54.28 98.49C58.131 97.8962 61.9516 97.097 65.769 96.3139C66.7013 96.1229 67.571 95.6286 68.614 95.2177V95.2193ZM38.6462 6.65988C38.6462 6.61333 38.6462 6.5684 38.6462 6.52186C40.1898 6.52186 41.7335 6.52186 43.2787 6.52186C45.1903 6.51972 46.2424 5.59853 46.435 3.75829C46.6661 1.56123 46.3179 1.14076 44.1292 1.01076C43.6365 0.981876 43.1407 0.988295 42.6481 0.994715C40.376 1.022 38.1038 1.04286 35.8317 1.09101C34.9074 1.11026 33.9752 1.11989 33.0653 1.26112C31.3484 1.52432 31.212 1.73456 31.3275 3.41485C31.3612 3.90754 31.3997 4.40183 31.4768 4.88811C31.7383 6.52667 31.849 6.6358 33.4649 6.65506C35.1931 6.67592 36.9212 6.65988 38.6494 6.65988H38.6462ZM20.4306 42.896C20.7451 42.7805 21.0901 42.7147 21.3709 42.543C23.4826 41.2494 25.8237 40.6781 28.2435 40.4759C35.6488 39.858 43.0685 39.7971 50.4883 40.1052C52.977 40.2095 55.3968 40.7231 57.6079 41.97C57.8984 42.1337 58.2466 42.1979 58.5675 42.3087C58.6493 42.2059 58.7328 42.1048 58.8146 42.0021C58.2995 41.4581 57.8278 40.8643 57.2613 40.378C55.4738 38.8422 53.245 38.449 51.029 38.3735C45.5332 38.1858 40.039 37.5101 34.5303 38.1938C31.2232 38.603 27.8888 38.8406 24.6042 39.383C22.6947 39.6992 21.257 40.9574 20.4306 42.8944V42.896ZM75.2009 154.813C74.9875 154.166 74.718 153.15 74.3136 152.192C73.9846 151.414 73.6461 150.677 72.4779 150.674C71.2311 150.669 70.3454 150.974 69.7003 152.073C68.3011 154.458 68.9237 157.985 71.1252 159.865C72.0527 160.656 72.6865 160.633 73.4744 159.656C74.5126 158.367 75.0533 156.865 75.2009 154.814V154.813ZM13.5564 155.944C13.6366 154.729 13.2162 153.4 12.2069 152.295C11.4865 151.507 9.28011 151.471 8.65913 152.198C6.74963 154.439 7.24386 159.268 9.55771 161.025C10.1899 161.505 10.7804 161.521 11.387 160.967C12.783 159.69 13.5388 158.128 13.558 155.946L13.5564 155.944ZM30.1802 2.25293C27.7829 2.0138 23.2611 3.19658 21.5458 4.44035C20.3263 5.32463 19.9669 7.2617 20.7884 8.57287C21.1142 9.09284 21.5763 9.55504 21.7849 10.1151C22.17 11.1567 22.8536 11.1069 23.7297 10.8967C23.7489 10.5886 23.7858 10.3495 23.7778 10.1119C23.6735 7.19269 24.4662 6.31002 27.3433 6.20891C28.3734 6.172 29.4068 6.20249 30.5878 6.20249C30.4386 4.76453 30.315 3.55286 30.1802 2.25132V2.25293ZM47.255 5.85584C48.6654 5.85584 49.8881 5.79967 51.106 5.86868C53.3942 5.99707 54.2832 6.99048 54.296 9.31271C54.2976 9.67059 54.296 10.0269 54.296 10.4136C55.2812 10.6512 55.8974 10.4538 56.2296 9.48122C56.4045 8.97088 56.812 8.54238 57.0961 8.06573C57.916 6.69679 57.6111 4.69552 56.2761 3.95729C53.6477 2.50328 50.8076 1.75221 47.5887 1.79715C47.4748 3.17251 47.3721 4.43233 47.255 5.85584ZM56.159 11.5852C55.2508 11.3734 54.7501 11.4327 54.6859 12.2223C54.6105 13.1483 54.5174 14.0727 54.4757 15.0003C54.2222 20.6318 53.9622 26.2633 53.7488 31.8963C53.6766 33.7965 53.7376 35.7031 53.7376 37.7075C54.1388 37.7637 54.4934 37.8407 54.8496 37.8487C55.0053 37.852 55.1657 37.7123 55.4016 37.6016C55.6535 28.945 55.9054 20.2948 56.159 11.5852ZM25.177 38.1553C25.2188 37.7396 25.2797 37.4973 25.2621 37.2598C24.7679 30.407 24.2688 23.5559 23.765 16.7031C23.6735 15.469 23.55 14.2364 23.4649 13.0023C23.4039 12.1212 22.9883 11.8099 22.1523 12.0522C21.8282 14.1145 23.2916 37.8873 23.8115 38.319C24.1822 38.274 24.6026 38.2243 25.177 38.1537V38.1553ZM16.6629 145.569C11.9935 144.871 7.45246 144.948 3.58694 142.295C3.28206 144.662 4.56254 146.745 6.83949 147.541C10.3568 148.769 13.4569 147.743 16.6629 145.57V145.569ZM65.5235 144.814C68.3204 146.544 70.8829 147.39 73.7921 146.923C76.5296 146.483 78.3652 144.752 78.7086 142.131C78.7488 141.825 78.5979 141.492 78.5145 141.069C74.6682 143.948 70.1592 143.941 65.5219 144.814H65.5235ZM73.8242 160.982C75.8637 161.381 77.1666 160.531 78.054 159.082C79.3778 156.917 79.1563 154.683 77.8341 152.598C77.181 151.569 76.4365 150.467 74.5029 150.537C76.9339 154.326 76.3322 157.709 73.8242 160.982ZM7.56638 151.762C6.24258 151.251 5.6954 152.34 5.1049 153.047C3.47301 155.005 3.24355 157.958 4.44541 159.987C5.43866 161.664 6.79617 162.299 8.7185 161.99C5.30227 156.424 6.26504 155.793 7.56638 151.76V151.762ZM66.6788 99.1208C66.1766 101.623 66.406 104.099 66.9179 106.564C67.0527 107.209 67.1955 107.883 68.0765 108.265C69.1804 104.903 68.4102 101.95 66.6788 99.1208ZM79.6666 84.7861C80.5588 87.8691 80.9246 90.6984 83.1037 92.8666C84.3922 90.5476 83.2802 87.9044 79.6666 84.7861ZM69.2863 147.862C69.2815 148.68 69.1692 149.558 70.0806 149.615C71.6066 149.711 73.1615 149.693 74.6778 149.51C75.6005 149.399 75.9856 148.676 75.6021 147.86H69.2847L69.2863 147.862ZM6.56671 148.902C6.57634 150.033 7.06093 150.624 8.08788 150.662C9.25604 150.706 10.4306 150.711 11.5972 150.637C13.0028 150.547 13.0911 150.364 12.8552 148.9H6.56671V148.902Z" fill="#84521D"/>
<path d="M59.9648 41.9881C59.5733 41.3702 59.1513 40.7026 58.5464 39.7461C59.7145 39.8424 60.7094 39.8616 61.685 40.0157C63.8223 40.3511 65.9773 40.6368 68.0746 41.152C73.9234 42.5931 77.0299 46.2618 77.7472 53.4484C77.9253 55.2314 77.8371 57.0417 77.8675 58.8391C78.0055 66.8955 78.1291 74.9519 78.2847 83.0083C78.5222 95.2775 78.7774 107.547 79.0341 119.816C79.0806 122.047 79.1753 124.276 79.2411 126.505C79.2571 127.049 79.2427 127.595 79.2427 128.306C77.269 128.431 75.451 128.545 73.4051 128.675C73.3425 127.049 73.2414 125.643 73.243 124.239C73.2478 119.22 73.4003 114.197 73.2671 109.182C73.1917 106.349 72.8162 103.501 72.3059 100.71C71.685 97.3157 69.822 94.5457 67.3268 92.1833C65.5168 90.4709 63.3971 89.4101 60.9613 88.9383C56.6994 88.1134 52.4087 87.5405 48.0634 87.3832C46.0223 87.3094 43.9813 87.0221 41.9434 87.0526C34.6857 87.1601 27.4922 87.9032 20.3726 89.3861C13.9156 90.7309 10.3918 95.0047 8.6733 101.02C8.16945 102.783 8.0475 104.682 7.93999 106.529C7.56932 112.976 7.8726 119.413 8.34275 125.845C8.431 127.054 8.29622 128.28 8.26412 129.493H2.3447C2.3447 127.147 2.36235 124.987 2.34149 122.827C2.173 104.664 2.00291 86.5005 1.81838 68.3383C1.77506 64.0004 1.70285 59.6608 1.59053 55.3229C1.52313 52.715 2.20349 50.2997 3.27377 47.9678C4.12582 46.111 5.43198 44.6522 7.20989 43.6347C11.2343 41.3301 15.6855 40.7973 20.3052 40.3479C19.2932 42.0726 19.3098 43.2848 20.3549 43.9845C22.043 43.3009 23.6476 42.4439 25.3581 42.0138C27.2644 41.5339 29.2637 41.2803 31.2326 41.2097C36.4941 41.0236 41.7621 40.9225 47.0268 40.9241C49.1192 40.9241 51.2341 41.1616 53.2977 41.5275C54.6728 41.7714 56.0079 42.3556 57.2996 42.9269C58.8705 43.6202 58.8673 43.6748 59.9632 41.9849L59.9648 41.9881ZM69.7771 60.7313C70.244 60.9656 70.4558 61.0763 70.6708 61.1806C70.9484 61.3154 71.2164 61.4936 71.5101 61.5706C72.3108 61.7776 72.8852 61.3074 72.8146 60.5018C72.7889 60.2 72.7039 59.8775 72.5563 59.6143C70.8955 56.6421 68.8464 54.0342 65.6099 52.6428C64.4642 52.1501 63.2832 51.8837 62.0139 52.4421C61.5983 52.6251 60.979 52.4486 60.4815 52.3234C58.686 51.8708 56.9289 51.2048 55.1109 50.9159C47.5612 49.7139 39.9681 49.1907 32.3526 50.2002C28.6764 50.6864 24.9313 51.0652 21.3963 52.1035C14.6441 54.0871 10.2378 58.6706 8.70379 65.6132C7.61907 70.5241 7.27568 75.5313 7.81002 80.577C8.07638 83.0982 9.04718 84.3388 11.5889 84.8379C12.3735 84.9919 13.1855 85.077 13.9846 85.0706C24.3263 85.0016 34.6681 84.9534 45.0082 84.8106C51.7556 84.7175 58.5014 84.4912 65.2472 84.2954C66.4202 84.2617 67.6028 84.1622 68.7549 83.952C70.6997 83.5973 72.1744 82.2027 72.2706 80.6348C72.6814 73.9649 72.176 67.4011 69.7755 60.7329L69.7771 60.7313Z" fill="white"/>
<path d="M20.4297 42.8967C21.2561 40.9596 22.6938 39.6998 24.6033 39.3852C27.8879 38.8428 31.2223 38.6069 34.5294 38.196C40.0381 37.514 45.5323 38.188 51.0281 38.3758C53.2441 38.4512 55.4729 38.846 57.2604 40.3802C57.8253 40.8665 58.2986 41.4587 58.8137 42.0044C58.7319 42.1071 58.6484 42.2082 58.5666 42.3109C58.2457 42.2002 57.8975 42.136 57.607 41.9723C55.3959 40.7253 52.9761 40.2101 50.4873 40.1074C43.0676 39.7993 35.6479 39.8603 28.2426 40.4781C25.8228 40.6804 23.4817 41.2517 21.37 42.5452C21.0892 42.7169 20.7442 42.7827 20.4297 42.8983V42.8967Z" fill="white"/>
<path d="M65.499 97.6353C65.499 99.4119 65.4348 101.075 65.5182 102.731C65.5921 104.209 65.7862 105.685 66.0205 107.147C66.1055 107.675 66.3928 108.208 66.7057 108.656C67.4743 109.754 68.6264 109.644 69.1367 108.396C69.8379 106.679 69.8684 104.838 69.411 103.095C68.8799 101.075 68.0487 99.1343 67.293 97.003C67.7775 96.7735 68.4274 96.4654 69.1704 96.1123C70.9547 98.51 71.6046 101.193 71.8725 103.975C72.4374 109.837 72.6588 115.708 72.2833 121.599C72.1341 123.937 72.2592 126.293 72.2592 128.622C65.9435 130.716 17.2851 131.599 9.41124 129.614C9.41124 128.283 9.46259 126.927 9.40001 125.578C9.30855 123.599 9.14006 121.625 8.99565 119.649C8.64424 114.819 8.8047 109.988 9.0486 105.162C9.17055 102.736 9.65675 100.372 10.7912 98.1858C10.9854 97.8118 11.2341 97.4668 11.4812 97.0672C16.4988 99.0749 21.7556 99.5082 26.9818 100.002C35.0209 100.763 43.0809 100.524 51.1072 99.8901C55.3498 99.5547 59.5459 98.6143 63.7612 97.9434C64.3019 97.8584 64.8379 97.7541 65.499 97.6385V97.6353Z" fill="white"/>
<path d="M2.56579 130.419C5.19255 130.579 7.65724 130.756 10.1235 130.874C15.9964 131.157 21.8693 131.537 27.7454 131.643C34.3067 131.762 40.876 131.752 47.4357 131.555C54.0547 131.356 60.6673 130.915 67.2751 130.467C70.6031 130.242 73.9134 129.757 77.235 129.412C77.8351 129.35 78.4465 129.403 79.2456 129.403C79.3659 132.15 79.4959 134.787 79.1734 137.432C78.9182 139.517 77.6089 140.821 75.7908 141.491C73.8861 142.194 71.8996 142.779 69.8987 143.089C60.4491 144.553 50.9257 144.766 41.3782 144.644C35.998 144.575 30.6113 144.954 25.2294 144.901C20.0336 144.851 14.8379 144.522 9.70794 143.567C9.52501 143.534 9.33888 143.518 9.15756 143.474C3.77888 142.185 2.57221 140.646 2.56419 135.487C2.56259 133.893 2.56419 132.298 2.56419 130.415L2.56579 130.419Z" fill="white"/>
<path d="M68.6131 95.2194C67.5701 95.6302 66.7004 96.1245 65.7681 96.3155C61.9491 97.0987 58.1301 97.8979 54.279 98.4917C46.2768 99.7242 38.1992 99.5605 30.1585 99.2155C25.4152 99.0117 20.6993 98.0825 15.9849 97.3844C14.7237 97.1982 13.5138 96.6622 11.9541 96.1855C13.9647 93.4268 16.1389 91.4175 19.2647 90.7466C22.2894 90.0967 25.3286 89.4547 28.3934 89.0696C33.9839 88.3666 39.5856 87.7022 45.2515 88.1468C50.4392 88.5528 55.6253 88.9027 60.7424 89.9474C64.0207 90.6166 66.4838 92.3852 68.6131 95.221V95.2194Z" fill="white"/>
<path d="M38.6456 6.65989C36.9174 6.65989 35.1893 6.67594 33.4611 6.65508C31.8452 6.63582 31.7345 6.52669 31.473 4.88813C31.3959 4.40185 31.3574 3.90756 31.3237 3.41486C31.2082 1.73457 31.343 1.52434 33.0615 1.26114C33.9714 1.12152 34.9036 1.11189 35.8279 1.09102C38.1 1.04288 40.3722 1.02201 42.6443 0.994732C43.1385 0.988313 43.6327 0.981893 44.1254 1.01078C46.3141 1.14077 46.6623 1.56125 46.4312 3.7583C46.2386 5.59747 45.1866 6.51866 43.2749 6.52187C41.7313 6.52348 40.1876 6.52187 38.6424 6.52187C38.6424 6.56841 38.6424 6.61335 38.6424 6.65989H38.6456Z" fill="white"/>
<path d="M75.2005 154.812C75.0544 156.863 74.5137 158.366 73.4739 159.654C72.6844 160.633 72.0522 160.656 71.1247 159.863C68.9232 157.984 68.3006 154.458 69.6998 152.071C70.3449 150.972 71.2306 150.669 72.4774 150.672C73.6456 150.675 73.9842 151.412 74.3131 152.19C74.7175 153.148 74.9871 154.164 75.2005 154.811V154.812Z" fill="white"/>
<path d="M13.5556 155.944C13.5363 158.127 12.7806 159.688 11.3845 160.966C10.778 161.521 10.1875 161.505 9.55528 161.024C7.24142 159.266 6.7472 154.437 8.6567 152.197C9.27608 151.47 11.484 151.505 12.2045 152.293C13.2154 153.399 13.6358 154.729 13.554 155.943L13.5556 155.944Z" fill="white"/>
<path d="M30.1799 2.25305C30.3147 3.55459 30.4398 4.76626 30.5875 6.20422C29.4065 6.20422 28.3731 6.17373 27.3429 6.21064C24.4659 6.31174 23.6732 7.19442 23.7775 10.1137C23.7855 10.3512 23.7502 10.5903 23.7293 10.8984C22.8516 11.1087 22.1696 11.1568 21.7845 10.1169C21.5775 9.55677 21.1154 9.09457 20.7881 8.5746C19.9649 7.26343 20.3243 5.32636 21.5455 4.44208C23.2608 3.19831 27.7826 2.01553 30.1799 2.25466V2.25305Z" fill="white"/>
<path d="M47.2539 5.85637C47.371 4.43286 47.4753 3.17304 47.5877 1.79768C50.8065 1.75435 53.6467 2.50382 56.2751 3.95782C57.6101 4.69606 57.915 6.69571 57.095 8.06627C56.8094 8.54291 56.4018 8.9698 56.2285 9.48175C55.8964 10.4543 55.2802 10.6517 54.295 10.4142C54.295 10.0274 54.2966 9.67113 54.295 9.31324C54.2821 6.99261 53.3932 5.9976 51.105 5.86921C49.8887 5.80181 48.6644 5.85637 47.2539 5.85637Z" fill="white"/>
<path d="M56.1583 11.5856C55.9048 20.2952 55.6529 28.947 55.4009 37.602C55.1651 37.7128 55.0062 37.8524 54.8489 37.8492C54.4927 37.8411 54.1381 37.7641 53.7369 37.7079C53.7369 35.7035 53.676 33.7969 53.7482 31.8967C53.9616 26.2637 54.2215 20.6322 54.4751 15.0008C54.5168 14.0731 54.6083 13.1471 54.6853 12.2227C54.7495 11.4332 55.2501 11.3738 56.1583 11.5856Z" fill="white"/>
<path d="M16.6619 145.568C13.4559 147.741 10.3558 148.769 6.83847 147.539C4.56152 146.743 3.27943 144.662 3.58591 142.293C7.45143 144.946 11.9925 144.869 16.6619 145.567V145.568Z" fill="white"/>
<path d="M65.5225 144.815C70.1598 143.942 74.6688 143.948 78.515 141.069C78.5969 141.493 78.7493 141.824 78.7092 142.132C78.3658 144.754 76.5301 146.484 73.7927 146.924C70.8835 147.391 68.3209 146.545 65.5241 144.815H65.5225Z" fill="white"/>
<path d="M73.8232 160.982C76.3313 157.708 76.933 154.326 74.502 150.537C76.4356 150.468 77.1801 151.569 77.8332 152.598C79.1554 154.683 79.3784 156.917 78.053 159.082C77.1673 160.529 75.8627 161.381 73.8232 160.982Z" fill="white"/>
<path d="M7.56606 151.762C6.26311 155.795 5.30195 156.426 8.71817 161.991C6.79584 162.301 5.43834 161.664 4.44508 159.989C3.24322 157.958 3.47108 155.007 5.10458 153.049C5.69508 152.341 6.24225 151.253 7.56606 151.764V151.762Z" fill="white"/>
<path d="M66.6779 99.1211C68.4092 101.95 69.1811 104.903 68.0755 108.266C67.1945 107.882 67.0501 107.21 66.9169 106.564C66.4051 104.101 66.1756 101.625 66.6779 99.1211Z" fill="white"/>
<path d="M79.666 84.7861C83.2796 87.9044 84.3916 90.546 83.1031 92.8666C80.9256 90.7 80.5582 87.8691 79.666 84.7861Z" fill="white"/>
<path d="M69.2855 147.862H75.6028C75.9863 148.676 75.5996 149.401 74.6786 149.512C73.1622 149.695 71.6073 149.711 70.0813 149.616C69.1699 149.559 69.2822 148.682 69.2871 147.864L69.2855 147.862Z" fill="white"/>
<path d="M6.56641 148.902H12.8549C13.0924 150.364 13.0025 150.549 11.5969 150.639C10.4303 150.713 9.25574 150.708 8.08758 150.664C7.06063 150.626 6.57603 150.035 6.56641 148.904V148.902Z" fill="white"/>
<path d="M69.7769 60.731C72.1774 67.3975 72.6829 73.9614 72.2721 80.6328C72.1758 82.2008 70.7012 83.5954 68.7564 83.9501C67.6042 84.1603 66.4216 84.2598 65.2487 84.2935C58.5029 84.4893 51.7571 84.7156 45.0096 84.8087C34.6695 84.9515 24.3277 84.9997 13.986 85.0687C13.1869 85.0735 12.375 84.9884 11.5903 84.836C9.04699 84.3385 8.0778 83.0963 7.81143 80.5751C7.2771 75.5294 7.62049 70.5222 8.70521 65.6113C10.2392 58.6687 14.6455 54.0852 21.3977 52.1016C24.9327 51.0633 28.6779 50.6845 32.354 50.1982C39.9695 49.1904 47.5626 49.7136 55.1123 50.914C56.9303 51.2029 58.6874 51.8689 60.483 52.3215C60.9804 52.4467 61.5998 52.6232 62.0154 52.4402C63.2846 51.8834 64.464 52.1482 65.6113 52.6408C68.8462 54.0323 70.8953 56.6402 72.5577 59.6124C72.7053 59.8756 72.7904 60.1981 72.816 60.4999C72.885 61.3055 72.3122 61.7741 71.5115 61.5687C71.2178 61.4933 70.9499 61.3151 70.6723 61.1787C70.4573 61.0744 70.247 60.9653 69.7785 60.7293L69.7769 60.731ZM49.801 83.5954C49.8042 83.6724 49.8058 83.7511 49.8091 83.8281C55.4413 83.6339 61.0751 83.4413 66.7073 83.2375C67.2609 83.2183 67.8225 83.1669 68.3632 83.0498C70.5969 82.5667 71.3542 81.5909 71.4553 79.3329C71.6703 74.5311 71.189 69.7952 70.0401 65.1427C69.6582 63.5988 69.1142 62.0325 68.3151 60.6684C65.4508 55.78 61.1328 52.9201 55.5391 51.9973C49.0998 50.9349 42.6107 50.3908 36.1072 50.914C31.6127 51.2751 27.0748 51.7742 22.7039 52.8238C15.5024 54.5538 10.995 59.2368 9.54763 66.6192C8.67472 71.0775 8.43082 75.5775 8.66349 80.1225C8.81592 83.1011 10.5072 83.9485 12.6558 84.0207C16.8053 84.1587 20.9597 84.2999 25.1076 84.2309C33.3393 84.0945 41.5693 83.8153 49.801 83.5938V83.5954ZM71.1119 60.3955C71.2146 60.2848 71.3189 60.1741 71.4216 60.0633C70.2422 56.6129 66.4537 53.3582 63.0696 53.2266C65.9098 55.7591 68.5109 58.0781 71.1119 60.3971V60.3955Z" fill="#84521D"/>
<path d="M49.8007 83.596C41.569 83.8159 33.3406 84.0951 25.1073 84.2331C20.9577 84.3021 16.8034 84.1593 12.6555 84.0229C10.5069 83.9523 8.81561 83.1033 8.66318 80.1247C8.43051 75.5797 8.67441 71.0797 9.54732 66.6214C10.9947 59.2374 15.5004 54.5544 22.7036 52.826C27.0745 51.7764 31.6124 51.2773 36.1069 50.9162C42.6104 50.3946 49.0995 50.9387 55.5388 51.9995C61.1325 52.9223 65.4521 55.7821 68.3148 60.6706C69.1139 62.0347 69.6578 63.601 70.0397 65.1449C71.1902 69.7974 71.6716 74.5333 71.455 79.3351C71.3539 81.5947 70.5949 82.5705 68.3629 83.0519C67.8221 83.1691 67.2605 83.2188 66.7069 83.2397C61.0747 83.4435 55.4409 83.6345 49.8087 83.8303C49.8055 83.7533 49.8039 83.6746 49.8007 83.5976V83.596ZM41.0235 68.0256C41.0235 68.0497 41.0267 68.0754 41.0267 68.0995C42.328 68.0995 43.631 68.1348 44.9307 68.0898C46.3508 68.0417 46.6926 67.6998 46.8498 66.363C47.0119 64.9812 46.6492 64.32 45.4345 63.9156C44.9692 63.7599 44.467 63.6203 43.9856 63.6267C41.2064 63.6636 38.4288 63.7455 35.6512 63.8193C35.4041 63.8257 35.1554 63.8546 34.9115 63.9011C33.2956 64.2077 32.7148 64.9411 32.8881 66.4416C33.063 67.9582 33.5524 68.3723 35.2757 68.3129C37.1932 68.2471 39.1075 68.1235 41.0251 68.0256H41.0235Z" fill="white"/>
<path d="M71.1117 60.3961C68.5106 58.0771 65.9095 55.7581 63.0693 53.2256C66.4535 53.3572 70.242 56.6118 71.4214 60.0623C71.3187 60.173 71.2144 60.2838 71.1117 60.3945V60.3961Z" fill="white"/>
<path d="M41.0238 68.0251C39.1079 68.123 37.192 68.2466 35.2745 68.3124C33.5511 68.3702 33.0617 67.9577 32.8868 66.4411C32.7135 64.9406 33.296 64.2072 34.9102 63.9006C35.1525 63.8541 35.4029 63.8252 35.65 63.8188C38.4276 63.7466 41.2051 63.6647 43.9843 63.6262C44.4673 63.6198 44.968 63.761 45.4333 63.9151C46.6464 64.3195 47.0106 64.9807 46.8486 66.3625C46.6913 67.6993 46.3512 68.0412 44.9295 68.0893C43.6297 68.1342 42.3268 68.0989 41.0254 68.0989C41.0254 68.0749 41.0222 68.0492 41.0222 68.0251H41.0238ZM34.1801 67.1665C37.7472 67.1665 41.1987 67.1633 44.6503 67.1681C45.3804 67.1681 45.8008 66.8953 45.8553 66.1009C45.9083 65.3482 45.5906 64.8844 44.891 64.7608C44.2266 64.6437 43.5399 64.6084 42.8643 64.6084C40.8874 64.6084 38.9122 64.6373 36.9369 64.6661C36.4427 64.6726 35.942 64.6758 35.4574 64.756C33.9202 65.0144 33.7597 65.3145 34.1817 67.1665H34.1801Z" fill="#84521D"/>
<path d="M34.1799 67.1665C33.7595 65.3145 33.9183 65.0144 35.4556 64.756C35.9401 64.6742 36.4408 64.6726 36.935 64.6662C38.9103 64.6373 40.8872 64.6084 42.8625 64.6084C43.5396 64.6084 44.2248 64.6437 44.8891 64.7609C45.5887 64.8844 45.9064 65.3482 45.8535 66.1009C45.7989 66.8953 45.3769 67.1682 44.6484 67.1682C41.1969 67.1633 37.7469 67.1665 34.1783 67.1665H34.1799Z" fill="white"/>
</g>
<defs>
<clipPath id="clip0_1239_5180">
<rect width="84.1461" height="163.283" fill="white" transform="translate(0.65625)"/>
</clipPath>
</defs>
</svg>
