<svg width="84" height="163" viewBox="0 0 84 163" fill="none" xmlns="http://www.w3.org/2000/svg">
<g clip-path="url(#clip0_304_3310)">
<path d="M24.4774 38.0893C23.9039 38.1582 23.4842 38.2095 23.1142 38.2543C22.5952 37.8234 21.1343 14.0902 21.4579 12.0332C22.2925 11.7913 22.7057 12.1037 22.7682 12.9816C22.8547 14.2136 22.978 15.444 23.0677 16.676C23.5707 23.5152 24.0689 30.3561 24.5622 37.197C24.5799 37.4341 24.519 37.676 24.4774 38.0909V38.0893Z" fill="white"/>
<path d="M21.5864 39.2121C21.5864 37.6789 21.6521 36.33 21.5752 34.989C21.2421 29.1863 20.8448 23.3884 20.5228 17.5857C20.4075 15.5014 20.5116 13.4043 20.3691 11.3232C20.3226 10.6439 19.9013 9.93097 19.4913 9.34782C17.8974 7.08248 18.4132 4.51916 20.9041 3.25993C23.3469 2.02473 25.9546 1.26054 28.713 1.10834C29.1439 1.08431 29.6437 1.17723 29.9913 0.991388C32.1457 -0.166913 34.4684 0.307301 36.7318 0.209575C38.0885 0.150298 39.4469 0.135879 40.8036 0.06699C42.5993 -0.0243284 44.3869 -0.150892 46.0784 0.688595C46.3844 0.840793 46.7897 0.847201 47.1469 0.83919C49.9901 0.768699 52.6604 1.52648 55.2297 2.6239C57.264 3.49223 57.9704 4.74345 57.7334 6.88222C57.6629 7.51664 57.3489 8.1783 56.9837 8.7166C56.399 9.57691 56.21 10.3812 56.3061 11.4706C56.4791 13.4299 56.3173 15.4197 56.2613 17.3966C56.0659 24.1991 55.8544 30.9999 55.6574 37.8007C55.651 38.033 55.7167 38.2685 55.7359 38.4143C58.5791 38.7155 61.3295 38.9542 64.0638 39.3114C66.6524 39.6495 69.1496 40.3384 71.4627 41.6072C73.4217 42.6822 74.905 44.209 75.9173 46.1956C77.2292 48.7685 77.9773 51.4968 78.0382 54.3838C78.1343 58.9 78.1663 63.4163 78.248 67.9341C78.3281 72.3254 78.4579 76.7167 78.5171 81.108C78.5283 81.9731 78.791 82.6204 79.3629 83.2596C80.4345 84.4563 81.5157 85.6659 82.4192 86.9892C83.0679 87.9392 83.5148 89.0543 83.8929 90.1501C84.0803 90.6948 83.9938 91.3789 83.8816 91.9717C83.7455 92.7006 83.4908 93.4504 82.6002 93.609C81.74 93.7628 81.1441 93.2501 80.7709 92.5981C80.1029 91.4318 79.5455 90.2014 78.7526 88.6185C78.7526 89.3459 78.7478 89.7192 78.7526 90.0924C78.8295 94.6712 78.8951 99.2499 78.9897 103.827C79.1771 112.795 79.4061 121.764 79.5615 130.732C79.6112 133.622 79.9604 136.553 78.8743 139.361C78.7894 139.581 78.7926 139.845 78.8022 140.085C78.9464 143.725 78.6148 144.521 75.9846 146.828C75.9334 147.687 75.8821 148.539 75.8228 149.528C77.6201 150.838 78.767 152.665 79.0954 154.997C79.4734 157.689 78.0878 160.444 75.7796 161.484C73.5546 162.487 70.8892 161.808 69.0599 159.773C66.9599 157.436 66.553 154.118 68.0299 151.327C68.1725 151.056 68.3311 150.795 68.3503 150.761C68.0043 149.698 67.6519 148.852 67.4677 147.971C67.3107 147.221 66.9487 146.793 66.2647 146.479C65.2572 146.018 64.3217 145.399 63.3109 144.948C62.8929 144.76 62.3546 144.755 61.8805 144.792C50.9528 145.644 39.9979 145.409 29.0542 145.608C25.8409 145.665 22.6244 145.531 19.4096 145.487C18.4292 145.475 17.4345 145.324 16.6528 146.205C16.3853 146.506 15.916 146.665 15.5107 146.8C14.0626 147.28 13.3226 148.251 13.1913 149.778C13.1464 150.29 12.826 150.779 12.5585 151.468C12.6883 151.699 12.9382 152.112 13.1608 152.541C14.6906 155.478 13.9297 159.365 11.3684 161.489C9.62398 162.936 7.63771 163.463 5.48645 162.558C3.3464 161.657 2.31002 159.874 2.05052 157.639C1.73656 154.946 2.65601 152.895 5.094 150.619C5.02512 149.781 4.95624 148.932 4.87615 147.935C4.55418 147.674 4.10727 147.354 3.71002 146.979C2.39011 145.729 1.54114 144.191 1.73816 142.371C1.86471 141.208 1.56036 140.209 1.32169 139.14C1.09583 138.124 0.887592 137.078 0.874777 136.045C0.704983 121.567 0.575235 107.087 0.424663 92.6077C0.309331 81.5325 0.171574 70.4558 0.062649 59.3806C0.0418252 57.2226 -0.110349 55.0342 0.187592 52.9131C0.458301 50.9858 1.09743 49.0649 1.8599 47.2609C3.0837 44.3612 5.49446 42.6245 8.35693 41.5175C12.2622 40.0051 16.3597 39.4524 20.5116 39.2185C20.8128 39.2009 21.1139 39.2169 21.5929 39.2169L21.5864 39.2121ZM59.2054 41.9148C58.1114 43.6034 58.113 43.5473 56.5464 42.8552C55.2569 42.2849 53.9242 41.7017 52.5514 41.4582C50.4915 41.0929 48.3803 40.8558 46.2915 40.8558C41.0359 40.8542 35.7771 40.9552 30.5247 41.141C28.5592 41.2115 26.5649 41.463 24.6604 41.9436C22.9528 42.373 21.351 43.2285 19.6659 43.911C18.6236 43.2125 18.607 42.0024 19.6162 40.2807C15.0045 40.7309 10.561 41.2612 6.54366 43.5617C4.76883 44.5775 3.46494 46.0337 2.61437 47.8874C1.54594 50.2168 0.865166 52.6263 0.934045 55.2297C1.04617 59.5601 1.11826 63.8905 1.1615 68.2225C1.34572 86.3532 1.51551 104.485 1.6837 122.616C1.70453 124.773 1.68691 126.929 1.68691 129.271H7.59766C7.6297 128.06 7.76425 126.836 7.67615 125.63C7.20681 119.207 6.90407 112.781 7.27409 106.347C7.37981 104.503 7.50315 102.608 8.00613 100.847C9.72009 94.8426 13.2377 90.5747 19.6851 89.2337C26.7908 87.755 33.9718 87.0117 41.2185 86.9043C43.2528 86.8739 45.2903 87.1606 47.3279 87.2343C51.664 87.3913 55.9473 87.9633 60.2034 88.7868C62.635 89.2578 64.751 90.3151 66.5578 92.0261C69.0503 94.3844 70.91 97.1496 71.5283 100.538C72.0377 103.326 72.4125 106.168 72.4878 108.995C72.6208 114.002 72.467 119.015 72.4638 124.026C72.4638 125.428 72.5631 126.831 72.6256 128.454C74.6679 128.324 76.4828 128.211 78.453 128.086C78.453 127.376 78.4659 126.831 78.4514 126.288C78.3858 124.063 78.2913 121.838 78.2448 119.611C77.9885 107.363 77.7338 95.115 77.4967 82.8671C77.3414 74.8247 77.218 66.7822 77.0803 58.7398C77.0498 56.9455 77.1379 55.1383 76.9601 53.3584C76.2441 46.1827 73.143 42.522 67.3043 41.0833C65.2123 40.5675 63.0594 40.2839 60.9258 39.9491C59.9535 39.7969 58.9604 39.776 57.7926 39.6799C58.3965 40.6348 58.8178 41.3012 59.2086 41.918L59.2054 41.9148ZM64.7302 97.4652C64.0702 97.5821 63.5336 97.6847 62.9954 97.7696C58.7858 98.4393 54.5986 99.3781 50.3633 99.7129C42.351 100.346 34.305 100.584 26.2798 99.8251C21.061 99.3316 15.8134 98.899 10.8061 96.8949C10.5594 97.2922 10.3112 97.6382 10.1173 98.0115C8.98485 100.194 8.49949 102.553 8.37775 104.976C8.13427 109.793 7.97569 114.615 8.32489 119.438C8.46745 121.41 8.63565 123.382 8.72855 125.356C8.79103 126.705 8.73977 128.057 8.73977 129.385C16.5983 131.367 65.1739 130.486 71.4787 128.395C71.4787 126.07 71.3537 123.718 71.5027 121.384C71.8775 115.503 71.6565 109.643 71.0926 103.79C70.8251 101.014 70.1764 98.3351 68.3951 95.9416C67.6535 96.2941 67.0032 96.6017 66.521 96.8308C67.2755 98.9583 68.1052 100.895 68.6354 102.912C69.0935 104.652 69.0615 106.49 68.3615 108.204C67.8521 109.452 66.702 109.559 65.9347 108.463C65.6224 108.016 65.3357 107.485 65.2508 106.957C65.0169 105.498 64.8247 104.024 64.7494 102.549C64.6661 100.895 64.7302 99.2355 64.7302 97.462V97.4652ZM1.90636 130.192C1.90636 132.073 1.90475 133.664 1.90636 135.255C1.91437 140.406 3.11894 141.942 8.48828 143.229C8.66768 143.272 8.8551 143.288 9.03771 143.321C14.1588 144.275 19.3439 144.601 24.5322 144.653C29.9048 144.706 35.2805 144.328 40.653 144.396C50.1839 144.52 59.6892 144.305 69.124 142.844C71.1215 142.535 73.1061 141.95 75.0059 141.248C76.8208 140.579 78.1279 139.278 78.3826 137.197C78.7045 134.556 78.5748 131.926 78.4546 129.181C77.6569 129.181 77.0466 129.129 76.4475 129.191C73.1318 129.534 69.8272 130.018 66.505 130.244C59.9086 130.691 53.3075 131.131 46.7 131.33C40.1533 131.527 33.5938 131.537 27.0439 131.418C21.1764 131.312 15.3153 130.933 9.45258 130.651C6.99057 130.532 4.53016 130.356 1.90796 130.196L1.90636 130.192ZM25.6375 37.7638C30.1482 37.453 34.4508 36.9724 38.7581 36.9099C43.0526 36.8474 47.3551 37.2047 51.6961 37.3793C51.7505 36.7657 51.797 36.4037 51.8146 36.0416C52.0148 31.905 52.3 27.7701 52.3865 23.6319C52.4874 18.7712 53.0945 13.9153 52.553 9.04182C52.3913 7.58233 52.1029 7.1017 50.5684 6.87581C49.7851 6.76046 48.9585 6.69798 48.18 6.81493C45.3144 7.24429 42.4535 7.6352 39.5414 7.45897C38.6844 7.4077 37.8162 7.5647 36.9528 7.56631C34.6814 7.56951 32.4292 7.83385 30.137 7.30196C28.6842 6.96393 27.0775 7.22987 25.5446 7.31478C24.6235 7.36445 24.0757 7.99566 24.002 8.89283C23.8931 10.2354 23.7601 11.5939 23.845 12.9333C24.2375 19.2246 24.6956 25.5128 25.1441 31.8025C25.2803 33.7042 25.4565 35.6042 25.6359 37.7654L25.6375 37.7638ZM67.8393 95.0541C65.7137 92.2232 63.2533 90.4577 59.9823 89.7896C54.8741 88.7467 49.697 88.3974 44.5183 87.9921C38.8606 87.5483 33.2702 88.2116 27.6894 88.9133C24.6299 89.2978 21.5961 89.9386 18.5766 90.5875C15.4562 91.2588 13.2858 93.2646 11.2787 96.0169C12.8356 96.4911 14.0434 97.0262 15.3025 97.2137C20.0086 97.9106 24.7164 98.8398 29.4514 99.0416C37.4782 99.3861 45.5418 99.5511 53.5302 98.3191C57.3746 97.7263 61.1885 96.9285 64.9993 96.1467C65.9299 95.956 66.7981 95.4626 67.8393 95.0525V95.0541ZM37.9235 6.64832C37.9235 6.60186 37.9235 6.557 37.9235 6.51054C39.4645 6.51054 41.0054 6.51054 42.548 6.51054C44.4563 6.5084 45.5066 5.58881 45.6988 3.75176C45.9295 1.55852 45.5819 1.13878 43.397 1.00901C42.9052 0.980173 42.4102 0.986582 41.9185 0.99299C39.6503 1.02023 37.3821 1.04105 35.1139 1.08911C34.1913 1.10834 33.2606 1.11795 32.3524 1.25893C30.6384 1.52167 30.5022 1.73155 30.6176 3.40892C30.6512 3.90076 30.6897 4.3942 30.7665 4.87963C31.0276 6.51534 31.1382 6.62429 32.7512 6.64351C34.4764 6.66434 36.2016 6.64832 37.9267 6.64832H37.9235ZM19.7395 42.8216C20.0535 42.7062 20.3979 42.6405 20.6782 42.4691C22.7862 41.1779 25.1233 40.6075 27.5389 40.4057C34.9313 39.7889 42.3382 39.728 49.745 40.0356C52.2295 40.1397 54.645 40.6524 56.8524 41.8972C57.1423 42.0606 57.4899 42.1247 57.8102 42.2352C57.8919 42.1327 57.9752 42.0318 58.0569 41.9292C57.5427 41.3861 57.0718 40.7934 56.5064 40.3079C54.7219 38.7747 52.497 38.3822 50.2849 38.3069C44.7986 38.1195 39.3139 37.445 33.8148 38.1275C30.5135 38.536 27.1848 38.7731 23.9059 39.3146C21.9997 39.6303 20.5645 40.8863 19.7395 42.82V42.8216ZM74.4148 154.544C74.2018 153.898 73.9327 152.884 73.529 151.928C73.2006 151.151 72.8626 150.415 71.6965 150.412C70.4519 150.407 69.5677 150.712 68.9238 151.809C67.527 154.19 68.1485 157.711 70.3462 159.587C71.272 160.377 71.9048 160.355 72.6913 159.379C73.7276 158.093 74.2675 156.593 74.4148 154.546V154.544ZM12.8773 155.673C12.9574 154.461 12.5377 153.134 11.5302 152.03C10.8109 151.244 8.60842 151.208 7.98851 151.934C6.08233 154.171 6.57569 158.991 8.88553 160.746C9.51665 161.225 10.1061 161.241 10.7116 160.688C12.1052 159.413 12.8597 157.854 12.8789 155.675L12.8773 155.673ZM29.4723 2.24902C27.0791 2.01031 22.5652 3.19104 20.8528 4.43265C19.6354 5.31539 19.2766 7.2491 20.0967 8.55799C20.4219 9.07706 20.8832 9.53846 21.0915 10.0976C21.4759 11.1373 22.1583 11.0877 23.0329 10.8778C23.0521 10.5702 23.089 10.3315 23.081 10.0944C22.9768 7.18021 23.7681 6.29906 26.6402 6.19813C27.6686 6.16129 28.7002 6.19173 29.8791 6.19173C29.7302 4.75627 29.6068 3.5467 29.4723 2.24742V2.24902ZM46.5173 5.84568C47.9254 5.84568 49.1459 5.78961 50.3617 5.85849C52.6459 5.98666 53.5334 6.97834 53.5462 9.29655C53.5478 9.65381 53.5462 10.0095 53.5462 10.3956C54.5297 10.6327 55.1448 10.4356 55.4764 9.46477C55.651 8.95531 56.0578 8.52755 56.3414 8.05174C57.1599 6.68517 56.8556 4.68738 55.5228 3.95042C52.899 2.49894 50.0638 1.74917 46.8505 1.79403C46.7368 3.16701 46.6343 4.42464 46.5173 5.84568ZM55.4059 11.5651C54.4993 11.3536 53.9995 11.4129 53.9354 12.2011C53.8601 13.1255 53.7672 14.0483 53.7256 14.9743C53.4725 20.596 53.213 26.2177 53 31.841C52.9279 33.7378 52.9887 35.6411 52.9887 37.6421C53.3892 37.6982 53.7432 37.775 54.0988 37.7831C54.2542 37.7863 54.4144 37.6469 54.6498 37.5363C54.9013 28.8947 55.1528 20.2596 55.4059 11.5651ZM24.4778 38.0891C24.5194 37.6741 24.5803 37.4322 24.5626 37.1951C24.0693 30.3542 23.5711 23.515 23.0681 16.6741C22.9768 15.4421 22.8535 14.2117 22.7686 12.9797C22.7077 12.1002 22.2929 11.7894 21.4583 12.0313C21.1347 14.09 22.5956 37.8215 23.1146 38.2525C23.4846 38.2076 23.9043 38.1579 24.4778 38.0875V38.0891ZM15.9784 145.316C11.3171 144.619 6.78393 144.696 2.92512 142.048C2.62077 144.411 3.89903 146.49 6.17203 147.285C9.68324 148.511 12.778 147.487 15.9784 145.318V145.316ZM64.7542 144.563C67.5462 146.29 70.1043 147.134 73.0084 146.668C75.7411 146.229 77.5736 144.501 77.9164 141.884C77.9565 141.578 77.8059 141.247 77.7226 140.824C73.883 143.698 69.3819 143.691 64.7526 144.563H64.7542ZM73.0405 160.702C75.0764 161.101 76.3771 160.252 77.2629 158.805C78.5844 156.644 78.3633 154.414 77.0434 152.333C76.3915 151.306 75.6482 150.206 73.718 150.276C76.1448 154.059 75.5441 157.436 73.0405 160.702ZM6.89766 151.498C5.57615 150.989 5.02993 152.075 4.44045 152.782C2.81139 154.736 2.58233 157.684 3.7821 159.709C4.77363 161.383 6.12878 162.018 8.04778 161.708C4.63748 156.152 5.59858 155.523 6.89766 151.497V151.498ZM65.9075 98.9487C65.4061 101.446 65.6352 103.918 66.1462 106.379C66.2807 107.023 66.4233 107.696 67.3027 108.077C68.4048 104.721 67.6359 101.773 65.9075 98.9487ZM78.8727 84.639C79.7633 87.7166 80.1286 90.541 82.3038 92.7054C83.5901 90.3904 82.48 87.7518 78.8727 84.639ZM68.5105 147.605C68.5057 148.422 68.3935 149.299 69.3034 149.355C70.8267 149.451 72.3789 149.433 73.8926 149.251C74.8137 149.14 75.1981 148.418 74.8153 147.604H68.5089L68.5105 147.605ZM5.89972 148.644C5.90933 149.773 6.39308 150.363 7.41826 150.401C8.58439 150.444 9.75693 150.449 10.9215 150.375C12.3247 150.286 12.4128 150.103 12.1773 148.642H5.89972V148.644Z" fill="#84521D"/>
<path d="M59.2053 41.9149C58.8145 41.2981 58.3932 40.6316 57.7893 39.6768C58.9554 39.7729 59.9486 39.7921 60.9225 39.9459C63.0561 40.2807 65.2074 40.5659 67.301 41.0802C73.1396 42.5188 76.2408 46.1812 76.9568 53.3553C77.1346 55.1352 77.0465 56.9423 77.0769 58.7367C77.2147 66.7791 77.338 74.8215 77.4934 82.8639C77.7305 95.1118 77.9852 107.36 78.2415 119.608C78.2879 121.834 78.3824 124.06 78.4481 126.285C78.4641 126.828 78.4497 127.373 78.4497 128.082C76.4794 128.207 74.6646 128.321 72.6222 128.451C72.5598 126.828 72.4589 125.425 72.4605 124.023C72.4653 119.013 72.6174 113.999 72.4845 108.992C72.4092 106.165 72.0344 103.321 71.525 100.535C70.9051 97.1464 69.0453 94.3812 66.5545 92.023C64.7476 90.3136 62.6316 89.2546 60.2 88.7836C55.9456 87.9601 51.6623 87.3882 47.3245 87.2312C45.287 87.1575 43.2495 86.8707 41.2151 86.9011C33.9701 87.0085 26.7891 87.7502 19.6817 89.2306C13.236 90.5731 9.71836 94.8394 8.0028 100.844C7.49982 102.605 7.37808 104.5 7.27076 106.344C6.90074 112.779 7.20348 119.205 7.67282 125.627C7.76092 126.833 7.62637 128.057 7.59433 129.268H1.68518C1.68518 126.926 1.7028 124.769 1.68197 122.613C1.51378 104.482 1.34399 86.35 1.15978 68.2193C1.11653 63.8889 1.04444 59.5569 0.932315 55.2265C0.865038 52.6231 1.54421 50.212 2.61264 47.8842C3.46321 46.0306 4.7671 44.5743 6.54193 43.5586C10.5593 41.258 15.0028 40.7261 19.6145 40.2775C18.6042 41.9992 18.6208 43.2093 19.6641 43.9078C21.3492 43.2254 22.9511 42.3698 24.6586 41.9405C26.5616 41.4615 28.5575 41.2083 30.5229 41.1379C35.7753 40.952 41.0341 40.8511 46.2897 40.8527C48.3785 40.8527 50.4897 41.0898 52.5497 41.4551C53.9225 41.6986 55.2552 42.2817 56.5447 42.8521C58.1129 43.5442 58.1097 43.5986 59.2037 41.9117L59.2053 41.9149ZM69.0005 60.6255C69.4666 60.8594 69.6781 60.9699 69.8927 61.0741C70.1698 61.2087 70.4373 61.3865 70.7305 61.4634C71.5298 61.6701 72.1032 61.2006 72.0328 60.3964C72.0071 60.0952 71.9222 59.7732 71.7749 59.5105C70.117 56.5434 68.0714 53.94 64.8405 52.551C63.6968 52.0592 62.5179 51.7933 61.2508 52.3508C60.836 52.5334 60.2177 52.3572 59.7211 52.2322C57.9286 51.7804 56.1746 51.1156 54.3598 50.8272C46.8232 49.6273 39.2433 49.105 31.641 50.1127C27.9712 50.5981 24.2325 50.9762 20.7037 52.0127C13.9632 53.9929 9.56458 58.5684 8.03323 65.499C6.95039 70.4014 6.6076 75.3998 7.14101 80.4368C7.40691 82.9536 8.37602 84.192 10.9133 84.6903C11.6966 84.8441 12.5071 84.929 13.3049 84.9226C23.6287 84.8537 33.9524 84.8056 44.2746 84.6631C51.0103 84.5701 57.7444 84.3442 64.4785 84.1488C65.6495 84.1151 66.83 84.0158 67.9801 83.8059C69.9216 83.4519 71.3936 82.0597 71.4897 80.4944C71.8998 73.8362 71.3952 67.2837 68.9989 60.6271L69.0005 60.6255Z" fill="white"/>
<path d="M19.7393 42.8216C20.5642 40.8879 21.9994 39.6302 23.9056 39.3162C27.1846 38.7747 30.5132 38.5392 33.8145 38.1291C39.3136 37.4482 44.7983 38.1211 50.2846 38.3085C52.4967 38.3838 54.7216 38.7779 56.5061 40.3095C57.0699 40.795 57.5425 41.3861 58.0566 41.9308C57.975 42.0334 57.8917 42.1343 57.81 42.2368C57.4896 42.1263 57.142 42.0622 56.8521 41.8988C54.6448 40.654 52.2292 40.1397 49.7447 40.0372C42.3379 39.7296 34.931 39.7905 27.5386 40.4073C25.123 40.6091 22.7859 41.1795 20.6779 42.4707C20.3976 42.6422 20.0532 42.7078 19.7393 42.8232V42.8216Z" fill="white"/>
<path d="M64.7302 97.4657C64.7302 99.2392 64.6661 100.899 64.7494 102.552C64.8231 104.028 65.0169 105.502 65.2507 106.961C65.3356 107.488 65.6224 108.02 65.9347 108.467C66.702 109.563 67.8521 109.454 68.3615 108.208C69.0615 106.493 69.0919 104.656 68.6354 102.916C68.1052 100.899 67.2755 98.962 66.521 96.8345C67.0047 96.6054 67.6535 96.2978 68.3951 95.9453C70.1764 98.3388 70.8251 101.017 71.0926 103.794C71.6565 109.646 71.8775 115.507 71.5027 121.388C71.3537 123.722 71.4787 126.074 71.4787 128.399C65.1739 130.489 16.5999 131.37 8.73976 129.389C8.73976 128.061 8.79102 126.707 8.72855 125.359C8.63724 123.384 8.46905 121.414 8.32489 119.441C7.97408 114.619 8.13427 109.797 8.37775 104.979C8.49948 102.557 8.98484 100.197 10.1173 98.0152C10.3112 97.6419 10.5594 97.2975 10.8061 96.8985C15.815 98.9027 21.0626 99.3353 26.2798 99.8287C34.305 100.588 42.351 100.349 50.3633 99.7166C54.5986 99.3818 58.7874 98.4429 62.9954 97.7733C63.5352 97.6884 64.0702 97.5842 64.7302 97.4689V97.4657Z" fill="white"/>
<path d="M1.90612 130.192C4.52832 130.352 6.98873 130.529 9.45074 130.647C15.3134 130.929 21.1761 131.309 27.042 131.415C33.5919 131.533 40.1498 131.524 46.6981 131.326C53.3057 131.128 59.9068 130.687 66.5031 130.24C69.8253 130.016 73.1299 129.532 76.4457 129.188C77.0448 129.125 77.6551 129.178 78.4528 129.178C78.5729 131.921 78.7027 134.553 78.3807 137.193C78.126 139.274 76.8189 140.577 75.0041 141.245C73.1027 141.947 71.1196 142.531 69.1221 142.841C59.689 144.302 50.1821 144.515 40.6512 144.393C35.2803 144.324 29.9029 144.702 24.5304 144.649C19.3436 144.6 14.1569 144.271 9.03587 143.318C8.85326 143.284 8.66745 143.268 8.48644 143.225C3.11711 141.939 1.91253 140.402 1.90452 135.252C1.90292 133.661 1.90452 132.068 1.90452 130.189L1.90612 130.192Z" fill="white"/>
<path d="M67.839 95.0545C66.7978 95.4647 65.9296 95.9581 64.9989 96.1487C61.1866 96.9306 57.3742 97.7284 53.5298 98.3212C45.5415 99.5516 37.4779 99.3881 29.4511 99.0437C24.7161 98.8402 20.0083 97.9126 15.3021 97.2157C14.0431 97.0299 12.8353 96.4948 11.2783 96.019C13.2854 93.265 15.4559 91.2592 18.5763 90.5895C21.5957 89.9407 24.6296 89.2999 27.6891 88.9154C33.2699 88.2137 38.8618 87.5504 44.5179 87.9942C49.6966 88.3995 54.8737 88.7487 59.982 89.7917C63.2545 90.4598 65.7133 92.2253 67.839 95.0561V95.0545Z" fill="white"/>
<path d="M37.9234 6.64907C36.1982 6.64907 34.473 6.66509 32.7479 6.64427C31.1348 6.62504 31.0243 6.5161 30.7632 4.88038C30.6863 4.39495 30.6479 3.90151 30.6142 3.40968C30.4989 1.7323 30.6334 1.52243 32.349 1.25969C33.2572 1.12031 34.1879 1.1107 35.1106 1.08987C37.3787 1.04181 39.6469 1.02098 41.9151 0.993746C42.4085 0.987338 42.9019 0.98093 43.3936 1.00977C45.5785 1.13954 45.9261 1.55928 45.6954 3.75252C45.5032 5.5885 44.453 6.50809 42.5447 6.5113C41.0037 6.5129 39.4627 6.5113 37.9202 6.5113C37.9202 6.55776 37.9202 6.60261 37.9202 6.64907H37.9234Z" fill="white"/>
<path d="M74.4147 154.545C74.269 156.592 73.7291 158.092 72.6912 159.378C71.9031 160.355 71.2719 160.378 70.3461 159.586C68.1484 157.71 67.5269 154.19 68.9236 151.808C69.5676 150.711 70.4518 150.408 71.6964 150.411C72.8625 150.414 73.2005 151.15 73.5289 151.927C73.9326 152.883 74.2017 153.897 74.4147 154.543V154.545Z" fill="white"/>
<path d="M12.8771 155.674C12.8579 157.853 12.1034 159.412 10.7098 160.687C10.1043 161.241 9.51483 161.225 8.88371 160.745C6.57387 158.99 6.08051 154.17 7.98668 151.933C8.60499 151.207 10.8091 151.243 11.5283 152.029C12.5375 153.133 12.9572 154.461 12.8755 155.672L12.8771 155.674Z" fill="white"/>
<path d="M29.4719 2.24909C29.6065 3.54838 29.7314 4.75794 29.8788 6.1934C28.6998 6.1934 27.6682 6.16296 26.6399 6.19981C23.7678 6.30074 22.9765 7.18188 23.0806 10.0961C23.0886 10.3332 23.0534 10.5719 23.0325 10.8795C22.1563 11.0893 21.4756 11.1374 21.0911 10.0993C20.8845 9.54014 20.4232 9.07874 20.0964 8.55967C19.2746 7.25077 19.6335 5.31707 20.8524 4.43432C22.5648 3.19272 27.0788 2.01199 29.4719 2.2507V2.24909Z" fill="white"/>
<path d="M46.5171 5.84639C46.634 4.42535 46.7381 3.16772 46.8503 1.79474C50.0635 1.75149 52.8988 2.49966 55.5226 3.95114C56.8553 4.68809 57.1597 6.68428 56.3411 8.05245C56.056 8.52827 55.6491 8.95442 55.4761 9.46548C55.1445 10.4363 54.5294 10.6334 53.5459 10.3963C53.5459 10.0102 53.5475 9.65453 53.5459 9.29727C53.5331 6.98066 52.6457 5.98738 50.3615 5.85921C49.1473 5.79192 47.9251 5.84639 46.5171 5.84639Z" fill="white"/>
<path d="M55.4055 11.5649C55.1524 20.2594 54.901 28.8962 54.6495 37.5362C54.414 37.6467 54.2554 37.7861 54.0984 37.7829C53.7428 37.7749 53.3888 37.698 52.9884 37.6419C52.9884 35.6409 52.9275 33.7377 52.9996 31.8408C53.2126 26.2175 53.4721 20.5958 53.7252 14.9741C53.7669 14.0481 53.8582 13.1237 53.9351 12.2009C53.9991 11.4127 54.4989 11.3535 55.4055 11.5649Z" fill="white"/>
<path d="M15.978 145.317C12.7776 147.486 9.68282 148.511 6.17161 147.284C3.89861 146.489 2.61875 144.412 2.9247 142.047C6.78351 144.695 11.3167 144.618 15.978 145.315V145.317Z" fill="white"/>
<path d="M64.7539 144.563C69.3832 143.692 73.8843 143.698 77.7239 140.824C77.8056 141.247 77.9578 141.577 77.9178 141.885C77.575 144.503 75.7425 146.23 73.0097 146.669C70.1056 147.135 67.5475 146.29 64.7555 144.563H64.7539Z" fill="white"/>
<path d="M73.04 160.703C75.5437 157.435 76.1444 154.059 73.7176 150.277C75.6478 150.208 76.3911 151.307 77.043 152.334C78.3629 154.415 78.5856 156.645 77.2625 158.806C76.3783 160.251 75.076 161.102 73.04 160.703Z" fill="white"/>
<path d="M6.8977 151.499C5.59702 155.525 4.63752 156.155 8.04782 161.711C6.12882 162.02 4.77367 161.384 3.78214 159.711C2.58237 157.685 2.80983 154.738 4.44049 152.784C5.02997 152.077 5.57619 150.991 6.8977 151.501V151.499Z" fill="white"/>
<path d="M65.9074 98.9492C67.6357 101.774 68.4062 104.721 67.3025 108.078C66.4231 107.695 66.279 107.024 66.146 106.38C65.635 103.92 65.406 101.448 65.9074 98.9492Z" fill="white"/>
<path d="M78.8726 84.6396C82.4799 87.7525 83.5899 90.3895 82.3037 92.7061C80.13 90.5433 79.7632 87.7172 78.8726 84.6396Z" fill="white"/>
<path d="M68.5105 147.605H74.8169C75.1998 148.418 74.8137 149.142 73.8943 149.252C72.3806 149.435 70.8284 149.451 69.305 149.357C68.3952 149.299 68.5073 148.424 68.5121 147.607L68.5105 147.605Z" fill="white"/>
<path d="M5.89941 148.644H12.177C12.4141 150.103 12.3244 150.287 10.9212 150.377C9.75662 150.451 8.58408 150.446 7.41795 150.403C6.39278 150.364 5.90903 149.775 5.89941 148.645V148.644Z" fill="white"/>
<path d="M69.0004 60.6258C71.3968 67.2808 71.9014 73.8333 71.4913 80.4931C71.3952 82.0584 69.9231 83.4506 67.9817 83.8046C66.8316 84.0145 65.651 84.1138 64.4801 84.1475C57.746 84.3429 51.0119 84.5688 44.2762 84.6618C33.954 84.8043 23.6302 84.8524 13.3064 84.9213C12.5087 84.9261 11.6982 84.8412 10.9149 84.689C8.37596 84.1923 7.40845 82.9523 7.14255 80.4355C6.60914 75.3986 6.95193 70.4001 8.03477 65.4977C9.56612 58.5671 13.9647 53.9916 20.7052 52.0114C24.2341 50.9749 27.9728 50.5968 31.6425 50.1114C39.2448 49.1053 46.8247 49.6276 54.3613 50.8259C56.1762 51.1143 57.9302 51.7791 59.7226 52.2309C60.2192 52.3559 60.8375 52.5321 61.2524 52.3495C62.5194 51.7936 63.6968 52.0579 64.8421 52.5497C68.0714 53.9387 70.1169 56.5421 71.7764 59.5092C71.9238 59.7719 72.0087 60.0939 72.0343 60.3951C72.1032 61.1994 71.5313 61.6672 70.732 61.4621C70.4389 61.3868 70.1714 61.209 69.8943 61.0728C69.6796 60.9686 69.4698 60.8597 69.002 60.6242L69.0004 60.6258ZM49.0593 83.4506C49.0625 83.5275 49.0641 83.606 49.0673 83.6829C54.6897 83.489 60.3137 83.2968 65.9361 83.0933C66.4888 83.0741 67.0494 83.0228 67.5892 82.9059C69.819 82.4236 70.575 81.4496 70.676 79.1955C70.8906 74.4021 70.4101 69.6743 69.2631 65.0299C68.8819 63.4887 68.3389 61.9251 67.5412 60.5633C64.6819 55.6834 60.3714 52.8285 54.7874 51.9073C48.3593 50.8467 41.8814 50.3036 35.3892 50.8259C30.9025 51.1864 26.3725 51.6846 22.0091 52.7324C14.8201 54.4594 10.3206 59.1343 8.87573 66.5038C8.00433 70.9544 7.76085 75.4466 7.99312 79.9837C8.14529 82.9571 9.83362 83.803 11.9785 83.8751C16.1208 84.0129 20.2679 84.1539 24.4087 84.085C32.6261 83.9488 40.8419 83.6701 49.0593 83.449V83.4506ZM70.3332 60.291C70.4357 60.1804 70.5398 60.0699 70.6423 59.9593C69.465 56.5149 65.6831 53.2659 62.3048 53.1345C65.14 55.6626 67.7366 57.9776 70.3332 60.2926V60.291Z" fill="#84521D"/>
<path d="M49.0592 83.4501C40.8418 83.6695 32.6277 83.9483 24.4087 84.0861C20.2663 84.155 16.1192 84.0124 11.9785 83.8762C9.83361 83.8057 8.14528 82.9582 7.99311 79.9848C7.76084 75.4477 8.00432 70.9555 8.87572 66.5049C10.3206 59.1338 14.8185 54.4589 22.0091 52.7335C26.3725 51.6857 30.9025 51.1875 35.3892 50.827C41.8814 50.3063 48.3592 50.8494 54.7874 51.9084C60.3714 52.8296 64.6835 55.6845 67.5412 60.5644C68.3389 61.9262 68.8819 63.4898 69.2631 65.031C70.4116 69.6754 70.8922 74.4031 70.6759 79.1965C70.575 81.4523 69.8174 82.4263 67.5892 82.907C67.0494 83.0239 66.4888 83.0736 65.9361 83.0944C60.3137 83.2979 54.6897 83.4885 49.0672 83.684C49.064 83.6071 49.0624 83.5286 49.0592 83.4517V83.4501ZM40.2972 67.9067C40.2972 67.9307 40.3004 67.9564 40.3004 67.9804C41.5995 67.9804 42.9002 68.0157 44.1977 67.9708C45.6153 67.9227 45.9565 67.5815 46.1135 66.247C46.2753 64.8676 45.9132 64.2075 44.7007 63.8038C44.2361 63.6484 43.7348 63.509 43.2542 63.5154C40.4798 63.5523 37.7071 63.634 34.9343 63.7077C34.6876 63.7141 34.4393 63.7429 34.1959 63.7894C32.5828 64.0954 32.0029 64.8275 32.1759 66.3255C32.3505 67.8394 32.8391 68.2528 34.5595 68.1935C36.4737 68.1278 38.3846 68.0044 40.2988 67.9067H40.2972Z" fill="white"/>
<path d="M70.3331 60.2909C67.7365 57.9759 65.1399 55.6609 62.3047 53.1328C65.6829 53.2642 69.4649 56.5132 70.6422 59.9577C70.5397 60.0682 70.4356 60.1787 70.3331 60.2893V60.2909Z" fill="white"/>
<path d="M40.2973 67.9071C38.3847 68.0049 36.4721 68.1282 34.5579 68.1939C32.8375 68.2516 32.349 67.8398 32.1744 66.3259C32.0014 64.8279 32.5828 64.0958 34.1943 63.7898C34.4362 63.7433 34.686 63.7145 34.9327 63.7081C37.7055 63.636 40.4783 63.5543 43.2526 63.5158C43.7348 63.5094 44.2345 63.6504 44.6991 63.8042C45.9101 64.2079 46.2737 64.868 46.1119 66.2474C45.9549 67.5819 45.6153 67.9231 44.1961 67.9712C42.8986 68.0161 41.5979 67.9808 40.2989 67.9808C40.2989 67.9568 40.2956 67.9312 40.2956 67.9071H40.2973ZM33.4654 67.05C37.0263 67.05 40.4719 67.0468 43.9174 67.0516C44.6462 67.0516 45.0659 66.7793 45.1204 65.9862C45.1732 65.2349 44.8561 64.7719 44.1577 64.6485C43.4945 64.5316 42.8089 64.4963 42.1346 64.4963C40.1611 64.4963 38.1892 64.5251 36.2174 64.554C35.724 64.5604 35.2243 64.5636 34.7405 64.6437C33.2059 64.9016 33.0458 65.2012 33.467 67.05H33.4654Z" fill="#84521D"/>
<path d="M33.4657 67.0498C33.046 65.201 33.2046 64.9014 34.7391 64.6435C35.2229 64.5618 35.7226 64.5602 36.216 64.5538C38.1879 64.5249 40.1613 64.4961 42.1332 64.4961C42.8091 64.4961 43.4931 64.5313 44.1563 64.6483C44.8547 64.7717 45.1718 65.2347 45.119 65.986C45.0645 66.7791 44.6432 67.0514 43.916 67.0514C40.4705 67.0466 37.0265 67.0498 33.4641 67.0498H33.4657Z" fill="white"/>
</g>
<defs>
<clipPath id="clip0_304_3310">
<rect width="84" height="163" fill="white"/>
</clipPath>
</defs>
</svg>
