<svg width="71" height="136" viewBox="0 0 71 136" fill="none" xmlns="http://www.w3.org/2000/svg">
<g clip-path="url(#clip0_403_5049)">
<path d="M20.6147 31.9109C20.1388 31.9681 19.7905 32.0106 19.4834 32.0479C19.0526 31.6902 17.8402 11.9926 18.1087 10.2853C18.8014 10.0846 19.1444 10.3439 19.1962 11.0725C19.268 12.095 19.3704 13.1162 19.4448 14.1387C19.8623 19.815 20.2757 25.4926 20.6852 31.1703C20.6998 31.3671 20.6493 31.5679 20.6147 31.9122V31.9109Z" fill="white"/>
<path d="M18.2151 32.8425C18.2151 31.57 18.2696 30.4504 18.2058 29.3375C17.9293 24.5215 17.5996 19.7094 17.3324 14.8934C17.2367 13.1635 17.3231 11.423 17.2047 9.6958C17.1662 9.13202 16.8165 8.54032 16.4762 8.05633C15.1534 6.17619 15.5815 4.04874 17.6488 3.00363C19.6762 1.97846 21.8406 1.34421 24.1299 1.21789C24.4875 1.19795 24.9023 1.27507 25.1908 1.12083C26.9789 0.159487 28.9066 0.553065 30.7851 0.471956C31.9112 0.422759 33.0385 0.410792 34.1646 0.353617C35.6549 0.277826 37.1386 0.172783 38.5425 0.869524C38.7964 0.995842 39.1328 1.00116 39.4292 0.994512C41.789 0.936007 44.0052 1.56493 46.1377 2.47575C47.8261 3.19643 48.4124 4.23489 48.2156 6.00998C48.1571 6.53653 47.8965 7.08568 47.5934 7.53244C47.1082 8.24647 46.9513 8.91396 47.0311 9.81812C47.1746 11.4443 47.0404 13.0957 46.9938 14.7365C46.8316 20.3823 46.6562 26.0267 46.4926 31.6711C46.4873 31.8639 46.5418 32.0593 46.5578 32.1803C48.9176 32.4303 51.2002 32.6284 53.4696 32.9249C55.618 33.2055 57.6906 33.7772 59.6104 34.8303C61.2363 35.7225 62.4674 36.9897 63.3076 38.6385C64.3964 40.7739 65.0173 43.0383 65.0678 45.4343C65.1475 49.1827 65.1741 52.931 65.2419 56.6806C65.3084 60.3252 65.4161 63.9698 65.4653 67.6144C65.4746 68.3324 65.6926 68.8696 66.1672 69.4001C67.0566 70.3934 67.954 71.3973 68.7038 72.4956C69.2423 73.284 69.6132 74.2095 69.9269 75.119C70.0825 75.5711 70.0107 76.1388 69.9176 76.6308C69.8046 77.2358 69.5932 77.8581 68.8541 77.9897C68.1401 78.1173 67.6456 77.6919 67.3358 77.1507C66.7814 76.1827 66.3188 75.1615 65.6607 73.8478C65.6607 74.4515 65.6567 74.7613 65.6607 75.0711C65.7245 78.8713 65.779 82.6714 65.8575 86.4703C66.013 93.9137 66.2031 101.357 66.3321 108.801C66.3733 111.199 66.6631 113.631 65.7617 115.962C65.6913 116.144 65.6939 116.364 65.7019 116.563C65.8216 119.584 65.5464 120.245 63.3634 122.16C63.3209 122.872 63.2783 123.58 63.2291 124.4C64.7208 125.488 65.6727 127.004 65.9452 128.94C66.259 131.173 65.109 133.46 63.1932 134.323C61.3466 135.156 59.1344 134.592 57.6162 132.903C55.8733 130.963 55.5356 128.21 56.7613 125.893C56.8797 125.669 57.0113 125.452 57.0272 125.424C56.7401 124.541 56.4476 123.839 56.2947 123.108C56.1644 122.485 55.864 122.13 55.2963 121.87C54.4601 121.487 53.6837 120.974 52.8448 120.599C52.4978 120.443 52.0511 120.439 51.6576 120.47C42.588 121.177 33.4959 120.982 24.413 121.146C21.7462 121.194 19.0766 121.083 16.4084 121.047C15.5948 121.036 14.7692 120.911 14.1204 121.642C13.8984 121.892 13.5089 122.024 13.1725 122.136C11.9707 122.535 11.3565 123.34 11.2475 124.608C11.2102 125.033 10.9443 125.439 10.7223 126.01C10.83 126.202 11.0374 126.545 11.2222 126.901C12.4918 129.338 11.8603 132.564 9.73454 134.327C8.28676 135.528 6.63824 135.965 4.85278 135.214C3.07663 134.467 2.21647 132.987 2.0011 131.132C1.74053 128.897 2.50364 127.195 4.52707 125.306C4.4699 124.61 4.41273 123.905 4.34626 123.078C4.07904 122.862 3.70812 122.596 3.37842 122.285C2.28295 121.247 1.57834 119.971 1.74186 118.461C1.84689 117.495 1.59429 116.665 1.3962 115.779C1.20875 114.936 1.03592 114.067 1.02528 113.21C0.884361 101.194 0.776675 89.1761 0.651706 77.1587C0.555985 67.9667 0.441652 58.7735 0.351249 49.5815C0.333966 47.7905 0.207668 45.9742 0.454947 44.2137C0.679625 42.6141 1.21008 41.0199 1.8429 39.5227C2.8586 37.116 4.85943 35.6747 7.23517 34.7559C10.4764 33.5007 13.8771 33.0419 17.3231 32.8478C17.573 32.8332 17.8229 32.8465 18.2204 32.8465L18.2151 32.8425ZM49.4374 35.0856C48.5294 36.4871 48.5307 36.4405 47.2305 35.8661C46.1603 35.3928 45.0542 34.9088 43.9148 34.7067C42.2051 34.4035 40.4529 34.2067 38.7193 34.2067C34.3574 34.2054 29.9928 34.2892 25.6335 34.4434C24.0022 34.5019 22.3471 34.7107 20.7664 35.1096C19.3492 35.4659 18.0197 36.1759 16.6211 36.7424C15.7561 36.1626 15.7423 35.1583 16.5799 33.7294C12.7524 34.103 9.0645 34.5431 5.73022 36.4525C4.25719 37.2955 3.17501 38.5042 2.46907 40.0426C1.58232 41.9759 1.01731 43.9757 1.07447 46.1364C1.16753 49.7305 1.22736 53.3245 1.26326 56.9199C1.41614 71.9677 1.55706 87.0167 1.69666 102.064C1.71394 103.854 1.69932 105.644 1.69932 107.588H6.605C6.63159 106.583 6.74327 105.567 6.67015 104.566C6.28062 99.235 6.02935 93.9017 6.33645 88.5618C6.4242 87.0314 6.52657 85.4584 6.94402 83.9971C8.36653 79.0135 11.286 75.4713 16.6371 74.3584C22.5345 73.1311 28.4945 72.5142 34.5089 72.4251C36.1973 72.3998 37.8884 72.6378 39.5795 72.699C43.1783 72.8293 46.7333 73.304 50.2656 73.9874C52.2837 74.3783 54.0399 75.2559 55.5396 76.676C57.6082 78.6333 59.1517 80.9282 59.6649 83.7405C60.0876 86.0541 60.3987 88.4129 60.4612 90.7597C60.5716 94.9149 60.4439 99.0754 60.4413 103.235C60.4413 104.398 60.5237 105.563 60.5755 106.91C62.2706 106.802 63.7769 106.708 65.4121 106.604C65.4121 106.015 65.4227 105.563 65.4108 105.112C65.3563 103.265 65.2778 101.418 65.2393 99.5701C65.0266 89.4048 64.8152 79.2396 64.6184 69.0743C64.4895 62.3995 64.3871 55.7246 64.2728 49.0497C64.2475 47.5605 64.3206 46.0606 64.173 44.5834C63.5788 38.6278 61.005 35.5896 56.1591 34.3955C54.4228 33.9674 52.636 33.732 50.8652 33.4541C50.0582 33.3278 49.234 33.3105 48.2648 33.2307C48.766 34.0232 49.1156 34.5764 49.44 35.0883L49.4374 35.0856ZM54.0227 81.1902C53.4749 81.2873 53.0296 81.3724 52.5829 81.4428C49.0891 81.9986 45.6139 82.7778 42.0988 83.0557C35.4489 83.5809 28.771 83.779 22.1104 83.1488C17.7791 82.7392 13.4238 82.3802 9.2679 80.7168C9.06316 81.0466 8.8571 81.3338 8.69624 81.6436C7.75631 83.4546 7.35349 85.4132 7.25245 87.4236C7.05037 91.4219 6.91876 95.4242 7.20858 99.4265C7.3269 101.063 7.46649 102.7 7.5436 104.338C7.59545 105.458 7.55291 106.58 7.55291 107.682C14.0752 109.327 54.3909 108.596 59.6237 106.861C59.6237 104.931 59.52 102.979 59.6436 101.042C59.9547 96.1608 59.7712 91.2969 59.3033 86.4397C59.0812 84.1354 58.5428 81.9122 57.0645 79.9257C56.4489 80.2182 55.9092 80.4735 55.509 80.6636C56.1352 82.4294 56.8238 84.037 57.2639 85.711C57.6441 87.155 57.6175 88.6802 57.0365 90.1029C56.6138 91.1387 55.6592 91.2278 55.0224 90.3183C54.7632 89.9473 54.5252 89.5059 54.4547 89.0684C54.2606 87.8571 54.1011 86.6338 54.0386 85.4092C53.9695 84.037 54.0227 82.6595 54.0227 81.1875V81.1902ZM1.88145 108.352C1.88145 109.913 1.88012 111.234 1.88145 112.554C1.8881 116.829 2.88785 118.104 7.34418 119.172C7.49308 119.208 7.64863 119.221 7.80018 119.249C12.0504 120.04 16.3539 120.311 20.66 120.354C25.119 120.398 29.5806 120.084 34.0396 120.141C41.9499 120.244 49.8389 120.065 57.6694 118.853C59.3272 118.596 60.9744 118.111 62.5511 117.528C64.0574 116.973 65.1422 115.893 65.3536 114.166C65.6208 111.974 65.5131 109.791 65.4134 107.513C64.7514 107.513 64.2448 107.47 63.7476 107.521C60.9957 107.806 58.253 108.208 55.4957 108.395C50.021 108.766 44.5423 109.132 39.0583 109.297C33.6248 109.46 28.1807 109.468 22.7446 109.37C17.8748 109.282 13.0103 108.967 8.14451 108.733C6.10114 108.634 4.0591 108.488 1.88278 108.355L1.88145 108.352ZM21.5773 31.6405C25.3211 31.3825 28.892 30.9836 32.4669 30.9318C36.0312 30.8799 39.6021 31.1764 43.2049 31.3214C43.2501 30.8121 43.2886 30.5116 43.3033 30.2111C43.4695 26.7779 43.7061 23.3461 43.7779 19.9116C43.8616 15.8774 44.3655 11.8472 43.9161 7.80236C43.7819 6.59104 43.5426 6.19215 42.269 6.00466C41.6189 5.90893 40.9329 5.85707 40.2867 5.95414C37.9083 6.31049 35.5339 6.63492 33.117 6.48866C32.4057 6.44611 31.6852 6.57642 30.9686 6.57775C29.0834 6.58041 27.2142 6.7998 25.3118 6.35835C24.1059 6.0778 22.7725 6.29852 21.5002 6.36899C20.7358 6.41021 20.2811 6.93409 20.2199 7.6787C20.1295 8.79296 20.0192 9.92051 20.0897 11.0321C20.4154 16.2537 20.7956 21.4726 21.1679 26.6928C21.2809 28.2711 21.4271 29.8481 21.576 31.6418L21.5773 31.6405ZM56.6031 79.1891C54.839 76.8395 52.7969 75.3743 50.0822 74.8198C45.8425 73.9542 41.5457 73.6643 37.2476 73.3279C32.552 72.9596 27.9122 73.5101 23.2804 74.0925C20.7411 74.4116 18.2231 74.9435 15.7171 75.482C13.1273 76.0391 11.3259 77.7038 9.66009 79.9882C10.9523 80.3818 11.9547 80.8259 12.9997 80.9814C16.9056 81.5598 20.8129 82.331 24.7428 82.4986C31.4046 82.7845 38.0971 82.9214 44.7271 81.8989C47.9178 81.4069 51.0832 80.7448 54.246 80.0959C55.0184 79.9377 55.739 79.5281 56.6031 79.1877V79.1891ZM31.7742 5.81585C31.7742 5.77729 31.7742 5.74006 31.7742 5.7015C33.0532 5.7015 34.3321 5.7015 35.6124 5.7015C37.1962 5.69973 38.0679 4.9365 38.2274 3.41183C38.4189 1.59153 38.1304 1.24316 36.317 1.13546C35.9088 1.11152 35.498 1.11684 35.0899 1.12216C33.2074 1.14476 31.3249 1.16205 29.4424 1.20194C28.6766 1.21789 27.9042 1.22587 27.1504 1.34288C25.7279 1.56095 25.6149 1.73513 25.7106 3.12728C25.7385 3.53549 25.7704 3.94502 25.8342 4.34791C26.0509 5.70549 26.1427 5.79591 27.4814 5.81186C28.9133 5.82915 30.3451 5.81585 31.7769 5.81585H31.7742ZM16.6823 35.8382C16.9428 35.7425 17.2287 35.688 17.4613 35.5457C19.2109 34.474 21.1506 34.0006 23.1554 33.8331C29.2908 33.3212 35.4382 33.2706 41.5856 33.5259C43.6476 33.6124 45.6524 34.0378 47.4844 35.071C47.725 35.2066 48.0135 35.2598 48.2794 35.3515C48.3472 35.2664 48.4164 35.1827 48.4842 35.0976C48.0574 34.6468 47.6665 34.1549 47.1972 33.752C45.7162 32.4795 43.8696 32.1537 42.0336 32.0912C37.4803 31.9357 32.9282 31.3759 28.3642 31.9423C25.6242 32.2814 22.8616 32.4782 20.1402 32.9276C18.5581 33.1895 17.3669 34.232 16.6823 35.8369V35.8382ZM62.0605 128.563C61.8837 128.027 61.6604 127.186 61.3254 126.392C61.0528 125.747 60.7723 125.137 59.8045 125.134C58.7715 125.13 58.0376 125.383 57.5032 126.294C56.3439 128.269 56.8597 131.192 58.6837 132.749C59.4522 133.405 59.9773 133.386 60.6301 132.576C61.4902 131.508 61.9382 130.264 62.0605 128.565V128.563ZM10.9869 129.501C11.0534 128.494 10.705 127.393 9.86882 126.477C9.27189 125.824 7.44389 125.795 6.92939 126.397C5.34734 128.253 5.75681 132.254 7.67389 133.71C8.19769 134.108 8.68693 134.121 9.18946 133.662C10.3461 132.604 10.9723 131.31 10.9882 129.502L10.9869 129.501ZM24.76 2.16461C22.7738 1.96649 19.0274 2.94645 17.6062 3.97693C16.5959 4.70958 16.2981 6.31447 16.9787 7.4008C17.2486 7.83161 17.6315 8.21456 17.8043 8.67861C18.1234 9.54155 18.6897 9.50034 19.4156 9.32615C19.4316 9.07086 19.4622 8.87274 19.4555 8.67595C19.3691 6.2573 20.0258 5.52599 22.4096 5.44222C23.2631 5.41164 24.1192 5.4369 25.0977 5.4369C24.9741 4.24553 24.8717 3.24163 24.76 2.16328V2.16461ZM38.9068 5.14969C40.0754 5.14969 41.0884 5.10316 42.0975 5.16033C43.9933 5.2667 44.7298 6.08976 44.7404 8.01378C44.7417 8.31029 44.7404 8.60548 44.7404 8.92592C45.5567 9.12271 46.0672 8.95916 46.3424 8.15339C46.4873 7.73056 46.825 7.37554 47.0603 6.98063C47.7397 5.84643 47.4871 4.18835 46.381 3.57671C44.2033 2.37204 41.8502 1.74976 39.1833 1.78699C39.0889 2.92651 39.0038 3.97029 38.9068 5.14969ZM46.2839 9.89657C45.5314 9.72106 45.1166 9.77026 45.0635 10.4244C45.001 11.1917 44.9239 11.9575 44.8893 12.7261C44.6793 17.3919 44.4639 22.0576 44.2871 26.7247C44.2272 28.299 44.2778 29.8787 44.2778 31.5394C44.6101 31.586 44.9039 31.6498 45.1991 31.6564C45.328 31.6591 45.461 31.5434 45.6564 31.4517C45.8651 24.2795 46.0739 17.1126 46.2839 9.89657ZM20.6148 31.9104C20.6494 31.566 20.6999 31.3652 20.6853 31.1684C20.2758 25.4908 19.8623 19.8145 19.4449 14.1369C19.3691 13.1143 19.2667 12.0932 19.1963 11.0707C19.1457 10.3407 18.8014 10.0827 18.1088 10.2835C17.8402 11.9921 19.0527 31.6883 19.4834 32.046C19.7905 32.0088 20.1389 31.9676 20.6148 31.9091V31.9104ZM13.5607 120.904C9.692 120.326 5.92964 120.39 2.72698 118.192C2.47439 120.153 3.53529 121.879 5.42179 122.539C8.33595 123.556 10.9045 122.706 13.5607 120.906V120.904ZM54.0426 120.279C56.3598 121.713 58.483 122.414 60.8933 122.027C63.1613 121.662 64.6822 120.228 64.9667 118.056C65 117.802 64.875 117.527 64.8059 117.176C61.6192 119.561 57.8834 119.556 54.0413 120.279H54.0426ZM60.9199 133.674C62.6096 134.006 63.6891 133.301 64.4243 132.1C65.5211 130.306 65.3377 128.456 64.2422 126.728C63.7011 125.876 63.0842 124.963 61.4822 125.021C63.4964 128.16 62.9978 130.963 60.9199 133.674ZM6.02403 126.036C4.92723 125.613 4.47389 126.514 3.98465 127.101C2.63259 128.723 2.44248 131.169 3.43824 132.85C4.26118 134.24 5.38589 134.766 6.97858 134.509C4.14817 129.898 4.94584 129.376 6.02403 126.034V126.036ZM54.9998 82.4215C54.5837 84.4944 54.7738 86.5461 55.1979 88.5884C55.3096 89.1229 55.4279 89.6814 56.1578 89.9978C57.0724 87.2122 56.4343 84.7656 54.9998 82.4215ZM65.7604 70.5449C66.4996 73.0992 66.8027 75.4434 68.6081 77.2398C69.6757 75.3184 68.7544 73.1285 65.7604 70.5449ZM57.1602 122.805C57.1562 123.483 57.0631 124.21 57.8183 124.256C59.0826 124.336 60.3708 124.322 61.6271 124.17C62.3916 124.078 62.7107 123.479 62.3929 122.803H57.1588L57.1602 122.805ZM5.19578 123.666C5.20376 124.604 5.60525 125.093 6.45611 125.125C7.42395 125.161 8.39711 125.165 9.36362 125.103C10.5282 125.029 10.6013 124.877 10.4059 123.665H5.19578V123.666Z" fill="#84521D"/>
<path d="M49.4374 35.086C49.113 34.5741 48.7633 34.021 48.2621 33.2285C49.23 33.3083 50.0542 33.3243 50.8625 33.4519C52.6334 33.7298 54.4188 33.9665 56.1564 34.3933C61.0023 35.5873 63.5761 38.6269 64.1704 44.5811C64.318 46.0584 64.2448 47.5582 64.2701 49.0475C64.3844 55.7223 64.4868 62.3972 64.6157 69.0721C64.8125 79.2373 65.0239 89.4026 65.2366 99.5678C65.2752 101.416 65.3536 103.263 65.4081 105.11C65.4214 105.561 65.4094 106.013 65.4094 106.602C63.7742 106.705 62.2679 106.8 60.5729 106.908C60.521 105.561 60.4373 104.396 60.4386 103.232C60.4426 99.0745 60.5689 94.9127 60.4585 90.7575C60.3961 88.4107 60.085 86.0505 59.6622 83.7382C59.1477 80.926 57.6042 78.631 55.5369 76.6738C54.0373 75.255 52.2811 74.3761 50.263 73.9852C46.7319 73.3017 43.177 72.8271 39.5768 72.6968C37.8857 72.6356 36.1947 72.3976 34.5063 72.4228C28.4931 72.5119 22.5332 73.1276 16.6344 74.3562C11.2847 75.4704 8.3652 79.0113 6.94135 83.9949C6.5239 85.4562 6.42286 87.0291 6.33379 88.5596C6.02669 93.9008 6.27795 99.2341 6.66748 104.563C6.7406 105.565 6.62893 106.58 6.60234 107.586H1.69798C1.69798 105.642 1.71261 103.852 1.69532 102.062C1.55573 87.0145 1.41481 71.9654 1.26192 56.9177C1.22603 53.3236 1.1662 49.7282 1.07314 46.1342C1.0173 43.9735 1.58099 41.9723 2.46774 40.0404C3.17368 38.5019 4.25585 37.2933 5.72889 36.4503C9.06316 34.5409 12.7511 34.0994 16.5786 33.7271C15.7401 35.1561 15.7539 36.1604 16.6198 36.7401C18.0184 36.1737 19.3478 35.4637 20.765 35.1073C22.3444 34.7098 24.0009 34.4997 25.6322 34.4412C29.9914 34.2869 34.356 34.2032 38.718 34.2045C40.4516 34.2045 42.2038 34.4013 43.9135 34.7044C45.0528 34.9065 46.1589 35.3905 47.2291 35.8639C48.5307 36.4383 48.528 36.4835 49.436 35.0834L49.4374 35.086ZM57.567 50.6151C57.9539 50.8093 58.1293 50.901 58.3075 50.9874C58.5375 51.0991 58.7595 51.2467 59.0028 51.3105C59.6662 51.4821 60.1421 51.0925 60.0836 50.425C60.0624 50.175 59.9919 49.9077 59.8696 49.6897C58.4936 47.2272 56.7959 45.0665 54.1144 43.9136C53.1652 43.5054 52.1867 43.2847 51.1351 43.7474C50.7908 43.899 50.2776 43.7528 49.8654 43.649C48.3778 43.2741 46.922 42.7223 45.4158 42.4829C39.1607 41.487 32.8697 41.0536 26.5601 41.8899C23.5143 42.2928 20.4114 42.6066 17.4826 43.4669C11.8883 45.1103 8.23757 48.9078 6.96661 54.6599C6.0679 58.7287 5.7834 62.8772 6.2261 67.0577C6.44679 69.1466 7.25111 70.1744 9.35697 70.5879C10.0071 70.7156 10.6798 70.786 11.3418 70.7807C19.9102 70.7235 28.4785 70.6837 37.0455 70.5653C42.6359 70.4882 48.2249 70.3007 53.8139 70.1385C54.7858 70.1106 55.7656 70.0281 56.7201 69.8539C58.3314 69.5601 59.5532 68.4046 59.633 67.1055C59.9733 61.5795 59.5545 56.1412 57.5657 50.6165L57.567 50.6151Z" fill="white"/>
<path d="M16.6821 35.8382C17.3668 34.2333 18.558 33.1895 20.14 32.9289C22.8614 32.4795 25.624 32.284 28.364 31.9437C32.9281 31.3786 37.4801 31.937 42.0335 32.0926C43.8695 32.1551 45.7161 32.4822 47.1971 33.7533C47.6651 34.1562 48.0573 34.6469 48.484 35.0989C48.4162 35.184 48.3471 35.2678 48.2793 35.3529C48.0134 35.2612 47.7249 35.208 47.4843 35.0723C45.6523 34.0392 43.6475 33.6124 41.5855 33.5273C35.4381 33.272 29.2907 33.3225 23.1552 33.8344C21.1504 34.002 19.2108 34.4753 17.4612 35.547C17.2285 35.6893 16.9427 35.7438 16.6821 35.8396V35.8382Z" fill="white"/>
<path d="M54.0224 81.1906C54.0224 82.6625 53.9692 84.04 54.0383 85.4122C54.0995 86.6368 54.2604 87.8601 54.4545 89.0714C54.5249 89.5089 54.7629 89.9503 55.0221 90.3213C55.6589 91.2308 56.6135 91.1404 57.0363 90.1059C57.6172 88.6832 57.6425 87.1581 57.2636 85.7141C56.8235 84.04 56.1349 82.4325 55.5087 80.6667C55.9102 80.4765 56.4486 80.2212 57.0642 79.9287C58.5425 81.9152 59.081 84.1384 59.303 86.4427C59.7709 91.2999 59.9544 96.1638 59.6433 101.045C59.5197 102.982 59.6234 104.934 59.6234 106.864C54.3906 108.599 14.0762 109.33 7.55261 107.685C7.55261 106.583 7.59516 105.459 7.54331 104.341C7.46753 102.702 7.32794 101.066 7.20828 99.4295C6.91713 95.4272 7.05008 91.4249 7.25216 87.4267C7.35319 85.4162 7.75602 83.4576 8.69594 81.6466C8.85681 81.3368 9.06287 81.0509 9.26761 80.7199C13.4248 82.3833 17.7801 82.7423 22.1101 83.1518C28.7707 83.7821 35.4486 83.5839 42.0985 83.0587C45.6136 82.7808 49.0901 82.0016 52.5826 81.4458C53.0306 81.3754 53.4746 81.289 54.0224 81.1932V81.1906Z" fill="white"/>
<path d="M1.88131 108.352C4.05763 108.485 6.09967 108.631 8.14305 108.73C13.0089 108.964 17.8747 109.279 22.7431 109.367C28.1793 109.465 33.622 109.457 39.0569 109.294C44.5409 109.129 50.0195 108.763 55.4942 108.392C58.2515 108.206 60.9942 107.804 63.7462 107.518C64.2434 107.467 64.7499 107.511 65.412 107.511C65.5117 109.787 65.6194 111.971 65.3521 114.163C65.1408 115.89 64.0559 116.971 62.5496 117.525C60.9716 118.108 59.3257 118.593 57.6679 118.85C49.8387 120.062 41.9484 120.239 34.0382 120.138C29.5805 120.081 25.1175 120.395 20.6585 120.351C16.3538 120.31 12.049 120.037 7.79872 119.246C7.64716 119.218 7.49294 119.205 7.34271 119.169C2.88638 118.101 1.88663 116.826 1.87999 112.551C1.87866 111.231 1.87999 109.909 1.87999 108.35L1.88131 108.352Z" fill="white"/>
<path d="M56.6032 79.1889C55.7391 79.5293 55.0185 79.9389 54.2461 80.0971C51.082 80.746 47.9179 81.4081 44.7272 81.9001C38.0972 82.9213 31.4047 82.7857 24.7428 82.4998C20.813 82.3309 16.9057 81.561 12.9997 80.9826C11.9548 80.8284 10.9524 80.3843 9.66016 79.9894C11.326 77.7037 13.1274 76.039 15.7172 75.4832C18.2232 74.9447 20.7412 74.4128 23.2804 74.0937C27.9122 73.5113 32.5534 72.9608 37.2477 73.3291C41.5458 73.6655 45.8426 73.9554 50.0822 74.821C52.7983 75.3755 54.839 76.8408 56.6032 79.1903V79.1889Z" fill="white"/>
<path d="M31.7739 5.81639C30.3421 5.81639 28.9103 5.82969 27.4785 5.8124C26.1397 5.79645 26.048 5.70603 25.8313 4.34845C25.7675 3.94556 25.7355 3.53603 25.7076 3.12782C25.6119 1.73567 25.7236 1.56149 27.1474 1.34342C27.9012 1.22774 28.6736 1.21976 29.4394 1.20248C31.3219 1.16259 33.2044 1.1453 35.0869 1.1227C35.4964 1.11738 35.9059 1.11206 36.314 1.136C38.1274 1.2437 38.4159 1.59207 38.2244 3.41237C38.0649 4.93616 37.1932 5.69938 35.6094 5.70204C34.3305 5.70337 33.0515 5.70204 31.7713 5.70204C31.7713 5.7406 31.7713 5.77783 31.7713 5.81639H31.7739Z" fill="white"/>
<path d="M62.0605 128.563C61.9395 130.263 61.4915 131.507 60.63 132.575C59.9759 133.386 59.4521 133.405 58.6837 132.748C56.8597 131.191 56.3438 128.27 57.5031 126.292C58.0376 125.381 58.7714 125.13 59.8044 125.133C60.7722 125.135 61.0528 125.746 61.3253 126.391C61.6603 127.184 61.8837 128.026 62.0605 128.562V128.563Z" fill="white"/>
<path d="M10.9868 129.5C10.9708 131.309 10.3447 132.602 9.18805 133.661C8.68551 134.121 8.19627 134.108 7.67247 133.709C5.75539 132.253 5.34592 128.252 6.92797 126.396C7.44114 125.793 9.27047 125.822 9.8674 126.475C10.705 127.391 11.0533 128.494 10.9855 129.499L10.9868 129.5Z" fill="white"/>
<path d="M24.7598 2.165C24.8715 3.24335 24.9752 4.24724 25.0975 5.43862C24.119 5.43862 23.2628 5.41335 22.4093 5.44394C20.0256 5.5277 19.3688 6.25902 19.4553 8.67766C19.4619 8.87445 19.4327 9.07257 19.4154 9.32787C18.6882 9.50205 18.1231 9.54194 17.8041 8.68032C17.6326 8.21627 17.2497 7.83333 16.9785 7.40252C16.2965 6.31619 16.5943 4.71129 17.606 3.97865C19.0272 2.94817 22.7736 1.96821 24.7598 2.16633V2.165Z" fill="white"/>
<path d="M38.9067 5.14934C39.0038 3.96993 39.0902 2.92615 39.1833 1.78663C41.8502 1.75073 44.2033 2.37168 46.3809 3.57635C47.487 4.18799 47.7396 5.84475 47.0603 6.98027C46.8236 7.37518 46.486 7.72887 46.3424 8.15303C46.0672 8.95881 45.5567 9.12235 44.7404 8.92556C44.7404 8.60512 44.7417 8.30993 44.7404 8.01342C44.7297 6.09073 43.9932 5.26634 42.0974 5.15997C41.0897 5.10413 40.0753 5.14934 38.9067 5.14934Z" fill="white"/>
<path d="M46.2839 9.89669C46.0738 17.1127 45.8651 24.2809 45.6564 31.4518C45.461 31.5435 45.3293 31.6592 45.1991 31.6565C44.9039 31.6499 44.6101 31.5861 44.2777 31.5395C44.2777 29.8788 44.2272 28.2992 44.287 26.7248C44.4639 22.0577 44.6792 17.392 44.8893 12.7262C44.9239 11.9577 44.9996 11.1904 45.0635 10.4246C45.1166 9.77037 45.5314 9.72117 46.2839 9.89669Z" fill="white"/>
<path d="M13.5609 120.904C10.9046 122.705 8.33611 123.556 5.42194 122.537C3.53545 121.878 2.47321 120.153 2.72714 118.19C5.92979 120.388 9.69215 120.325 13.5609 120.903V120.904Z" fill="white"/>
<path d="M54.0425 120.279C57.8846 119.556 61.6204 119.561 64.8071 117.176C64.8749 117.527 65.0012 117.801 64.9679 118.056C64.6834 120.229 63.1625 121.662 60.8945 122.026C58.4842 122.413 56.3611 121.713 54.0438 120.279H54.0425Z" fill="white"/>
<path d="M60.9199 133.675C62.9979 130.962 63.4964 128.16 61.4823 125.021C63.0843 124.964 63.7011 125.876 64.2422 126.728C65.3377 128.456 65.5225 130.307 64.4244 132.1C63.6905 133.3 62.6097 134.006 60.9199 133.675Z" fill="white"/>
<path d="M6.02416 126.036C4.94464 129.377 4.1483 129.9 6.97871 134.511C5.38602 134.767 4.2613 134.24 3.43837 132.851C2.44261 131.169 2.63139 128.724 3.98478 127.102C4.47402 126.516 4.92736 125.614 6.02416 126.037V126.036Z" fill="white"/>
<path d="M54.9999 82.4219C56.4344 84.7661 57.0738 87.2126 56.1579 89.9983C55.428 89.6805 55.3083 89.1234 55.198 88.5888C54.7739 86.5478 54.5838 84.4961 54.9999 82.4219Z" fill="white"/>
<path d="M65.7603 70.5449C68.7542 73.1284 69.6755 75.3171 68.6079 77.2397C66.8039 75.4447 66.4994 73.0992 65.7603 70.5449Z" fill="white"/>
<path d="M57.1601 122.805H62.3941C62.7119 123.479 62.3915 124.08 61.6283 124.172C60.372 124.323 59.0838 124.336 57.8195 124.258C57.0643 124.21 57.1574 123.484 57.1614 122.806L57.1601 122.805Z" fill="white"/>
<path d="M5.1958 123.666H10.4059C10.6027 124.877 10.5282 125.03 9.36364 125.105C8.39713 125.166 7.42397 125.162 6.45612 125.126C5.60527 125.094 5.20378 124.605 5.1958 123.667V123.666Z" fill="white"/>
<path d="M57.567 50.6146C59.5558 56.138 59.9746 61.5763 59.6343 67.1037C59.5545 68.4028 58.3327 69.5582 56.7214 69.8521C55.7669 70.0263 54.7871 70.1087 53.8152 70.1366C48.2262 70.2989 42.6372 70.4863 37.0468 70.5635C28.4798 70.6818 19.9115 70.7217 11.3432 70.7789C10.6811 70.7829 10.0084 70.7124 9.35828 70.5861C7.25109 70.1739 6.4481 69.1447 6.22741 67.0558C5.7847 62.8754 6.06921 58.7268 6.96792 54.6581C8.23888 48.906 11.8896 45.1085 17.4839 43.465C20.4127 42.6047 23.5156 42.2909 26.5614 41.8881C32.871 41.053 39.162 41.4865 45.4171 42.4811C46.9234 42.7204 48.3791 43.2722 49.8668 43.6472C50.2789 43.7509 50.7921 43.8972 51.1364 43.7456C52.188 43.2842 53.1651 43.5036 54.1157 43.9118C56.7959 45.0646 58.4936 47.2253 59.8709 49.6878C59.9932 49.9059 60.0637 50.1732 60.085 50.4231C60.1421 51.0906 59.6675 51.4789 59.0041 51.3087C58.7608 51.2462 58.5388 51.0986 58.3088 50.9856C58.1307 50.8992 57.9565 50.8087 57.5683 50.6133L57.567 50.6146ZM41.0166 69.5582C41.0192 69.6221 41.0206 69.6872 41.0232 69.751C45.6896 69.5902 50.3573 69.4306 55.0237 69.2617C55.4824 69.2458 55.9477 69.2032 56.3957 69.1062C58.2463 68.7059 58.8738 67.8975 58.9576 66.0267C59.1357 62.0483 58.7369 58.1245 57.785 54.2698C57.4686 52.9907 57.0179 51.693 56.3558 50.5627C53.9828 46.5126 50.4052 44.1432 45.7707 43.3786C40.4356 42.4984 35.0593 42.0476 29.671 42.4811C25.9472 42.7803 22.1875 43.1938 18.5661 44.0634C12.5995 45.4968 8.86505 49.3767 7.66588 55.4931C6.94266 59.1869 6.74058 62.9153 6.93335 66.6809C7.05965 69.1487 8.46089 69.8508 10.241 69.9106C13.679 70.025 17.121 70.142 20.5576 70.0848C27.3777 69.9718 34.1965 69.7404 41.0166 69.5569V69.5582ZM58.6731 50.3367C58.7582 50.245 58.8446 50.1532 58.9297 50.0615C57.9525 47.2027 54.8137 44.5062 52.0098 44.3971C54.363 46.4953 56.518 48.4167 58.6731 50.338V50.3367Z" fill="#84521D"/>
<path d="M41.0163 69.5583C34.1962 69.7404 27.3788 69.9718 20.5574 70.0861C17.1194 70.1433 13.6774 70.025 10.2408 69.9119C8.46065 69.8534 7.0594 69.15 6.93311 66.6822C6.74033 62.9166 6.94241 59.1883 7.66564 55.4945C8.8648 49.3767 12.5979 45.4968 18.5658 44.0647C22.1873 43.1951 25.947 42.7816 29.6708 42.4824C35.059 42.0503 40.4354 42.501 45.7705 43.3799C50.4049 44.1445 53.9838 46.514 56.3556 50.5641C57.0176 51.6943 57.4683 52.992 57.7847 54.2712C58.738 58.1259 59.1368 62.0497 58.9573 66.028C58.8736 67.9002 58.2447 68.7086 56.3955 69.1075C55.9474 69.2046 55.4821 69.2458 55.0235 69.2631C50.3571 69.4319 45.6894 69.5902 41.023 69.7524C41.0203 69.6886 41.019 69.6234 41.0163 69.5596V69.5583ZM33.7442 56.6579C33.7442 56.6779 33.7469 56.6991 33.7469 56.7191C34.8251 56.7191 35.9046 56.7483 36.9814 56.7111C38.158 56.6712 38.4412 56.388 38.5715 55.2804C38.7057 54.1356 38.4053 53.5877 37.3989 53.2527C37.0133 53.1237 36.5972 53.008 36.1984 53.0133C33.8958 53.0439 31.5945 53.1117 29.2932 53.1729C29.0885 53.1782 28.8824 53.2021 28.6803 53.2407C27.3416 53.4947 26.8603 54.1023 27.0039 55.3455C27.1488 56.6021 27.5543 56.9451 28.9821 56.8959C30.5708 56.8414 32.1568 56.739 33.7455 56.6579H33.7442Z" fill="white"/>
<path d="M58.673 50.3364C56.5179 48.4151 54.3629 46.4937 52.0098 44.3955C54.8136 44.5045 57.9524 47.2011 58.9296 50.0599C58.8445 50.1516 58.7581 50.2433 58.673 50.3351V50.3364Z" fill="white"/>
<path d="M33.7445 56.6584C32.1572 56.7395 30.5698 56.8419 28.9811 56.8964C27.5533 56.9443 27.1478 56.6026 27.0029 55.3461C26.8593 54.1028 27.3419 53.4952 28.6793 53.2412C28.8801 53.2027 29.0875 53.1787 29.2922 53.1734C31.5935 53.1136 33.8948 53.0458 36.1974 53.0138C36.5975 53.0085 37.0123 53.1255 37.3979 53.2532C38.4029 53.5883 38.7047 54.1361 38.5705 55.2809C38.4402 56.3885 38.1583 56.6717 36.9804 56.7116C35.9036 56.7489 34.8241 56.7196 33.7459 56.7196C33.7459 56.6997 33.7432 56.6784 33.7432 56.6584H33.7445ZM28.0744 55.9471C31.0298 55.9471 33.8895 55.9444 36.7491 55.9484C37.354 55.9484 37.7023 55.7224 37.7475 55.0642C37.7914 54.4406 37.5282 54.0563 36.9485 53.9539C36.3981 53.8569 35.8291 53.8276 35.2694 53.8276C33.6315 53.8276 31.995 53.8515 30.3584 53.8755C29.9489 53.8808 29.5342 53.8834 29.1327 53.9499C27.859 54.164 27.7261 54.4126 28.0757 55.9471H28.0744Z" fill="#84521D"/>
<path d="M28.0742 55.9466C27.7259 54.4122 27.8575 54.1636 29.1311 53.9495C29.5326 53.8817 29.9474 53.8803 30.3569 53.875C31.9935 53.8511 33.6314 53.8271 35.2679 53.8271C35.8289 53.8271 36.3966 53.8564 36.947 53.9535C37.5267 54.0559 37.7899 54.4401 37.746 55.0637C37.7008 55.7219 37.3512 55.948 36.7476 55.948C33.8879 55.944 31.0296 55.9466 28.0729 55.9466H28.0742Z" fill="white"/>
</g>
<g clip-path="url(#clip1_403_5049)">
<path d="M68.6956 71.9538C67.942 70.846 67.0414 69.8349 66.1461 68.8318C65.971 68.6347 65.8307 68.4375 65.7225 68.2297C65.343 68.1425 64.9608 68.0607 64.576 67.9883C64.5787 68.1599 64.5827 68.3316 64.5854 68.5032C64.7831 78.7555 64.9956 89.0078 65.2094 99.2601C65.2481 101.124 65.327 102.987 65.3818 104.85C65.3951 105.304 65.3831 105.76 65.3831 106.354C63.7395 106.459 62.2256 106.554 60.5219 106.663C60.4698 105.304 60.3856 104.129 60.3869 102.956C60.3909 98.7626 60.5179 94.5651 60.407 90.3743C60.3442 88.0074 60.0315 85.627 59.6066 83.295C59.0894 80.4587 57.5381 78.144 55.4602 76.17C53.953 74.7391 52.1878 73.8527 50.1594 73.4584C47.3854 72.9193 44.598 72.5116 41.7852 72.2944C41.2761 72.5398 40.7683 72.7906 40.2632 73.0454C43.5183 73.3122 46.764 73.6408 49.9777 74.2992C52.7076 74.8585 54.7587 76.3363 56.5319 78.7059C55.6633 79.0492 54.9391 79.4623 54.1627 79.6218C50.9825 80.2763 47.8023 80.9441 44.5953 81.4403C37.9315 82.4702 31.2049 82.3334 24.5091 82.0451C22.2762 81.9486 20.0487 81.6589 17.8266 81.3183C16.2485 81.3102 14.6717 81.1775 13.1016 80.9361C11.4126 80.6773 9.75304 80.2991 8.11481 79.8418C7.49614 80.9616 7.00307 82.2047 6.61823 83.5538C6.19866 85.0276 6.0971 86.6141 6.00758 88.1576C5.69891 93.5446 5.95145 98.9235 6.34297 104.298C6.41646 105.308 6.30422 106.333 6.27749 107.347H1.34947C1.34947 105.386 1.36417 103.581 1.34679 101.776C1.27197 93.668 1.1958 85.56 1.1183 77.452C0.844371 77.3461 0.570443 77.2388 0.297852 77.1315C0.420785 89.091 0.527684 101.052 0.667988 113.011C0.678678 113.878 0.852388 114.752 1.0408 115.602C1.2399 116.497 1.49244 117.333 1.38822 118.307C1.22386 119.83 1.93206 121.119 3.03312 122.164C3.36317 122.478 3.73732 122.744 4.0059 122.964C4.07405 123.799 4.1315 124.509 4.18763 125.211C2.15388 127.116 1.38822 128.833 1.64878 131.087C1.86525 132.958 2.73113 134.45 4.515 135.204C6.30956 135.962 7.96649 135.522 9.42165 134.31C11.5583 132.531 12.193 129.278 10.9169 126.82C10.7312 126.462 10.5227 126.115 10.4145 125.921C10.6376 125.345 10.9062 124.936 10.9423 124.507C11.0532 123.229 11.6705 122.416 12.8771 122.014C13.2166 121.901 13.6067 121.768 13.8299 121.516C14.482 120.777 15.3104 120.903 16.1295 120.915C18.8114 120.952 21.4945 121.066 24.175 121.016C33.3041 120.85 42.4426 121.047 51.5584 120.333C51.9539 120.302 52.4029 120.306 52.7517 120.463C53.5948 120.842 54.3752 121.359 55.2157 121.745C55.7876 122.008 56.0883 122.366 56.2192 122.994C56.3729 123.732 56.6682 124.44 56.9555 125.33C56.9394 125.358 56.8085 125.577 56.6882 125.803C55.4576 128.14 55.7956 130.917 57.5474 132.873C59.0734 134.577 61.2956 135.145 63.1529 134.306C65.0784 133.435 66.2343 131.127 65.9189 128.876C65.645 126.923 64.6882 125.394 63.189 124.297C63.2384 123.47 63.2812 122.757 63.324 122.038C65.5181 120.107 65.7946 119.44 65.6744 116.393C65.6664 116.191 65.6637 115.97 65.7345 115.787C66.6405 113.435 66.3492 110.982 66.3078 108.564C66.1781 101.057 65.9871 93.5499 65.8307 86.0428C65.7519 82.2114 65.6971 78.3787 65.633 74.546C65.6276 74.2335 65.633 73.9211 65.633 73.3122C66.2944 74.6372 66.7594 75.6671 67.3166 76.6434C67.628 77.1892 68.125 77.6183 68.8426 77.4896C69.5855 77.3568 69.798 76.7292 69.9116 76.119C70.0038 75.6229 70.0773 75.0502 69.9209 74.5943C69.6056 73.677 69.2328 72.7436 68.6916 71.9484L68.6956 71.9538ZM54.9231 81.9687C56.3649 84.3329 57.0076 86.8005 56.0869 89.61C55.3533 89.2894 55.2331 88.7275 55.1222 88.1884C54.6959 86.1299 54.5048 84.0607 54.9231 81.9687ZM6.93091 87.0123C7.03247 84.9847 7.43734 83.0093 8.38206 81.1828C8.54375 80.8704 8.75086 80.582 8.95664 80.2481C13.135 81.9258 17.5125 82.2878 21.8647 82.7009C28.5592 83.3365 35.2711 83.1367 41.9549 82.607C45.4879 82.3267 48.9822 81.5409 52.4925 80.9803C52.9428 80.9079 53.3891 80.8221 53.9396 80.7255C53.9396 82.2101 53.8861 83.5994 53.9556 84.9833C54.0171 86.2184 54.1788 87.4522 54.3739 88.6739C54.4447 89.1151 54.6839 89.5603 54.9444 89.9345C55.5845 90.8518 56.5439 90.7606 56.9688 89.7172C57.5528 88.2823 57.5782 86.7441 57.1973 85.2878C56.755 83.5994 56.0629 81.9781 55.4335 80.1972C55.837 80.0054 56.3782 79.7479 56.9969 79.4529C58.4828 81.4564 59.024 83.6986 59.2471 86.0227C59.7175 90.9215 59.9019 95.827 59.5892 100.75C59.4649 102.704 59.5691 104.673 59.5691 106.618C54.3097 108.368 13.7898 109.106 7.2329 107.447C7.2329 106.335 7.27566 105.202 7.22355 104.074C7.14738 102.421 7.00708 100.771 6.88682 99.1206C6.59418 95.0841 6.7278 91.0476 6.93091 87.015V87.0123ZM3.0986 132.829C2.09776 131.133 2.2875 128.667 3.64779 127.03C4.13952 126.439 4.59518 125.53 5.69757 125.956C4.61255 129.326 3.81214 129.853 6.65698 134.504C5.05618 134.763 3.92572 134.231 3.0986 132.83V132.829ZM4.8651 123.567H10.1018C10.2996 124.788 10.2247 124.942 9.05419 125.018C8.08275 125.079 7.10462 125.075 6.13184 125.039C5.27666 125.007 4.87311 124.513 4.8651 123.568V123.567ZM10.6857 129.45C10.6697 131.274 10.0403 132.578 8.8778 133.646C8.37271 134.11 7.88097 134.096 7.3545 133.694C5.42765 132.226 5.01609 128.19 6.60621 126.318C7.12199 125.711 8.96065 125.74 9.56062 126.399C10.4024 127.323 10.7525 128.435 10.6844 129.448L10.6857 129.45ZM5.09359 122.428C3.19748 121.763 2.12983 120.024 2.38505 118.044C5.60403 120.261 9.38557 120.197 13.274 120.78C10.6042 122.596 8.02261 123.454 5.09359 122.427V122.428ZM58.6258 132.725C56.7924 131.154 56.274 128.208 57.4392 126.214C57.9763 125.295 58.714 125.042 59.7522 125.044C60.725 125.047 61.0069 125.663 61.2809 126.313C61.6176 127.114 61.8421 127.963 62.0198 128.503C61.8982 130.217 61.4479 131.472 60.582 132.549C59.9246 133.367 59.3981 133.386 58.6258 132.723V132.725ZM57.0944 122.696H62.3552C62.6745 123.376 62.3525 123.982 61.5855 124.075C60.3228 124.228 59.028 124.242 57.7572 124.162C56.9982 124.114 57.0918 123.381 57.0958 122.698L57.0944 122.696ZM64.2126 126.654C65.3136 128.396 65.4993 130.262 64.3956 132.071C63.658 133.281 62.5717 133.993 60.8733 133.659C62.9618 130.924 63.4629 128.098 61.4385 124.932C63.0487 124.874 63.6687 125.794 64.2126 126.654ZM64.9421 117.907C64.6562 120.099 63.1275 121.544 60.8479 121.912C58.4253 122.302 56.2914 121.595 53.9623 120.15C57.824 119.42 61.5788 119.425 64.7818 117.02C64.8499 117.374 64.9769 117.65 64.9435 117.907H64.9421ZM65.3296 113.983C65.1172 115.725 64.0268 116.816 62.5129 117.375C60.9268 117.962 59.2725 118.452 57.6062 118.711C49.7371 119.934 41.8066 120.112 33.856 120.01C29.3756 119.952 24.8899 120.269 20.4082 120.225C16.0814 120.183 11.7547 119.908 7.48278 119.11C7.33045 119.082 7.17544 119.069 7.02445 119.032C2.5454 117.956 1.54055 116.67 1.53387 112.358C1.53253 111.026 1.53387 109.693 1.53387 108.12C3.72128 108.255 5.77373 108.402 7.82752 108.501C12.7181 108.737 17.6087 109.055 22.502 109.144C27.9659 109.243 33.4364 109.235 38.899 109.07C44.4109 108.904 49.9175 108.535 55.4201 108.161C58.1915 107.973 60.9481 107.568 63.7141 107.28C64.2139 107.227 64.723 107.272 65.3884 107.272C65.4886 109.567 65.5969 111.771 65.3283 113.981L65.3296 113.983ZM68.6007 76.7413C66.7875 74.9309 66.4815 72.5653 65.7385 69.9891C68.7477 72.5948 69.6737 74.8021 68.6007 76.7413Z" fill="#84521D"/>
<path d="M6.61956 83.5561C7.00306 82.207 7.49747 80.9639 8.11614 79.8441C5.747 79.1816 3.42196 78.3502 1.11963 77.457C1.19713 85.565 1.2733 93.6729 1.34812 101.781C1.3655 103.586 1.3508 105.391 1.3508 107.352H6.2815C6.30822 106.338 6.42046 105.313 6.34697 104.303C5.95545 98.9272 5.70291 93.5482 6.01158 88.1626C6.09977 86.6191 6.20266 85.0326 6.62224 83.5588L6.61956 83.5561Z" fill="#FFD500"/>
<path d="M65.2121 99.2612C64.9983 89.0089 64.7859 78.7566 64.5881 68.5043C64.5854 68.3326 64.5814 68.161 64.5787 67.9893C64.3756 67.9518 64.1725 67.9142 63.9681 67.8807C62.4194 67.6232 60.8507 67.5119 59.2819 67.5267C58.8129 68.3903 57.8401 69.0742 56.6549 69.2902C55.6955 69.4658 54.7107 69.549 53.7339 69.5771C51.7603 69.6348 49.788 69.6952 47.8144 69.7528C45.7632 70.481 43.7562 71.3473 41.7866 72.2954C44.5994 72.5113 47.3868 72.9204 50.1608 73.4595C52.1892 73.8537 53.9544 74.7388 55.4616 76.1711C57.5408 78.1451 59.0922 80.4597 59.608 83.296C60.0329 85.6294 60.3456 88.0085 60.4084 90.3754C60.5193 94.5662 60.391 98.7623 60.3883 102.957C60.3883 104.131 60.4712 105.305 60.5233 106.664C62.227 106.555 63.7409 106.46 65.3845 106.355C65.3845 105.761 65.3952 105.305 65.3832 104.851C65.3284 102.988 65.2495 101.125 65.2108 99.2612H65.2121Z" fill="#FFD500"/>
<path d="M53.9411 80.7258C53.9411 82.2103 53.8877 83.5996 53.9571 84.9836C54.0186 86.2187 54.1803 87.4525 54.3754 88.6742C54.4462 89.1154 54.6854 89.5606 54.9459 89.9347C55.586 90.852 56.5454 90.7608 56.9703 89.7175C57.5543 88.2826 57.5797 86.7444 57.1988 85.288C56.7565 83.5996 56.0644 81.9783 55.435 80.1974C55.8386 80.0056 56.3797 79.7482 56.9984 79.4531C58.4843 81.4566 59.0255 83.6989 59.2486 86.0229C59.719 90.9217 59.9034 95.8273 59.5907 100.75C59.4664 102.704 59.5707 104.673 59.5707 106.619C54.3112 108.369 13.7913 109.106 7.23443 107.447C7.23443 106.336 7.27719 105.203 7.22507 104.075C7.14891 102.421 7.0086 100.772 6.88834 99.1209C6.59571 95.0843 6.72933 91.0478 6.93244 87.0153C7.03399 84.9876 7.43887 83.0123 8.38359 81.1858C8.54527 80.8733 8.75239 80.585 8.95817 80.251C13.1366 81.9287 17.5141 82.2908 21.8662 82.7038C28.5607 83.3395 35.2726 83.1397 41.9564 82.6099C45.4894 82.3297 48.9837 81.5438 52.494 80.9833C52.9443 80.9122 53.3906 80.825 53.9411 80.7285V80.7258Z" fill="#FFD500"/>
<path d="M1.53416 108.121C3.72157 108.255 5.77402 108.403 7.82781 108.502C12.7184 108.738 17.609 109.056 22.5023 109.144C27.9662 109.244 33.4367 109.236 38.8992 109.071C44.4112 108.904 49.9178 108.536 55.4204 108.161C58.1918 107.974 60.9484 107.569 63.7144 107.28C64.2142 107.228 64.7233 107.272 65.3887 107.272C65.4889 109.568 65.5972 111.772 65.3286 113.982C65.1161 115.724 64.0258 116.814 62.5118 117.373C60.9257 117.96 59.2714 118.45 57.6052 118.709C49.7361 119.932 41.8055 120.11 33.855 120.008C29.3746 119.951 24.8888 120.267 20.4071 120.223C16.0804 120.181 11.7537 119.906 7.48173 119.108C7.3294 119.08 7.1744 119.067 7.0234 119.031C2.54435 117.954 1.5395 116.668 1.53282 112.356C1.53148 111.025 1.53282 109.692 1.53282 108.119L1.53416 108.121Z" fill="#FFD500"/>
<path d="M49.9806 74.3008C46.7669 73.6423 43.5212 73.3151 40.2661 73.0469C37.6672 74.3624 35.1297 75.8 32.6336 77.2336C29.5228 79.0199 26.1422 80.3556 22.5971 80.9456C21.0137 81.2098 19.4209 81.3278 17.8281 81.3198C20.0516 81.6591 22.2778 81.9501 24.5106 82.0466C31.2065 82.335 37.9331 82.4731 44.5969 81.4418C47.8038 80.9456 50.9854 80.2778 54.1643 79.6234C54.9407 79.4638 55.6649 79.0507 56.5334 78.7074C54.7603 76.3378 52.7078 74.86 49.9792 74.3008H49.9806Z" fill="#FFD500"/>
<path d="M62.02 128.504C61.8984 130.218 61.4481 131.473 60.5822 132.55C59.9248 133.368 59.3983 133.387 58.6259 132.724C56.7926 131.154 56.2742 128.207 57.4394 126.213C57.9765 125.295 58.7141 125.041 59.7524 125.044C60.7252 125.047 61.0071 125.662 61.281 126.313C61.6178 127.113 61.8423 127.962 62.02 128.503V128.504Z" fill="#FFD500"/>
<path d="M10.6858 129.45C10.6698 131.273 10.0404 132.578 8.87788 133.646C8.37278 134.11 7.88105 134.096 7.35458 133.694C5.42773 132.226 5.01617 128.19 6.60628 126.318C7.12207 125.711 8.96073 125.74 9.5607 126.399C10.4025 127.323 10.7526 128.434 10.6845 129.448L10.6858 129.45Z" fill="#FFD500"/>
<path d="M13.274 120.781C10.6042 122.597 8.02261 123.455 5.09359 122.428C3.19747 121.763 2.12982 120.023 2.38504 118.044C5.60403 120.261 9.38556 120.196 13.274 120.78V120.781Z" fill="#FFD500"/>
<path d="M53.9624 120.15C57.8241 119.42 61.5789 119.425 64.7819 117.02C64.85 117.374 64.977 117.65 64.9436 117.907C64.6576 120.099 63.129 121.544 60.8493 121.912C58.4268 122.302 56.2928 121.595 53.9637 120.15H53.9624Z" fill="#FFD500"/>
<path d="M60.8735 133.659C62.9621 130.923 63.4632 128.097 61.4388 124.931C63.0489 124.874 63.6689 125.794 64.2128 126.653C65.3138 128.395 65.4996 130.262 64.3958 132.071C63.6582 133.281 62.5719 133.993 60.8735 133.659Z" fill="#FFD500"/>
<path d="M5.69778 125.954C4.61276 129.325 3.81235 129.852 6.65719 134.502C5.05639 134.761 3.92593 134.229 3.0988 132.829C2.09797 131.132 2.28771 128.666 3.648 127.03C4.13973 126.439 4.59539 125.529 5.69778 125.956V125.954Z" fill="#FFD500"/>
<path d="M54.923 81.9688C56.3648 84.333 57.0075 86.8005 56.0868 89.61C55.3532 89.2895 55.233 88.7276 55.1221 88.1885C54.6958 86.13 54.5047 84.0608 54.923 81.9688Z" fill="#FFD500"/>
<path d="M65.7388 69.9893C68.748 72.5949 69.674 74.8023 68.601 76.7414C66.7877 74.931 66.4817 72.5654 65.7388 69.9893Z" fill="#FFD500"/>
<path d="M57.0946 122.696H62.3554C62.6748 123.376 62.3527 123.982 61.5857 124.075C60.323 124.228 59.0282 124.241 57.7574 124.162C56.9984 124.114 57.092 123.382 57.096 122.698L57.0946 122.696Z" fill="#FFD500"/>
<path d="M4.86523 123.566H10.1019C10.2997 124.788 10.2249 124.942 9.05432 125.017C8.08288 125.079 7.10476 125.075 6.13198 125.039C5.27679 125.007 4.87325 124.513 4.86523 123.568V123.566Z" fill="#FFD500"/>
<path d="M58.2706 67.5538C57.8697 68.0379 57.2497 68.3397 56.3277 68.5395C55.8774 68.6374 55.4097 68.6789 54.9487 68.6964C53.515 68.7487 52.0812 68.7983 50.6474 68.8492C49.6933 69.1188 48.7499 69.4219 47.8159 69.7545C49.7895 69.6968 51.7618 69.6364 53.7354 69.5788C54.7122 69.5506 55.697 69.4675 56.6564 69.2918C57.8417 69.0759 58.8145 68.392 59.2835 67.5283C58.9454 67.531 58.6087 67.5404 58.2706 67.5551V67.5538Z" fill="#84521D"/>
<path d="M53.7207 68.1056C52.6838 68.3108 51.6602 68.5602 50.646 68.8472C52.0798 68.7962 53.5136 68.7466 54.9473 68.6943C55.4083 68.6782 55.876 68.6353 56.3263 68.5374C57.2483 68.3376 57.8683 68.0359 58.2692 67.5518C56.7419 67.6202 55.2186 67.8079 53.7193 68.1043L53.7207 68.1056Z" fill="#FFD500"/>
</g>
<defs>
<clipPath id="clip0_403_5049">
<rect width="69.7166" height="135.283" fill="white" transform="translate(0.299316 0.297852)"/>
</clipPath>
<clipPath id="clip1_403_5049">
<rect width="69.7166" height="68.0567" fill="white" transform="translate(0.299316 67.5254)"/>
</clipPath>
</defs>
</svg>
