<svg width="150" height="120" viewBox="0 0 150 120" fill="none" xmlns="http://www.w3.org/2000/svg">
<path d="M97.033 64.3168L97.0395 64.3927L97.1144 64.4065C99.1643 64.7858 101.044 65.8076 102.491 67.3498C103.055 67.9532 103.544 68.6234 103.94 69.3463V69.3484L103.952 69.3708C104.736 70.8049 105.148 72.432 105.148 74.0737C105.148 79.4938 100.739 83.9047 95.3172 83.9047H30.9515C27.7871 83.9047 24.812 82.6736 22.5715 80.4352C20.3331 78.1947 19.1 75.2197 19.1 72.0553C19.1 70.4606 19.4134 68.9139 20.028 67.4564L20.028 67.4563C21.8822 63.0525 26.1717 60.2059 30.9515 60.2059H31.1818H31.2934L31.2812 60.095C31.2314 59.6421 31.2064 59.1893 31.2064 58.7387C31.2064 51.8697 36.794 46.2821 43.663 46.2821C45.5033 46.2821 47.3083 46.6892 48.9596 47.466L49.0542 47.5105L49.0945 47.4141C51.7675 41.0064 58.0021 36.7992 65.0512 36.7992C74.2338 36.7992 81.77 43.9918 82.3175 53.0412L82.3243 53.1533L82.4349 53.1336C83.1556 53.0048 83.8867 52.9404 84.6242 52.9404C91.1275 52.9404 96.4847 57.9526 97.033 64.3168ZM95.3172 81.59H95.4446L95.4423 81.5806C99.5284 81.5125 102.834 78.1673 102.834 74.0633C102.834 72.8072 102.52 71.5637 101.921 70.4684L101.921 70.4683C101.615 69.9103 101.24 69.3905 100.803 68.9237L100.73 68.992L100.803 68.9237C99.4999 67.5338 97.7364 66.6956 95.8414 66.564C95.2364 66.5216 94.7661 66.0167 94.7661 65.4095V65.3865C94.7661 59.7953 90.2175 55.2446 84.6242 55.2446C83.5711 55.2446 82.5307 55.4074 81.5325 55.7267L81.5321 55.7269C81.1758 55.8424 80.7848 55.7769 80.4864 55.5516L80.4861 55.5514C80.1855 55.326 80.0139 54.9694 80.0235 54.5955L80.0276 54.4354L80.0277 54.4344C80.0277 54.4344 80.0277 54.4344 80.0277 54.4344C80.0319 54.3219 80.0361 54.2074 80.0361 54.0904C80.0361 45.8274 73.3142 39.1055 65.0512 39.1055C58.5065 39.1055 52.7729 43.2918 50.7789 49.5204C50.669 49.8616 50.4088 50.1315 50.0732 50.2549C49.7382 50.3781 49.3645 50.3378 49.0618 50.1469L49.0617 50.1469C47.4419 49.1276 45.5747 48.5884 43.663 48.5884C38.0696 48.5884 33.5189 53.139 33.5189 58.7324C33.5189 59.517 33.6121 60.3099 33.7981 61.0879C33.8791 61.4333 33.7998 61.7955 33.5803 62.0727C33.3605 62.3504 33.0272 62.5122 32.6725 62.5122H30.9515C27.1026 62.5122 23.6513 64.8039 22.1575 68.3502C21.6623 69.5247 21.4126 70.769 21.4126 72.0511C21.4126 74.5986 22.4051 76.9942 24.2078 78.7969C26.0084 80.5975 28.404 81.59 30.9515 81.59H95.3172Z" fill="#5CAAFF" stroke="#7E5023" stroke-width="0.2"/>
<path d="M129.034 62.3499L129.17 62.4949C129.615 62.9946 129.999 63.5359 130.311 64.111L130.311 64.1113C130.994 65.3611 131.356 66.7831 131.356 68.2216C131.356 72.9612 127.5 76.8172 122.761 76.8172H110.707C110.365 76.8172 110.042 76.6669 109.822 76.4067L109.822 76.4064C109.6 76.1466 109.508 75.8019 109.566 75.4665C109.684 74.7802 109.743 74.0752 109.743 73.3745C109.743 71.3143 109.224 69.2731 108.242 67.4724L108.242 67.4723C107.742 66.5562 107.126 65.7034 106.41 64.9414C105.146 63.5926 103.64 62.5708 101.935 61.8975L101.935 61.8974C101.588 61.7608 101.328 61.4621 101.237 61.0996C99.6645 54.7545 94.0117 50.0922 87.4895 49.7591C86.9746 49.7321 86.5391 49.3696 86.4216 48.8687L86.4216 48.8687C86.0028 47.0862 85.3357 45.3669 84.4371 43.7632C84.2212 43.3757 84.2444 42.9017 84.4969 42.5373C87.3028 38.5064 91.9057 36.1 96.8101 36.1C104.703 36.1 111.195 42.2317 111.765 49.9835L111.773 50.0919L111.88 50.075C112.447 49.9857 113.017 49.9401 113.592 49.9401C119.21 49.9401 123.845 54.2326 124.384 59.7117L124.392 59.7853L124.464 59.8C126.207 60.1518 127.8 61.0334 129.034 62.3499ZM112.022 74.4016L112.015 74.5089H112.122H122.761C126.225 74.5089 129.044 71.6898 129.044 68.2258C129.044 67.1749 128.78 66.1367 128.282 65.2236L128.282 65.2236C128.029 64.7596 127.716 64.3277 127.346 63.9322L127.346 63.9321C126.259 62.7726 124.786 62.0725 123.201 61.9619C122.596 61.9195 122.126 61.4146 122.126 60.8075V60.7865C122.126 56.0809 118.3 52.2548 113.594 52.2548C112.71 52.2548 111.835 52.3925 110.994 52.6615C110.638 52.7752 110.249 52.7097 109.948 52.4841C109.647 52.2587 109.476 51.9024 109.485 51.5286C109.485 51.5285 109.485 51.5283 109.485 51.5282L109.49 51.4054L109.49 51.4042C109.49 51.3722 109.491 51.3395 109.492 51.3063C109.494 51.2383 109.496 51.1682 109.496 51.0985C109.496 44.1044 103.806 38.4147 96.8121 38.4147C92.9183 38.4147 89.2504 40.2086 86.8529 43.2476L86.8132 43.2979L86.8424 43.3551C87.5136 44.6662 88.0514 46.0377 88.4474 47.4529L88.4657 47.5182L88.5332 47.5254C95.461 48.2602 101.386 53.2193 103.32 59.9327L103.333 59.9775L103.375 59.9964C105.16 60.7908 106.746 61.9199 108.098 63.3612L108.098 63.3613C108.949 64.2659 109.681 65.2786 110.276 66.3684C111.442 68.506 112.058 70.9309 112.058 73.3766C112.058 73.718 112.047 74.061 112.022 74.4016Z" fill="#5CAAFF" stroke="#7E5023" stroke-width="0.2"/>
</svg>
