<svg width="113" height="69" viewBox="0 0 113 69" fill="none" xmlns="http://www.w3.org/2000/svg">
<ellipse cx="17.5496" cy="9.87616" rx="17.5496" ry="9.87616" transform="matrix(-1 0 0 1 112.584 26.7822)" fill="#CBCBCB"/>
<ellipse cx="18.7599" cy="12.915" rx="18.7599" ry="12.915" transform="matrix(-1 0 0 1 76.2739 11.5898)" fill="#CBCBCB"/>
<ellipse cx="25.4166" cy="11.3956" rx="25.4166" ry="11.3956" transform="matrix(-1 0 0 1 77.4854 26.7822)" fill="#CBCBCB"/>
<ellipse cx="15.129" cy="15.9538" rx="15.129" ry="15.9538" transform="matrix(-1 0 0 1 95.6382 17.6689)" fill="#CBCBCB"/>
<ellipse cx="10.6217" cy="23.2099" rx="10.6217" ry="5.97744" fill="#F7F7F7"/>
<ellipse cx="33.3283" cy="15.8586" rx="11.3542" ry="7.81665" fill="#F7F7F7"/>
<ellipse cx="36.6273" cy="24.1295" rx="15.3831" ry="6.89704" fill="#F7F7F7"/>
<ellipse cx="19.4125" cy="21.3697" rx="9.15663" ry="9.65586" fill="#F7F7F7"/>
<ellipse cx="17.5496" cy="9.87616" rx="17.5496" ry="9.87616" transform="matrix(-1 0 0 1 91.4526 39.1631)" fill="#E5E5E5"/>
<ellipse cx="18.7599" cy="12.915" rx="18.7599" ry="12.915" transform="matrix(-1 0 0 1 55.144 23.9717)" fill="#E5E5E5"/>
<ellipse cx="25.4166" cy="11.3956" rx="25.4166" ry="11.3956" transform="matrix(-1 0 0 1 56.355 39.1631)" fill="#E5E5E5"/>
<ellipse cx="15.129" cy="15.9538" rx="15.129" ry="15.9538" transform="matrix(-1 0 0 1 74.5049 30.0508)" fill="#E5E5E5"/>
</svg>
