<svg width="84" height="75" viewBox="0 0 84 75" fill="none" xmlns="http://www.w3.org/2000/svg">
<path d="M42.5992 7.61089C42.61 7.09558 42.2206 6.67059 41.7316 6.66166C41.2426 6.65274 40.8374 7.06324 40.8266 7.57855L40.7999 8.85137C40.789 9.36667 41.1784 9.79167 41.6674 9.8006C42.1564 9.80952 42.5616 9.39902 42.5724 8.88371L42.5992 7.61089Z" fill="#509DD7"/>
<path d="M38.1094 39.977L40.2936 36.8315L41.3841 41.8745L41.0727 61.3296L41.0712 61.3331L41.0552 61.3693C41.041 61.4007 41.0201 61.4462 40.9933 61.5022C40.9395 61.6143 40.8618 61.7684 40.7661 61.9364C40.5738 62.2742 40.3127 62.6615 40.0311 62.88C39.8906 62.9891 39.7502 63.0521 39.6145 63.0515C39.481 63.051 39.3423 62.9888 39.2036 62.8268C39.0639 62.6637 38.9264 62.4015 38.7991 62.0081C38.6721 61.6159 38.5562 61.0963 38.4577 60.4205L38.1094 39.977Z" fill="white" stroke="#35A8FF" stroke-width="0.1"/>
<path d="M40.8007 55.7961C40.1747 55.9042 39.4025 55.9026 38.596 55.5812C38.2633 55.4485 37.902 55.7188 37.9424 56.0667C38.2098 58.4127 38.6161 64.6923 35.5861 66.5028L35.3001 66.6259C34.4932 66.8576 31.1229 67.3995 30.5709 60.4572C30.5534 60.2352 30.4203 60.0445 30.235 59.9158C30.235 59.9158 30.2324 59.9142 30.2299 59.9126C30.1061 59.8255 29.9641 59.7655 29.8092 59.7673L28.0603 59.7788C27.3965 59.7832 26.8494 60.2964 26.8242 60.9371C26.807 61.403 26.8023 61.957 26.8452 62.4986C27.2529 67.6128 31.2861 71.1125 36.422 69.6459C37.7232 69.2734 39.0205 68.5493 40.1266 67.2651C41.0052 66.2433 41.4014 64.9629 41.7065 63.6854C41.9429 62.6972 42.0395 61.6484 42.1003 60.6771L42.2132 57.0077C42.2354 56.2621 41.5584 55.67 40.7999 55.8026L40.8007 55.7961Z" fill="#6EC8F1"/>
<path d="M6.14475 39.8087C17.8436 5.71909 41.9223 8.59797 41.9223 8.59797C64.2304 9.28284 72.1879 29.272 72.1879 29.272C77.1513 40.045 77.3298 41.3589 77.3298 41.3589C66.7955 37.7952 60.155 43.0749 60.155 43.0749C56.4127 45.9067 54.0696 49.7951 54.0696 49.7951C41.7067 39.569 24.1287 46.2302 24.1287 46.2302C22.5712 46.8117 21.4374 47.8095 21.4374 47.8095C15.0712 36.0319 6.14475 39.8087 6.14475 39.8087Z" fill="#6EC8F1"/>
<path d="M22.2813 39.0941C23.7101 35.4333 25.4598 31.9128 27.1226 28.3537C28.9667 24.4066 31.0261 20.5604 33.3541 16.8736C35.1798 13.9805 37.1797 11.2014 39.3521 8.56322C32.7938 8.9256 15.5446 12.5651 6.20082 39.7985C6.20082 39.7985 13.973 36.5118 20.185 45.6414C20.6898 43.3983 21.4599 41.1982 22.283 39.0917L22.2813 39.0941Z" fill="#509DD7"/>
<path d="M72.199 29.3478C72.199 29.3478 64.7745 10.7066 44.1729 8.81348C46.1292 12.4125 47.8425 16.1351 49.3479 19.9444C52.6996 28.4265 55.0787 37.2303 56.9201 46.1586C57.8228 45.1612 58.9163 44.0964 60.1662 43.1507C60.1662 43.1507 66.8066 37.8711 77.3409 41.4347C77.3409 41.4347 77.1624 40.1208 72.199 29.3478Z" fill="#509DD7"/>
</svg>
