<svg width="150" height="120" viewBox="0 0 150 120" fill="none" xmlns="http://www.w3.org/2000/svg">
<path d="M73.4023 83.0847C73.6597 83.1657 73.9214 83.2051 74.1787 83.2051C75.28 83.2051 76.3007 82.4962 76.6496 81.3848C76.8379 80.7856 77.4666 76.7476 78.1134 72.4076H78.0123M73.4023 83.0847L73.4325 82.9894C73.4324 82.9894 73.4324 82.9894 73.4323 82.9893M73.4023 83.0847L73.4323 82.9893M73.4023 83.0847L71.71 79.8271M73.4323 82.9893C73.68 83.0672 73.9316 83.1051 74.1787 83.1051C75.2374 83.1051 76.2187 82.4236 76.5542 81.3549L76.5542 81.3548C76.5993 81.2113 76.6736 80.8492 76.7706 80.3097C76.867 79.7733 76.9847 79.0687 77.1169 78.2456C77.3766 76.6283 77.6921 74.5556 78.0123 72.4076M73.4323 82.9893C72.1221 82.575 71.3923 81.1719 71.8054 79.8571L71.71 79.8271M78.0123 72.4076C78.0173 72.3743 78.0222 72.341 78.0272 72.3076H74.8439M78.0123 72.4076H74.9099M74.9099 72.4076C74.9186 72.3874 74.9272 72.3672 74.9359 72.347L74.8439 72.3076M74.9099 72.4076H74.8439V72.3076M74.9099 72.4076C74.1324 74.225 73.4032 75.9412 72.845 77.2759C72.2793 78.6284 71.892 79.5827 71.8054 79.8572L71.71 79.8271M74.8439 72.3076C73.2694 75.9875 71.8867 79.267 71.71 79.8271" fill="#5CAAFF" stroke="#7E5023" stroke-width="0.2"/>
<path d="M53.9308 100.417L53.8369 100.387C52.5008 99.9061 51.7671 98.4373 52.1976 97.0536C52.3099 96.6925 52.9011 95.243 53.7292 93.2625C54.5558 91.2856 55.6152 88.7871 56.6604 86.3343C57.7056 83.8815 58.7366 81.4746 59.5062 79.6808C59.891 78.7839 60.2105 78.0404 60.4338 77.521L60.4892 77.3921L60.4685 77.5393C60.3888 78.1042 60.2744 78.913 60.1356 79.8881C59.8582 81.8383 59.4835 84.4539 59.0946 87.1152C58.7056 89.7767 58.3024 92.4837 57.968 94.6169C57.8007 95.6836 57.6508 96.6064 57.5284 97.3081C57.4054 98.0134 57.3115 98.4876 57.2568 98.6634L57.2567 98.6635C56.9014 99.8096 55.8558 100.541 54.7283 100.541C54.4652 100.541 54.1971 100.501 53.9308 100.417Z" fill="#5CAAFF" stroke="#7E5023" stroke-width="0.2"/>
<path d="M104.249 89.6165C104.553 89.7019 104.863 89.7435 105.168 89.7435C106.472 89.7435 107.683 88.9952 108.094 87.8218C108.415 86.9099 109.816 78.4842 110.804 72.4076H110.703M104.249 89.6165L104.276 89.5202M104.249 89.6165C102.635 89.1615 101.736 87.6209 102.245 86.1773M104.249 89.6165L104.276 89.5202C104.276 89.5202 104.276 89.5202 104.276 89.5202M104.276 89.5202C104.572 89.6032 104.872 89.6435 105.168 89.6435C106.437 89.6435 107.605 88.9155 107.999 87.7888L107.999 87.7886C108.077 87.5684 108.224 86.8739 108.419 85.8478C108.612 84.8265 108.85 83.4868 109.109 81.9853C109.62 79.0204 110.212 75.4258 110.703 72.4076M104.276 89.5202C102.708 89.0782 101.853 87.5909 102.339 86.2107M110.703 72.4076C110.708 72.3742 110.714 72.3409 110.719 72.3076L108.814 72.3076M110.703 72.4076H108.877M108.877 72.4076C108.886 72.3888 108.895 72.37 108.904 72.3512L108.814 72.3076M108.877 72.4076H108.814V72.3076M108.877 72.4076C107.539 75.1735 105.988 78.392 104.73 81.0351C103.461 83.7003 102.494 85.7713 102.339 86.2107M108.814 72.3076C106.126 77.8647 102.56 85.2858 102.245 86.1773M102.245 86.1773L102.339 86.2106C102.339 86.2106 102.339 86.2106 102.339 86.2107M102.245 86.1773L102.339 86.2107" fill="#5CAAFF" stroke="#7E5023" stroke-width="0.2"/>
<path d="M35.2982 91.823C35.0157 91.823 34.7306 91.7831 34.445 91.7009C32.9444 91.2636 32.1242 89.7896 32.589 88.4174C32.6738 88.1686 33.0151 87.3852 33.5235 86.2564C34.0307 85.1304 34.7014 83.6671 35.4416 82.0639C36.9117 78.8799 38.6557 75.1451 39.9377 72.4076H40.96C40.5007 75.3502 39.8544 79.4569 39.2774 82.9712C38.9851 84.7515 38.7106 86.3794 38.4873 87.6267C38.3756 88.2504 38.2769 88.7785 38.1951 89.1828C38.1128 89.5896 38.0489 89.8646 38.0075 89.9868C37.6269 91.1008 36.508 91.823 35.2982 91.823Z" fill="#5CAAFF" stroke="#7E5023" stroke-width="0.2"/>
<path d="M82.2641 100.417L82.1702 100.387C80.8341 99.9061 80.1003 98.4372 80.5308 97.0536C80.6432 96.6925 81.2344 95.243 82.0625 93.2625C82.8891 91.2856 83.9485 88.7871 84.9937 86.3343C86.0389 83.8815 87.0698 81.4746 87.8395 79.6808C88.2243 78.7839 88.5438 78.0404 88.7671 77.521L88.8225 77.3921L88.8018 77.5393C88.722 78.1042 88.6076 78.913 88.4689 79.8881C88.1914 81.8383 87.8167 84.4539 87.4278 87.1152C87.0388 89.7767 86.6356 92.4837 86.3012 94.6169C86.1339 95.6835 85.9839 96.6063 85.8615 97.3081C85.7385 98.0134 85.6446 98.4876 85.5899 98.6634L85.5899 98.6635C85.2345 99.8096 84.189 100.541 83.0616 100.541C82.7984 100.541 82.5304 100.501 82.2641 100.417Z" fill="#5CAAFF" stroke="#7E5023" stroke-width="0.2"/>
<path d="M118.729 52.4764L118.801 52.4071L118.729 52.4764C119.345 53.1163 119.877 53.8294 120.307 54.5921V54.5964L120.32 54.6191C121.17 56.1396 121.618 57.8623 121.618 59.6047C121.618 65.3491 116.824 70.0282 110.927 70.0282H40.9866C37.545 70.0282 34.3098 68.7224 31.8761 66.3513C29.4403 63.9758 28.1 60.8198 28.1 57.4658C28.1 55.7799 28.4385 54.1404 29.1087 52.5932L29.1088 52.5931C31.1242 47.9226 35.7857 44.9034 40.9866 44.9034H41.2369H41.3488L41.3362 44.7922C41.282 44.3122 41.2549 43.8322 41.2549 43.3546C41.2549 36.0747 47.3279 30.1487 54.799 30.1487C56.7981 30.1487 58.761 30.5805 60.559 31.4043L60.6523 31.4471L60.6926 31.3527C63.5955 24.5611 70.3751 20.1 78.0397 20.1C88.0266 20.1 96.2149 27.7287 96.8099 37.3191L96.8168 37.4306L96.9269 37.4114C97.7084 37.2749 98.5057 37.2066 99.3077 37.2066C106.383 37.2066 112.204 42.5202 112.8 49.2652L112.807 49.3413L112.882 49.3548C115.114 49.7572 117.156 50.841 118.729 52.4764ZM40.9888 67.5613H110.679L110.677 67.5635H110.927C115.425 67.5635 119.088 63.9955 119.088 59.6025C119.088 58.272 118.747 56.955 118.099 55.7951C117.769 55.2039 117.359 54.6534 116.882 54.1572L116.81 54.2264L116.882 54.1571C115.468 52.6857 113.556 51.7986 111.498 51.6594C110.834 51.614 110.322 51.0744 110.322 50.4301V50.4057C110.322 44.4818 105.381 39.6646 99.31 39.6646C98.1647 39.6646 97.0354 39.8347 95.9539 40.1728C95.5653 40.2943 95.1364 40.2241 94.8095 39.9856L94.8093 39.9854C94.4804 39.7469 94.2918 39.3697 94.3023 38.9731C94.3023 38.973 94.3023 38.973 94.3023 38.9729L94.309 38.7718L94.3091 38.7705C94.3098 38.7351 94.3108 38.6991 94.3118 38.6626C94.3139 38.5875 94.316 38.5103 94.316 38.4334C94.316 29.6761 87.0133 22.5581 78.0419 22.5581C70.938 22.5581 64.7081 26.991 62.5442 33.5897C62.4244 33.9523 62.1405 34.2401 61.7729 34.372C61.4051 34.5018 60.9954 34.4604 60.6644 34.2568L60.6642 34.2567C58.9034 33.1776 56.8764 32.6068 54.8013 32.6068C48.7306 32.6068 43.7874 37.4239 43.7874 43.3501C43.7874 44.1815 43.8908 45.0214 44.0928 45.8454C44.181 46.2123 44.0949 46.5974 43.8552 46.8926C43.6151 47.1883 43.2502 47.3615 42.8613 47.3615H40.9888C36.8116 47.3615 33.064 49.7871 31.4438 53.5434C30.906 54.7873 30.6325 56.1054 30.6325 57.4614C30.6325 60.1601 31.7107 62.6974 33.6681 64.6063L33.6682 64.6064C35.6255 66.5107 38.2261 67.5613 40.9888 67.5613Z" fill="#5CAAFF" stroke="#7E5023" stroke-width="0.2"/>
</svg>
