<svg width="24" height="24" viewBox="0 0 24 24" fill="none" xmlns="http://www.w3.org/2000/svg">
<path d="M12.3573 16.8172C12.7109 17.2415 13.3415 17.2988 13.7657 16.9452C14.19 16.5917 14.2473 15.9611 13.8938 15.5368L12.3573 16.8172ZM9.81097 12.1995L9.04275 11.5593C8.73371 11.9302 8.73371 12.4688 9.04275 12.8397L9.81097 12.1995ZM13.8938 8.86218C14.2473 8.4379 14.19 7.80734 13.7657 7.45377C13.3415 7.10021 12.7109 7.15753 12.3573 7.58181L13.8938 8.86218ZM13.8938 15.5368L10.5792 11.5593L9.04275 12.8397L12.3573 16.8172L13.8938 15.5368ZM10.5792 12.8397L13.8938 8.86218L12.3573 7.58181L9.04275 11.5593L10.5792 12.8397ZM12 20C7.58172 20 4 16.4183 4 12L2 12C2 17.5228 6.47715 22 12 22L12 20ZM4 12C4 7.58172 7.58172 4 12 4L12 2C6.47715 2 2 6.47715 2 12L4 12ZM12 4C16.4183 4 20 7.58172 20 12L22 12C22 6.47715 17.5228 2 12 2L12 4ZM20 12C20 16.4183 16.4183 20 12 20L12 22C17.5228 22 22 17.5228 22 12L20 12Z" fill="#F9A195"/>
</svg>
