<svg width="150" height="120" viewBox="0 0 150 120" fill="none" xmlns="http://www.w3.org/2000/svg">
<path d="M111.362 67.3889H111.174H41.0233C38.2496 67.3889 35.6412 66.32 33.6804 64.3803C31.7172 62.4384 30.6362 59.8576 30.6362 57.1129C30.6362 55.7316 30.9081 54.3909 31.4474 53.1256C33.0744 49.305 36.8328 46.8368 41.0233 46.8368H42.8992C43.2888 46.8368 43.6548 46.6609 43.8959 46.3596C44.1366 46.0589 44.2233 45.6662 44.1346 45.2919C43.9319 44.4559 43.8306 43.6015 43.8306 42.7539C43.8306 36.727 48.7873 31.8255 54.8774 31.8255C56.9613 31.8255 58.9923 32.4064 60.7562 33.5043L60.7562 33.5043C61.0886 33.7116 61.4992 33.7555 61.8672 33.6216C62.2357 33.4875 62.5211 33.1944 62.6415 32.8246C64.8116 26.1124 71.0597 21.602 78.1857 21.602C87.1853 21.602 94.5085 28.8444 94.5085 37.7494C94.5085 37.8754 94.5038 37.9988 94.4993 38.12M111.362 67.3889L94.4993 38.12M111.362 67.3889L111.356 67.3801M111.362 67.3889L111.356 67.3801M94.4993 38.12C94.4993 38.1201 94.4993 38.1202 94.4993 38.1203L94.4993 38.12ZM94.4993 38.1211L94.3993 38.1174L94.3948 38.2912C94.3833 38.7291 94.5864 39.1467 94.9424 39.4108L94.4993 38.1211ZM94.4993 38.1211L94.4947 38.2938C94.4842 38.699 94.672 39.0857 95.002 39.3305L95.0022 39.3307C95.3299 39.5753 95.7596 39.6467 96.1514 39.5232M94.4993 38.1211L96.1514 39.5232M111.356 67.3801C115.782 67.2815 119.355 63.6897 119.355 59.2844C119.355 57.9313 119.01 56.5919 118.361 55.4123L118.361 55.4121C118.028 54.811 117.619 54.2512 117.144 53.7484L117.071 53.8172L117.143 53.7484C115.725 52.2515 113.805 51.3489 111.743 51.2072C111.078 51.1612 110.562 50.6125 110.562 49.9549V49.93C110.562 43.9054 105.608 39.0038 99.5178 39.0038C98.3711 39.0038 97.2383 39.1792 96.1514 39.5232M111.356 67.3801L96.1515 39.5231C96.1515 39.5232 96.1514 39.5232 96.1514 39.5232M113.053 48.7739L113.06 48.8499L113.135 48.8636C115.373 49.2729 117.424 50.3755 119.002 52.0394C119.618 52.6907 120.151 53.4166 120.583 54.1951V54.1973L120.596 54.2199C121.45 55.7671 121.9 57.5224 121.9 59.2934C121.9 65.1401 117.092 69.9 111.177 69.9H41.0257C37.5741 69.9 34.3293 68.5717 31.8859 66.1569C29.4447 63.7399 28.1 60.5284 28.1 57.1174C28.1 55.3994 28.4396 53.7288 29.1098 52.1566L29.1098 52.1565C31.1317 47.4061 35.8097 44.3348 41.0233 44.3348H41.2744H41.3861L41.3737 44.2237C41.3194 43.7352 41.2922 43.2468 41.2922 42.7607C41.2922 35.352 47.3851 29.3235 54.8774 29.3235C56.8847 29.3235 58.8533 29.7627 60.6543 30.6008L60.7484 30.6446L60.7887 30.549C63.703 23.6383 70.5011 19.1 78.188 19.1C88.2016 19.1 96.4182 26.8586 97.0151 36.6178L97.0219 36.7297L97.1323 36.7102C97.9183 36.5713 98.7158 36.5018 99.5201 36.5018C106.614 36.5018 112.455 41.9095 113.053 48.7739Z" fill="none" stroke="#7E5023" stroke-width="0.2"/>
<path d="M42.7894 79.1813V78.9657V77.0343C42.7894 76.5028 42.4216 76.1 42.001 76.1C41.5786 76.1 41.2125 76.5048 41.2125 77.0343V78.9657V79.1811L41.0479 79.042L39.3477 77.605C39.2081 77.4872 39.048 77.4318 38.8894 77.4318C38.6517 77.4318 38.4113 77.5601 38.255 77.8124L38.2548 77.8127C37.9904 78.2358 38.0746 78.8275 38.4311 79.1296C38.4312 79.1296 38.4312 79.1296 38.4312 79.1297L40.5539 80.9236L40.6443 81L40.5539 81.0764L38.4312 82.8703C38.4312 82.8704 38.4312 82.8704 38.4311 82.8704C38.0746 83.1725 37.9904 83.7642 38.2548 84.1873L42.7894 79.1813ZM42.7894 79.1813L42.954 79.042M42.7894 79.1813L42.954 79.042M42.954 79.042L44.6542 77.6027C44.6542 77.6027 44.6542 77.6027 44.6542 77.6027C44.7939 77.4848 44.954 77.4295 45.1106 77.4295C45.3387 77.4295 45.5716 77.5497 45.73 77.7869V77.7907L45.7452 77.815C46.0097 78.2381 45.9254 78.8298 45.5688 79.1319L43.4461 80.9259L43.3557 81.0023L43.4461 81.0787L45.5688 82.8726C45.9254 83.1747 46.0097 83.7665 45.7452 84.1896L45.745 84.1899C45.5887 84.4422 45.3483 84.5705 45.1106 84.5705C44.954 84.5705 44.794 84.5152 44.6543 84.3974C44.6543 84.3973 44.6542 84.3973 44.6542 84.3973L42.954 82.958L42.7894 82.8186V83.0343V84.9657C42.7894 85.4952 42.4233 85.9 42.001 85.9C41.5803 85.9 41.2125 85.4972 41.2125 84.9657V83.0343V82.8189M42.954 79.042L41.2125 82.8189M41.2125 82.8189L41.0479 82.9579M41.2125 82.8189L41.0479 82.9579M41.0479 82.9579L39.3482 84.3946C39.3481 84.3947 39.348 84.3947 39.348 84.3948L41.0479 82.9579Z" fill="#5CAAFF" stroke="#7E5023" stroke-width="0.2"/>
<path d="M64.0109 79.1541V78.9657V77.0343C64.0109 76.5242 63.5637 76.1 63 76.1C62.4341 76.1 61.9891 76.5262 61.9891 77.0343V78.9657V79.154L61.8331 79.0485L59.7074 77.6115L64.0109 79.1541ZM64.0109 79.1541L64.1669 79.0485M64.0109 79.1541L64.1669 79.0485M64.1669 79.0485L66.2926 77.6092C66.2927 77.6092 66.2927 77.6092 66.2927 77.6091C66.4718 77.4883 66.6806 77.4295 66.8879 77.4295C67.1904 77.4295 67.4888 77.5567 67.6875 77.7929V77.7965M64.1669 79.0485L67.6875 77.7965M58.2916 77.821L58.2913 77.8213C57.9672 78.236 58.0638 78.8178 58.5143 79.1231C58.5144 79.1231 58.5144 79.1232 58.5144 79.1232L61.1685 80.9172L61.2911 81L61.1685 81.0828L58.5144 82.8768C58.5144 82.8768 58.5144 82.8769 58.5143 82.8769C58.0638 83.1822 57.9672 83.764 58.2913 84.1787C58.4895 84.4316 58.7986 84.5682 59.1121 84.5682C59.3194 84.5682 59.5282 84.5094 59.7073 84.3885L58.2916 77.821ZM58.2916 77.821C58.4871 77.5686 58.7959 77.4318 59.1121 77.4318C59.3194 77.4318 59.5282 77.4906 59.7073 77.6114L58.2916 77.821ZM67.6875 77.7965L67.7087 77.8236M67.6875 77.7965L67.7087 77.8236M67.7087 77.8236C68.0327 78.2383 67.9362 78.8201 67.4857 79.1254L67.7087 77.8236ZM61.8331 82.9515L59.7074 84.3885L67.4857 82.8792C67.9362 83.1845 68.0327 83.7663 67.7087 84.181L67.7084 84.1813C67.5129 84.4337 67.2041 84.5705 66.8879 84.5705C66.6805 84.5705 66.4717 84.5117 66.2926 84.3908L64.1669 82.9515L64.0109 82.8458V83.0343V84.9657C64.0109 85.4738 63.5659 85.9 63 85.9C62.4363 85.9 61.9891 85.4758 61.9891 84.9657V83.0343V82.846L61.8331 82.9515ZM64.8315 81.0851L67.4856 82.8791V79.1254L64.8315 80.9194L64.7089 81.0023L64.8315 81.0851Z" fill="#5CAAFF" stroke="#7E5023" stroke-width="0.2"/>
<path d="M84.7895 80.1814V79.9657V78.0343C84.7895 77.5028 84.4216 77.1 84.001 77.1C83.5787 77.1 83.2125 77.5048 83.2125 78.0343V79.9657V80.1811L83.048 80.042L81.3478 78.605L84.7895 80.1814ZM84.7895 80.1814L84.9541 80.042M84.7895 80.1814L84.9541 80.042M84.9541 80.042L86.6542 78.6027C86.7939 78.4848 86.954 78.4295 87.1106 78.4295C87.3387 78.4295 87.5716 78.5497 87.73 78.7869V78.7907L87.7452 78.815C88.0097 79.2381 87.9254 79.8298 87.5688 80.1319L85.446 81.9259L85.3556 82.0023L85.446 82.0787L87.5688 83.8726C87.9254 84.1747 88.0097 84.7665 87.7452 85.1896L87.745 85.1899C87.5887 85.4422 87.3483 85.5705 87.1106 85.5705C86.954 85.5705 86.794 85.5152 86.6543 85.3974C86.6543 85.3973 86.6542 85.3973 86.6542 85.3973L84.9541 83.958L84.7895 83.8186V84.0343V85.9657C84.7895 86.4952 84.4233 86.9 84.001 86.9C83.5804 86.9 83.2125 86.4972 83.2125 85.9657V84.0343V83.8189M84.9541 80.042L83.2125 83.8189M80.255 78.8124L80.2548 78.8127C79.9904 79.2358 80.0746 79.8275 80.4311 80.1296C80.4312 80.1296 80.4312 80.1296 80.4312 80.1297L82.554 81.9236L82.6444 82L82.554 82.0764L80.4312 83.8703C80.4312 83.8704 80.4312 83.8704 80.4312 83.8704C80.0746 84.1725 79.9904 84.7642 80.2548 85.1873L80.255 78.8124ZM80.255 78.8124C80.4113 78.5601 80.6517 78.4318 80.8894 78.4318C81.0481 78.4318 81.2082 78.4872 81.3478 78.605L80.255 78.8124ZM83.2125 83.8189L83.048 83.9579M83.2125 83.8189L83.048 83.9579M83.048 83.9579L81.3483 85.3946C81.3482 85.3947 81.3481 85.3947 81.348 85.3948L83.048 83.9579Z" fill="#5CAAFF" stroke="#7E5023" stroke-width="0.2"/>
<path d="M107.008 80.1542V79.9657V78.0343C107.008 77.5242 106.561 77.1 105.998 77.1C105.434 77.1 104.987 77.5263 104.987 78.0343V79.9657V80.154L104.831 80.0485L102.706 78.6115L107.008 80.1542ZM107.008 80.1542L107.164 80.0485M107.008 80.1542L107.164 80.0485M107.164 80.0485L109.288 78.6095C109.288 78.6094 109.288 78.6094 109.288 78.6093C109.47 78.4882 109.679 78.4295 109.886 78.4295C110.196 78.4295 110.503 78.5636 110.701 78.8121L110.703 78.8164M107.164 80.0485L110.703 78.8164M101.292 78.8209L101.291 78.8213C100.967 79.236 101.064 79.8178 101.514 80.1231C101.514 80.1231 101.514 80.1232 101.514 80.1232L104.167 81.9172L104.29 82L104.167 82.0828L101.514 83.8768L101.292 78.8209ZM101.292 78.8209C101.487 78.5685 101.796 78.4318 102.112 78.4318C102.319 78.4318 102.527 78.4906 102.706 78.6114L101.292 78.8209ZM104.99 83.846V84.0343V85.9657C104.99 86.4758 105.437 86.9 106 86.9C106.563 86.9 107.01 86.4737 107.01 85.9657V84.0343V83.8458L107.166 83.9515L109.291 85.3908L104.99 83.846ZM104.99 83.846L104.834 83.9515M104.99 83.846L104.834 83.9515M104.834 83.9515L102.709 85.3882C102.709 85.3883 102.709 85.3883 102.709 85.3884C102.527 85.5095 102.319 85.5682 102.112 85.5682C101.798 85.5682 101.489 85.4316 101.291 85.1786M104.834 83.9515L101.291 85.1786M110.708 85.1813L110.709 85.181C111.033 84.7663 110.936 84.1844 110.486 83.8791L107.833 82.0851L107.711 82.0023L107.833 81.9195L110.486 80.1255L110.708 85.1813ZM110.708 85.1813C110.513 85.4338 110.205 85.5705 109.889 85.5705C109.679 85.5705 109.47 85.5117 109.291 85.3909L110.708 85.1813ZM110.703 78.8164L110.709 78.8236M110.703 78.8164L110.709 78.8236M110.709 78.8236C111.033 79.2383 110.936 79.8201 110.486 80.1254L110.709 78.8236ZM101.291 85.1786C100.967 84.7639 101.064 84.1822 101.514 83.8769L101.291 85.1786Z" fill="#5CAAFF" stroke="#7E5023" stroke-width="0.2"/>
<path d="M39.0109 95.1541V94.9657V93.0343C39.0109 92.5242 38.5637 92.1 38 92.1C37.4341 92.1 36.9891 92.5262 36.9891 93.0343V94.9657V95.154L36.8331 95.0485L34.7074 93.6115L39.0109 95.1541ZM39.0109 95.1541L39.1669 95.0485M39.0109 95.1541L39.1669 95.0485M39.1669 95.0485L41.2926 93.6092L39.1669 95.0485ZM33.2916 93.821L33.2913 93.8213C32.9672 94.236 33.0638 94.8178 33.5143 95.1231C33.5144 95.1231 33.5144 95.1232 33.5144 95.1232L36.1685 96.9172L36.2911 97L36.1685 97.0828L33.5144 98.8768C33.5144 98.8768 33.5144 98.8769 33.5143 98.8769C33.0638 99.1822 32.9672 99.764 33.2913 100.179C33.4896 100.432 33.7985 100.568 34.112 100.568C34.3193 100.568 34.5282 100.509 34.7073 100.389L33.2916 93.821ZM33.2916 93.821C33.4871 93.5685 33.7958 93.4318 34.112 93.4318C34.3193 93.4318 34.5282 93.4906 34.7073 93.6114L33.2916 93.821ZM42.6875 93.7965V93.7929C42.4888 93.5567 42.1904 93.4295 41.8879 93.4295C41.6806 93.4295 41.4718 93.4883 41.2927 93.6091L42.6875 93.7965ZM42.6875 93.7965L42.7087 93.8236M42.6875 93.7965L42.7087 93.8236M42.7087 93.8236C43.0327 94.2383 42.9362 94.8201 42.4857 95.1254L42.7087 93.8236ZM36.8331 98.9515L34.7074 100.389L42.4857 98.8792C42.9362 99.1845 43.0327 99.7663 42.7087 100.181L42.7084 100.181C42.5129 100.434 42.2041 100.57 41.8879 100.57C41.6805 100.57 41.4717 100.512 41.2926 100.391L39.1669 98.9515L39.0109 98.8459V99.0343V100.966C39.0109 101.474 38.5659 101.9 38 101.9C37.4363 101.9 36.9891 101.476 36.9891 100.966V99.0343V98.846L36.8331 98.9515ZM39.8314 97.0851L42.4856 98.8791V95.1255L39.8314 96.9194L39.7088 97.0023L39.8314 97.0851Z" fill="#5CAAFF" stroke="#7E5023" stroke-width="0.2"/>
<path d="M56.7887 95.1813V94.9657V93.0343C56.7887 92.5028 56.4208 92.1 56 92.1C55.5775 92.1 55.2113 92.5048 55.2113 93.0343V94.9657V95.1811L55.0468 95.0421L53.3462 93.605C53.2064 93.4871 53.0463 93.4318 52.8897 93.4318C52.6519 93.4318 52.4114 93.5601 52.255 93.8124L52.2548 93.8127C51.9903 94.2358 52.0746 94.8275 52.4312 95.1296C52.4312 95.1296 52.4313 95.1296 52.4313 95.1296L54.5546 96.9236L54.645 97L54.5546 97.0764L52.4313 98.8704C52.4313 98.8704 52.4312 98.8704 52.4312 98.8704C52.0746 99.1725 51.9903 99.7642 52.2548 100.187L56.7887 95.1813ZM56.7887 95.1813L56.9533 95.042M56.7887 95.1813L56.9533 95.042M56.9533 95.042L58.6538 93.6027C58.7936 93.4848 58.9538 93.4295 59.1104 93.4295C59.3386 93.4295 59.5715 93.5497 59.73 93.7869V93.7907L59.7452 93.815C60.0097 94.2381 59.9254 94.8298 59.5687 95.1319L57.4455 96.9259L57.3551 97.0023L57.4455 97.0787L59.5687 98.8726C59.9254 99.1747 60.0097 99.7665 59.7452 100.19L59.745 100.19C59.5886 100.442 59.3482 100.57 59.1104 100.57C58.9538 100.57 58.7936 100.515 58.6538 100.397L56.9533 98.958L56.7887 98.8187V99.0343V100.966C56.7887 101.495 56.4225 101.9 56 101.9C55.5792 101.9 55.2113 101.497 55.2113 100.966V99.0343V98.8189M56.9533 95.042L55.2113 98.8189M55.2113 98.8189L55.0468 98.9579M55.2113 98.8189L55.0468 98.9579M55.0468 98.9579L53.3462 100.395L55.0468 98.9579Z" fill="#5CAAFF" stroke="#7E5023" stroke-width="0.2"/>
<path d="M77.0093 95.1542V94.9657V93.0343C77.0093 92.5242 76.5623 92.1 75.9987 92.1C75.433 92.1 74.9882 92.5262 74.9882 93.0343V94.9657V95.154L74.8322 95.0485L72.7069 93.6115L77.0093 95.1542ZM77.0093 95.1542L77.1654 95.0485M77.0093 95.1542L77.1654 95.0485M77.1654 95.0485L79.2901 93.6095C79.2902 93.6095 79.2903 93.6094 79.2904 93.6093C79.4721 93.4882 79.6811 93.4295 79.8882 93.4295C80.1906 93.4295 80.4889 93.5567 80.6875 93.7929V93.7965L80.7087 93.8236C81.0327 94.2383 80.9361 94.8202 80.4857 95.1255L77.8322 96.9194L77.7096 97.0023L77.8322 97.0851L80.4857 98.8791L77.1654 95.0485ZM71.2916 93.821L71.2913 93.8213C70.9673 94.236 71.0638 94.8178 71.5142 95.1231C71.5143 95.1231 71.5143 95.1232 71.5143 95.1232L74.1677 96.9172L74.2903 97L74.1677 97.0828L71.5143 98.8768C71.5143 98.8768 71.5143 98.8769 71.5142 98.8769C71.0638 99.1822 70.9673 99.764 71.2913 100.179C71.4895 100.432 71.7984 100.568 72.1118 100.568C72.3191 100.568 72.5278 100.509 72.7069 100.389L71.2916 93.821ZM71.2916 93.821C71.487 93.5685 71.7957 93.4318 72.1118 93.4318C72.3191 93.4318 72.5278 93.4906 72.7069 93.6114L71.2916 93.821ZM74.8322 98.9515L72.7069 100.389L80.4858 98.8792C80.9362 99.1845 81.0327 99.7663 80.7087 100.181L80.7084 100.181C80.513 100.434 80.2043 100.57 79.8882 100.57C79.6783 100.57 79.4695 100.512 79.2906 100.391L77.1654 98.9515L77.0093 98.8458V99.0343V100.966C77.0093 101.474 76.5644 101.9 75.9987 101.9C75.4352 101.9 74.9882 101.476 74.9882 100.966V99.0343V98.846L74.8322 98.9515Z" fill="#5CAAFF" stroke="#7E5023" stroke-width="0.2"/>
<path d="M96.7886 95.1813V94.9657V93.0343C96.7886 92.5028 96.4208 92.1 96 92.1C95.5776 92.1 95.2114 92.5048 95.2114 93.0343V94.9657V95.1811L95.0468 95.0421L93.3462 93.605L96.7886 95.1813ZM96.7886 95.1813L96.9532 95.042M96.7886 95.1813L96.9532 95.042M96.9532 95.042L98.6538 93.6027C98.6539 93.6027 98.6539 93.6027 98.6539 93.6027C98.7936 93.4848 98.9537 93.4295 99.1103 93.4295C99.3385 93.4295 99.5715 93.5497 99.73 93.7869V93.7907L99.7452 93.815C100.01 94.2381 99.9254 94.8298 99.5687 95.1319L97.4454 96.9259L97.355 97.0023L97.4454 97.0787L99.5687 98.8726C99.9254 99.1747 100.01 99.7665 99.7452 100.19L99.745 100.19C99.5886 100.442 99.3481 100.57 99.1103 100.57C98.9537 100.57 98.7936 100.515 98.6539 100.397C98.6539 100.397 98.6539 100.397 98.6538 100.397L96.9532 98.958L96.7886 98.8187V99.0343V100.966C96.7886 101.495 96.4225 101.9 96 101.9C95.5793 101.9 95.2114 101.497 95.2114 100.966V99.0343V98.8189M96.9532 95.042L95.2114 98.8189M92.255 93.8124L92.2548 93.8127C91.9903 94.2357 92.0746 94.8275 92.4312 95.1296C92.4312 95.1296 92.4313 95.1296 92.4313 95.1296L94.5546 96.9236L94.645 97L94.5546 97.0764L92.4313 98.8704C92.4313 98.8704 92.4312 98.8704 92.4312 98.8704C92.0746 99.1725 91.9903 99.7642 92.2548 100.187L92.255 93.8124ZM92.255 93.8124C92.4114 93.5601 92.6519 93.4318 92.8897 93.4318C93.0463 93.4318 93.2064 93.4871 93.3461 93.605L92.255 93.8124ZM95.2114 98.8189L95.0468 98.9579M95.2114 98.8189L95.0468 98.9579M95.0468 98.9579L93.3462 100.395L95.0468 98.9579Z" fill="#5CAAFF" stroke="#7E5023" stroke-width="0.2"/>
</svg>
