<svg width="113" height="69" viewBox="0 0 113 69" fill="none" xmlns="http://www.w3.org/2000/svg">
<circle cx="56.499" cy="34.501" r="18.2646" fill="#FF7E53"/>
<path d="M55.8777 1.21351C56.1379 0.706326 56.8629 0.706327 57.1232 1.21351L63.0072 12.6789C63.2463 13.1447 62.908 13.6985 62.3845 13.6985H50.6164C50.0928 13.6985 49.7546 13.1447 49.9936 12.6789L55.8777 1.21351Z" fill="#FF7E53"/>
<path d="M79.945 10.2173C80.4877 10.0427 81.0003 10.5554 80.8257 11.098L76.8791 23.3659C76.7188 23.8643 76.088 24.0168 75.7178 23.6465L67.3965 15.3253C67.0263 14.955 67.1787 14.3243 67.6771 14.1639L79.945 10.2173Z" fill="#FF7E53"/>
<path d="M33.0965 58.8266C32.5538 59.0012 32.0412 58.4886 32.2158 57.9459L36.1624 45.678C36.3227 45.1796 36.9535 45.0272 37.3237 45.3974L45.645 53.7187C46.0152 54.0889 45.8628 54.7197 45.3644 54.88L33.0965 58.8266Z" fill="#FF7E53"/>
<path d="M89.7865 33.8767C90.2937 34.137 90.2937 34.8619 89.7865 35.1222L78.3211 41.0063C77.8553 41.2453 77.3015 40.9071 77.3015 40.3835L77.3015 28.6154C77.3015 28.0918 77.8553 27.7536 78.3211 27.9927L89.7865 33.8767Z" fill="#FF7E53"/>
<path d="M80.8257 57.9465C81.0002 58.4891 80.4876 59.0018 79.9449 58.8272L67.6771 54.8806C67.1786 54.7202 67.0262 54.0895 67.3964 53.7193L75.7177 45.398C76.0879 45.0278 76.7187 45.1802 76.8791 45.6786L80.8257 57.9465Z" fill="#FF7E53"/>
<path d="M32.2168 11.0965C32.0422 10.5538 32.5549 10.0412 33.0976 10.2158L45.3654 14.1624C45.8639 14.3227 46.0163 14.9535 45.646 15.3237L37.3248 23.645C36.9545 24.0152 36.3238 23.8628 36.1634 23.3644L32.2168 11.0965Z" fill="#FF7E53"/>
<path d="M23.2135 33.8767C22.7063 34.137 22.7063 34.8619 23.2135 35.1222L34.6789 41.0063C35.1447 41.2453 35.6985 40.9071 35.6985 40.3835L35.6985 28.6154C35.6985 28.0918 35.1447 27.7536 34.6789 27.9927L23.2135 33.8767Z" fill="#FF7E53"/>
<path d="M55.8777 67.7865C56.1379 68.2937 56.8629 68.2937 57.1232 67.7865L63.0072 56.3211C63.2463 55.8553 62.908 55.3015 62.3845 55.3015H50.6164C50.0928 55.3015 49.7546 55.8553 49.9936 56.3211L55.8777 67.7865Z" fill="#FF7E53"/>
</svg>
