<svg width="150" height="120" viewBox="0 0 150 120" fill="none" xmlns="http://www.w3.org/2000/svg">
<path d="M101.852 80.233H101.917L101.943 80.1744C103.715 76.2821 104.613 72.1211 104.613 67.7936C104.613 51.2713 91.1701 37.8281 74.6478 37.8281C58.1256 37.8281 44.6823 51.2713 44.6823 67.7936C44.6823 72.1211 45.5803 76.2821 47.3522 80.1744L47.3789 80.233H47.4432H101.852ZM41.9875 67.7936C41.9875 49.7848 56.639 35.1332 74.6478 35.1332H74.6502C92.659 35.1332 107.311 49.7848 107.311 67.7936C107.311 72.8396 106.19 77.6782 103.98 82.1756C103.753 82.6359 103.283 82.9279 102.769 82.9279H46.5265C46.0121 82.9279 45.5427 82.6358 45.3159 82.1755C43.1081 77.6781 41.9875 72.8395 41.9875 67.7936Z" fill="#FFC87C" stroke="#7E5023" stroke-width="0.2"/>
<path d="M110.482 62.0672L110.482 62.0673C110.297 61.5337 110.465 60.9442 110.9 60.5851C111.338 60.2258 111.951 60.1787 112.439 60.4639C112.439 60.4639 112.439 60.4639 112.439 60.464L123.547 66.9893C123.963 67.2342 124.217 67.6812 124.212 68.1615C124.208 68.642 123.947 69.0845 123.53 69.3227C123.53 69.3227 123.529 69.3227 123.529 69.3228L112.324 75.6817C112.324 75.6817 112.324 75.6817 112.324 75.6817C112.117 75.7985 111.888 75.8569 111.659 75.8569C111.362 75.8569 111.066 75.7602 110.824 75.5675L110.824 75.5672C110.395 75.2282 110.213 74.6599 110.366 74.1345L110.366 74.1344C111.685 69.5868 111.726 65.6399 110.482 62.0672ZM114.023 64.5179L113.843 64.4121L113.874 64.6188C114.2 66.8216 114.15 69.1388 113.722 71.6023L113.686 71.8108L113.87 71.7064L120.022 68.2157L120.172 68.1302L120.023 68.0425L114.023 64.5179Z" fill="#FFC87C" stroke="#7E5023" stroke-width="0.2"/>
<path d="M38.2957 74.4581L38.2956 74.4581C38.0508 74.6535 37.7545 74.7523 37.4558 74.7523C37.2157 74.7523 36.9732 74.6873 36.7574 74.557C36.7574 74.5569 36.7573 74.5569 36.7573 74.5569L25.7549 67.8735L25.7524 67.8711L25.7424 67.865C25.3315 67.6158 25.0845 67.1644 25.0957 66.6839L25.0957 66.6839C25.107 66.201 25.3742 65.763 25.7965 65.5317L31.4463 62.4366L37.0961 59.3415C37.5767 59.0787 38.1697 59.1327 38.594 59.4784C39.0183 59.8242 39.1914 60.3947 39.032 60.918C37.6476 65.4438 37.5458 69.3906 38.7359 72.9803C38.9134 73.5171 38.7382 74.1054 38.2957 74.4581ZM35.641 63.3999L35.6803 63.192L35.4947 63.2937L29.29 66.6927L29.1381 66.7759L29.2861 66.8659L35.2327 70.4797L35.4112 70.5882L35.3838 70.3811C35.091 68.1735 35.1772 65.8587 35.641 63.3999Z" fill="#FFC87C" stroke="#7E5023" stroke-width="0.2"/>
<path d="M104.417 47.059L104.417 47.0589C102.154 42.931 99.4133 40.1141 96.0364 38.4587V38.456L95.9799 38.4287C95.4727 38.1841 95.1716 37.6452 95.2278 37.0837C95.2839 36.5225 95.6859 36.0552 96.2317 35.9137L108.706 32.6884L108.706 32.6883C109.173 32.567 109.667 32.7041 110.004 33.0475C110.341 33.3911 110.469 33.8874 110.341 34.3525C110.341 34.3525 110.341 34.3526 110.341 34.3526L106.896 46.769L106.896 46.7692C106.75 47.299 106.297 47.6853 105.753 47.7482L105.752 47.7484C105.702 47.7549 105.651 47.7572 105.598 47.7572C105.11 47.7572 104.655 47.4943 104.417 47.059ZM107.074 36.0487L107.109 35.922H106.978H106.976H106.963L106.951 35.9252L100.215 37.6669L100.013 37.7192L100.18 37.8439C101.966 39.1734 103.568 40.8492 105.005 42.8969L105.126 43.0701L105.183 42.8661L107.074 36.0487Z" fill="#FFC87C" stroke="#7E5023" stroke-width="0.2"/>
<path d="M68.3162 33.1191H68.2354C67.8825 33.0979 67.5455 32.9388 67.3034 32.6633C66.9304 32.2387 66.8609 31.628 67.1304 31.1318L67.1304 31.1318L73.2747 19.8056L73.2748 19.8054C73.5038 19.3812 73.9414 19.1139 74.4221 19.1004C74.9031 19.0892 75.3543 19.3319 75.6056 19.7425L75.6057 19.7426L82.3435 30.7263L82.3436 30.7264C82.631 31.1934 82.6063 31.7861 82.2807 32.2286C81.955 32.671 81.3959 32.8709 80.8636 32.7362C76.2772 31.572 72.3279 31.6643 68.8013 33.0293C68.6442 33.0898 68.4804 33.1191 68.3162 33.1191ZM74.6206 23.2856L74.4354 22.9835V23.3149L71.1304 29.408L71.0308 29.5917L71.2363 29.5541C73.4248 29.1534 75.7419 29.1242 78.2198 29.4679L78.4295 29.497L78.3188 29.3166L74.6206 23.2856Z" fill="#FFC87C" stroke="#7E5023" stroke-width="0.2"/>
<path d="M43.2661 45.4967L43.2661 45.4965L40.3206 32.9521C40.3205 32.9521 40.3205 32.9521 40.3205 32.952C40.2105 32.4826 40.3588 31.9907 40.7091 31.6606C41.0593 31.3306 41.56 31.2137 42.0204 31.353L42.0205 31.353L54.3574 35.0729C54.8829 35.2323 55.258 35.6927 55.3097 36.2385C55.359 36.7844 55.076 37.3052 54.5887 37.559C50.3895 39.7421 47.5037 42.4379 45.7768 45.8018C45.5432 46.2555 45.0784 46.5339 44.5776 46.5339C44.5222 46.5339 44.4663 46.5316 44.4139 46.525L44.4134 46.525C43.8544 46.4576 43.3941 46.0466 43.2661 45.4967ZM50.4422 36.8817L50.4007 36.8196L50.4179 36.7028L43.6439 34.6595L43.4781 34.6095L43.5177 34.7781L45.1074 41.5521L45.1552 41.7555L45.2837 41.5908C46.6514 39.8367 48.3633 38.2732 50.4422 36.8817Z" fill="#FFC87C" stroke="#7E5023" stroke-width="0.2"/>
<path d="M18.9299 87.8881H130.583C131.594 87.8881 132.413 88.707 132.413 89.718C132.413 90.7291 131.594 91.5479 130.583 91.5479H18.9299C17.9189 91.5479 17.1 90.7291 17.1 89.718C17.1 88.707 17.9189 87.8881 18.9299 87.8881Z" fill="#FFC87C" stroke="#7E5023" stroke-width="0.2"/>
<path d="M30.3935 97.8617H119.114C120.125 97.8617 120.944 98.6806 120.944 99.6916C120.944 100.703 120.125 101.522 119.114 101.522H30.3935C29.3825 101.522 28.5636 100.703 28.5636 99.6916C28.5636 98.6806 29.3825 97.8617 30.3935 97.8617Z" fill="#FFC87C" stroke="#7E5023" stroke-width="0.2"/>
</svg>
