<svg width="110" height="72" viewBox="0 0 110 72" fill="none" xmlns="http://www.w3.org/2000/svg">
<g filter="url(#filter0_d_502_3816)">
<ellipse cx="12.8294" cy="7.31775" rx="12.8294" ry="7.31775" transform="matrix(-1 0 0 1 82.2671 28.8857)" fill="#E6E6E6"/>
<ellipse cx="13.7142" cy="9.56937" rx="13.7142" ry="9.56937" transform="matrix(-1 0 0 1 55.7207 17.6289)" fill="#E6E6E6"/>
<ellipse cx="18.5805" cy="8.44356" rx="18.5805" ry="8.44356" transform="matrix(-1 0 0 1 56.6074 28.8857)" fill="#E6E6E6"/>
<ellipse cx="11.0598" cy="11.821" rx="11.0598" ry="11.821" transform="matrix(-1 0 0 1 69.877 22.1318)" fill="#E6E6E6"/>
<ellipse cx="12.7273" cy="26.2395" rx="7.76485" ry="4.42899" fill="white"/>
<ellipse cx="29.3248" cy="20.7918" rx="8.30036" ry="5.79175" fill="white"/>
<ellipse cx="31.7383" cy="26.9209" rx="11.2456" ry="5.11037" fill="white"/>
<ellipse cx="19.1533" cy="24.8791" rx="6.69384" ry="7.15452" fill="white"/>
<ellipse cx="12.8294" cy="7.31775" rx="12.8294" ry="7.31775" transform="matrix(-1 0 0 1 66.8179 38.0664)" fill="#F8F8F8"/>
<ellipse cx="13.7142" cy="9.56937" rx="13.7142" ry="9.56937" transform="matrix(-1 0 0 1 41.2764 26.8066)" fill="#F8F8F8"/>
<ellipse cx="18.5805" cy="8.44356" rx="18.5805" ry="8.44356" transform="matrix(-1 0 0 1 41.1611 38.0664)" fill="#F8F8F8"/>
<ellipse cx="11.0598" cy="11.821" rx="11.0598" ry="11.821" transform="matrix(-1 0 0 1 54.4297 31.3096)" fill="#F8F8F8"/>
<path d="M73.7199 7.00768C73.7293 6.54069 73.39 6.15554 72.9639 6.14745C72.5378 6.13937 72.1847 6.51138 72.1753 6.97837L72.152 8.13186C72.1426 8.59885 72.4819 8.98401 72.908 8.99209C73.3341 9.00018 73.6872 8.62816 73.6966 8.16117L73.7199 7.00768Z" fill="#509DD7"/>
<path d="M69.8136 36.3409L71.7072 33.5049L72.6545 38.0607L72.3832 55.6908L72.3821 55.6933L72.3682 55.726C72.3559 55.7544 72.3377 55.7956 72.3143 55.8463C72.2675 55.9479 72.1998 56.0874 72.1165 56.2396C71.9489 56.5457 71.7218 56.8957 71.4775 57.0929C71.3557 57.1913 71.235 57.2472 71.1193 57.2467C71.0059 57.2462 70.8866 57.1914 70.7662 57.0451C70.6449 56.8979 70.5253 56.6608 70.4144 56.3045C70.3038 55.9493 70.2029 55.4786 70.1171 54.8664L69.8136 36.3409Z" fill="white" stroke="#35A8FF" stroke-width="0.1"/>
<path d="M72.1522 50.6766C71.6067 50.7745 70.9338 50.7731 70.231 50.4818C69.9411 50.3616 69.6263 50.6065 69.6615 50.9219C69.8945 53.0479 70.2486 58.7387 67.6083 60.3795L67.359 60.4911C66.6559 60.701 63.719 61.1921 63.238 54.9007C63.2228 54.6995 63.1068 54.5267 62.9453 54.41C62.9453 54.41 62.9431 54.4086 62.9409 54.4072C62.833 54.3282 62.7093 54.2738 62.5743 54.2755L61.0503 54.2859C60.4719 54.2899 59.9952 54.7549 59.9732 55.3356C59.9582 55.7578 59.9541 56.2599 59.9915 56.7507C60.3467 61.3854 63.8613 64.557 68.3366 63.2279C69.4705 62.8903 70.6009 62.2341 71.5647 61.0703C72.3304 60.1443 72.6756 58.984 72.9414 57.8263C73.1475 56.9306 73.2316 55.9802 73.2846 55.0999L73.383 51.7746C73.4024 51.0989 72.8124 50.5623 72.1515 50.6825L72.1522 50.6766Z" fill="#6EC8F1"/>
<path d="M41.9541 36.1868C52.1484 5.29324 73.1302 7.90221 73.1302 7.90221C92.5692 8.52287 99.5033 26.6379 99.5033 26.6379C103.828 36.4008 103.984 37.5916 103.984 37.5916C94.8044 34.3621 89.018 39.1467 89.018 39.1467C85.757 41.713 83.7152 45.2369 83.7152 45.2369C72.9423 35.9695 57.6251 42.0062 57.6251 42.0062C56.2679 42.5332 55.2799 43.4374 55.2799 43.4374C49.7325 32.764 41.9541 36.1868 41.9541 36.1868Z" fill="#6EC8F1"/>
<path d="M56.0152 35.5401C57.2602 32.2226 58.7849 29.0321 60.2338 25.8068C61.8408 22.2297 63.6353 18.7441 65.6639 15.403C67.2548 12.7811 68.9975 10.2626 70.8905 7.87176C65.1757 8.20016 50.1449 11.4984 42.0028 36.1785C42.0028 36.1785 48.7755 33.2 54.1885 41.4737C54.6284 39.4408 55.2994 37.447 56.0166 35.538L56.0152 35.5401Z" fill="#509DD7"/>
<path d="M99.513 26.7078C99.513 26.7078 93.0433 9.81426 75.0913 8.09863C76.796 11.3603 78.289 14.7338 79.6007 18.186C82.5214 25.8728 84.5946 33.8512 86.1991 41.9424C86.9857 41.0385 87.9386 40.0736 89.0277 39.2165C89.0277 39.2165 94.8141 34.4319 103.994 37.6614C103.994 37.6614 103.838 36.4707 99.513 26.7078Z" fill="#509DD7"/>
</g>
<defs>
<filter id="filter0_d_502_3816" x="0" y="6.14746" width="107.994" height="65.3857" filterUnits="userSpaceOnUse" color-interpolation-filters="sRGB">
<feFlood flood-opacity="0" result="BackgroundImageFix"/>
<feColorMatrix in="SourceAlpha" type="matrix" values="0 0 0 0 0 0 0 0 0 0 0 0 0 0 0 0 0 0 127 0" result="hardAlpha"/>
<feOffset dy="4"/>
<feGaussianBlur stdDeviation="2"/>
<feComposite in2="hardAlpha" operator="out"/>
<feColorMatrix type="matrix" values="0 0 0 0 0 0 0 0 0 0 0 0 0 0 0 0 0 0 0.25 0"/>
<feBlend mode="normal" in2="BackgroundImageFix" result="effect1_dropShadow_502_3816"/>
<feBlend mode="normal" in="SourceGraphic" in2="effect1_dropShadow_502_3816" result="shape"/>
</filter>
</defs>
</svg>
