<svg width="51" height="25" viewBox="0 0 51 25" fill="none" xmlns="http://www.w3.org/2000/svg">
<ellipse cx="7.94987" cy="4.47385" rx="7.94987" ry="4.47385" transform="matrix(-1 0 0 1 51 8.48828)" fill="#CBCBCB"/>
<ellipse cx="8.49814" cy="5.85042" rx="8.49814" ry="5.85042" transform="matrix(-1 0 0 1 34.5518 1.60645)" fill="#CBCBCB"/>
<ellipse cx="11.5136" cy="5.16213" rx="11.5136" ry="5.16213" transform="matrix(-1 0 0 1 35.1006 8.48828)" fill="#CBCBCB"/>
<ellipse cx="6.85334" cy="7.22698" rx="6.85334" ry="7.22698" transform="matrix(-1 0 0 1 43.3237 4.36035)" fill="#CBCBCB"/>
<ellipse cx="4.81157" cy="6.87083" rx="4.81157" ry="2.70775" fill="#F7F7F7"/>
<ellipse cx="15.0975" cy="3.5409" rx="5.1434" ry="3.5409" fill="#F7F7F7"/>
<ellipse cx="16.592" cy="7.28741" rx="6.96848" ry="3.12432" fill="#F7F7F7"/>
<ellipse cx="8.7939" cy="6.03714" rx="4.14791" ry="4.37405" fill="#F7F7F7"/>
<ellipse cx="7.94987" cy="4.47385" rx="7.94987" ry="4.47385" transform="matrix(-1 0 0 1 41.4277 14.0977)" fill="#E5E5E5"/>
<ellipse cx="8.49814" cy="5.85042" rx="8.49814" ry="5.85042" transform="matrix(-1 0 0 1 24.98 7.21582)" fill="#E5E5E5"/>
<ellipse cx="11.5136" cy="5.16213" rx="11.5136" ry="5.16213" transform="matrix(-1 0 0 1 25.5283 14.0977)" fill="#E5E5E5"/>
<ellipse cx="6.85334" cy="7.22698" rx="6.85334" ry="7.22698" transform="matrix(-1 0 0 1 33.7505 9.96973)" fill="#E5E5E5"/>
</svg>
