<svg width="37" height="37" viewBox="0 0 37 37" fill="none" xmlns="http://www.w3.org/2000/svg">
<circle cx="18.4997" cy="18.5001" r="9.79409" fill="#FF7E53"/>
<path d="M17.8776 1.21351C18.1379 0.706327 18.8629 0.706327 19.1232 1.21351L21.7469 6.32595C21.9859 6.79178 21.6477 7.34556 21.1241 7.34556H15.8767C15.3531 7.34556 15.0148 6.79178 15.2539 6.32595L17.8776 1.21351Z" fill="#FF7E53"/>
<path d="M30.47 5.67246C31.0126 5.49787 31.5253 6.01051 31.3507 6.5532L29.5909 12.0235C29.4306 12.5219 28.7998 12.6743 28.4296 12.3041L24.7191 8.5936C24.3488 8.22337 24.5013 7.5926 24.9997 7.43226L30.47 5.67246Z" fill="#FF7E53"/>
<path d="M6.5525 31.351C6.00981 31.5256 5.49718 31.0129 5.67176 30.4702L7.43156 25C7.59191 24.5015 8.22267 24.3491 8.59291 24.7194L12.3034 28.4298C12.6736 28.8001 12.5212 29.4308 12.0228 29.5912L6.5525 31.351Z" fill="#FF7E53"/>
<path d="M35.7865 17.8766C36.2937 18.1369 36.2937 18.8619 35.7865 19.1222L30.674 21.7459C30.2082 21.985 29.6544 21.6467 29.6544 21.1231L29.6544 15.8757C29.6544 15.3521 30.2082 15.0139 30.674 15.2529L35.7865 17.8766Z" fill="#FF7E53"/>
<path d="M31.3505 30.4709C31.5251 31.0136 31.0124 31.5263 30.4698 31.3517L24.9995 29.5919C24.501 29.4315 24.3486 28.8008 24.7189 28.4305L28.4293 24.7201C28.7996 24.3498 29.4303 24.5022 29.5907 25.0007L31.3505 30.4709Z" fill="#FF7E53"/>
<path d="M5.67246 6.5525C5.49787 6.00981 6.01051 5.49718 6.5532 5.67176L12.0235 7.43156C12.5219 7.59191 12.6743 8.22267 12.3041 8.5929L8.5936 12.3034C8.22337 12.6736 7.5926 12.5212 7.43226 12.0228L5.67246 6.5525Z" fill="#FF7E53"/>
<path d="M1.21351 17.8766C0.706327 18.1369 0.706327 18.8619 1.21352 19.1222L6.32596 21.7459C6.79178 21.985 7.34556 21.6467 7.34556 21.1231L7.34556 15.8757C7.34556 15.3521 6.79178 15.0139 6.32595 15.2529L1.21351 17.8766Z" fill="#FF7E53"/>
<path d="M17.8776 35.7865C18.1379 36.2937 18.8629 36.2937 19.1232 35.7865L21.7469 30.674C21.9859 30.2082 21.6477 29.6544 21.1241 29.6544H15.8767C15.3531 29.6544 15.0148 30.2082 15.2539 30.674L17.8776 35.7865Z" fill="#FF7E53"/>
</svg>
